<?xml version="1.0" encoding="utf-8"?>
<!-- Generator: Adobe Illustrator 18.0.0, SVG Export Plug-In . SVG Version: 6.00 Build 0)  -->
<!DOCTYPE svg PUBLIC "-//W3C//DTD SVG 1.1//EN" "http://www.w3.org/Graphics/SVG/1.1/DTD/svg11.dtd">
<svg version="1.1" id="Layer_1" xmlns="http://www.w3.org/2000/svg" xmlns:xlink="http://www.w3.org/1999/xlink" x="0px" y="0px"
	 viewBox="0 0 48 48" enable-background="new 0 0 48 48" xml:space="preserve">
<g>
	<path fill="#4DA0D8" d="M0.5,12v35.5h47V12H0.5z M15.2,15.5h17.6v2.8H15.2V15.5z M19.2,41.4H5.5V24.7h13.7V41.4z M41.5,40.4H27.3
		c-0.6,0-1-0.5-1-1c0-0.6,0.5-1,1-1h14.2c0.6,0,1,0.5,1,1C42.5,39.9,42.1,40.4,41.5,40.4z M41.5,34.1H27.3c-0.6,0-1-0.5-1-1
		c0-0.6,0.5-1,1-1h14.2c0.6,0,1,0.5,1,1C42.5,33.7,42.1,34.1,41.5,34.1z M41.5,27.9H27.3c-0.6,0-1-0.5-1-1c0-0.6,0.5-1,1-1h14.2
		c0.6,0,1,0.5,1,1C42.5,27.4,42.1,27.9,41.5,27.9z"/>
	<circle fill="#F7A93B" cx="12.2" cy="31" r="3"/>
	<path fill="#F04B36" d="M18.3,40.4c-0.2-3.2-2.9-5.7-6.1-5.7c-3.2,0-5.9,2.5-6.1,5.7H18.3z"/>
	<rect x="18.4" y="0.5" fill="#F04B36" width="11.3" height="16.6"/>
</g>
</svg>
