<?xml version="1.0" ?><!DOCTYPE svg  PUBLIC '-//W3C//DTD SVG 1.1//EN'  'http://www.w3.org/Graphics/SVG/1.1/DTD/svg11.dtd'><svg enable-background="new 0 0 512 512" height="512px" id="Layer_1" version="1.1" viewBox="0 0 512 512" width="512px" xml:space="preserve" xmlns="http://www.w3.org/2000/svg" xmlns:xlink="http://www.w3.org/1999/xlink"><g><path d="M32,38V26c0-5.531,4.469-10,10-10h300c5.531,0,10,4.469,10,10v12c0,5.516-4.469,10-10,10h-6v48h-16V48H64   v188.25c0,2.063,1.688,3.75,3.75,3.75h248.5c2.063,0,3.75-1.688,3.75-3.75V192h16v48c0,8.844-7.156,16-16,16H64   c-8.844,0-16-7.156-16-16V48h-6C36.469,48,32,43.516,32,38z M144,208V80h-32v128H144z M192,208v-80h-32v80H192z M240,208v-48h-32   v48H240z M440,112c22.094,0,40-17.906,40-40s-17.906-40-40-40s-40,17.906-40,40S417.906,112,440,112z M72,400   c22.094,0,40-17.906,40-40s-17.906-40-40-40s-40,17.906-40,40S49.906,400,72,400z M192,360c0,22.094,17.906,40,40,40   s40-17.906,40-40s-17.906-40-40-40S192,337.906,192,360z M504.125,138.516C498.359,131.828,490.094,128,481.438,128h-5.188   l-19.438,39.766l-10.47-17.5c2.203-1.563,5.656-5.844,5.656-14.766c0-6.406-5.063-7.5-11.766-7.5c-6.703,0-12.233,1.094-12.233,7.5   c0,8.922,3.313,13.203,5.484,14.766l-10.297,17.5L403.75,128H400h-16h-96c-8.844,0-16,7.156-16,16c0,8.828,7.156,16,16,16h96v128   h96v-32h3.203C498.625,256,512,244.563,512,228.219c0,0,0-54.516,0-65.938C512,150.844,509.891,145.219,504.125,138.516z M432,360   c0-22.094-17.906-40-40-40s-40,17.906-40,40s17.906,40,40,40S432,382.094,432,360z M0,480h144v-28.25   c0-19.744-16.006-35.75-35.75-35.75h-72.5C16.006,416,0,432.006,0,451.75V480z M160,480h144v-28.25   c0-19.744-16.006-35.75-35.75-35.75h-72.5c-19.744,0-35.75,16.006-35.75,35.75V480z M320,480h144v-28.25   c0-19.744-16.006-35.75-35.75-35.75h-72.5c-19.744,0-35.75,16.006-35.75,35.75V480z" fill="#4D4D4D"/></g></svg>