<?xml version="1.0" encoding="utf-8"?>
<!-- Generator: Adobe Illustrator 18.0.0, SVG Export Plug-In . SVG Version: 6.00 Build 0)  -->
<!DOCTYPE svg PUBLIC "-//W3C//DTD SVG 1.1//EN" "http://www.w3.org/Graphics/SVG/1.1/DTD/svg11.dtd">
<svg version="1.1" id="Layer_1" xmlns="http://www.w3.org/2000/svg" xmlns:xlink="http://www.w3.org/1999/xlink" x="0px" y="0px"
	 viewBox="0 0 48 48" enable-background="new 0 0 48 48" xml:space="preserve">
<g>
	<path fill="#0DB89A" d="M26.1,22.5c-5.8,0-10.6,3.3-11.1,7.5l11.1-0.2c0,0,0,0,0,0c0.1,0,0.2,0,0.3,0c0,0,0,0,0.1,0
		c0.1,0,0.2,0.1,0.3,0.1c0,0,0,0,0,0l7.5,6.4c1.9-1.5,3.1-3.5,3.1-5.7C37.2,26.2,32.2,22.5,26.1,22.5z"/>
	<path fill="#4DA0D8" d="M23,38.7c1,0.2,2,0.3,3.1,0.3c2.4,0,4.6-0.6,6.4-1.5l-6.1-5.2L23,38.7z"/>
	<path fill="#F04B36" d="M15.7,41.7l3.3-6.4l-9.4,0.2C10.2,38.1,12.4,40.4,15.7,41.7z"/>
	<path fill="#E8B944" d="M43.2,16.1c0-0.1,0-0.2,0-0.2c0-0.1-0.1-0.2-0.1-0.2c0,0,0-0.1-0.1-0.1l0,0c0,0,0,0,0,0L30.4,2.6
		c0,0,0,0,0,0c-0.1-0.1-0.2-0.2-0.4-0.2c-0.1,0-0.2-0.1-0.3-0.1c0,0,0,0,0,0H20c0.6,0.8,1,1.9,1,3v9.8c0,2.9-1.6,4.9-4,4.9
		c-2.4,0-4-2-4-4.9V8.7c0-0.5,0.4-1,1-1c0.5,0,1,0.4,1,1v6.5c0,0.7,0.1,2.9,2.1,2.9c1.9,0,2.1-2.3,2.1-2.9V5.4
		c0-1.5-1.1-2.8-2.4-2.9V2.3H20c-0.9-1.1-2.1-1.8-3.6-1.8c-1.4,0-2.7,0.7-3.6,1.8H9.4v0H5.7c-0.5,0-1,0.4-1,1v43.2c0,0.5,0.4,1,1,1
		h36.6c0.5,0,1-0.4,1-1V16.2C43.2,16.2,43.2,16.1,43.2,16.1z M16.2,43.8c-0.1,0-0.2,0-0.3,0c-4.9-1.5-8.2-5.1-8.3-9.2
		c0-0.3,0.1-0.5,0.3-0.7c0.2-0.2,0.4-0.3,0.7-0.3l12.1-0.2c0,0,0,0,0,0c0.3,0,0.6,0.2,0.8,0.5c0.2,0.3,0.2,0.6,0,0.9L17,43.3
		C16.9,43.6,16.5,43.8,16.2,43.8z M35,38.2c0,0,0,0.1-0.1,0.1c-0.1,0.2-0.3,0.2-0.5,0.3c-2.3,1.5-5.2,2.3-8.3,2.3
		c-1.6,0-3.2-0.2-4.8-0.7c-0.3-0.1-0.5-0.3-0.6-0.5c-0.1-0.3-0.1-0.6,0-0.8l3.7-7.1L14,32c0,0,0,0,0,0c-0.5,0-0.9-0.4-1-0.9
		c0-0.1,0-0.2,0-0.3c0-5.6,5.9-10.2,13.1-10.2s13.1,4.6,13.1,10.2C39.1,33.7,37.5,36.4,35,38.2z M30.7,15.3V5.7l9.3,9.6H30.7z"/>
</g>
</svg>
