<?xml version="1.0" encoding="utf-8"?>
<!-- Generator: Adobe Illustrator 16.0.0, SVG Export Plug-In . SVG Version: 6.00 Build 0)  -->
<!DOCTYPE svg PUBLIC "-//W3C//DTD SVG 1.1//EN" "http://www.w3.org/Graphics/SVG/1.1/DTD/svg11.dtd">
<svg version="1.1" id="图层_1" xmlns="http://www.w3.org/2000/svg" xmlns:xlink="http://www.w3.org/1999/xlink" x="0px" y="0px"
	 width="100px" height="80px" viewBox="0 0 100 80" enable-background="new 0 0 100 80" xml:space="preserve">
<g>
	<g>
		<path fill="#598735" d="M36.597,31.056c0,0,16.452-3.359,28.626,6.423c12.174,9.786,19.788,28.147,19.788,28.147l-29.296,9.86
			L36.597,31.056z"/>
		<path fill="#2C552B" d="M5.962,71.089l49.753,4.397c0,0-5.611-43.672-19.119-44.43C23.092,30.295,5.962,71.089,5.962,71.089z"/>
		<path fill="#1A5D31" d="M12.796,67.129c1.793-3.786,4.403-8.993,7.439-14.123c7.743-13.084,13.512-17.56,16.099-17.414
			c1.914,0.107,6.269,4.267,10.455,19.177c1.627,5.79,2.775,11.592,3.486,15.673L12.796,67.129z"/>
		<path fill="#90AB5E" d="M42.864,33.01c0,0,12.322,6.083,13.919,41.029l25.378-8.974C82.161,65.065,60.823,34.406,42.864,33.01z"/>
		<path fill="#598735" d="M44.456,47.733c0,0-1.272,11.87-9.779,12.354c0,0,3.393,8.759,8.408,9.716L44.456,47.733z"/>
		<path fill="#244121" d="M46.788,54.77c-0.777-2.771-1.562-5.17-2.337-7.245L43.132,69.81l7.142,0.633
			C49.563,66.361,48.416,60.56,46.788,54.77z"/>
		<path fill="#CBC04E" d="M34.685,59.888c-0.109-0.007-0.206,0.078-0.212,0.188c-0.004,0.11,0.08,0.207,0.188,0.214h0.002
			c0.078,0.003,7.896,0.28,9.99-12.522l0.009-0.051l-0.019-0.05c-0.177-0.493-4.351-12.053-8.221-12.269
			c-0.028-0.002-0.057-0.005-0.084-0.005c-4.21-0.058-13.432,9.821-23.727,31.654l-0.124,0.255l30.623,2.711
			c0.002,0,0.005,0,0.007,0c0.108,0.003,0.205-0.076,0.217-0.184c0.007-0.109-0.076-0.207-0.186-0.217l-30.047-2.656
			c10.855-22.946,19.837-31.211,23.231-31.161c3.508,0.047,7.609,11.132,7.911,11.96C42.199,60.129,34.763,59.892,34.685,59.888z"/>
		<g>
			<path fill="#CBC04E" d="M50.507,70.663l-6.492-0.539c-0.111-0.01-0.195-0.107-0.184-0.217c0.007-0.11,0.11-0.182,0.219-0.185
				l5.99,0.498c-1.244-9.259-5.536-22.259-5.578-22.392c-0.038-0.104,0.021-0.219,0.128-0.253c0.105-0.035,0.221,0.022,0.258,0.128
				c0.043,0.135,4.422,13.4,5.628,22.712L50.507,70.663z"/>
		</g>
	</g>
	<g>
		<rect x="74.606" y="5.81" fill="#784E25" width="1.17" height="59.303"/>
		<path fill="#E72323" d="M74.606,7.059v8.326c0,0,7.042-3.231,9.561-1.617c2.517,1.617,7.797-1.74,12.328-2.61
			c0,0-9.434-0.125-10.945-1.989C84.04,7.305,77.376,7.059,74.606,7.059z"/>
	</g>
</g>
</svg>
