<?xml version="1.0" encoding="utf-8"?>
<!-- Generator: Adobe Illustrator 18.0.0, SVG Export Plug-In . SVG Version: 6.00 Build 0)  -->
<!DOCTYPE svg PUBLIC "-//W3C//DTD SVG 1.1//EN" "http://www.w3.org/Graphics/SVG/1.1/DTD/svg11.dtd">
<svg version="1.1" id="Layer_1" xmlns="http://www.w3.org/2000/svg" xmlns:xlink="http://www.w3.org/1999/xlink" x="0px" y="0px"
	 viewBox="0 0 48 48" enable-background="new 0 0 48 48" xml:space="preserve">
<g>
	<path fill="#CFD0D1" d="M25,26.1v3.7c0,0.5-0.4,1-1,1c-0.5,0-1-0.4-1-1v-3.7H0.9v16.7c0,2.6,1.9,4.8,4.3,4.8h37.6
		c2.4,0,4.3-2.1,4.3-4.8V26.1H25z"/>
	<path fill="#06728D" d="M14.9,2.4h18.2v6.4H35V1.5c0-0.5-0.4-1-1-1H13.9c-0.5,0-1,0.4-1,1v7.4h1.9V2.4z"/>
	<path fill="#0DB89A" d="M42.8,8.8H35h-1.9H14.9H13H5.2c-2.4,0-4.3,2.1-4.3,4.8v10.5H23v-3.6c0-0.5,0.4-1,1-1c0.5,0,1,0.4,1,1v3.6
		h22.2V13.6C47.1,11,45.2,8.8,42.8,8.8z"/>
</g>
</svg>
