<?xml version="1.0" encoding="UTF-8"?>
<svg xmlns="http://www.w3.org/2000/svg" xmlns:xlink="http://www.w3.org/1999/xlink" contentScriptType="text/ecmascript" zoomAndPan="magnify" baseProfile="tiny" contentStyleType="text/css" version="1.1" width="44px" preserveAspectRatio="xMidYMid meet" viewBox="0 0 44 44" height="44px" x="0px" y="0px">
    <polygon fill-opacity="0.2" stroke-opacity="0.2" points="28.017,3.246 6.664,3.246 6.664,40.14 36.08,40.14 36.08,11.298 "/>
    <polygon fill-opacity="0.4" stroke-opacity="0.4" points="27.603,4.246 7.664,4.246 7.664,39.14 35.08,39.14 35.08,11.712 "/>
    <g>
        <linearGradient x1="227.3711" gradientTransform="matrix(1 0 0 -1 -206 -252)" y1="-258.1245" x2="227.3711" gradientUnits="userSpaceOnUse" y2="-397.1358" xlink:type="simple" xlink:actuate="onLoad" id="SVGID_1_" xlink:show="other">
            <stop stop-color="#ffffff" offset="0"/>
            <stop stop-color="#857d9c" offset="1"/>
        </linearGradient>
        <polygon fill="url(#SVGID_1_)" points="27.603,3.246 7.664,3.246 7.664,38.14 35.08,38.14 35.08,10.712  "/>
        <rect x="11.402" width="12.462" fill="#666666" y="6.985" height="3.604"/>
        <rect x="11.402" width="8.723" fill="#666666" y="16.954" height="1.246"/>
        <rect x="11.402" width="8.723" fill="#666666" y="20.693" height="1.246"/>
        <rect x="11.402" width="8.723" fill="#666666" y="24.432" height="1.246"/>
        <rect x="11.402" width="8.723" fill="#666666" y="13.216" height="1.246"/>
        <rect x="22.618" width="8.723" fill="#666666" y="13.216" height="1.246"/>
        <rect x="22.618" width="8.723" fill="#666666" y="16.954" height="1.246"/>
        <rect x="11.402" width="8.723" fill="#666666" y="28.17" height="1.246"/>
        <linearGradient x1="26.9795" y1="29.416" x2="26.9795" gradientUnits="userSpaceOnUse" y2="20.6934" xlink:type="simple" xlink:actuate="onLoad" id="SVGID_2_" xlink:show="other">
            <stop stop-color="#0074d3" offset="0"/>
            <stop stop-color="#094d87" offset="1"/>
        </linearGradient>
        <rect x="22.618" width="8.723" fill="url(#SVGID_2_)" y="20.693" height="8.723"/>
        <g>
            <path fill="#0e479b" d="M 29.877 27.187 C 29.490002 26.736 28.405 26.630001 28.142 26.134 C 28.063 25.983002 27.943 25.738 27.989 25.567001 C 28.095001 25.152 28.464 24.872002 28.564001 24.454 C 28.632002 24.165 28.432001 23.939001 28.460001 23.654001 C 28.495 23.296001 28.604 22.927002 28.445002 22.581001 C 28.244001 22.138 27.958002 21.726002 27.526001 21.503002 C 27.561 21.462002 27.596 21.422003 27.631 21.382002 C 27.366001 21.289001 27.053001 21.172003 26.781 21.308002 C 26.526001 21.436003 26.182 21.526003 25.952 21.683002 C 25.932 21.808002 25.907999 21.931002 25.878 22.053003 C 25.719 22.269003 25.531 22.476004 25.444 22.736004 C 25.321001 23.101004 25.501 23.510004 25.541 23.874004 C 25.555 24.006004 25.42 24.020004 25.396 24.141005 C 25.277 24.774004 25.947 25.088005 26.008 25.655005 C 26.019 25.750004 25.796999 26.099005 25.737999 26.179005 C 25.331999 26.745005 24.223999 26.636005 23.973999 27.389004 C 23.846998 27.770004 23.803 28.206003 23.721998 28.602003 C 23.832998 28.602003 30.235998 28.580004 30.221998 28.477003 C 30.186 28.155 30.098 27.442 29.877 27.187 "/>
            <linearGradient x1="1222.5313" gradientTransform="matrix(1.0002 -0.0028 -0.0021 1.0335 -1189.136 -3245.5942)" y1="3164.5615" x2="1222.5313" gradientUnits="userSpaceOnUse" y2="3171.6104" xlink:type="simple" xlink:actuate="onLoad" id="SVGID_3_" xlink:show="other">
                <stop stop-color="#ffffff" offset="0"/>
                <stop stop-color="#a2c9ea" offset="1"/>
            </linearGradient>
            <path fill="url(#SVGID_3_)" d="M 29.877 27.446 C 29.460001 26.976 28.702002 26.782999 28.188002 26.436998 C 28.179 26.430998 27.964 25.955997 27.965002 25.947998 C 28.014002 25.548998 28.324001 25.276999 28.489002 24.929998 C 28.677002 24.532999 28.411003 24.330997 28.468002 23.984999 C 28.613003 23.113998 28.360003 22.185 27.523003 21.763998 C 27.559002 21.722998 27.594002 21.681997 27.630003 21.641998 C 27.246002 21.507998 26.185003 21.520998 25.921003 21.972998 C 25.890003 22.026999 26.003004 22.093998 25.966003 22.151999 C 25.756004 22.479998 25.421003 22.793999 25.409004 23.210999 C 25.401005 23.498 25.695004 24.005999 25.487003 24.262999 C 24.999002 24.866 26.048004 25.402998 26.009003 25.998999 C 26.001003 26.109999 25.832003 26.251 25.791002 26.373 C 25.642002 26.835 24.409002 27.061998 24.066002 27.463999 C 23.808002 27.754 23.796001 28.491 23.721003 28.862 C 25.885002 28.855 28.050003 28.851 30.214003 28.842 C 30.32 28.803 29.958 27.54 29.877 27.446 "/>
        </g>
        <rect x="11.402" width="8.723" fill="#666666" y="31.908" height="1.246"/>
        <rect x="22.618" width="8.723" fill="#666666" y="31.908" height="1.246"/>
        <linearGradient x1="188.1611" gradientTransform="matrix(1 0 0 -1 -206 -252)" y1="-213.541" x2="288.9651" gradientUnits="userSpaceOnUse" y2="-314.3476" xlink:type="simple" xlink:actuate="onLoad" id="SVGID_4_" xlink:show="other">
            <stop stop-color="#ffffff" offset="0"/>
            <stop stop-color="#b2b2c9" offset="1"/>
        </linearGradient>
        <polygon fill="url(#SVGID_4_)" points="27.603,3.246 35.08,10.723 27.603,10.723  "/>
    </g>
    <rect width="44" fill="none" height="44"/>
</svg>
