<?xml version="1.0" encoding="utf-8"?>
<!-- Generator: Adobe Illustrator 18.0.0, SVG Export Plug-In . SVG Version: 6.00 Build 0)  -->
<!DOCTYPE svg PUBLIC "-//W3C//DTD SVG 1.1//EN" "http://www.w3.org/Graphics/SVG/1.1/DTD/svg11.dtd">
<svg version="1.1" id="Layer_1" xmlns="http://www.w3.org/2000/svg" xmlns:xlink="http://www.w3.org/1999/xlink" x="0px" y="0px"
	 viewBox="0 0 48 48" enable-background="new 0 0 48 48" xml:space="preserve">
<g>
	<path fill="#88C057" d="M43.8,25.8c-0.3,0-0.6-0.1-0.8-0.4c-2.6-3.7-0.3-8.2-0.2-8.4c0.3-0.5,0.8-0.7,1.3-0.4
		c0.5,0.3,0.7,0.8,0.4,1.3l0,0c0,0-1.9,3.6,0,6.4c0.3,0.4,0.2,1-0.2,1.3C44.2,25.7,44,25.8,43.8,25.8z"/>
	<path fill="#88C057" d="M27.1,42.1c-0.3,0-0.6-0.1-0.8-0.4c-2.7-3.3-0.3-7.4-0.2-7.5c0.3-0.5,0.9-0.6,1.3-0.3
		c0.5,0.3,0.6,0.9,0.3,1.3c-0.1,0.1-1.8,3.1,0,5.3c0.3,0.4,0.3,1-0.2,1.4C27.5,42.1,27.3,42.1,27.1,42.1z"/>
	<path fill="#0DB89A" d="M27.3,42.6c-0.1,0-0.3,0-0.4-0.1c0,0-15.9-6.9-22.5-9.7c-3.5-1.5-3.9-4-3.9-5.3c0.1-2.2,1.6-4.2,2.9-4.6
		c0.5-0.2,1.1,0.1,1.2,0.6C4.8,24,4.5,24.6,4,24.7c-0.5,0.2-1.5,1.4-1.6,2.9c-0.1,1.5,0.9,2.6,2.7,3.4c5.9,2.5,19,8.2,21.9,9.4
		l17.1-17.4c0.4-0.4,1-0.4,1.4,0c0.4,0.4,0.4,1,0,1.4L28,42.3C27.8,42.5,27.6,42.6,27.3,42.6z"/>
	<path fill="#F7A93B" d="M47.5,14.3c-0.1-0.3-0.3-0.6-0.6-0.7L24.4,5.5c-0.3-0.1-0.7-0.1-1,0.2L3.1,23.1c-0.3,0.2-0.4,0.5-0.3,0.9
		c0,0.3,0.3,0.6,0.6,0.7l23.4,10.3c0.1,0.1,0.3,0.1,0.4,0.1c0.3,0,0.5-0.1,0.7-0.3l19.4-19.7C47.5,15,47.5,14.6,47.5,14.3z"/>
</g>
</svg>
