<?xml version="1.0" encoding="utf-8"?>
<!-- Generator: Adobe Illustrator 18.0.0, SVG Export Plug-In . SVG Version: 6.00 Build 0)  -->
<!DOCTYPE svg PUBLIC "-//W3C//DTD SVG 1.1//EN" "http://www.w3.org/Graphics/SVG/1.1/DTD/svg11.dtd">
<svg version="1.1" id="Layer_1" xmlns="http://www.w3.org/2000/svg" xmlns:xlink="http://www.w3.org/1999/xlink" x="0px" y="0px"
	 viewBox="0 0 48 48" enable-background="new 0 0 48 48" xml:space="preserve">
<g>
	<path fill="#CFD0D1" d="M42.2,20.3l-2.8-3.6c-4.7-4.1-25.7,1.2-29.4,2.2c-0.7-3.7-2.2-6.3-4.3-7.7C3.3,9.5,1,10,0.9,10.1
		c-0.3,0.1-0.4,0.3-0.4,0.6l2.1,13.9c0,0.1,0,0.2,0.1,0.2c2,2.7,6.9,3.9,10.1,4.5l3.9-5.9c0.5-0.7,1.2-1.1,2.1-1.1h11.9
		c1,0,1.9,0.6,2.3,1.5c0.4,0.9,0.2,2-0.5,2.7l-2.9,2.9c15.8-1.8,17.9-3.9,18-5.4C47.7,21.9,43.4,20.6,42.2,20.3z"/>
	<path fill="#06728D" d="M31,24.5c-0.1-0.2-0.3-0.3-0.5-0.3H18.6c-0.2,0-0.3,0.1-0.4,0.2L9.8,37.3c-0.1,0.2-0.1,0.4,0,0.5
		c0.1,0.2,0.3,0.3,0.4,0.3H18c0.1,0,0.3-0.1,0.4-0.1l12.6-12.8C31.1,24.9,31.1,24.7,31,24.5z"/>
</g>
</svg>
