<?xml version="1.0" encoding="utf-8"?>
<!-- Generator: Adobe Illustrator 18.0.0, SVG Export Plug-In . SVG Version: 6.00 Build 0)  -->
<!DOCTYPE svg PUBLIC "-//W3C//DTD SVG 1.1//EN" "http://www.w3.org/Graphics/SVG/1.1/DTD/svg11.dtd">
<svg version="1.1" id="Layer_1" xmlns="http://www.w3.org/2000/svg" xmlns:xlink="http://www.w3.org/1999/xlink" x="0px" y="0px"
	 viewBox="0 0 48 48" enable-background="new 0 0 48 48" xml:space="preserve">
<g>
	<rect x="12.2" y="7.6" fill="#F04B36" width="23.6" height="7.4"/>
	<path fill="#0DB89A" d="M38.3,0.5H9.7c-2.1,0-3.9,1.7-3.9,3.9v39.3c0,2.1,1.7,3.9,3.9,3.9h28.7c2.1,0,3.9-1.7,3.9-3.9V4.4
		C42.2,2.2,40.5,0.5,38.3,0.5z M16.7,42.4h-3.3v-2h3.3V42.4z M16.7,36h-3.3v-2h3.3V36z M16.7,29.5h-3.3v-2h3.3V29.5z M16.7,23.1
		h-3.3v-2h3.3V23.1z M25.6,42.4h-3.3v-2h3.3V42.4z M25.6,36h-3.3v-2h3.3V36z M25.6,29.5h-3.3v-2h3.3V29.5z M25.6,23.1h-3.3v-2h3.3
		V23.1z M34.5,42.4h-3.3v-2h3.3V42.4z M34.5,36h-3.3v-2h3.3V36z M34.5,29.5h-3.3v-2h3.3V29.5z M34.5,23.1h-3.3v-2h3.3V23.1z
		 M37.7,17H10.3V5.6h27.5V17z"/>
</g>
</svg>
