<?xml version="1.0" encoding="utf-8"?>
<!-- Generator: Adobe Illustrator 18.0.0, SVG Export Plug-In . SVG Version: 6.00 Build 0)  -->
<!DOCTYPE svg PUBLIC "-//W3C//DTD SVG 1.1//EN" "http://www.w3.org/Graphics/SVG/1.1/DTD/svg11.dtd">
<svg version="1.1" id="Layer_1" xmlns="http://www.w3.org/2000/svg" xmlns:xlink="http://www.w3.org/1999/xlink" x="0px" y="0px"
	 viewBox="0 0 48 48" enable-background="new 0 0 48 48" xml:space="preserve">
<g>
	<path fill="#F7A93B" d="M24,32.7c2.9,0,5.2-2.3,5.2-5.2c0-2.9-2.3-5.2-5.2-5.2c-2.9,0-5.2,2.3-5.2,5.2C18.8,30.4,21.1,32.7,24,32.7
		z"/>
	<path fill="#E77528" d="M24,35.6c-5.9,0-10.8,5.2-10.8,11.7v0.3h21.5v-0.3C34.8,40.8,29.9,35.6,24,35.6z"/>
	<path fill="#F7A93B" d="M7.6,7.5c1.9,0,3.5-1.6,3.5-3.5c0-1.9-1.6-3.5-3.5-3.5C5.7,0.5,4.1,2.1,4.1,4C4.1,5.9,5.7,7.5,7.6,7.5z"/>
	<path fill="#F04B36" d="M14.8,16.9c0-4.3-3.2-7.7-7.1-7.7c-3.9,0-7.1,3.5-7.1,7.7v0.3h14.3V16.9z"/>
	<path fill="#F7A93B" d="M40.4,7.5c1.9,0,3.5-1.6,3.5-3.5c0-1.9-1.6-3.5-3.5-3.5c-1.9,0-3.5,1.6-3.5,3.5C36.9,5.9,38.4,7.5,40.4,7.5
		z"/>
	<path fill="#0DB89A" d="M40.4,9.2c-3.9,0-7.1,3.5-7.1,7.7v0.3h14.3v-0.3C47.5,12.7,44.3,9.2,40.4,9.2z"/>
	<path fill="#294E58" d="M16,32.7c0-0.8-0.7-1.5-1.5-1.5H8.2V20.4c0-0.8-0.7-1.5-1.5-1.5c-0.8,0-1.5,0.7-1.5,1.5v13.7h9.3
		C15.3,34.2,16,33.5,16,32.7z"/>
	<path fill="#294E58" d="M41.3,18.9c-0.8,0-1.5,0.7-1.5,1.5v10.7h-6.3c-0.8,0-1.5,0.7-1.5,1.5c0,0.8,0.7,1.5,1.5,1.5h9.3V20.4
		C42.8,19.6,42.1,18.9,41.3,18.9z"/>
</g>
</svg>
