<?xml version="1.0" ?><!DOCTYPE svg  PUBLIC '-//W3C//DTD SVG 1.1//EN'  'http://www.w3.org/Graphics/SVG/1.1/DTD/svg11.dtd'><svg enable-background="new 0 0 100 100" height="100px" id="Layer_1" version="1.1" viewBox="0 0 100 100" width="100px" xml:space="preserve" xmlns="http://www.w3.org/2000/svg" xmlns:xlink="http://www.w3.org/1999/xlink"><g><path d="M35.742,42.748c-13.147,0-23.808,10.658-23.808,23.808c0,13.148,10.66,23.808,23.808,23.808   s23.807-10.659,23.807-23.808C59.549,53.406,48.89,42.748,35.742,42.748z M15.226,66.556c0-4.351,1.356-8.382,3.667-11.702   l0.264,0.2l-0.159,0.641l0.588,0.161L19.478,55l0.481-0.054v-1.123h0.481c0,0,0.086,0.218,0.174,0.446   c0.098,0.252,0.201,0.516,0.201,0.516l0.535,0.59c0,0-0.642,0.159-0.854,0.159c-0.216,0-0.108,0.856-0.108,0.856l0.749,0.267   l0.483-0.894l1.121-1.246l0.534-1.658l1.017-0.963l-0.589-0.426l0.644-0.43l0.054-0.589l-1.872,0.536l-0.061-0.071   c1.02-0.866,2.125-1.634,3.301-2.29l0.878,0.382l-0.589,1.123h-1.177l-0.214,1.016h0.964l1.391-0.855l0.962-0.962l0.16-0.909   l-1.39-0.106l0.962-0.643l0.908,0.161l-0.158,0.962l1.229-0.75l0.215,0.589l0.268,0.856l-0.696,0.855l-0.748,0.695l-1.125-0.16   l0.536,1.123l-1.016-0.16l-1.713,1.765l0.429,0.589l1.391-0.108l1.177-0.375l1.499-0.158l0.694-0.16c0,0,0-0.429-0.054-0.695   c-0.054-0.268,0.535,0.053,0.535,0.053l0.643-0.374l0.48-1.498l1.766-0.804l-0.268-0.428l0.429-0.534L32.746,48.9l0.375-0.535   l-1.767-0.589h-0.909l0.32-0.802l0.375-0.375l-0.03-0.03c1.488-0.343,3.037-0.53,4.632-0.53c2.483,0,4.862,0.441,7.066,1.25   l-0.055,0.125l-0.891-0.059v0.535l0.357,0.237v0.476l0.298,0.415l-1.07-0.653l-0.713,0.357l0.356,0.832l0.179,0.951l0.476,0.535   l1.127,0.179l-0.235,0.475l-0.239,0.715l1.011,0.653l-0.06,0.297l-1.901-1.604l-0.117,0.595l0.831,0.831l0.476,0.179l-1.071,0.237   l-0.118,0.535l-0.772-0.773l-0.477-1.009l-0.177-1.012l-0.477,0.594l0.356,1.427l0.594,0.418l-0.236,1.365l-0.357-0.178l0.06,0.714   l-0.536-0.061l-0.533-0.773h-0.653l-0.951-0.119l-0.952,0.061l-0.892,0.714l-0.594,1.01l-1.249,0.952l-0.119,0.533v0.656   l0.298,0.653l0.595-0.477l0.177,0.357l0.299,0.534l0.059,0.12l0.297,0.356l0.536-0.355l-0.06-1.309l0.653-0.833   c0,0,0.033-0.141,0.069-0.303c0.051-0.217,0.108-0.469,0.108-0.469l0.238-0.656l0.417,0.061l-0.119,0.535l-0.239,1.188l1.131-0.118   l0.417,0.118l-0.893,0.24l0.119,0.594l-1.013,0.652l0.061,0.655l-0.891,0.238l-0.178,0.475l-0.714-0.237h-0.476V59.66l-0.536,0.18   v0.534l-1.486,1.189L31.52,61.86l-0.355,0.416l-1.188-0.298l-0.061,0.536l0.773,0.297l-0.06,1.069l-2.142-0.06l-0.296,0.476   l-0.298,0.832l-0.356,0.716l0.535,0.594l0.595,0.712l1.903-0.595l0.119-0.713l0.417-0.357l0.713-0.238l-0.06-0.475l0.654-0.179   l0.951-0.179l0.595,0.713l1.07,0.774l0.475,0.771v0.357l0.594-0.357l-0.296-0.533l0.119-0.597l-0.536-0.236l-0.475-0.653   l0.297-0.953l0.534,0.773l0.771,0.596l0.297,1.07l0.774,0.593l0.179,0.654l0.357-0.772l-0.119-0.357l0.177-0.297l1.128-0.951   l0.239-1.189l0.477-0.356l0.593,0.06l0.894-0.893l0.058,0.715l1.307,0.415v0.654h-1.068l-1.605,0.832l-1.307,0.714l0.355,0.772   l1.189,0.237l0.654,0.298l0.713-0.475l0.059,2.021l-2.021,0.416l-2.14-0.595l-0.832,0.654l0.356,0.356l-0.655-0.119l-2.078-0.772   l-0.595,0.06l-0.477-0.773V67.09h-1.07l-0.594-0.119l-1.902,0.417l-1.486-0.119l-0.654,0.357l-0.416,0.06l-0.237,0.771   l-1.367,0.951l-1.903,1.428l-0.119,1.841l-0.534,1.19l0.059,0.712l0.476,0.834l1.368,2.317l1.427,0.654l2.377,0.179l-0.119-1.012   l-0.534-0.296l0.237-0.536l0.416,0.476l0.417,1.248l1.782,0.12l0.714,0.713l1.011,0.416l0.118,1.724l1.071,1.367l1.01,1.783   l-0.892,1.07l0.911,1.416C24.007,86.656,15.226,77.634,15.226,66.556z M42.772,85.836l2.48-1.804l-0.892-2.199l2.854-3.745   l0.89-2.378l0.416-1.309l-1.485,0.715l-0.892,0.179l-2.198-1.368L43.29,72.44l-0.831-0.832L41.39,69.23l0.891,0.714l1.666,1.843   l0.594,0.831l1.188,0.596l0.356,1.546l1.428-0.952l1.724-2.141l0.832-2.198l-0.654-0.534l-0.357-0.655l-0.416,0.773l-0.831,0.951   l-1.19-1.31l-0.355-1.009l0.832,0.179l0.832,0.415l1.189-0.415l0.714,0.237l1.9-1.308l1.071,0.594l0.653-0.356l1.422,2.238   l0.703-0.672l0.014-0.853l0.06-2.557l0.437-1.211c0.107,0.845,0.168,1.704,0.168,2.578C56.259,75.417,50.642,82.966,42.772,85.836z   " id="Earth_1_"/><path d="M87.597,20.826L69.667,8.96c-0.231-0.155-0.519-0.21-0.793-0.151l-19.859,4.193c-0.4,0.084-0.715,0.396-0.805,0.798   l-0.119,0.537c-0.094,0.423,0.082,0.86,0.445,1.1l8.314,5.503l-0.339,1.533c-3.004,2.252-4.957,5.83-4.957,9.871   c0,6.816,5.529,12.346,12.342,12.346c6.814,0,12.344-5.529,12.344-12.346c0-1.464-0.269-2.863-0.737-4.166   c0.185-0.236,0.312-0.488,0.371-0.755l0.414-1.876l5.364-1.133c0.667,0.943,1.103,2.088,1.212,3.547   c-0.545,0.282-0.922,0.844-0.922,1.5c0,0.551,0.267,1.034,0.674,1.344c-0.461,2.352-1.076,6.673,0.15,8.589   c0.361,0.563,0.873,0.924,1.479,1.039c0.048,0.009,0.096,0.014,0.144,0.014c0.356,0,0.674-0.253,0.744-0.617   c0.078-0.411-0.192-0.809-0.604-0.887c-0.133-0.025-0.308-0.09-0.485-0.367c-0.433-0.676-0.534-2.01-0.454-3.516   c0.374,1.168,0.949,2.219,1.836,2.803c0.352,0.232,0.821,0.133,1.051-0.217s0.133-0.82-0.217-1.051   c-1.192-0.785-1.695-3.477-1.803-5.66c0.52-0.289,0.875-0.837,0.875-1.474c0-0.667-0.389-1.238-0.949-1.514   c-0.1-1.555-0.504-2.82-1.128-3.871l3.861-0.816c0.401-0.084,0.716-0.396,0.805-0.797l0.119-0.537   C88.135,21.503,87.958,21.064,87.597,20.826z M67.042,16.721c0.017-0.137,0.156-0.249,0.415-0.304   c0.516-0.108,1.313,0.054,1.78,0.362c0.233,0.154,0.34,0.316,0.322,0.454l-0.076,0.376c-0.018,0.137-0.156,0.248-0.414,0.303   c-0.518,0.109-1.313-0.053-1.78-0.361c-0.233-0.155-0.34-0.317-0.323-0.454L67.042,16.721z"/><path d="M63.896,47.08c-2.799,0-5.464,0.698-7.888,1.959c4.069,4.702,6.54,10.824,6.54,17.517c0,4.897-1.326,9.489-3.63,13.444   h18.437c3.72,0,6.73-3.68,6.73-8.23C84.086,58.141,75.043,47.08,63.896,47.08z"/></g></svg>