<?xml version="1.0" encoding="utf-8"?>
<!-- Generator: Adobe Illustrator 18.0.0, SVG Export Plug-In . SVG Version: 6.00 Build 0)  -->
<!DOCTYPE svg PUBLIC "-//W3C//DTD SVG 1.1//EN" "http://www.w3.org/Graphics/SVG/1.1/DTD/svg11.dtd">
<svg version="1.1" id="Layer_1" xmlns="http://www.w3.org/2000/svg" xmlns:xlink="http://www.w3.org/1999/xlink" x="0px" y="0px"
	 viewBox="0 0 48 48" enable-background="new 0 0 48 48" xml:space="preserve">
<g>
	<path fill="#0DB89A" d="M17.6,29.8c0.5-1.4,1.1-3,2.3-4.2c0.6-0.6,1.2-0.8,1.5-0.9c0.1-0.2,0.3-0.5,0.4-0.7
		c0.2-0.4,0.3-0.7,0.5-0.9c1.3-2,3.2-3.6,5.4-4.5c0.3-0.1,0.6-0.2,0.8-0.2c0-0.1,0.1-0.2,0.1-0.3c0.2-0.4,0.4-0.9,0.8-1.4
		c1.1-1.4,3.1-2.2,4.6-2.5v-8c0-3.1-2.5-5.6-5.6-5.6H6.1C3,0.5,0.5,3,0.5,6.1v35.7c0,3.1,2.5,5.6,5.6,5.6h22.4
		c3.1,0,5.6-2.5,5.6-5.6V29.3c-0.2,0.1-0.4,0.2-0.5,0.3c-0.3,0.1-0.6,0.3-1,0.6c0.1,0.3,0.1,0.7,0.1,1c-0.2,1.6-1.7,2.4-2.8,2.9
		c-0.1,0.1-0.4,0.2-0.6,0.3c0.1,0.5,0.2,1.1-0.1,1.8c-0.6,1.4-2.7,2-2.8,2c-0.6,0.2-1.3,0.2-1.7,0.2l-0.7,0c-0.2,0-0.4,0-0.6,0
		c-2.9,0.5-4.6,2.7-6.7,5.4l-0.6,0.7c-0.4,0.5-0.9,0.8-1.5,0.8c-0.4,0-0.8-0.1-1.2-0.4c-0.8-0.7-1-1.9-0.4-2.7l0.5-0.7
		c1.1-1.4,2-2.6,3.1-3.7c-0.2-0.3-0.2-0.6-0.2-0.9l0-0.5c0-1.8,0-3.6,0.8-5.6C17.4,30.5,17.5,30.1,17.6,29.8z M7,7.3h19.6
		c0.5,0,1,0.4,1,1c0,0.5-0.4,1-1,1H7c-0.5,0-1-0.4-1-1C6,7.8,6.5,7.3,7,7.3z M7,14.7h19.6c0.5,0,1,0.4,1,1c0,0.5-0.4,1-1,1H7
		c-0.5,0-1-0.4-1-1C6,15.2,6.5,14.7,7,14.7z M13,38.9H7c-0.5,0-1-0.4-1-1c0-0.5,0.4-1,1-1h6c0.5,0,1,0.4,1,1
		C14,38.4,13.6,38.9,13,38.9z M14,31.5H7c-0.5,0-1-0.4-1-1c0-0.5,0.4-1,1-1H14c0.5,0,1,0.4,1,1C14.9,31,14.5,31.5,14,31.5z M7,24.1
		c-0.5,0-1-0.4-1-1c0-0.5,0.4-1,1-1h9.8c0.5,0,1,0.4,1,1c0,0.5-0.4,1-1,1H7z"/>
	<path fill="#E77528" d="M47.4,14.1c-0.1-0.3-0.3-0.5-0.6-0.6c-0.4-0.1-0.8-0.1-1.1-0.2l-0.2,0c-2.4-0.1-4.3-0.1-6,0.2
		c-0.9,0.1-1.5,0.5-2.2,0.9c-0.3,0.2-0.6,0.4-0.9,0.5C36.2,15,35.9,15,35.5,15c-0.3,0-0.7,0-1,0c-1.4,0.2-3.4,1-4.4,2.2
		c-0.3,0.4-0.5,0.8-0.6,1.1c-0.1,0.3-0.3,0.7-0.4,0.7c-0.1,0-0.3,0.1-0.4,0.1c-0.2,0-0.5,0.1-0.7,0.2c-2,0.8-3.7,2.3-4.9,4.1
		c-0.1,0.2-0.3,0.5-0.5,0.8c-0.2,0.3-0.5,0.9-0.6,1.1c0,0-0.1,0.1-0.2,0.1c-0.3,0.1-0.7,0.3-1.1,0.7c-1.1,1.1-1.6,2.5-2.1,3.9
		c-0.1,0.3-0.2,0.7-0.4,1c-0.7,1.8-0.7,3.4-0.7,5.2l0,0.5c0,0.4,0.2,0.7,0.5,0.8l-0.4,0.7c-1.1,1.1-2.2,2.4-3.2,3.7l-0.5,0.7
		c-0.3,0.4-0.2,1,0.2,1.4c0.2,0.1,0.4,0.2,0.6,0.2c0.3,0,0.6-0.1,0.8-0.4l0.5-0.7c2.1-2.8,4-5.2,7.3-5.8c0.3-0.1,0.7,0,1.1,0
		c0.6,0,1.2,0,1.9-0.1c0,0,1.7-0.5,2.1-1.4c0.3-0.7,0-1.3-0.1-1.6c0,0,0-0.1-0.1-0.1c0.2-0.2,0.9-0.6,1.3-0.8c1-0.5,2.1-1.1,2.3-2.2
		c0.1-0.5-0.1-0.9-0.3-1.2c0.6-0.4,1.3-0.8,1.8-1.1c0.5-0.2,1.9-1.1,1.7-2.3c0-0.1,0-0.2-0.1-0.2c1-0.4,2.8-0.9,4.2-1.2
		c0,0,4.2-1.1,4.1-2.8c0-0.1,0-0.3-0.1-0.5c0.4-0.5,0.7-1.1,0.9-1.7c0.1-0.2,0.2-0.5,0.3-0.7c0.5-1,1-2.1,1.7-2.9
		c0.1-0.2,0.3-0.3,0.5-0.5c0.3-0.3,0.6-0.6,0.9-0.9C47.5,14.7,47.5,14.4,47.4,14.1z"/>
</g>
</svg>
