<?xml version="1.0" encoding="utf-8"?>
<!-- Generator: Adobe Illustrator 18.0.0, SVG Export Plug-In . SVG Version: 6.00 Build 0)  -->
<!DOCTYPE svg PUBLIC "-//W3C//DTD SVG 1.1//EN" "http://www.w3.org/Graphics/SVG/1.1/DTD/svg11.dtd">
<svg version="1.1" id="Layer_1" xmlns="http://www.w3.org/2000/svg" xmlns:xlink="http://www.w3.org/1999/xlink" x="0px" y="0px"
	 viewBox="0 0 48 48" enable-background="new 0 0 48 48" xml:space="preserve">
<g>
	<path fill="#F7A93B" d="M26.8,41.6c0-0.4,0-0.8,0.1-1.2l0.2-1.6l-2.3,0.9c-0.2,0.1-0.4,0.1-0.6,0.1c-0.6,0-1.2-0.3-1.5-0.8
		l-5.1-7.8c-0.5-0.8-0.3-1.9,0.5-2.5c0.3-0.2,0.6-0.3,1-0.3c0.6,0,1.2,0.3,1.5,0.8l4.3,6.6l5.8-2.2l0.1-0.1c0.6-0.5,1.2-0.9,2-1.2
		l1.2-0.6l-0.9-1c-1-1.1-1.5-2.4-1.5-3.8c0-3.1,2.5-5.7,5.7-5.7c0.5,0,1,0.1,1.6,0.2c2.4,0.7,4.1,2.9,4.1,5.4c0,1.4-0.5,2.8-1.5,3.8
		l-0.9,1l1.2,0.6c3.6,1.7,5.9,5.3,5.9,9.3H26.8z"/>
	<path fill="#0DB89A" d="M38,6.4H4c-0.5,0-1,0.4-1,1v26.5c0,0.5,0.4,1,1,1h14.9l-2.1-3.3c-0.5-0.8-0.6-1.8-0.2-2.7
		c0,0-0.1-0.1-0.1-0.1L10.5,20c-0.3-0.5-0.2-1.1,0.3-1.4c0.5-0.3,1.1-0.2,1.4,0.3l5.8,8.7c1.2-0.5,2.7-0.1,3.4,1l3.8,5.9l4.9-1.9
		c0.7-0.5,1.4-1,2.2-1.3c-1.1-1.2-1.8-2.8-1.8-4.5c0-3.7,3-6.6,6.6-6.6c0.6,0,1.2,0.1,1.8,0.3v-13C39,6.9,38.5,6.4,38,6.4z M28.6,23
		H17.9c-0.5,0-1-0.4-1-1c0-0.5,0.4-1,1-1h10.7c0.5,0,1,0.4,1,1C29.6,22.6,29.2,23,28.6,23z M31.5,18.2H17.9c-0.5,0-1-0.4-1-1
		c0-0.5,0.4-1,1-1h13.5c0.5,0,1,0.4,1,1C32.5,17.8,32,18.2,31.5,18.2z M31.5,13.5H17.9c-0.5,0-1-0.4-1-1s0.4-1,1-1h13.5
		c0.5,0,1,0.4,1,1S32,13.5,31.5,13.5z"/>
	<path fill="#06728D" d="M19.7,39.8H1.4c-0.5,0-0.9-0.4-0.9-1c0-0.5,0.4-1,0.9-1h18.3c0.5,0,0.9,0.4,0.9,1
		C20.6,39.3,20.2,39.8,19.7,39.8z"/>
</g>
</svg>
