<?xml version="1.0" encoding="utf-8"?>
<!-- Generator: Adobe Illustrator 18.0.0, SVG Export Plug-In . SVG Version: 6.00 Build 0)  -->
<!DOCTYPE svg PUBLIC "-//W3C//DTD SVG 1.1//EN" "http://www.w3.org/Graphics/SVG/1.1/DTD/svg11.dtd">
<svg version="1.1" id="Layer_1" xmlns="http://www.w3.org/2000/svg" xmlns:xlink="http://www.w3.org/1999/xlink" x="0px" y="0px"
	 viewBox="0 0 48 48" enable-background="new 0 0 48 48" xml:space="preserve">
<g>
	<path fill="#4DA0D8" d="M14.2,10.3H23V0.6C19.4,1.2,16.2,4.9,14.2,10.3z"/>
	<path fill="#4DA0D8" d="M23,23V12.3h-9.5c-0.9,3.2-1.5,6.8-1.6,10.7H23z"/>
	<path fill="#4DA0D8" d="M25,0.6v9.7h8.8C31.8,4.9,28.6,1.2,25,0.6z"/>
	<path fill="#4DA0D8" d="M9.9,25H0.5c0.2,3.9,1.2,7.5,2.9,10.7c0.1,0,0.2-0.1,0.3-0.1h7.7C10.5,32.5,10,28.9,9.9,25z"/>
	<path fill="#4DA0D8" d="M38.1,25c-0.1,3.8-0.6,7.5-1.5,10.7h7.7c0.1,0,0.2,0,0.3,0.1c1.7-3.2,2.8-6.8,2.9-10.7H38.1z"/>
	<path fill="#4DA0D8" d="M23,25H11.9c0.1,3.9,0.7,7.5,1.6,10.7H23V25z"/>
	<path fill="#4DA0D8" d="M9.9,23c0.1-3.8,0.6-7.5,1.5-10.7H3.8c-0.1,0-0.2,0-0.3-0.1C1.7,15.5,0.7,19.1,0.5,23H9.9z"/>
	<path fill="#4DA0D8" d="M36.1,23c-0.1-3.9-0.7-7.5-1.6-10.7H25V23H36.1z"/>
	<path fill="#4DA0D8" d="M12.1,10.3c1.5-4.4,3.7-7.8,6.4-9.8c-5.7,1.4-10.6,5-13.8,9.8H12.1z"/>
	<path fill="#4DA0D8" d="M12.1,37.7H4.6c3.2,4.8,8.1,8.4,13.8,9.8C15.8,45.5,13.6,42.1,12.1,37.7z"/>
	<path fill="#4DA0D8" d="M35.9,10.3h7.4c-3.2-4.8-8.1-8.4-13.8-9.8C32.2,2.5,34.4,5.9,35.9,10.3z"/>
	<path fill="#4DA0D8" d="M35.9,37.7c-1.5,4.4-3.7,7.8-6.4,9.8c5.7-1.4,10.6-5,13.8-9.8H35.9z"/>
	<path fill="#4DA0D8" d="M44.2,12.3h-7.7c0.9,3.2,1.4,6.8,1.5,10.7h9.4c-0.2-3.9-1.2-7.5-2.9-10.7C44.5,12.3,44.3,12.3,44.2,12.3z"
		/>
	<path fill="#4DA0D8" d="M33.8,37.7H25v9.7C28.6,46.8,31.8,43.1,33.8,37.7z"/>
	<path fill="#4DA0D8" d="M25,25v10.7h9.5c0.9-3.2,1.5-6.8,1.6-10.7H25z"/>
	<path fill="#4DA0D8" d="M23,47.4v-9.7h-8.8C16.2,43.1,19.4,46.8,23,47.4z"/>
</g>
</svg>
