<?xml version="1.0" ?><!DOCTYPE svg  PUBLIC '-//W3C//DTD SVG 1.1//EN'  'http://www.w3.org/Graphics/SVG/1.1/DTD/svg11.dtd'><svg enable-background="new 0 0 505 435.373" height="435.373px" id="Layer_1" version="1.1" viewBox="0 0 505 435.373" width="505px" xml:space="preserve" xmlns="http://www.w3.org/2000/svg" xmlns:xlink="http://www.w3.org/1999/xlink"><g><path d="M69.135,365.515c-2.814-0.03-5.076-2.384-5.052-5.263l0,0c0.007-0.109,1.1-138.148,12.057-221.938l0,0   c3.83-28.108,8.027-49.615,15.439-60.185l0,0c2.058-2.815,4.818-5.311,8.648-5.803l0,0c0.292-0.037,0.689-0.078,1.182-0.078l0,0   c2.672-0.031,5.202,1.236,6.91,2.913l0,0c1.749,1.67,2.971,3.705,4.024,5.996l0,0c2.071,4.584,3.48,10.431,4.666,17.575l0,0   c2.309,14.25,3.487,33.581,4.251,55.427l0,0c1.518,43.635,1.351,97.215,4.563,137.302l0,0c1.936,26.583,6.271,47.699,11.402,53.563   l0,0c1.28,1.565,2.095,1.888,2.72,1.979l0,0c0.299,0.037,0.574,0.051,0.829,0.051l0,0c1.439-0.051,2.156-0.366,3.344-1.531l0,0   c1.148-1.171,2.441-3.419,3.511-6.638l0,0c2.19-6.438,3.487-16.417,4.183-27.999l0,0c1.446-23.235,0.74-52.952,3.27-77.817l0,0   c1.766-16.594,4.665-31.099,11.823-40.895l0,0c4.064-5.585,10.18-9.48,17.385-9.772l0,0c0.404-0.024,0.839-0.044,1.311-0.044l0,0   c9.212-0.184,16.224,5.871,19.592,13.656l0,0c3.586,7.813,5.022,17.646,5.806,28.678l0,0c1.501,21.982,0.007,48.908,2.374,70.235   l0,0c1.498,14.24,4.985,25.622,10.621,31.048l0,0c3.208,3.131,6.958,4.853,12.818,4.914l0,0c0.876,0,1.803-0.045,2.761-0.13l0,0   c7.897-0.787,13.693-5.687,18.933-15.307l0,0c5.117-9.534,8.869-23.323,11.704-39.17l0,0c5.731-31.74,8.007-71.566,14.034-104.359   l0,0c4.095-21.884,9.585-40.776,20.183-52.704l0,0c6.04-6.808,14.264-11.069,23.87-11.008l0,0   c13.599-0.207,23.252,6.082,28.446,15.378l0,0c5.291,9.192,7.352,20.618,9.691,32.861l0,0c4.635,24.61,9.693,51.859,35.112,70.059   l0,0c17.024,12.199,43.913,20.786,87.43,20.786l0,0c2.805,0,5.09,2.337,5.09,5.213l0,0c0,2.872-2.285,5.212-5.09,5.212l0,0   c-58.657,0.054-90.7-15.276-108.624-36.93l0,0c-17.84-21.608-21.008-48.052-25.056-68.327l0,0   c-2.601-13.629-5.819-24.114-11.775-29.075l0,0c-3.398-2.896-7.856-4.706-15.225-4.743l0,0   c-8.822,0.098-14.859,4.346-20.495,13.191l0,0c-5.501,8.822-9.609,22.054-12.692,37.537l0,0   c-6.218,31.004-8.526,70.771-14.061,104.081l0,0c-3.766,22.236-8.727,41.676-18.343,54.477l0,0   c-5.47,7.297-13.015,12.394-22.25,13.222l0,0c-1.233,0.103-2.441,0.163-3.644,0.163l0,0c-10.611,0.129-19.045-5.106-24.074-12.984   l0,0c-5.114-7.836-7.62-17.884-9.093-29.021l0,0c-2.886-22.237-1.406-49.289-2.611-70.856l0,0   c-0.703-14.343-2.995-26.152-7.005-31.364l0,0c-2.313-2.961-4.387-4.204-8.428-4.302l0,0c-0.204,0-0.435,0.007-0.764,0.031l0,0   c-5.355,0.353-8.845,3.144-12.326,9.796l0,0c-3.331,6.583-5.589,16.573-6.927,28.175l0,0c-2.757,23.272-2.149,52.885-3.409,77.298   l0,0c-0.923,16.339-2.363,30.229-7.226,39.679l0,0c-2.658,5.358-7.738,9.82-14.176,9.722l0,0c-0.686,0-1.369-0.048-2.071-0.133l0,0   c-6.713-1.001-10.689-6.451-13.487-12.808l0,0c-2.855-6.546-4.862-15.021-6.479-25.133l0,0   c-3.192-20.189-4.618-46.864-5.487-75.233l0,0c-1.705-56.589-1.27-120.349-7.209-148.725l0,0   c-1.341-7.392-3.843-12.078-4.665-12.736l0,0c-0.048,0.021-0.126,0.064-0.251,0.149l0,0c-0.302,0.217-0.808,0.707-1.392,1.504l0,0   c-1.171,1.592-2.577,4.383-3.905,8.084l0,0c-2.686,7.422-5.171,18.403-7.314,31.558l0,0c-4.292,26.338-7.331,61.475-9.439,96.506   l0,0c-4.238,70.089-4.808,139.672-4.808,139.818l0,0c-0.021,2.865-2.295,5.171-5.09,5.171l0,0   C69.162,365.515,69.148,365.515,69.135,365.515L69.135,365.515z" fill="#F15A29"/><path d="M493.13,308.956c-0.007,0-0.163-1.076-0.683-3.252l0,0c-0.52-2.181-1.375-5.342-2.699-9.145l0,0   c-2.643-7.605-7.147-17.775-14.509-27.884l0,0c-14.814-20.179-40.45-40.294-87.417-40.396l0,0c-9.521,0-19.91,0.842-31.244,2.717   l0,0c-9.267,1.531-17.671,2.258-25.313,2.265l0,0c-24.783,0.085-42.019-8.01-53.03-21.303l0,0   c-11.025-13.236-15.945-30.715-19.008-49.353l0,0c-5.905-37.289-4.91-80.31-21.456-105.446l0,0   c-1.82-2.825-3.457-4.692-4.621-5.657l0,0c-1.202-0.985-1.63-0.964-1.63-0.954l0,0c-0.007,0.014-0.007-0.01-0.238,0.129l0,0   c-0.289,0.184-0.842,0.672-1.477,1.562l0,0c-1.3,1.759-2.832,4.995-4.237,9.25l0,0c-2.856,8.54-5.372,21.113-7.646,35.604l0,0   c-4.561,29.035-8.271,65.825-13.412,96.228l0,0c-3.484,20.322-7.409,37.656-13.293,48.82l0,0   c-3.345,6.214-7.759,11.493-14.828,12.104l0,0c-0.452,0.024-0.903,0.038-1.348,0.038l0,0c-8.944,0.054-15.327-6-19.351-13.191l0,0   c-4.21-7.317-7.239-16.591-10.638-26.682l0,0c-6.727-20.186-14.821-43.374-32.077-58.232l0,0   c-11.517-9.925-27.089-16.621-50.467-16.662l0,0c-2.882,0-5.219-2.339-5.219-5.219l0,0c0-2.883,2.336-5.219,5.219-5.219l0,0   c33.351-0.122,54.83,13.276,68.375,30.994l0,0c13.612,17.636,19.962,39.102,25.717,55.957l0,0   c3.749,11.235,7.477,20.41,11.5,24.525l0,0c2.319,2.367,4.132,3.236,6.94,3.297l0,0c0.237,0,0.489-0.007,0.703-0.02l0,0   c0.883-0.011,2.594-0.799,4.832-4.17l0,0c2.173-3.264,4.407-8.533,6.404-15.137l0,0c4.041-13.232,7.293-31.772,10.169-51.812l0,0   c5.799-40.213,10.03-86.262,17.622-111.684l0,0c2.258-7.314,4.567-13.025,8.387-17.072l0,0c2.014-2.119,4.968-3.857,8.363-3.84l0,0   c6.506,0.292,10.621,4.811,15.004,11.378l0,0c14.302,22.315,16.553,52.518,19.551,81.389l0,0   c2.832,28.899,6.513,56.311,20.155,72.388l0,0c9.056,10.706,22.291,17.47,45.034,17.555l0,0c6.987,0,14.821-0.669,23.605-2.112l0,0   c11.863-1.976,22.82-2.872,32.952-2.872l0,0c50.11-0.092,79.709,22.328,95.857,44.691l0,0   c16.221,22.342,19.663,44.334,19.755,44.803l0,0c0.452,2.846-1.497,5.515-4.346,5.966l0,0c-0.272,0.044-0.544,0.064-0.812,0.064   l0,0C495.751,313.367,493.53,311.53,493.13,308.956L493.13,308.956z" fill="#24AEB2"/><path d="M494.569,414.515h-58.718v-16.658h-10.431v16.658h-79.257v-16.658h-10.431v16.658h-79.257v-16.658h-10.431v16.658h-79.26   v-16.658h-10.428v16.658h-79.26v-16.658H66.67v16.658H20.865v-52.993H42.11v-10.428H20.865v-79.26H42.11v-10.428H20.865v-79.26   H42.11v-10.431H20.865V92.458H42.11V82.028H20.865V10.431C20.865,4.669,16.196,0,10.431,0C4.672,0,0.007,4.669,0.007,10.431H0   v414.514c0,2.743,1.121,5.433,3.056,7.372c1.945,1.941,4.631,3.056,7.375,3.056h484.139c5.759,0,10.431-4.672,10.431-10.428   C505,419.177,500.328,414.515,494.569,414.515z M342.439,88.051h-7.457v4.095h7.457V88.051z M342.439,177.559h-7.457v4.095h7.457   V177.559z M273.803,177.559h-7.456v4.095h7.456V177.559z M356.167,356.578h-7.457v4.095h7.457V356.578z M342.439,264.316h-7.457   v4.095h7.457V264.316z M328.711,88.051h-7.456v4.095h7.456V88.051z M342.439,356.578h-7.457v4.095h7.457V356.578z M356.167,88.051   h-7.457v4.095h7.457V88.051z M369.892,88.051h-7.457v4.095h7.457V88.051z M356.167,177.559h-7.457v4.095h7.457V177.559z    M369.892,177.559h-7.457v4.095h7.457V177.559z M383.619,264.316h-7.456v4.095h7.456V264.316z M383.619,356.578h-7.456v4.095h7.456   V356.578z M328.711,177.559h-7.456v4.095h7.456V177.559z M369.892,356.578h-7.457v4.095h7.457V356.578z M369.892,264.316h-7.457   v4.095h7.457V264.316z M301.256,88.051h-7.457v4.095h7.457V88.051z M287.531,177.559h-7.457v4.095h7.457V177.559z M301.256,264.316   h-7.457v4.095h7.457V264.316z M301.256,356.578h-7.457v4.095h7.457V356.578z M287.531,88.051h-7.457v4.095h7.457V88.051z    M273.803,88.051h-7.456v4.095h7.456V88.051z M287.531,264.316h-7.457v4.095h7.457V264.316z M287.531,356.578h-7.457v4.095h7.457   V356.578z M314.983,88.051h-7.457v4.095h7.457V88.051z M301.256,177.559h-7.457v4.095h7.457V177.559z M328.711,356.578h-7.456   v4.095h7.456V356.578z M314.983,177.559h-7.457v4.095h7.457V177.559z M328.711,264.316h-7.456v4.095h7.456V264.316z    M383.619,177.559h-7.456v4.095h7.456V177.559z M314.983,356.578h-7.457v4.095h7.457V356.578z M314.983,264.316h-7.457v4.095h7.457   V264.316z M356.167,264.316h-7.457v4.095h7.457V264.316z M465.982,264.316h-7.456v4.095h7.456V264.316z M465.982,177.559h-7.456   v4.095h7.456V177.559z M465.982,356.578h-7.456v4.095h7.456V356.578z M479.711,356.578h-7.457v4.095h7.457V356.578z    M465.982,88.051h-7.456v4.095h7.456V88.051z M452.255,88.051h-7.456v4.095h7.456V88.051z M452.255,264.316h-7.456v4.095h7.456   V264.316z M452.255,177.559h-7.456v4.095h7.456V177.559z M438.527,88.051h-7.457v4.095h7.457V88.051z M493.438,177.559h-7.456   v4.095h7.456V177.559z M479.711,264.316h-7.457v4.095h7.457V264.316z M493.438,264.316h-7.456v4.095h7.456V264.316z    M493.438,88.051h-7.456v4.095h7.456V88.051z M383.619,88.051h-7.456v4.095h7.456V88.051z M493.438,356.578h-7.456v4.095h7.456   V356.578z M479.711,88.051h-7.457v4.095h7.457V88.051z M479.711,177.559h-7.457v4.095h7.457V177.559z M411.075,356.578h-7.457   v4.095h7.457V356.578z M397.347,88.051h-7.456v4.095h7.456V88.051z M411.075,264.316h-7.457v4.095h7.457V264.316z M438.527,177.559   h-7.457v4.095h7.457V177.559z M411.075,177.559h-7.457v4.095h7.457V177.559z M397.347,264.316h-7.456v4.095h7.456V264.316z    M397.347,177.559h-7.456v4.095h7.456V177.559z M397.347,356.578h-7.456v4.095h7.456V356.578z M438.527,356.578h-7.457v4.095h7.457   V356.578z M438.527,264.316h-7.457v4.095h7.457V264.316z M424.803,88.051h-7.457v4.095h7.457V88.051z M411.075,88.051h-7.457v4.095   h7.457V88.051z M424.803,356.578h-7.457v4.095h7.457V356.578z M424.803,264.316h-7.457v4.095h7.457V264.316z M424.803,177.559   h-7.457v4.095h7.457V177.559z M452.255,356.578h-7.456v4.095h7.456V356.578z M109.076,356.578h-7.457v4.095h7.457V356.578z    M273.803,264.316h-7.456v4.095h7.456V264.316z M122.804,264.316h-7.457v4.095h7.457V264.316z M122.804,88.051h-7.457v4.095h7.457   V88.051z M136.531,356.578h-7.456v4.095h7.456V356.578z M109.076,264.316h-7.457v4.095h7.457V264.316z M109.076,177.559h-7.457   v4.095h7.457V177.559z M109.076,88.051h-7.457v4.095h7.457V88.051z M122.804,177.559h-7.457v4.095h7.457V177.559z M150.259,177.559   h-7.457v4.095h7.457V177.559z M136.531,264.316h-7.456v4.095h7.456V264.316z M150.259,264.316h-7.457v4.095h7.457V264.316z    M150.259,88.051h-7.457v4.095h7.457V88.051z M136.531,177.559h-7.456v4.095h7.456V177.559z M150.259,356.578h-7.457v4.095h7.457   V356.578z M136.531,88.051h-7.456v4.095h7.456V88.051z M95.348,177.559h-7.457v4.095h7.457V177.559z M67.896,356.578h-7.456v4.095   h7.456V356.578z M54.168,88.051h-7.457v4.095h7.457V88.051z M67.896,264.316h-7.456v4.095h7.456V264.316z M67.896,177.559h-7.456   v4.095h7.456V177.559z M67.896,88.051h-7.456v4.095h7.456V88.051z M54.168,356.578h-7.457v4.095h7.457V356.578z M54.168,264.316   h-7.457v4.095h7.457V264.316z M54.168,177.559h-7.457v4.095h7.457V177.559z M95.348,88.051h-7.457v4.095h7.457V88.051z    M95.348,264.316h-7.457v4.095h7.457V264.316z M163.984,356.578h-7.457v4.095h7.457V356.578z M95.348,356.578h-7.457v4.095h7.457   V356.578z M81.624,177.559h-7.457v4.095h7.457V177.559z M81.624,264.316h-7.457v4.095h7.457V264.316z M81.624,88.051h-7.457v4.095   h7.457V88.051z M81.624,356.578h-7.457v4.095h7.457V356.578z M122.804,356.578h-7.457v4.095h7.457V356.578z M232.62,88.051h-7.457   v4.095h7.457V88.051z M232.62,177.559h-7.457v4.095h7.457V177.559z M246.348,264.316h-7.457v4.095h7.457V264.316z M232.62,264.316   h-7.457v4.095h7.457V264.316z M246.348,356.578h-7.457v4.095h7.457V356.578z M218.895,264.316h-7.457v4.095h7.457V264.316z    M232.62,356.578h-7.457v4.095h7.457V356.578z M218.895,88.051h-7.457v4.095h7.457V88.051z M163.984,264.316h-7.457v4.095h7.457   V264.316z M260.075,88.051h-7.456v4.095h7.456V88.051z M260.075,177.559h-7.456v4.095h7.456V177.559z M273.803,356.578h-7.456   v4.095h7.456V356.578z M246.348,177.559h-7.457v4.095h7.457V177.559z M260.075,264.316h-7.456v4.095h7.456V264.316z    M246.348,88.051h-7.457v4.095h7.457V88.051z M260.075,356.578h-7.456v4.095h7.456V356.578z M218.895,177.559h-7.457v4.095h7.457   V177.559z M177.711,177.559h-7.456v4.095h7.456V177.559z M177.711,88.051h-7.456v4.095h7.456V88.051z M191.439,356.578h-7.457   v4.095h7.457V356.578z M177.711,264.316h-7.456v4.095h7.456V264.316z M163.984,177.559h-7.457v4.095h7.457V177.559z    M163.984,88.051h-7.457v4.095h7.457V88.051z M177.711,356.578h-7.456v4.095h7.456V356.578z M205.167,88.051h-7.457v4.095h7.457   V88.051z M205.167,264.316h-7.457v4.095h7.457V264.316z M205.167,177.559h-7.457v4.095h7.457V177.559z M218.895,356.578h-7.457   v4.095h7.457V356.578z M205.167,356.578h-7.457v4.095h7.457V356.578z M191.439,264.316h-7.457v4.095h7.457V264.316z    M191.439,177.559h-7.457v4.095h7.457V177.559z M191.439,88.051h-7.457v4.095h7.457V88.051z"/></g></svg>