<svg version="1.1" x="0" y="0" width="100%" height="100%" viewBox="0 0 57753.6 22681.6" xmlns="http://www.w3.org/2000/svg">
  <path d="M 9090.5 7721.9 L 7538 9094.4 Q 6720.5 7954.4 5873 7954.4 Q 5460.5 7954.4 5198 8175.65 Q 4935.5 8396.9 4935.5 8674.4 Q 4935.5 8951.9 5123 9199.4 Q 5378 9529.4 6660.5 10616.9 Q 7860.5 11621.9 8115.5 11884.4 Q 8753 12529.4 9019.25 13118.15 Q 9285.5 13706.9 9285.5 14404.4 Q 9285.5 15761.9 8348 16646.9 Q 7410.5 17531.9 5903 17531.9 Q 4725.5 17531.9 3851.75 16954.4 Q 2978 16376.9 2355.5 15139.4 L 4118 14074.4 Q 4913 15536.9 5948 15536.9 Q 6488 15536.9 6855.5 15221.9 Q 7223 14906.9 7223 14494.4 Q 7223 14119.4 6945.5 13744.4 Q 6668 13369.4 5723 12596.9 Q 3923 11126.9 3398 10328.15 Q 2873 9529.4 2873 8734.4 Q 2873 7586.9 3746.75 6765.65 Q 4620.5 5944.4 5903 5944.4 Q 6728 5944.4 7474.25 6326.9 Q 8220.5 6709.4 9090.5 7721.9  Z M 19057.7 10744.4 L 17355.2 11681.9 Q 16875.2 11179.4 16406.45 10984.4 Q 15937.7 10789.4 15307.7 10789.4 Q 14160.2 10789.4 13451.45 11475.65 Q 12742.7 12161.9 12742.7 13234.4 Q 12742.7 14276.9 13425.2 14936.9 Q 14107.7 15596.9 15217.7 15596.9 Q 16590.2 15596.9 17355.2 14659.4 L 18967.7 15761.9 Q 17655.2 17464.4 15262.7 17464.4 Q 13110.2 17464.4 11891.45 16189.4 Q 10672.7 14914.4 10672.7 13204.4 Q 10672.7 12019.4 11265.2 11021.9 Q 11857.7 10024.4 12918.95 9454.4 Q 13980.2 8884.4 15292.7 8884.4 Q 16507.7 8884.4 17475.2 9368.15 Q 18442.7 9851.9 19057.7 10744.4  Z M 20420.6 9094.4 L 22175.6 9094.4 L 22175.6 10121.9 Q 22460.6 9514.4 22933.1 9199.4 Q 23405.6 8884.4 23968.1 8884.4 Q 24365.6 8884.4 24800.6 9094.4 L 24163.1 10856.9 Q 23803.1 10676.9 23570.6 10676.9 Q 23098.1 10676.9 22771.85 11261.9 Q 22445.6 11846.9 22445.6 13556.9 L 22453.1 13954.4 L 22453.1 17254.4 L 20420.6 17254.4 L 20420.6 9094.4 Z M 26567.1 5734.4 Q 27107.1 5734.4 27493.35 6124.4 Q 27879.6 6514.4 27879.6 7069.4 Q 27879.6 7616.9 27497.1 8003.15 Q 27114.6 8389.4 26582.1 8389.4 Q 26034.6 8389.4 25648.35 7995.65 Q 25262.1 7601.9 25262.1 7039.4 Q 25262.1 6499.4 25644.6 6116.9 Q 26027.1 5734.4 26567.1 5734.4  Z M 25539.6 9094.4 L 27594.6 9094.4 L 27594.6 17254.4 L 25539.6 17254.4 L 25539.6 9094.4 Z M 31432.3 9094.4 L 31432.3 9994.4 Q 31987.3 9439.4 32632.3 9161.9 Q 33277.3 8884.4 34012.3 8884.4 Q 35609.8 8884.4 36727.3 10091.9 Q 37844.8 11299.4 37844.8 13189.4 Q 37844.8 15011.9 36689.8 16238.15 Q 35534.8 17464.4 33952.3 17464.4 Q 33247.3 17464.4 32639.8 17213.15 Q 32032.3 16961.9 31432.3 16391.9 L 31432.3 20239.4 L 29399.8 20239.4 L 29399.8 9094.4 L 31432.3 9094.4 Z M 33584.8 10774.4 Q 32617.3 10774.4 31979.8 11434.4 Q 31342.3 12094.4 31342.3 13159.4 Q 31342.3 14246.9 31979.8 14918.15 Q 32617.3 15589.4 33584.8 15589.4 Q 34522.3 15589.4 35163.55 14906.9 Q 35804.8 14224.4 35804.8 13166.9 Q 35804.8 12116.9 35174.8 11445.65 Q 34544.8 10774.4 33584.8 10774.4  Z M 39784.9 6086.9 L 41824.9 6086.9 L 41824.9 9094.4 L 43039.9 9094.4 L 43039.9 10856.9 L 41824.9 10856.9 L 41824.9 17254.4 L 39784.9 17254.4 L 39784.9 10856.9 L 38734.9 10856.9 L 38734.9 9094.4 L 39784.9 9094.4 L 39784.9 6086.9 Z M 49089.2 10234.4 L 47821.7 11501.9 Q 47049.2 10736.9 46419.2 10736.9 Q 46074.2 10736.9 45879.2 10883.15 Q 45684.2 11029.4 45684.2 11246.9 Q 45684.2 11411.9 45807.95 11550.65 Q 45931.7 11689.4 46419.2 11929.4 L 47169.2 12304.4 Q 48354.2 12889.4 48796.7 13496.9 Q 49239.2 14104.4 49239.2 14921.9 Q 49239.2 16009.4 48440.45 16736.9 Q 47641.7 17464.4 46299.2 17464.4 Q 44514.2 17464.4 43449.2 16069.4 L 44709.2 14696.9 Q 45069.2 15116.9 45552.95 15375.65 Q 46036.7 15634.4 46411.7 15634.4 Q 46816.7 15634.4 47064.2 15439.4 Q 47311.7 15244.4 47311.7 14989.4 Q 47311.7 14516.9 46419.2 14066.9 L 45729.2 13721.9 Q 43749.2 12724.4 43749.2 11224.4 Q 43749.2 10256.9 44495.45 9570.65 Q 45241.7 8884.4 46404.2 8884.4 Q 47199.2 8884.4 47900.45 9233.15 Q 48601.7 9581.9 49089.2 10234.4  Z " fill-rule="nonzero" style="fill:#000000;;fill-opacity:1;"/>
</svg>