<svg version="1.1" x="0" y="0" width="100%" height="100%" viewBox="0 0 191795.2 53708.8" xmlns="http://www.w3.org/2000/svg">
  <path d="M 5428 13229.6 L 12068 13229.6 Q 18488 13229.6 21608 14819.6 Q 24728 16409.6 26748 19989.6 Q 28768 23569.6 28768 28349.6 Q 28768 31749.6 27638 34599.6 Q 26508 37449.6 24518 39329.6 Q 22528 41209.6 20208 41929.6 Q 17888 42649.6 12168 42649.6 L 5428 42649.6 L 5428 13229.6 Z M 11008 18629.6 L 11008 37169.6 L 13608 37169.6 Q 17448 37169.6 19178 36289.6 Q 20908 35409.6 22008 33329.6 Q 23108 31249.6 23108 28209.6 Q 23108 23529.6 20488 20949.6 Q 18128 18629.6 12908 18629.6 L 11008 18629.6 Z M 32200 20889.6 L 36880 20889.6 L 36880 23629.6 Q 37640 22009.6 38900 21169.6 Q 40160 20329.6 41660 20329.6 Q 42720 20329.6 43880 20889.6 L 42180 25589.6 Q 41220 25109.6 40600 25109.6 Q 39340 25109.6 38470 26669.6 Q 37600 28229.6 37600 32789.6 L 37620 33849.6 L 37620 42649.6 L 32200 42649.6 L 32200 20889.6 Z M 49516 36949.6 Q 50816 36949.6 51736 37859.6 Q 52656 38769.6 52656 40069.6 Q 52656 41369.6 51736 42289.6 Q 50816 43209.6 49516 43209.6 Q 48216 43209.6 47296 42289.6 Q 46376 41369.6 46376 40069.6 Q 46376 38769.6 47296 37859.6 Q 48216 36949.6 49516 36949.6  Z M 67871.2 13229.6 L 73891.2 13229.6 L 79371.2 23789.6 L 84811.2 13229.6 L 90751.2 13229.6 L 82151.2 29909.6 L 82151.2 42649.6 L 76511.2 42649.6 L 76511.2 29909.6 L 67871.2 13229.6 Z M 96906.4 11929.6 Q 98346.4 11929.6 99376.4 12969.6 Q 100406.4 14009.6 100406.4 15489.6 Q 100406.4 16949.6 99386.4 17979.6 Q 98366.4 19009.6 96946.4 19009.6 Q 95486.4 19009.6 94456.4 17959.6 Q 93426.4 16909.6 93426.4 15409.6 Q 93426.4 13969.6 94446.4 12949.6 Q 95466.4 11929.6 96906.4 11929.6  Z M 94166.4 20889.6 L 99646.4 20889.6 L 99646.4 42649.6 L 94166.4 42649.6 L 94166.4 20889.6 Z M 115003.2 13229.6 L 132803.2 13229.6 L 122303.2 37269.6 L 132123.2 37269.6 L 132123.2 42649.6 L 114143.2 42649.6 L 124603.2 18769.6 L 115003.2 18769.6 L 115003.2 13229.6 Z M 146663.2 20329.6 Q 149743.2 20329.6 152453.2 21869.6 Q 155163.2 23409.6 156683.2 26049.6 Q 158203.2 28689.6 158203.2 31749.6 Q 158203.2 34829.6 156673.2 37509.6 Q 155143.2 40189.6 152503.2 41699.6 Q 149863.2 43209.6 146683.2 43209.6 Q 142003.2 43209.6 138693.2 39879.6 Q 135383.2 36549.6 135383.2 31789.6 Q 135383.2 26689.6 139123.2 23289.6 Q 142403.2 20329.6 146663.2 20329.6  Z M 146743.2 25469.6 Q 144203.2 25469.6 142513.2 27239.6 Q 140823.2 29009.6 140823.2 31769.6 Q 140823.2 34609.6 142493.2 36369.6 Q 144163.2 38129.6 146723.2 38129.6 Q 149283.2 38129.6 150983.2 36349.6 Q 152683.2 34569.6 152683.2 31769.6 Q 152683.2 28969.6 151013.2 27219.6 Q 149343.2 25469.6 146743.2 25469.6  Z M 162637.6 20889.6 L 168157.6 20889.6 L 168157.6 31369.6 Q 168157.6 34429.6 168577.6 35619.6 Q 168997.6 36809.6 169927.6 37469.6 Q 170857.6 38129.6 172217.6 38129.6 Q 173577.6 38129.6 174527.6 37479.6 Q 175477.6 36829.6 175937.6 35569.6 Q 176277.6 34629.6 176277.6 31549.6 L 176277.6 20889.6 L 181757.6 20889.6 L 181757.6 30109.6 Q 181757.6 35809.6 180857.6 37909.6 Q 179757.6 40469.6 177617.6 41839.6 Q 175477.6 43209.6 172177.6 43209.6 Q 168597.6 43209.6 166387.6 41609.6 Q 164177.6 40009.6 163277.6 37149.6 Q 162637.6 35169.6 162637.6 29949.6 L 162637.6 20889.6 Z " fill-rule="nonzero" style="fill:#ffffff;;fill-opacity:1;"/>
</svg>