<svg version="1.1" x="0" y="0" width="100%" height="100%" viewBox="0 0 222105.6 33843.2" xmlns="http://www.w3.org/2000/svg">
  <path d="M 2324 8767.2 L 12080 8767.2 L 12080 12079.2 L 8864 12079.2 L 8864 26419.2 L 5456 26419.2 L 5456 12079.2 L 2324 12079.2 L 2324 8767.2 Z M 27075.2 20839.2 L 16551.2 20839.2 Q 16779.2 22231.2 17769.2 23053.2 Q 18759.2 23875.2 20295.2 23875.2 Q 22131.2 23875.2 23451.2 22591.2 L 26211.2 23887.2 Q 25179.2 25351.2 23739.2 26053.2 Q 22299.2 26755.2 20319.2 26755.2 Q 17247.2 26755.2 15315.2 24817.2 Q 13383.2 22879.2 13383.2 19963.2 Q 13383.2 16975.2 15309.2 15001.2 Q 17235.2 13027.2 20139.2 13027.2 Q 23223.2 13027.2 25155.2 15001.2 Q 27087.2 16975.2 27087.2 20215.2 L 27075.2 20839.2 Z M 23787.2 18259.2 Q 23463.2 17167.2 22509.2 16483.2 Q 21555.2 15799.2 20295.2 15799.2 Q 18927.2 15799.2 17895.2 16567.2 Q 17247.2 17047.2 16695.2 18259.2 L 23787.2 18259.2 Z M 28537.6 13363.2 L 32341.6 13363.2 L 34897.6 16927.2 L 37489.6 13363.2 L 41257.6 13363.2 L 36793.6 19543.2 L 41809.6 26419.2 L 38005.6 26419.2 L 34897.6 22135.2 L 31825.6 26419.2 L 28069.6 26419.2 L 33013.6 19543.2 L 28537.6 13363.2 Z M 43831.2 8551.2 L 47095.2 8551.2 L 47095.2 13363.2 L 49039.2 13363.2 L 49039.2 16183.2 L 47095.2 16183.2 L 47095.2 26419.2 L 43831.2 26419.2 L 43831.2 16183.2 L 42151.2 16183.2 L 42151.2 13363.2 L 43831.2 13363.2 L 43831.2 8551.2 Z M 54008.8 8323.2 L 54008.8 14803.2 Q 54896.8 13915.2 55928.8 13471.2 Q 56960.8 13027.2 58136.8 13027.2 Q 60692.8 13027.2 62480.8 14959.2 Q 64268.8 16891.2 64268.8 19915.2 Q 64268.8 22831.2 62420.8 24793.2 Q 60572.8 26755.2 58040.8 26755.2 Q 56912.8 26755.2 55940.8 26353.2 Q 54968.8 25951.2 54008.8 25039.2 L 54008.8 26419.2 L 50756.8 26419.2 L 50756.8 8323.2 L 54008.8 8323.2 Z M 57452.8 16051.2 Q 55904.8 16051.2 54884.8 17107.2 Q 53864.8 18163.2 53864.8 19867.2 Q 53864.8 21607.2 54884.8 22681.2 Q 55904.8 23755.2 57452.8 23755.2 Q 58952.8 23755.2 59978.8 22663.2 Q 61004.8 21571.2 61004.8 19879.2 Q 61004.8 18199.2 59996.8 17125.2 Q 58988.8 16051.2 57452.8 16051.2  Z M 73068 13027.2 Q 74916 13027.2 76542 13951.2 Q 78168 14875.2 79080 16459.2 Q 79992 18043.2 79992 19879.2 Q 79992 21727.2 79074 23335.2 Q 78156 24943.2 76572 25849.2 Q 74988 26755.2 73080 26755.2 Q 70272 26755.2 68286 24757.2 Q 66300 22759.2 66300 19903.2 Q 66300 16843.2 68544 14803.2 Q 70512 13027.2 73068 13027.2  Z M 73116 16111.2 Q 71592 16111.2 70578 17173.2 Q 69564 18235.2 69564 19891.2 Q 69564 21595.2 70566 22651.2 Q 71568 23707.2 73104 23707.2 Q 74640 23707.2 75660 22639.2 Q 76680 21571.2 76680 19891.2 Q 76680 18211.2 75678 17161.2 Q 74676 16111.2 73116 16111.2  Z M 88786.4 13027.2 Q 90634.4 13027.2 92260.4 13951.2 Q 93886.4 14875.2 94798.4 16459.2 Q 95710.4 18043.2 95710.4 19879.2 Q 95710.4 21727.2 94792.4 23335.2 Q 93874.4 24943.2 92290.4 25849.2 Q 90706.4 26755.2 88798.4 26755.2 Q 85990.4 26755.2 84004.4 24757.2 Q 82018.4 22759.2 82018.4 19903.2 Q 82018.4 16843.2 84262.4 14803.2 Q 86230.4 13027.2 88786.4 13027.2  Z M 88834.4 16111.2 Q 87310.4 16111.2 86296.4 17173.2 Q 85282.4 18235.2 85282.4 19891.2 Q 85282.4 21595.2 86284.4 22651.2 Q 87286.4 23707.2 88822.4 23707.2 Q 90358.4 23707.2 91378.4 22639.2 Q 92398.4 21571.2 92398.4 19891.2 Q 92398.4 18211.2 91396.4 17161.2 Q 90394.4 16111.2 88834.4 16111.2  Z M 98396.8 8323.2 L 101672.8 8323.2 L 101672.8 18751.2 L 106496.8 13363.2 L 110600.8 13363.2 L 104984.8 19627.2 L 111284.8 26419.2 L 107216.8 26419.2 L 101672.8 20407.2 L 101672.8 26419.2 L 98396.8 26419.2 L 98396.8 8323.2 Z " fill-rule="nonzero" style="fill:#f64747;;fill-opacity:1;"/>
</svg>