<svg version="1.1" x="0" y="0" width="100%" height="100%" viewBox="0 0 109312 33331.2" xmlns="http://www.w3.org/2000/svg">
  <path d="M 4196 8255.2 L 13040 8255.2 L 13040 9995.2 L 5948 9995.2 L 5948 15515.2 L 13040 15515.2 L 13040 17255.2 L 5948 17255.2 L 5948 25907.2 L 4196 25907.2 L 4196 8255.2 Z M 15546.4 7811.2 L 17226.4 7811.2 L 17226.4 25907.2 L 15546.4 25907.2 L 15546.4 7811.2 Z M 21301.6 7475.2 Q 21877.6 7475.2 22285.6 7883.2 Q 22693.6 8291.2 22693.6 8867.2 Q 22693.6 9431.2 22285.6 9839.2 Q 21877.6 10247.2 21301.6 10247.2 Q 20737.6 10247.2 20329.6 9839.2 Q 19921.6 9431.2 19921.6 8867.2 Q 19921.6 8291.2 20329.6 7883.2 Q 20737.6 7475.2 21301.6 7475.2  Z M 20461.6 12851.2 L 22153.6 12851.2 L 22153.6 25907.2 L 20461.6 25907.2 L 20461.6 12851.2 Z M 36872.8 12851.2 L 38564.8 12851.2 L 38564.8 23255.2 Q 38564.8 26003.2 38084.8 27275.2 Q 37424.8 29075.2 35792.8 30047.2 Q 34160.8 31019.2 31868.8 31019.2 Q 30188.8 31019.2 28850.8 30545.2 Q 27512.8 30071.2 26672.8 29273.2 Q 25832.8 28475.2 25124.8 26939.2 L 26948.8 26939.2 Q 27692.8 28235.2 28868.8 28859.2 Q 30044.8 29483.2 31784.8 29483.2 Q 33500.8 29483.2 34682.8 28841.2 Q 35864.8 28199.2 36368.8 27227.2 Q 36872.8 26255.2 36872.8 24095.2 L 36872.8 23423.2 Q 35924.8 24623.2 34556.8 25265.2 Q 33188.8 25907.2 31652.8 25907.2 Q 29852.8 25907.2 28268.8 25013.2 Q 26684.8 24119.2 25820.8 22607.2 Q 24956.8 21095.2 24956.8 19283.2 Q 24956.8 17471.2 25856.8 15905.2 Q 26756.8 14339.2 28346.8 13427.2 Q 29936.8 12515.2 31700.8 12515.2 Q 33164.8 12515.2 34430.8 13121.2 Q 35696.8 13727.2 36872.8 15119.2 L 36872.8 12851.2 Z M 31916.8 14135.2 Q 30488.8 14135.2 29264.8 14825.2 Q 28040.8 15515.2 27344.8 16733.2 Q 26648.8 17951.2 26648.8 19367.2 Q 26648.8 21515.2 28088.8 22919.2 Q 29528.8 24323.2 31820.8 24323.2 Q 34136.8 24323.2 35546.8 22931.2 Q 36956.8 21539.2 36956.8 19271.2 Q 36956.8 17795.2 36308.8 16637.2 Q 35660.8 15479.2 34472.8 14807.2 Q 33284.8 14135.2 31916.8 14135.2  Z M 42115.2 7811.2 L 43795.2 7811.2 L 43795.2 15191.2 Q 44815.2 13847.2 46039.2 13181.2 Q 47263.2 12515.2 48691.2 12515.2 Q 50155.2 12515.2 51289.2 13259.2 Q 52423.2 14003.2 52963.2 15257.2 Q 53503.2 16511.2 53503.2 19187.2 L 53503.2 25907.2 L 51823.2 25907.2 L 51823.2 19679.2 Q 51823.2 17423.2 51643.2 16667.2 Q 51331.2 15371.2 50509.2 14717.2 Q 49687.2 14063.2 48355.2 14063.2 Q 46831.2 14063.2 45625.2 15071.2 Q 44419.2 16079.2 44035.2 17567.2 Q 43795.2 18527.2 43795.2 21119.2 L 43795.2 25907.2 L 42115.2 25907.2 L 42115.2 7811.2 Z M 58529.6 8003.2 L 60221.6 8003.2 L 60221.6 12851.2 L 62885.6 12851.2 L 62885.6 14291.2 L 60221.6 14291.2 L 60221.6 25907.2 L 58529.6 25907.2 L 58529.6 14291.2 L 56237.6 14291.2 L 56237.6 12851.2 L 58529.6 12851.2 L 58529.6 8003.2 Z " fill-rule="nonzero" style="fill:#000000;;fill-opacity:1;"/>
</svg>