<svg version="1.1" x="0" y="0" width="100%" height="100%" viewBox="0 0 92928 62566.4" xmlns="http://www.w3.org/2000/svg">
  <path d="M 2372 22619.2 L 3872 21719.2 Q 5456 24635.2 7532 24635.2 Q 8420 24635.2 9200 24221.2 Q 9980 23807.2 10388 23111.2 Q 10796 22415.2 10796 21635.2 Q 10796 20747.2 10196 19895.2 Q 9368 18719.2 7172 17063.2 Q 4964 15395.2 4424 14651.2 Q 3488 13403.2 3488 11951.2 Q 3488 10799.2 4040 9851.2 Q 4592 8903.2 5594 8357.2 Q 6596 7811.2 7772 7811.2 Q 9020 7811.2 10106 8429.2 Q 11192 9047.2 12404 10703.2 L 10964 11795.2 Q 9968 10475.2 9266 10055.2 Q 8564 9635.2 7736 9635.2 Q 6668 9635.2 5990 10283.2 Q 5312 10931.2 5312 11879.2 Q 5312 12455.2 5552 12995.2 Q 5792 13535.2 6428 14171.2 Q 6776 14507.2 8708 15935.2 Q 11000 17627.2 11852 18947.2 Q 12704 20267.2 12704 21599.2 Q 12704 23519.2 11246 24935.2 Q 9788 26351.2 7700 26351.2 Q 6092 26351.2 4784 25493.2 Q 3476 24635.2 2372 22619.2  Z M 15904.8 7811.2 L 17584.8 7811.2 L 17584.8 25907.2 L 15904.8 25907.2 L 15904.8 7811.2 Z M 21660 7475.2 Q 22236 7475.2 22644 7883.2 Q 23052 8291.2 23052 8867.2 Q 23052 9431.2 22644 9839.2 Q 22236 10247.2 21660 10247.2 Q 21096 10247.2 20688 9839.2 Q 20280 9431.2 20280 8867.2 Q 20280 8291.2 20688 7883.2 Q 21096 7475.2 21660 7475.2  Z M 20820 12851.2 L 22512 12851.2 L 22512 25907.2 L 20820 25907.2 L 20820 12851.2 Z M 39019.2 7811.2 L 39019.2 25907.2 L 37363.2 25907.2 L 37363.2 23663.2 Q 36307.2 24947.2 34993.2 25595.2 Q 33679.2 26243.2 32119.2 26243.2 Q 29347.2 26243.2 27385.2 24233.2 Q 25423.2 22223.2 25423.2 19343.2 Q 25423.2 16523.2 27403.2 14519.2 Q 29383.2 12515.2 32167.2 12515.2 Q 33775.2 12515.2 35077.2 13199.2 Q 36379.2 13883.2 37363.2 15251.2 L 37363.2 7811.2 L 39019.2 7811.2 Z M 32299.2 14135.2 Q 30895.2 14135.2 29707.2 14825.2 Q 28519.2 15515.2 27817.2 16763.2 Q 27115.2 18011.2 27115.2 19403.2 Q 27115.2 20783.2 27823.2 22043.2 Q 28531.2 23303.2 29725.2 24005.2 Q 30919.2 24707.2 32287.2 24707.2 Q 33667.2 24707.2 34903.2 24011.2 Q 36139.2 23315.2 36805.2 22127.2 Q 37471.2 20939.2 37471.2 19451.2 Q 37471.2 17183.2 35977.2 15659.2 Q 34483.2 14135.2 32299.2 14135.2  Z M 53772.8 21575.2 L 55188.8 22319.2 Q 54492.8 23687.2 53580.8 24527.2 Q 52668.8 25367.2 51528.8 25805.2 Q 50388.8 26243.2 48948.8 26243.2 Q 45756.8 26243.2 43956.8 24149.2 Q 42156.8 22055.2 42156.8 19415.2 Q 42156.8 16931.2 43680.8 14987.2 Q 45612.8 12515.2 48852.8 12515.2 Q 52188.8 12515.2 54180.8 15047.2 Q 55596.8 16835.2 55620.8 19511.2 L 43884.8 19511.2 Q 43932.8 21791.2 45336.8 23249.2 Q 46740.8 24707.2 48804.8 24707.2 Q 49800.8 24707.2 50742.8 24359.2 Q 51684.8 24011.2 52344.8 23435.2 Q 53004.8 22859.2 53772.8 21575.2  Z M 53772.8 18059.2 Q 53436.8 16715.2 52794.8 15911.2 Q 52152.8 15107.2 51096.8 14615.2 Q 50040.8 14123.2 48876.8 14123.2 Q 46956.8 14123.2 45576.8 15359.2 Q 44568.8 16259.2 44052.8 18059.2 L 53772.8 18059.2 Z M 65268 14279.2 L 64188 15395.2 Q 62844 14087.2 61560 14087.2 Q 60744 14087.2 60162 14627.2 Q 59580 15167.2 59580 15887.2 Q 59580 16523.2 60060 17099.2 Q 60540 17687.2 62076 18479.2 Q 63948 19451.2 64620 20351.2 Q 65280 21263.2 65280 22403.2 Q 65280 24011.2 64152 25127.2 Q 63024 26243.2 61332 26243.2 Q 60204 26243.2 59178 25751.2 Q 58152 25259.2 57480 24395.2 L 58536 23195.2 Q 59820 24647.2 61260 24647.2 Q 62268 24647.2 62976 23999.2 Q 63684 23351.2 63684 22475.2 Q 63684 21755.2 63216 21191.2 Q 62748 20639.2 61104 19799.2 Q 59340 18887.2 58704 17999.2 Q 58068 17111.2 58068 15971.2 Q 58068 14483.2 59082 13499.2 Q 60096 12515.2 61644 12515.2 Q 63444 12515.2 65268 14279.2  Z M 76387.2 7811.2 L 69055.2 28307.2 L 67219.2 28307.2 L 74539.2 7811.2 L 76387.2 7811.2 Z M 3944 42086.4 L 5612 42086.4 L 5612 44486.4 Q 6608 43118.4 7904 42434.4 Q 9200 41750.4 10796 41750.4 Q 13580 41750.4 15560 43754.4 Q 17540 45758.4 17540 48578.4 Q 17540 51458.4 15578 53468.4 Q 13616 55478.4 10844 55478.4 Q 9284 55478.4 7976 54830.4 Q 6668 54182.4 5612 52898.4 L 5612 59918.4 L 3944 59918.4 L 3944 42086.4 Z M 10664 43370.4 Q 8480 43370.4 6986 44894.4 Q 5492 46418.4 5492 48686.4 Q 5492 50174.4 6158 51362.4 Q 6824 52550.4 8066 53246.4 Q 9308 53942.4 10688 53942.4 Q 12044 53942.4 13238 53240.4 Q 14432 52538.4 15140 51278.4 Q 15848 50018.4 15848 48638.4 Q 15848 47246.4 15146 45998.4 Q 14444 44750.4 13256 44060.4 Q 12068 43370.4 10664 43370.4  Z M 26842.4 41750.4 Q 29854.4 41750.4 31834.4 43934.4 Q 33634.4 45926.4 33634.4 48650.4 Q 33634.4 51386.4 31732.4 53432.4 Q 29830.4 55478.4 26842.4 55478.4 Q 23842.4 55478.4 21940.4 53432.4 Q 20038.4 51386.4 20038.4 48650.4 Q 20038.4 45938.4 21838.4 43946.4 Q 23818.4 41750.4 26842.4 41750.4  Z M 26842.4 43394.4 Q 24754.4 43394.4 23254.4 44942.4 Q 21754.4 46490.4 21754.4 48686.4 Q 21754.4 50102.4 22438.4 51326.4 Q 23122.4 52550.4 24286.4 53216.4 Q 25450.4 53882.4 26842.4 53882.4 Q 28234.4 53882.4 29398.4 53216.4 Q 30562.4 52550.4 31246.4 51326.4 Q 31930.4 50102.4 31930.4 48686.4 Q 31930.4 46490.4 30424.4 44942.4 Q 28918.4 43394.4 26842.4 43394.4  Z M 43303.2 43514.4 L 42223.2 44630.4 Q 40879.2 43322.4 39595.2 43322.4 Q 38779.2 43322.4 38197.2 43862.4 Q 37615.2 44402.4 37615.2 45122.4 Q 37615.2 45758.4 38095.2 46334.4 Q 38575.2 46922.4 40111.2 47714.4 Q 41983.2 48686.4 42655.2 49586.4 Q 43315.2 50498.4 43315.2 51638.4 Q 43315.2 53246.4 42187.2 54362.4 Q 41059.2 55478.4 39367.2 55478.4 Q 38239.2 55478.4 37213.2 54986.4 Q 36187.2 54494.4 35515.2 53630.4 L 36571.2 52430.4 Q 37855.2 53882.4 39295.2 53882.4 Q 40303.2 53882.4 41011.2 53234.4 Q 41719.2 52586.4 41719.2 51710.4 Q 41719.2 50990.4 41251.2 50426.4 Q 40783.2 49874.4 39139.2 49034.4 Q 37375.2 48122.4 36739.2 47234.4 Q 36103.2 46346.4 36103.2 45206.4 Q 36103.2 43718.4 37117.2 42734.4 Q 38131.2 41750.4 39679.2 41750.4 Q 41479.2 41750.4 43303.2 43514.4  Z M 47726.4 37238.4 L 49418.4 37238.4 L 49418.4 42086.4 L 52082.4 42086.4 L 52082.4 43526.4 L 49418.4 43526.4 L 49418.4 55142.4 L 47726.4 55142.4 L 47726.4 43526.4 L 45434.4 43526.4 L 45434.4 42086.4 L 47726.4 42086.4 L 47726.4 37238.4 Z M 65548.8 50810.4 L 66964.8 51554.4 Q 66268.8 52922.4 65356.8 53762.4 Q 64444.8 54602.4 63304.8 55040.4 Q 62164.8 55478.4 60724.8 55478.4 Q 57532.8 55478.4 55732.8 53384.4 Q 53932.8 51290.4 53932.8 48650.4 Q 53932.8 46166.4 55456.8 44222.4 Q 57388.8 41750.4 60628.8 41750.4 Q 63964.8 41750.4 65956.8 44282.4 Q 67372.8 46070.4 67396.8 48746.4 L 55660.8 48746.4 Q 55708.8 51026.4 57112.8 52484.4 Q 58516.8 53942.4 60580.8 53942.4 Q 61576.8 53942.4 62518.8 53594.4 Q 63460.8 53246.4 64120.8 52670.4 Q 64780.8 52094.4 65548.8 50810.4  Z M 65548.8 47294.4 Q 65212.8 45950.4 64570.8 45146.4 Q 63928.8 44342.4 62872.8 43850.4 Q 61816.8 43358.4 60652.8 43358.4 Q 58732.8 43358.4 57352.8 44594.4 Q 56344.8 45494.4 55828.8 47294.4 L 65548.8 47294.4 Z M 69844 42086.4 L 71560 42086.4 L 71560 43994.4 Q 72328 42866.4 73180 42308.4 Q 74032 41750.4 74956 41750.4 Q 75652 41750.4 76444 42194.4 L 75568 43610.4 Q 75040 43382.4 74680 43382.4 Q 73840 43382.4 73060 44072.4 Q 72280 44762.4 71872 46214.4 Q 71560 47330.4 71560 50726.4 L 71560 55142.4 L 69844 55142.4 L 69844 42086.4 Z M 84416.8 43514.4 L 83336.8 44630.4 Q 81992.8 43322.4 80708.8 43322.4 Q 79892.8 43322.4 79310.8 43862.4 Q 78728.8 44402.4 78728.8 45122.4 Q 78728.8 45758.4 79208.8 46334.4 Q 79688.8 46922.4 81224.8 47714.4 Q 83096.8 48686.4 83768.8 49586.4 Q 84428.8 50498.4 84428.8 51638.4 Q 84428.8 53246.4 83300.8 54362.4 Q 82172.8 55478.4 80480.8 55478.4 Q 79352.8 55478.4 78326.8 54986.4 Q 77300.8 54494.4 76628.8 53630.4 L 77684.8 52430.4 Q 78968.8 53882.4 80408.8 53882.4 Q 81416.8 53882.4 82124.8 53234.4 Q 82832.8 52586.4 82832.8 51710.4 Q 82832.8 50990.4 82364.8 50426.4 Q 81896.8 49874.4 80252.8 49034.4 Q 78488.8 48122.4 77852.8 47234.4 Q 77216.8 46346.4 77216.8 45206.4 Q 77216.8 43718.4 78230.8 42734.4 Q 79244.8 41750.4 80792.8 41750.4 Q 82592.8 41750.4 84416.8 43514.4  Z " fill-rule="nonzero" style="fill:#000000;;fill-opacity:1;"/>
</svg>