<svg version="1.1" x="0" y="0" width="100%" height="100%" viewBox="0 0 170752 33331.2" xmlns="http://www.w3.org/2000/svg">
  <path d="M 3200 8255.2 L 5012 8255.2 L 8600 20975.2 L 13664 8255.2 L 14024 8255.2 L 19028 20975.2 L 22688 8255.2 L 24488 8255.2 L 19424 25907.2 L 19088 25907.2 L 13856 12551.2 L 8516 25907.2 L 8180 25907.2 L 3200 8255.2 Z M 38464 21575.2 L 39880 22319.2 Q 39184 23687.2 38272 24527.2 Q 37360 25367.2 36220 25805.2 Q 35080 26243.2 33640 26243.2 Q 30448 26243.2 28648 24149.2 Q 26848 22055.2 26848 19415.2 Q 26848 16931.2 28372 14987.2 Q 30304 12515.2 33544 12515.2 Q 36880 12515.2 38872 15047.2 Q 40288 16835.2 40312 19511.2 L 28576 19511.2 Q 28624 21791.2 30028 23249.2 Q 31432 24707.2 33496 24707.2 Q 34492 24707.2 35434 24359.2 Q 36376 24011.2 37036 23435.2 Q 37696 22859.2 38464 21575.2  Z M 38464 18059.2 Q 38128 16715.2 37486 15911.2 Q 36844 15107.2 35788 14615.2 Q 34732 14123.2 33568 14123.2 Q 31648 14123.2 30268 15359.2 Q 29260 16259.2 28744 18059.2 L 38464 18059.2 Z M 43503.2 25907.2 L 43503.2 7811.2 L 45171.2 7811.2 L 45171.2 15095.2 Q 46227.2 13799.2 47535.2 13157.2 Q 48843.2 12515.2 50403.2 12515.2 Q 53175.2 12515.2 55137.2 14525.2 Q 57099.2 16535.2 57099.2 19403.2 Q 57099.2 22235.2 55119.2 24239.2 Q 53139.2 26243.2 50355.2 26243.2 Q 48759.2 26243.2 47463.2 25559.2 Q 46167.2 24875.2 45171.2 23507.2 L 45171.2 25907.2 L 43503.2 25907.2 Z M 50223.2 24623.2 Q 51627.2 24623.2 52815.2 23933.2 Q 54003.2 23243.2 54705.2 21995.2 Q 55407.2 20747.2 55407.2 19355.2 Q 55407.2 17963.2 54699.2 16703.2 Q 53991.2 15443.2 52797.2 14741.2 Q 51603.2 14039.2 50247.2 14039.2 Q 48867.2 14039.2 47625.2 14741.2 Q 46383.2 15443.2 45717.2 16631.2 Q 45051.2 17819.2 45051.2 19307.2 Q 45051.2 21575.2 46545.2 23099.2 Q 48039.2 24623.2 50223.2 24623.2  Z M 66701.6 14279.2 L 65621.6 15395.2 Q 64277.6 14087.2 62993.6 14087.2 Q 62177.6 14087.2 61595.6 14627.2 Q 61013.6 15167.2 61013.6 15887.2 Q 61013.6 16523.2 61493.6 17099.2 Q 61973.6 17687.2 63509.6 18479.2 Q 65381.6 19451.2 66053.6 20351.2 Q 66713.6 21263.2 66713.6 22403.2 Q 66713.6 24011.2 65585.6 25127.2 Q 64457.6 26243.2 62765.6 26243.2 Q 61637.6 26243.2 60611.6 25751.2 Q 59585.6 25259.2 58913.6 24395.2 L 59969.6 23195.2 Q 61253.6 24647.2 62693.6 24647.2 Q 63701.6 24647.2 64409.6 23999.2 Q 65117.6 23351.2 65117.6 22475.2 Q 65117.6 21755.2 64649.6 21191.2 Q 64181.6 20639.2 62537.6 19799.2 Q 60773.6 18887.2 60137.6 17999.2 Q 59501.6 17111.2 59501.6 15971.2 Q 59501.6 14483.2 60515.6 13499.2 Q 61529.6 12515.2 63077.6 12515.2 Q 64877.6 12515.2 66701.6 14279.2  Z M 70248.8 7475.2 Q 70824.8 7475.2 71232.8 7883.2 Q 71640.8 8291.2 71640.8 8867.2 Q 71640.8 9431.2 71232.8 9839.2 Q 70824.8 10247.2 70248.8 10247.2 Q 69684.8 10247.2 69276.8 9839.2 Q 68868.8 9431.2 68868.8 8867.2 Q 68868.8 8291.2 69276.8 7883.2 Q 69684.8 7475.2 70248.8 7475.2  Z M 69408.8 12851.2 L 71100.8 12851.2 L 71100.8 25907.2 L 69408.8 25907.2 L 69408.8 12851.2 Z M 76040 8003.2 L 77732 8003.2 L 77732 12851.2 L 80396 12851.2 L 80396 14291.2 L 77732 14291.2 L 77732 25907.2 L 76040 25907.2 L 76040 14291.2 L 73748 14291.2 L 73748 12851.2 L 76040 12851.2 L 76040 8003.2 Z M 93862.4 21575.2 L 95278.4 22319.2 Q 94582.4 23687.2 93670.4 24527.2 Q 92758.4 25367.2 91618.4 25805.2 Q 90478.4 26243.2 89038.4 26243.2 Q 85846.4 26243.2 84046.4 24149.2 Q 82246.4 22055.2 82246.4 19415.2 Q 82246.4 16931.2 83770.4 14987.2 Q 85702.4 12515.2 88942.4 12515.2 Q 92278.4 12515.2 94270.4 15047.2 Q 95686.4 16835.2 95710.4 19511.2 L 83974.4 19511.2 Q 84022.4 21791.2 85426.4 23249.2 Q 86830.4 24707.2 88894.4 24707.2 Q 89890.4 24707.2 90832.4 24359.2 Q 91774.4 24011.2 92434.4 23435.2 Q 93094.4 22859.2 93862.4 21575.2  Z M 93862.4 18059.2 Q 93526.4 16715.2 92884.4 15911.2 Q 92242.4 15107.2 91186.4 14615.2 Q 90130.4 14123.2 88966.4 14123.2 Q 87046.4 14123.2 85666.4 15359.2 Q 84658.4 16259.2 84142.4 18059.2 L 93862.4 18059.2 Z M 105357.6 14279.2 L 104277.6 15395.2 Q 102933.6 14087.2 101649.6 14087.2 Q 100833.6 14087.2 100251.6 14627.2 Q 99669.6 15167.2 99669.6 15887.2 Q 99669.6 16523.2 100149.6 17099.2 Q 100629.6 17687.2 102165.6 18479.2 Q 104037.6 19451.2 104709.6 20351.2 Q 105369.6 21263.2 105369.6 22403.2 Q 105369.6 24011.2 104241.6 25127.2 Q 103113.6 26243.2 101421.6 26243.2 Q 100293.6 26243.2 99267.6 25751.2 Q 98241.6 25259.2 97569.6 24395.2 L 98625.6 23195.2 Q 99909.6 24647.2 101349.6 24647.2 Q 102357.6 24647.2 103065.6 23999.2 Q 103773.6 23351.2 103773.6 22475.2 Q 103773.6 21755.2 103305.6 21191.2 Q 102837.6 20639.2 101193.6 19799.2 Q 99429.6 18887.2 98793.6 17999.2 Q 98157.6 17111.2 98157.6 15971.2 Q 98157.6 14483.2 99171.6 13499.2 Q 100185.6 12515.2 101733.6 12515.2 Q 103533.6 12515.2 105357.6 14279.2  Z " fill-rule="nonzero" style="fill:#000000;;fill-opacity:1;"/>
</svg>