<svg version="1.1" x="0" y="0" width="100%" height="100%" viewBox="0 0 122931.2 22681.6" xmlns="http://www.w3.org/2000/svg">
  <path d="M 4373 6221.9 L 6428 6221.9 L 8978 13916.9 L 11565.5 6221.9 L 13590.5 6221.9 L 15450.5 17254.4 L 13425.5 17254.4 L 12240.5 10286.9 L 9893 17254.4 L 8040.5 17254.4 L 5723 10286.9 L 4515.5 17254.4 L 2468 17254.4 L 4373 6221.9 Z M 22885.8 9094.4 L 24925.8 9094.4 L 24925.8 17254.4 L 22885.8 17254.4 L 22885.8 16391.9 Q 22285.8 16961.9 21682.05 17213.15 Q 21078.3 17464.4 20373.3 17464.4 Q 18790.8 17464.4 17635.8 16238.15 Q 16480.8 15011.9 16480.8 13189.4 Q 16480.8 11299.4 17598.3 10091.9 Q 18715.8 8884.4 20313.3 8884.4 Q 21048.3 8884.4 21693.3 9161.9 Q 22338.3 9439.4 22885.8 9994.4 L 22885.8 9094.4 Z M 20733.3 10774.4 Q 19780.8 10774.4 19150.8 11445.65 Q 18520.8 12116.9 18520.8 13166.9 Q 18520.8 14224.4 19162.05 14906.9 Q 19803.3 15589.4 20740.8 15589.4 Q 21708.3 15589.4 22345.8 14918.15 Q 22983.3 14246.9 22983.3 13159.4 Q 22983.3 12094.4 22345.8 11434.4 Q 21708.3 10774.4 20733.3 10774.4  Z M 29025.9 9094.4 L 29025.9 9994.4 Q 29580.9 9439.4 30225.9 9161.9 Q 30870.9 8884.4 31605.9 8884.4 Q 33203.4 8884.4 34320.9 10091.9 Q 35438.4 11299.4 35438.4 13189.4 Q 35438.4 15011.9 34283.4 16238.15 Q 33128.4 17464.4 31545.9 17464.4 Q 30840.9 17464.4 30233.4 17213.15 Q 29625.9 16961.9 29025.9 16391.9 L 29025.9 20239.4 L 26993.4 20239.4 L 26993.4 9094.4 L 29025.9 9094.4 Z M 31178.4 10774.4 Q 30210.9 10774.4 29573.4 11434.4 Q 28935.9 12094.4 28935.9 13159.4 Q 28935.9 14246.9 29573.4 14918.15 Q 30210.9 15589.4 31178.4 15589.4 Q 32115.9 15589.4 32757.15 14906.9 Q 33398.4 14224.4 33398.4 13166.9 Q 33398.4 12116.9 32768.4 11445.65 Q 32138.4 10774.4 31178.4 10774.4  Z M 42126 10234.4 L 40858.5 11501.9 Q 40086 10736.9 39456 10736.9 Q 39111 10736.9 38916 10883.15 Q 38721 11029.4 38721 11246.9 Q 38721 11411.9 38844.75 11550.65 Q 38968.5 11689.4 39456 11929.4 L 40206 12304.4 Q 41391 12889.4 41833.5 13496.9 Q 42276 14104.4 42276 14921.9 Q 42276 16009.4 41477.25 16736.9 Q 40678.5 17464.4 39336 17464.4 Q 37551 17464.4 36486 16069.4 L 37746 14696.9 Q 38106 15116.9 38589.75 15375.65 Q 39073.5 15634.4 39448.5 15634.4 Q 39853.5 15634.4 40101 15439.4 Q 40348.5 15244.4 40348.5 14989.4 Q 40348.5 14516.9 39456 14066.9 L 38766 13721.9 Q 36786 12724.4 36786 11224.4 Q 36786 10256.9 37532.25 9570.65 Q 38278.5 8884.4 39441 8884.4 Q 40236 8884.4 40937.25 9233.15 Q 41638.5 9581.9 42126 10234.4  Z M 49902.8 5734.4 L 52497.8 5734.4 Q 51162.8 7241.9 50506.55 9004.4 Q 49850.3 10766.9 49850.3 13031.9 Q 49850.3 15484.4 50577.8 17344.4 Q 51147.8 18776.9 52497.8 20449.4 L 49902.8 20449.4 Q 48702.8 18544.4 48226.55 16883.15 Q 47750.3 15221.9 47750.3 12971.9 Q 47750.3 10766.9 48252.8 9109.4 Q 48755.3 7451.9 49902.8 5734.4  Z M 53873.4 9094.4 L 55913.4 9094.4 L 55913.4 9926.9 Q 56610.9 9341.9 57177.15 9113.15 Q 57743.4 8884.4 58335.9 8884.4 Q 59550.9 8884.4 60398.4 9731.9 Q 61110.9 10451.9 61110.9 11861.9 L 61110.9 17254.4 L 59085.9 17254.4 L 59085.9 13676.9 Q 59085.9 12214.4 58954.65 11734.4 Q 58823.4 11254.4 58497.15 11003.15 Q 58170.9 10751.9 57690.9 10751.9 Q 57068.4 10751.9 56622.15 11168.15 Q 56175.9 11584.4 56003.4 12319.4 Q 55913.4 12701.9 55913.4 13976.9 L 55913.4 17254.4 L 53873.4 17254.4 L 53873.4 9094.4 Z M 69119.4 9094.4 L 71159.4 9094.4 L 71159.4 17254.4 L 69119.4 17254.4 L 69119.4 16391.9 Q 68519.4 16961.9 67915.65 17213.15 Q 67311.9 17464.4 66606.9 17464.4 Q 65024.4 17464.4 63869.4 16238.15 Q 62714.4 15011.9 62714.4 13189.4 Q 62714.4 11299.4 63831.9 10091.9 Q 64949.4 8884.4 66546.9 8884.4 Q 67281.9 8884.4 67926.9 9161.9 Q 68571.9 9439.4 69119.4 9994.4 L 69119.4 9094.4 Z M 66966.9 10774.4 Q 66014.4 10774.4 65384.4 11445.65 Q 64754.4 12116.9 64754.4 13166.9 Q 64754.4 14224.4 65395.65 14906.9 Q 66036.9 15589.4 66974.4 15589.4 Q 67941.9 15589.4 68579.4 14918.15 Q 69216.9 14246.9 69216.9 13159.4 Q 69216.9 12094.4 68579.4 11434.4 Q 67941.9 10774.4 66966.9 10774.4  Z M 73474.5 6086.9 L 75514.5 6086.9 L 75514.5 9094.4 L 76729.5 9094.4 L 76729.5 10856.9 L 75514.5 10856.9 L 75514.5 17254.4 L 73474.5 17254.4 L 73474.5 10856.9 L 72424.5 10856.9 L 72424.5 9094.4 L 73474.5 9094.4 L 73474.5 6086.9 Z M 78586.3 5734.4 Q 79126.3 5734.4 79512.55 6124.4 Q 79898.8 6514.4 79898.8 7069.4 Q 79898.8 7616.9 79516.3 8003.15 Q 79133.8 8389.4 78601.3 8389.4 Q 78053.8 8389.4 77667.55 7995.65 Q 77281.3 7601.9 77281.3 7039.4 Q 77281.3 6499.4 77663.8 6116.9 Q 78046.3 5734.4 78586.3 5734.4  Z M 77558.8 9094.4 L 79613.8 9094.4 L 79613.8 17254.4 L 77558.8 17254.4 L 77558.8 9094.4 Z M 85251.5 8884.4 Q 86406.5 8884.4 87422.75 9461.9 Q 88439 10039.4 89009 11029.4 Q 89579 12019.4 89579 13166.9 Q 89579 14321.9 89005.25 15326.9 Q 88431.5 16331.9 87441.5 16898.15 Q 86451.5 17464.4 85259 17464.4 Q 83504 17464.4 82262.75 16215.65 Q 81021.5 14966.9 81021.5 13181.9 Q 81021.5 11269.4 82424 9994.4 Q 83654 8884.4 85251.5 8884.4  Z M 85281.5 10811.9 Q 84329 10811.9 83695.25 11475.65 Q 83061.5 12139.4 83061.5 13174.4 Q 83061.5 14239.4 83687.75 14899.4 Q 84314 15559.4 85274 15559.4 Q 86234 15559.4 86871.5 14891.9 Q 87509 14224.4 87509 13174.4 Q 87509 12124.4 86882.75 11468.15 Q 86256.5 10811.9 85281.5 10811.9  Z M 91249.4 9094.4 L 93289.4 9094.4 L 93289.4 9926.9 Q 93986.9 9341.9 94553.15 9113.15 Q 95119.4 8884.4 95711.9 8884.4 Q 96926.9 8884.4 97774.4 9731.9 Q 98486.9 10451.9 98486.9 11861.9 L 98486.9 17254.4 L 96461.9 17254.4 L 96461.9 13676.9 Q 96461.9 12214.4 96330.65 11734.4 Q 96199.4 11254.4 95873.15 11003.15 Q 95546.9 10751.9 95066.9 10751.9 Q 94444.4 10751.9 93998.15 11168.15 Q 93551.9 11584.4 93379.4 12319.4 Q 93289.4 12701.9 93289.4 13976.9 L 93289.4 17254.4 L 91249.4 17254.4 L 91249.4 9094.4 Z M 106495.4 9094.4 L 108535.4 9094.4 L 108535.4 17254.4 L 106495.4 17254.4 L 106495.4 16391.9 Q 105895.4 16961.9 105291.65 17213.15 Q 104687.9 17464.4 103982.9 17464.4 Q 102400.4 17464.4 101245.4 16238.15 Q 100090.4 15011.9 100090.4 13189.4 Q 100090.4 11299.4 101207.9 10091.9 Q 102325.4 8884.4 103922.9 8884.4 Q 104657.9 8884.4 105302.9 9161.9 Q 105947.9 9439.4 106495.4 9994.4 L 106495.4 9094.4 Z M 104342.9 10774.4 Q 103390.4 10774.4 102760.4 11445.65 Q 102130.4 12116.9 102130.4 13166.9 Q 102130.4 14224.4 102771.65 14906.9 Q 103412.9 15589.4 104350.4 15589.4 Q 105317.9 15589.4 105955.4 14918.15 Q 106592.9 14246.9 106592.9 13159.4 Q 106592.9 12094.4 105955.4 11434.4 Q 105317.9 10774.4 104342.9 10774.4  Z M 110385.5 5944.4 L 112433 5944.4 L 112433 17254.4 L 110385.5 17254.4 L 110385.5 5944.4 Z M 116195.7 20449.4 L 113600.7 20449.4 Q 114935.7 18941.9 115591.95 17183.15 Q 116248.2 15424.4 116248.2 13151.9 Q 116248.2 10699.4 115520.7 8846.9 Q 114950.7 7414.4 113600.7 5734.4 L 116195.7 5734.4 Q 117395.7 7639.4 117871.95 9300.65 Q 118348.2 10961.9 118348.2 13211.9 Q 118348.2 15416.9 117845.7 17074.4 Q 117343.2 18731.9 116195.7 20449.4  Z " fill-rule="nonzero" style="fill:#000000;;fill-opacity:1;"/>
</svg>