<svg version="1.1" x="0" y="0" width="100%" height="100%" viewBox="0 0 151654.4 33331.2" xmlns="http://www.w3.org/2000/svg">
  <path d="M 4292 8255.2 L 7808 8255.2 Q 10748 8255.2 11792 8495.2 Q 13364 8855.2 14348 10037.2 Q 15332 11219.2 15332 12947.2 Q 15332 14387.2 14654 15479.2 Q 13976 16571.2 12716 17129.2 Q 11456 17687.2 9236 17699.2 L 15584 25907.2 L 13400 25907.2 L 7064 17699.2 L 6056 17699.2 L 6056 25907.2 L 4292 25907.2 L 4292 8255.2 Z M 6056 9983.2 L 6056 15983.2 L 9092 16007.2 Q 10856 16007.2 11702 15671.2 Q 12548 15335.2 13022 14597.2 Q 13496 13859.2 13496 12947.2 Q 13496 12059.2 13016 11333.2 Q 12536 10607.2 11756 10295.2 Q 10976 9983.2 9164 9983.2 L 6056 9983.2 Z M 25601.6 12851.2 L 27269.6 12851.2 L 27269.6 15251.2 Q 28265.6 13883.2 29561.6 13199.2 Q 30857.6 12515.2 32453.6 12515.2 Q 35237.6 12515.2 37217.6 14519.2 Q 39197.6 16523.2 39197.6 19343.2 Q 39197.6 22223.2 37235.6 24233.2 Q 35273.6 26243.2 32501.6 26243.2 Q 30941.6 26243.2 29633.6 25595.2 Q 28325.6 24947.2 27269.6 23663.2 L 27269.6 30683.2 L 25601.6 30683.2 L 25601.6 12851.2 Z M 32321.6 14135.2 Q 30137.6 14135.2 28643.6 15659.2 Q 27149.6 17183.2 27149.6 19451.2 Q 27149.6 20939.2 27815.6 22127.2 Q 28481.6 23315.2 29723.6 24011.2 Q 30965.6 24707.2 32345.6 24707.2 Q 33701.6 24707.2 34895.6 24005.2 Q 36089.6 23303.2 36797.6 22043.2 Q 37505.6 20783.2 37505.6 19403.2 Q 37505.6 18011.2 36803.6 16763.2 Q 36101.6 15515.2 34913.6 14825.2 Q 33725.6 14135.2 32321.6 14135.2  Z M 55328 12851.2 L 55328 25907.2 L 53672 25907.2 L 53672 23663.2 Q 52616 24947.2 51302 25595.2 Q 49988 26243.2 48428 26243.2 Q 45656 26243.2 43694 24233.2 Q 41732 22223.2 41732 19343.2 Q 41732 16523.2 43712 14519.2 Q 45692 12515.2 48476 12515.2 Q 50084 12515.2 51386 13199.2 Q 52688 13883.2 53672 15251.2 L 53672 12851.2 L 55328 12851.2 Z M 48608 14135.2 Q 47204 14135.2 46016 14825.2 Q 44828 15515.2 44126 16763.2 Q 43424 18011.2 43424 19403.2 Q 43424 20783.2 44132 22043.2 Q 44840 23303.2 46034 24005.2 Q 47228 24707.2 48596 24707.2 Q 49976 24707.2 51212 24011.2 Q 52448 23315.2 53114 22127.2 Q 53780 20939.2 53780 19451.2 Q 53780 17183.2 52286 15659.2 Q 50792 14135.2 48608 14135.2  Z M 71734.4 15563.2 L 70402.4 16391.2 Q 68674.4 14099.2 65686.4 14099.2 Q 63298.4 14099.2 61720.4 15635.2 Q 60142.4 17171.2 60142.4 19367.2 Q 60142.4 20795.2 60868.4 22055.2 Q 61594.4 23315.2 62860.4 24011.2 Q 64126.4 24707.2 65698.4 24707.2 Q 68578.4 24707.2 70402.4 22415.2 L 71734.4 23291.2 Q 70798.4 24695.2 69220.4 25469.2 Q 67642.4 26243.2 65626.4 26243.2 Q 62530.4 26243.2 60490.4 24275.2 Q 58450.4 22307.2 58450.4 19487.2 Q 58450.4 17591.2 59404.4 15965.2 Q 60358.4 14339.2 62026.4 13427.2 Q 63694.4 12515.2 65758.4 12515.2 Q 67054.4 12515.2 68260.4 12911.2 Q 69466.4 13307.2 70306.4 13943.2 Q 71146.4 14579.2 71734.4 15563.2  Z M 74922.4 7811.2 L 76614.4 7811.2 L 76614.4 18107.2 L 82650.4 12851.2 L 85122.4 12851.2 L 77958.4 19079.2 L 85542.4 25907.2 L 83166.4 25907.2 L 76614.4 20039.2 L 76614.4 25907.2 L 74922.4 25907.2 L 74922.4 7811.2 Z M 100230.4 12851.2 L 100230.4 25907.2 L 98574.4 25907.2 L 98574.4 23663.2 Q 97518.4 24947.2 96204.4 25595.2 Q 94890.4 26243.2 93330.4 26243.2 Q 90558.4 26243.2 88596.4 24233.2 Q 86634.4 22223.2 86634.4 19343.2 Q 86634.4 16523.2 88614.4 14519.2 Q 90594.4 12515.2 93378.4 12515.2 Q 94986.4 12515.2 96288.4 13199.2 Q 97590.4 13883.2 98574.4 15251.2 L 98574.4 12851.2 L 100230.4 12851.2 Z M 93510.4 14135.2 Q 92106.4 14135.2 90918.4 14825.2 Q 89730.4 15515.2 89028.4 16763.2 Q 88326.4 18011.2 88326.4 19403.2 Q 88326.4 20783.2 89034.4 22043.2 Q 89742.4 23303.2 90936.4 24005.2 Q 92130.4 24707.2 93498.4 24707.2 Q 94878.4 24707.2 96114.4 24011.2 Q 97350.4 23315.2 98016.4 22127.2 Q 98682.4 20939.2 98682.4 19451.2 Q 98682.4 17183.2 97188.4 15659.2 Q 95694.4 14135.2 93510.4 14135.2  Z M 115208.8 12851.2 L 116900.8 12851.2 L 116900.8 23255.2 Q 116900.8 26003.2 116420.8 27275.2 Q 115760.8 29075.2 114128.8 30047.2 Q 112496.8 31019.2 110204.8 31019.2 Q 108524.8 31019.2 107186.8 30545.2 Q 105848.8 30071.2 105008.8 29273.2 Q 104168.8 28475.2 103460.8 26939.2 L 105284.8 26939.2 Q 106028.8 28235.2 107204.8 28859.2 Q 108380.8 29483.2 110120.8 29483.2 Q 111836.8 29483.2 113018.8 28841.2 Q 114200.8 28199.2 114704.8 27227.2 Q 115208.8 26255.2 115208.8 24095.2 L 115208.8 23423.2 Q 114260.8 24623.2 112892.8 25265.2 Q 111524.8 25907.2 109988.8 25907.2 Q 108188.8 25907.2 106604.8 25013.2 Q 105020.8 24119.2 104156.8 22607.2 Q 103292.8 21095.2 103292.8 19283.2 Q 103292.8 17471.2 104192.8 15905.2 Q 105092.8 14339.2 106682.8 13427.2 Q 108272.8 12515.2 110036.8 12515.2 Q 111500.8 12515.2 112766.8 13121.2 Q 114032.8 13727.2 115208.8 15119.2 L 115208.8 12851.2 Z M 110252.8 14135.2 Q 108824.8 14135.2 107600.8 14825.2 Q 106376.8 15515.2 105680.8 16733.2 Q 104984.8 17951.2 104984.8 19367.2 Q 104984.8 21515.2 106424.8 22919.2 Q 107864.8 24323.2 110156.8 24323.2 Q 112472.8 24323.2 113882.8 22931.2 Q 115292.8 21539.2 115292.8 19271.2 Q 115292.8 17795.2 114644.8 16637.2 Q 113996.8 15479.2 112808.8 14807.2 Q 111620.8 14135.2 110252.8 14135.2  Z M 131443.2 21575.2 L 132859.2 22319.2 Q 132163.2 23687.2 131251.2 24527.2 Q 130339.2 25367.2 129199.2 25805.2 Q 128059.2 26243.2 126619.2 26243.2 Q 123427.2 26243.2 121627.2 24149.2 Q 119827.2 22055.2 119827.2 19415.2 Q 119827.2 16931.2 121351.2 14987.2 Q 123283.2 12515.2 126523.2 12515.2 Q 129859.2 12515.2 131851.2 15047.2 Q 133267.2 16835.2 133291.2 19511.2 L 121555.2 19511.2 Q 121603.2 21791.2 123007.2 23249.2 Q 124411.2 24707.2 126475.2 24707.2 Q 127471.2 24707.2 128413.2 24359.2 Q 129355.2 24011.2 130015.2 23435.2 Q 130675.2 22859.2 131443.2 21575.2  Z M 131443.2 18059.2 Q 131107.2 16715.2 130465.2 15911.2 Q 129823.2 15107.2 128767.2 14615.2 Q 127711.2 14123.2 126547.2 14123.2 Q 124627.2 14123.2 123247.2 15359.2 Q 122239.2 16259.2 121723.2 18059.2 L 131443.2 18059.2 Z M 142938.4 14279.2 L 141858.4 15395.2 Q 140514.4 14087.2 139230.4 14087.2 Q 138414.4 14087.2 137832.4 14627.2 Q 137250.4 15167.2 137250.4 15887.2 Q 137250.4 16523.2 137730.4 17099.2 Q 138210.4 17687.2 139746.4 18479.2 Q 141618.4 19451.2 142290.4 20351.2 Q 142950.4 21263.2 142950.4 22403.2 Q 142950.4 24011.2 141822.4 25127.2 Q 140694.4 26243.2 139002.4 26243.2 Q 137874.4 26243.2 136848.4 25751.2 Q 135822.4 25259.2 135150.4 24395.2 L 136206.4 23195.2 Q 137490.4 24647.2 138930.4 24647.2 Q 139938.4 24647.2 140646.4 23999.2 Q 141354.4 23351.2 141354.4 22475.2 Q 141354.4 21755.2 140886.4 21191.2 Q 140418.4 20639.2 138774.4 19799.2 Q 137010.4 18887.2 136374.4 17999.2 Q 135738.4 17111.2 135738.4 15971.2 Q 135738.4 14483.2 136752.4 13499.2 Q 137766.4 12515.2 139314.4 12515.2 Q 141114.4 12515.2 142938.4 14279.2  Z " fill-rule="nonzero" style="fill:#000000;;fill-opacity:1;"/>
</svg>