<svg version="1.1" x="0" y="0" width="100%" height="100%" viewBox="0 0 272998.4 63590.4" xmlns="http://www.w3.org/2000/svg">
  <path d="M 6288.8 8767.2 L 9852.8 8767.2 Q 12780.8 8767.2 14022.8 9289.2 Q 15264.8 9811.2 16020.8 11023.2 Q 16776.8 12235.2 16776.8 13891.2 Q 16776.8 15631.2 15942.8 16801.2 Q 15108.8 17971.2 13428.8 18571.2 L 17604.8 26419.2 L 13932.8 26419.2 L 9960.8 18943.2 L 9648.8 18943.2 L 9648.8 26419.2 L 6288.8 26419.2 L 6288.8 8767.2 Z M 9648.8 15667.2 L 10704.8 15667.2 Q 12312.8 15667.2 12918.8 15247.2 Q 13524.8 14827.2 13524.8 13855.2 Q 13524.8 13279.2 13224.8 12853.2 Q 12924.8 12427.2 12420.8 12241.2 Q 11916.8 12055.2 10572.8 12055.2 L 9648.8 12055.2 L 9648.8 15667.2 Z M 28859.2 8767.2 L 32147.2 8767.2 L 36227.2 21079.2 L 40367.2 8767.2 L 43607.2 8767.2 L 46583.2 26419.2 L 43343.2 26419.2 L 41447.2 15271.2 L 37691.2 26419.2 L 34727.2 26419.2 L 31019.2 15271.2 L 29087.2 26419.2 L 25811.2 26419.2 L 28859.2 8767.2 Z M 58510.4 13363.2 L 61774.4 13363.2 L 61774.4 26419.2 L 58510.4 26419.2 L 58510.4 25039.2 Q 57550.4 25951.2 56584.4 26353.2 Q 55618.4 26755.2 54490.4 26755.2 Q 51958.4 26755.2 50110.4 24793.2 Q 48262.4 22831.2 48262.4 19915.2 Q 48262.4 16891.2 50050.4 14959.2 Q 51838.4 13027.2 54394.4 13027.2 Q 55570.4 13027.2 56602.4 13471.2 Q 57634.4 13915.2 58510.4 14803.2 L 58510.4 13363.2 Z M 55066.4 16051.2 Q 53542.4 16051.2 52534.4 17125.2 Q 51526.4 18199.2 51526.4 19879.2 Q 51526.4 21571.2 52552.4 22663.2 Q 53578.4 23755.2 55078.4 23755.2 Q 56626.4 23755.2 57646.4 22681.2 Q 58666.4 21607.2 58666.4 19867.2 Q 58666.4 18163.2 57646.4 17107.2 Q 56626.4 16051.2 55066.4 16051.2  Z M 64273.6 13363.2 L 67081.6 13363.2 L 67081.6 15007.2 Q 67537.6 14035.2 68293.6 13531.2 Q 69049.6 13027.2 69949.6 13027.2 Q 70585.6 13027.2 71281.6 13363.2 L 70261.6 16183.2 Q 69685.6 15895.2 69313.6 15895.2 Q 68557.6 15895.2 68035.6 16831.2 Q 67513.6 17767.2 67513.6 20503.2 L 67525.6 21139.2 L 67525.6 26419.2 L 64273.6 26419.2 L 64273.6 13363.2 Z M 72899.2 8323.2 L 76175.2 8323.2 L 76175.2 18751.2 L 80999.2 13363.2 L 85103.2 13363.2 L 79487.2 19627.2 L 85787.2 26419.2 L 81719.2 26419.2 L 76175.2 20407.2 L 76175.2 26419.2 L 72899.2 26419.2 L 72899.2 8323.2 Z M 96756.8 8323.2 L 100020.8 8323.2 L 100020.8 26419.2 L 96756.8 26419.2 L 96756.8 25039.2 Q 95796.8 25951.2 94830.8 26353.2 Q 93864.8 26755.2 92736.8 26755.2 Q 90204.8 26755.2 88356.8 24793.2 Q 86508.8 22831.2 86508.8 19915.2 Q 86508.8 16891.2 88296.8 14959.2 Q 90084.8 13027.2 92640.8 13027.2 Q 93816.8 13027.2 94848.8 13471.2 Q 95880.8 13915.2 96756.8 14803.2 L 96756.8 8323.2 Z M 93312.8 16051.2 Q 91788.8 16051.2 90780.8 17125.2 Q 89772.8 18199.2 89772.8 19879.2 Q 89772.8 21571.2 90798.8 22663.2 Q 91824.8 23755.2 93324.8 23755.2 Q 94872.8 23755.2 95892.8 22681.2 Q 96912.8 21607.2 96912.8 19867.2 Q 96912.8 18163.2 95892.8 17107.2 Q 94872.8 16051.2 93312.8 16051.2  Z M 109420 13027.2 Q 111268 13027.2 112894 13951.2 Q 114520 14875.2 115432 16459.2 Q 116344 18043.2 116344 19879.2 Q 116344 21727.2 115426 23335.2 Q 114508 24943.2 112924 25849.2 Q 111340 26755.2 109432 26755.2 Q 106624 26755.2 104638 24757.2 Q 102652 22759.2 102652 19903.2 Q 102652 16843.2 104896 14803.2 Q 106864 13027.2 109420 13027.2  Z M 109468 16111.2 Q 107944 16111.2 106930 17173.2 Q 105916 18235.2 105916 19891.2 Q 105916 21595.2 106918 22651.2 Q 107920 23707.2 109456 23707.2 Q 110992 23707.2 112012 22639.2 Q 113032 21571.2 113032 19891.2 Q 113032 18211.2 112030 17161.2 Q 111028 16111.2 109468 16111.2  Z M 117554.4 13363.2 L 120758.4 13363.2 L 123386.4 20791.2 L 126218.4 13363.2 L 128174.4 13363.2 L 130946.4 20707.2 L 133574.4 13363.2 L 136802.4 13363.2 L 132038.4 26419.2 L 129962.4 26419.2 L 127178.4 18979.2 L 124310.4 26419.2 L 122258.4 26419.2 L 117554.4 13363.2 Z M 138616 13363.2 L 141880 13363.2 L 141880 14695.2 Q 142996 13759.2 143902 13393.2 Q 144808 13027.2 145756 13027.2 Q 147700 13027.2 149056 14383.2 Q 150196 15535.2 150196 17791.2 L 150196 26419.2 L 146956 26419.2 L 146956 20695.2 Q 146956 18355.2 146746 17587.2 Q 146536 16819.2 146014 16417.2 Q 145492 16015.2 144724 16015.2 Q 143728 16015.2 143014 16681.2 Q 142300 17347.2 142024 18523.2 Q 141880 19135.2 141880 21175.2 L 141880 26419.2 L 138616 26419.2 L 138616 13363.2 Z M 158842.4 8767.2 L 168598.4 8767.2 L 168598.4 12079.2 L 165382.4 12079.2 L 165382.4 26419.2 L 161974.4 26419.2 L 161974.4 12079.2 L 158842.4 12079.2 L 158842.4 8767.2 Z M 183593.6 20839.2 L 173069.6 20839.2 Q 173297.6 22231.2 174287.6 23053.2 Q 175277.6 23875.2 176813.6 23875.2 Q 178649.6 23875.2 179969.6 22591.2 L 182729.6 23887.2 Q 181697.6 25351.2 180257.6 26053.2 Q 178817.6 26755.2 176837.6 26755.2 Q 173765.6 26755.2 171833.6 24817.2 Q 169901.6 22879.2 169901.6 19963.2 Q 169901.6 16975.2 171827.6 15001.2 Q 173753.6 13027.2 176657.6 13027.2 Q 179741.6 13027.2 181673.6 15001.2 Q 183605.6 16975.2 183605.6 20215.2 L 183593.6 20839.2 Z M 180305.6 18259.2 Q 179981.6 17167.2 179027.6 16483.2 Q 178073.6 15799.2 176813.6 15799.2 Q 175445.6 15799.2 174413.6 16567.2 Q 173765.6 17047.2 173213.6 18259.2 L 180305.6 18259.2 Z M 186208 13363.2 L 189496 13363.2 L 189496 14863.2 Q 190336 13939.2 191362 13483.2 Q 192388 13027.2 193600 13027.2 Q 194824 13027.2 195808 13627.2 Q 196792 14227.2 197392 15379.2 Q 198172 14227.2 199306 13627.2 Q 200440 13027.2 201784 13027.2 Q 203176 13027.2 204232 13675.2 Q 205288 14323.2 205750 15367.2 Q 206212 16411.2 206212 18763.2 L 206212 26419.2 L 202912 26419.2 L 202912 19795.2 Q 202912 17575.2 202360 16789.2 Q 201808 16003.2 200704 16003.2 Q 199864 16003.2 199198 16483.2 Q 198532 16963.2 198208 17809.2 Q 197884 18655.2 197884 20527.2 L 197884 26419.2 L 194584 26419.2 L 194584 20095.2 Q 194584 18343.2 194326 17557.2 Q 194068 16771.2 193552 16387.2 Q 193036 16003.2 192304 16003.2 Q 191488 16003.2 190822 16489.2 Q 190156 16975.2 189826 17851.2 Q 189496 18727.2 189496 20611.2 L 189496 26419.2 L 186208 26419.2 L 186208 13363.2 Z M 212575.2 13363.2 L 212575.2 14803.2 Q 213463.2 13915.2 214495.2 13471.2 Q 215527.2 13027.2 216703.2 13027.2 Q 219259.2 13027.2 221047.2 14959.2 Q 222835.2 16891.2 222835.2 19915.2 Q 222835.2 22831.2 220987.2 24793.2 Q 219139.2 26755.2 216607.2 26755.2 Q 215479.2 26755.2 214507.2 26353.2 Q 213535.2 25951.2 212575.2 25039.2 L 212575.2 31195.2 L 209323.2 31195.2 L 209323.2 13363.2 L 212575.2 13363.2 Z M 216019.2 16051.2 Q 214471.2 16051.2 213451.2 17107.2 Q 212431.2 18163.2 212431.2 19867.2 Q 212431.2 21607.2 213451.2 22681.2 Q 214471.2 23755.2 216019.2 23755.2 Q 217519.2 23755.2 218545.2 22663.2 Q 219571.2 21571.2 219571.2 19879.2 Q 219571.2 18199.2 218563.2 17125.2 Q 217555.2 16051.2 216019.2 16051.2  Z M 225154.4 8323.2 L 228430.4 8323.2 L 228430.4 26419.2 L 225154.4 26419.2 L 225154.4 8323.2 Z M 241038.4 13363.2 L 244302.4 13363.2 L 244302.4 26419.2 L 241038.4 26419.2 L 241038.4 25039.2 Q 240078.4 25951.2 239112.4 26353.2 Q 238146.4 26755.2 237018.4 26755.2 Q 234486.4 26755.2 232638.4 24793.2 Q 230790.4 22831.2 230790.4 19915.2 Q 230790.4 16891.2 232578.4 14959.2 Q 234366.4 13027.2 236922.4 13027.2 Q 238098.4 13027.2 239130.4 13471.2 Q 240162.4 13915.2 241038.4 14803.2 L 241038.4 13363.2 Z M 237594.4 16051.2 Q 236070.4 16051.2 235062.4 17125.2 Q 234054.4 18199.2 234054.4 19879.2 Q 234054.4 21571.2 235080.4 22663.2 Q 236106.4 23755.2 237606.4 23755.2 Q 239154.4 23755.2 240174.4 22681.2 Q 241194.4 21607.2 241194.4 19867.2 Q 241194.4 18163.2 240174.4 17107.2 Q 239154.4 16051.2 237594.4 16051.2  Z M 247965.6 8551.2 L 251229.6 8551.2 L 251229.6 13363.2 L 253173.6 13363.2 L 253173.6 16183.2 L 251229.6 16183.2 L 251229.6 26419.2 L 247965.6 26419.2 L 247965.6 16183.2 L 246285.6 16183.2 L 246285.6 13363.2 L 247965.6 13363.2 L 247965.6 8551.2 Z M 267971.2 20839.2 L 257447.2 20839.2 Q 257675.2 22231.2 258665.2 23053.2 Q 259655.2 23875.2 261191.2 23875.2 Q 263027.2 23875.2 264347.2 22591.2 L 267107.2 23887.2 Q 266075.2 25351.2 264635.2 26053.2 Q 263195.2 26755.2 261215.2 26755.2 Q 258143.2 26755.2 256211.2 24817.2 Q 254279.2 22879.2 254279.2 19963.2 Q 254279.2 16975.2 256205.2 15001.2 Q 258131.2 13027.2 261035.2 13027.2 Q 264119.2 13027.2 266051.2 15001.2 Q 267983.2 16975.2 267983.2 20215.2 L 267971.2 20839.2 Z M 264683.2 18259.2 Q 264359.2 17167.2 263405.2 16483.2 Q 262451.2 15799.2 261191.2 15799.2 Q 259823.2 15799.2 258791.2 16567.2 Q 258143.2 17047.2 257591.2 18259.2 L 264683.2 18259.2 Z M 49248 43110.4 L 50412 43110.4 Q 50424 40542.4 50496 40074.4 Q 50628 38994.4 51402 38364.4 Q 52176 37734.4 53592 37734.4 Q 54612 37734.4 55896 38202.4 L 55896 40698.4 Q 55188 40494.4 54732 40494.4 Q 54156 40494.4 53892 40734.4 Q 53700 40914.4 53700 41478.4 L 53688 43110.4 L 55764 43110.4 L 55764 45894.4 L 53688 45894.4 L 53688 56166.4 L 50412 56166.4 L 50412 45894.4 L 49248 45894.4 L 49248 43110.4 Z M 63800.8 42774.4 Q 65648.8 42774.4 67274.8 43698.4 Q 68900.8 44622.4 69812.8 46206.4 Q 70724.8 47790.4 70724.8 49626.4 Q 70724.8 51474.4 69806.8 53082.4 Q 68888.8 54690.4 67304.8 55596.4 Q 65720.8 56502.4 63812.8 56502.4 Q 61004.8 56502.4 59018.8 54504.4 Q 57032.8 52506.4 57032.8 49650.4 Q 57032.8 46590.4 59276.8 44550.4 Q 61244.8 42774.4 63800.8 42774.4  Z M 63848.8 45858.4 Q 62324.8 45858.4 61310.8 46920.4 Q 60296.8 47982.4 60296.8 49638.4 Q 60296.8 51342.4 61298.8 52398.4 Q 62300.8 53454.4 63836.8 53454.4 Q 65372.8 53454.4 66392.8 52386.4 Q 67412.8 51318.4 67412.8 49638.4 Q 67412.8 47958.4 66410.8 46908.4 Q 65408.8 45858.4 63848.8 45858.4  Z M 72619.2 43110.4 L 75427.2 43110.4 L 75427.2 44754.4 Q 75883.2 43782.4 76639.2 43278.4 Q 77395.2 42774.4 78295.2 42774.4 Q 78931.2 42774.4 79627.2 43110.4 L 78607.2 45930.4 Q 78031.2 45642.4 77659.2 45642.4 Q 76903.2 45642.4 76381.2 46578.4 Q 75859.2 47514.4 75859.2 50250.4 L 75871.2 50886.4 L 75871.2 56166.4 L 72619.2 56166.4 L 72619.2 43110.4 Z M 87289.6 38514.4 L 91069.6 38514.4 L 94765.6 44166.4 L 98497.6 38514.4 L 102277.6 38514.4 L 96661.6 47058.4 L 102625.6 56166.4 L 98845.6 56166.4 L 94765.6 49962.4 L 90721.6 56166.4 L 86917.6 56166.4 L 92881.6 47058.4 L 87289.6 38514.4 Z M 109524.8 38514.4 L 112896.8 38514.4 L 112896.8 50226.4 Q 112896.8 53022.4 112452.8 54150.4 Q 112008.8 55278.4 110988.8 55944.4 Q 109968.8 56610.4 108540.8 56610.4 Q 105624.8 56610.4 103572.8 54054.4 L 105996.8 51786.4 Q 106800.8 52698.4 107364.8 53010.4 Q 107928.8 53322.4 108456.8 53322.4 Q 108996.8 53322.4 109260.8 52866.4 Q 109524.8 52410.4 109524.8 50862.4 L 109524.8 38514.4 Z M 115168.8 38514.4 L 124924.8 38514.4 L 124924.8 41826.4 L 121708.8 41826.4 L 121708.8 56166.4 L 118300.8 56166.4 L 118300.8 41826.4 L 115168.8 41826.4 L 115168.8 38514.4 Z M 127200 38514.4 L 130560 38514.4 L 130560 52962.4 L 135456 52962.4 L 135456 56166.4 L 127200 56166.4 L 127200 38514.4 Z M 137883.2 38514.4 L 141255.2 38514.4 L 141255.2 49938.4 Q 141255.2 51414.4 141513.2 52026.4 Q 141771.2 52638.4 142365.2 53004.4 Q 142959.2 53370.4 143799.2 53370.4 Q 144687.2 53370.4 145329.2 52962.4 Q 145971.2 52554.4 146217.2 51924.4 Q 146463.2 51294.4 146463.2 49518.4 L 146463.2 38514.4 L 149835.2 38514.4 L 149835.2 49038.4 Q 149835.2 51702.4 149535.2 52734.4 Q 149235.2 53766.4 148389.2 54726.4 Q 147543.2 55686.4 146439.2 56148.4 Q 145335.2 56610.4 143871.2 56610.4 Q 141951.2 56610.4 140529.2 55728.4 Q 139107.2 54846.4 138495.2 53520.4 Q 137883.2 52194.4 137883.2 49038.4 L 137883.2 38514.4 Z M 168214.4 44934.4 L 166186.4 46962.4 Q 164950.4 45738.4 163942.4 45738.4 Q 163390.4 45738.4 163078.4 45972.4 Q 162766.4 46206.4 162766.4 46554.4 Q 162766.4 46818.4 162964.4 47040.4 Q 163162.4 47262.4 163942.4 47646.4 L 165142.4 48246.4 Q 167038.4 49182.4 167746.4 50154.4 Q 168454.4 51126.4 168454.4 52434.4 Q 168454.4 54174.4 167176.4 55338.4 Q 165898.4 56502.4 163750.4 56502.4 Q 160894.4 56502.4 159190.4 54270.4 L 161206.4 52074.4 Q 161782.4 52746.4 162556.4 53160.4 Q 163330.4 53574.4 163930.4 53574.4 Q 164578.4 53574.4 164974.4 53262.4 Q 165370.4 52950.4 165370.4 52542.4 Q 165370.4 51786.4 163942.4 51066.4 L 162838.4 50514.4 Q 159670.4 48918.4 159670.4 46518.4 Q 159670.4 44970.4 160864.4 43872.4 Q 162058.4 42774.4 163918.4 42774.4 Q 165190.4 42774.4 166312.4 43332.4 Q 167434.4 43890.4 168214.4 44934.4  Z M 170677.6 38070.4 L 173953.6 38070.4 L 173953.6 56166.4 L 170677.6 56166.4 L 170677.6 38070.4 Z M 178197.6 37734.4 Q 179061.6 37734.4 179679.6 38358.4 Q 180297.6 38982.4 180297.6 39870.4 Q 180297.6 40746.4 179685.6 41364.4 Q 179073.6 41982.4 178221.6 41982.4 Q 177345.6 41982.4 176727.6 41352.4 Q 176109.6 40722.4 176109.6 39822.4 Q 176109.6 38958.4 176721.6 38346.4 Q 177333.6 37734.4 178197.6 37734.4  Z M 176553.6 43110.4 L 179841.6 43110.4 L 179841.6 56166.4 L 176553.6 56166.4 L 176553.6 43110.4 Z M 192449.6 38070.4 L 195713.6 38070.4 L 195713.6 56166.4 L 192449.6 56166.4 L 192449.6 54786.4 Q 191489.6 55698.4 190523.6 56100.4 Q 189557.6 56502.4 188429.6 56502.4 Q 185897.6 56502.4 184049.6 54540.4 Q 182201.6 52578.4 182201.6 49662.4 Q 182201.6 46638.4 183989.6 44706.4 Q 185777.6 42774.4 188333.6 42774.4 Q 189509.6 42774.4 190541.6 43218.4 Q 191573.6 43662.4 192449.6 44550.4 L 192449.6 38070.4 Z M 189005.6 45798.4 Q 187481.6 45798.4 186473.6 46872.4 Q 185465.6 47946.4 185465.6 49626.4 Q 185465.6 51318.4 186491.6 52410.4 Q 187517.6 53502.4 189017.6 53502.4 Q 190565.6 53502.4 191585.6 52428.4 Q 192605.6 51354.4 192605.6 49614.4 Q 192605.6 47910.4 191585.6 46854.4 Q 190565.6 45798.4 189005.6 45798.4  Z M 212060.8 50586.4 L 201536.8 50586.4 Q 201764.8 51978.4 202754.8 52800.4 Q 203744.8 53622.4 205280.8 53622.4 Q 207116.8 53622.4 208436.8 52338.4 L 211196.8 53634.4 Q 210164.8 55098.4 208724.8 55800.4 Q 207284.8 56502.4 205304.8 56502.4 Q 202232.8 56502.4 200300.8 54564.4 Q 198368.8 52626.4 198368.8 49710.4 Q 198368.8 46722.4 200294.8 44748.4 Q 202220.8 42774.4 205124.8 42774.4 Q 208208.8 42774.4 210140.8 44748.4 Q 212072.8 46722.4 212072.8 49962.4 L 212060.8 50586.4 Z M 208772.8 48006.4 Q 208448.8 46914.4 207494.8 46230.4 Q 206540.8 45546.4 205280.8 45546.4 Q 203912.8 45546.4 202880.8 46314.4 Q 202232.8 46794.4 201680.8 48006.4 L 208772.8 48006.4 Z M 222691.2 44934.4 L 220663.2 46962.4 Q 219427.2 45738.4 218419.2 45738.4 Q 217867.2 45738.4 217555.2 45972.4 Q 217243.2 46206.4 217243.2 46554.4 Q 217243.2 46818.4 217441.2 47040.4 Q 217639.2 47262.4 218419.2 47646.4 L 219619.2 48246.4 Q 221515.2 49182.4 222223.2 50154.4 Q 222931.2 51126.4 222931.2 52434.4 Q 222931.2 54174.4 221653.2 55338.4 Q 220375.2 56502.4 218227.2 56502.4 Q 215371.2 56502.4 213667.2 54270.4 L 215683.2 52074.4 Q 216259.2 52746.4 217033.2 53160.4 Q 217807.2 53574.4 218407.2 53574.4 Q 219055.2 53574.4 219451.2 53262.4 Q 219847.2 52950.4 219847.2 52542.4 Q 219847.2 51786.4 218419.2 51066.4 L 217315.2 50514.4 Q 214147.2 48918.4 214147.2 46518.4 Q 214147.2 44970.4 215341.2 43872.4 Q 216535.2 42774.4 218395.2 42774.4 Q 219667.2 42774.4 220789.2 43332.4 Q 221911.2 43890.4 222691.2 44934.4  Z " fill-rule="nonzero" style="fill:#f64747;;fill-opacity:1;"/>
</svg>