<svg version="1.1" x="0" y="0" width="100%" height="100%" viewBox="0 0 93798.4 33331.2" xmlns="http://www.w3.org/2000/svg">
  <path d="M 2444 9971.2 L 2444 8255.2 L 12128 8255.2 L 12128 9971.2 L 8192 9971.2 L 8192 25907.2 L 6392 25907.2 L 6392 9971.2 L 2444 9971.2 Z M 14364.8 7811.2 L 16044.8 7811.2 L 16044.8 15191.2 Q 17064.8 13847.2 18288.8 13181.2 Q 19512.8 12515.2 20940.8 12515.2 Q 22404.8 12515.2 23538.8 13259.2 Q 24672.8 14003.2 25212.8 15257.2 Q 25752.8 16511.2 25752.8 19187.2 L 25752.8 25907.2 L 24072.8 25907.2 L 24072.8 19679.2 Q 24072.8 17423.2 23892.8 16667.2 Q 23580.8 15371.2 22758.8 14717.2 Q 21936.8 14063.2 20604.8 14063.2 Q 19080.8 14063.2 17874.8 15071.2 Q 16668.8 16079.2 16284.8 17567.2 Q 16044.8 18527.2 16044.8 21119.2 L 16044.8 25907.2 L 14364.8 25907.2 L 14364.8 7811.2 Z M 40307.2 21575.2 L 41723.2 22319.2 Q 41027.2 23687.2 40115.2 24527.2 Q 39203.2 25367.2 38063.2 25805.2 Q 36923.2 26243.2 35483.2 26243.2 Q 32291.2 26243.2 30491.2 24149.2 Q 28691.2 22055.2 28691.2 19415.2 Q 28691.2 16931.2 30215.2 14987.2 Q 32147.2 12515.2 35387.2 12515.2 Q 38723.2 12515.2 40715.2 15047.2 Q 42131.2 16835.2 42155.2 19511.2 L 30419.2 19511.2 Q 30467.2 21791.2 31871.2 23249.2 Q 33275.2 24707.2 35339.2 24707.2 Q 36335.2 24707.2 37277.2 24359.2 Q 38219.2 24011.2 38879.2 23435.2 Q 39539.2 22859.2 40307.2 21575.2  Z M 40307.2 18059.2 Q 39971.2 16715.2 39329.2 15911.2 Q 38687.2 15107.2 37631.2 14615.2 Q 36575.2 14123.2 35411.2 14123.2 Q 33491.2 14123.2 32111.2 15359.2 Q 31103.2 16259.2 30587.2 18059.2 L 40307.2 18059.2 Z M 51802.4 14279.2 L 50722.4 15395.2 Q 49378.4 14087.2 48094.4 14087.2 Q 47278.4 14087.2 46696.4 14627.2 Q 46114.4 15167.2 46114.4 15887.2 Q 46114.4 16523.2 46594.4 17099.2 Q 47074.4 17687.2 48610.4 18479.2 Q 50482.4 19451.2 51154.4 20351.2 Q 51814.4 21263.2 51814.4 22403.2 Q 51814.4 24011.2 50686.4 25127.2 Q 49558.4 26243.2 47866.4 26243.2 Q 46738.4 26243.2 45712.4 25751.2 Q 44686.4 25259.2 44014.4 24395.2 L 45070.4 23195.2 Q 46354.4 24647.2 47794.4 24647.2 Q 48802.4 24647.2 49510.4 23999.2 Q 50218.4 23351.2 50218.4 22475.2 Q 50218.4 21755.2 49750.4 21191.2 Q 49282.4 20639.2 47638.4 19799.2 Q 45874.4 18887.2 45238.4 17999.2 Q 44602.4 17111.2 44602.4 15971.2 Q 44602.4 14483.2 45616.4 13499.2 Q 46630.4 12515.2 48178.4 12515.2 Q 49978.4 12515.2 51802.4 14279.2  Z M 65753.6 21575.2 L 67169.6 22319.2 Q 66473.6 23687.2 65561.6 24527.2 Q 64649.6 25367.2 63509.6 25805.2 Q 62369.6 26243.2 60929.6 26243.2 Q 57737.6 26243.2 55937.6 24149.2 Q 54137.6 22055.2 54137.6 19415.2 Q 54137.6 16931.2 55661.6 14987.2 Q 57593.6 12515.2 60833.6 12515.2 Q 64169.6 12515.2 66161.6 15047.2 Q 67577.6 16835.2 67601.6 19511.2 L 55865.6 19511.2 Q 55913.6 21791.2 57317.6 23249.2 Q 58721.6 24707.2 60785.6 24707.2 Q 61781.6 24707.2 62723.6 24359.2 Q 63665.6 24011.2 64325.6 23435.2 Q 64985.6 22859.2 65753.6 21575.2  Z M 65753.6 18059.2 Q 65417.6 16715.2 64775.6 15911.2 Q 64133.6 15107.2 63077.6 14615.2 Q 62021.6 14123.2 60857.6 14123.2 Q 58937.6 14123.2 57557.6 15359.2 Q 56549.6 16259.2 56033.6 18059.2 L 65753.6 18059.2 Z M 77248.8 14279.2 L 76168.8 15395.2 Q 74824.8 14087.2 73540.8 14087.2 Q 72724.8 14087.2 72142.8 14627.2 Q 71560.8 15167.2 71560.8 15887.2 Q 71560.8 16523.2 72040.8 17099.2 Q 72520.8 17687.2 74056.8 18479.2 Q 75928.8 19451.2 76600.8 20351.2 Q 77260.8 21263.2 77260.8 22403.2 Q 77260.8 24011.2 76132.8 25127.2 Q 75004.8 26243.2 73312.8 26243.2 Q 72184.8 26243.2 71158.8 25751.2 Q 70132.8 25259.2 69460.8 24395.2 L 70516.8 23195.2 Q 71800.8 24647.2 73240.8 24647.2 Q 74248.8 24647.2 74956.8 23999.2 Q 75664.8 23351.2 75664.8 22475.2 Q 75664.8 21755.2 75196.8 21191.2 Q 74728.8 20639.2 73084.8 19799.2 Q 71320.8 18887.2 70684.8 17999.2 Q 70048.8 17111.2 70048.8 15971.2 Q 70048.8 14483.2 71062.8 13499.2 Q 72076.8 12515.2 73624.8 12515.2 Q 75424.8 12515.2 77248.8 14279.2  Z " fill-rule="nonzero" style="fill:#000000;;fill-opacity:1;"/>
</svg>