<svg version="1.1" x="0" y="0" width="100%" height="100%" viewBox="0 0 278528 40550.4" xmlns="http://www.w3.org/2000/svg">
  <path d="M 3203.6 28257.2 L 4556 26710.4 Q 6717.2 28947.2 9544.4 28947.2 Q 11288 28947.2 12320 28136 Q 13328 27348.8 13328 25996.4 Q 13328 24743.6 12468.8 23981.6 Q 11927.6 23514.8 10329.2 22803.2 L 7724 21671.6 Q 4062.8 20098.4 4062.8 17050.4 Q 4062.8 14962.4 5684 13610 Q 7282.4 12257.6 9740 12257.6 Q 12885.2 12257.6 15046.4 14494.4 L 13842.8 15944 Q 12023.6 14248.4 9738.8 14248.4 Q 8213.6 14248.4 7281.2 14962.4 Q 6370.4 15698 6370.4 16902.8 Q 6370.4 18058.4 7329.2 18845.6 Q 7895.6 19287.2 9345.2 19901.6 L 11926.4 21006.8 Q 15636.8 22629.2 15636.8 25824.8 Q 15636.8 28012.4 13990.4 29438 Q 12270.8 30936.8 9516.8 30936.8 Q 5757.2 30936.8 3202.4 28257.2 L 3203.6 28257.2 Z M 18729.2 25726.4 L 18729.2 17273.6 L 20964.8 17273.6 L 20964.8 25456.4 Q 20964.8 27324.8 21555.2 28160 Q 22145.6 28995.2 23471.6 28995.2 Q 25265.6 28995.2 27084.8 26734.4 L 27084.8 17273.6 L 29321.6 17273.6 L 29321.6 30617.6 L 27453.2 30617.6 L 27281.6 28528.4 L 27208.4 28528.4 Q 25119.2 30938 22785.2 30938 Q 18730.4 30938 18730.4 25726.4 L 18729.2 25726.4 Z M 35864 29241.2 L 35790.8 29241.2 L 35594 30617.6 L 33800 30617.6 L 33800 11054 L 36036.8 11054 L 36036.8 16412 L 35963.6 18820.4 Q 38124.8 16928 40140.8 16928 Q 42695.6 16928 44097.2 18796.4 Q 45473.6 20590.4 45473.6 23711.6 Q 45473.6 27028.4 43730 29044.4 Q 42082.4 30936.8 39674 30936.8 Q 37707.2 30936.8 35864 29241.2  Z M 42057.2 27669.2 Q 43138.4 26194.4 43138.4 23762 Q 43138.4 18821.6 39623.6 18821.6 Q 38002.4 18821.6 36035.6 20664.8 L 36035.6 27669.2 Q 37632.8 29069.6 39304.4 29069.6 Q 41000 29069.6 42056 27669.2 L 42057.2 27669.2 Z M 48904 17273.6 L 50747.2 17273.6 L 50944 19214 L 51017.2 19214 Q 53081.2 16928 55170.4 16928 Q 57972.4 16928 58856.8 19485.2 Q 61190.8 16928 63254.8 16928 Q 67310.8 16928 67310.8 22163.6 L 67310.8 30617.6 L 65074 30617.6 L 65074 22457.6 Q 65074 18894.8 62592.4 18894.8 Q 61093.6 18894.8 59225.2 20934.8 L 59225.2 30617.6 L 56989.6 30617.6 L 56989.6 22457.6 Q 56989.6 18894.8 54506.8 18894.8 Q 52960 18894.8 51140.8 20934.8 L 51140.8 30617.6 L 48904 30617.6 L 48904 17273.6 Z M 71636.8 17273.6 L 73873.6 17273.6 L 73873.6 30617.6 L 71636.8 30617.6 L 71636.8 17273.6 Z M 71660.8 14102 Q 71219.2 13684.4 71219.2 13070 Q 71219.2 11620.4 72768.4 11620.4 Q 74315.2 11620.4 74315.2 13070 Q 74315.2 13684.4 73873.6 14102 Q 73430.8 14519.6 72768.4 14519.6 Q 72104.8 14519.6 71662 14102 L 71660.8 14102 Z M 76896.4 29094.8 L 78001.6 27620 Q 79944.4 29193.2 81959.2 29193.2 Q 83237.2 29193.2 83948.8 28578.8 Q 84588.4 28013.6 84588.4 27105.2 Q 84588.4 25752.8 81540.4 24572 Q 79697.2 23884.4 78862 23222 Q 77560 22214 77560 20715.2 Q 77560 19068.8 78764.8 18036.8 Q 80041.6 16929.2 82154.8 16929.2 Q 84367.6 16929.2 86308 18428 L 85226.8 19878.8 Q 83629.6 18698 82154.8 18698 Q 80975.2 18698 80311.6 19264.4 Q 79722.4 19779.2 79722.4 20614.4 Q 79722.4 21450.8 80630.8 22040 Q 81097.6 22336.4 82670.8 22925.6 Q 84685.6 23687.6 85447.6 24278 Q 86752 25310 86752 26981.6 Q 86752 28677.2 85498 29757.2 Q 84172 30938 81886 30938 Q 79134.4 30938 76897.6 29094.8 L 76896.4 29094.8 Z M 88314 29094.8 L 89419.2 27620 Q 91362 29193.2 93376.8 29193.2 Q 94654.8 29193.2 95366.4 28578.8 Q 96006 28013.6 96006 27105.2 Q 96006 25752.8 92958 24572 Q 91114.8 23884.4 90279.6 23222 Q 88977.6 22214 88977.6 20715.2 Q 88977.6 19068.8 90182.4 18036.8 Q 91459.2 16929.2 93572.4 16929.2 Q 95785.2 16929.2 97725.6 18428 L 96644.4 19878.8 Q 95047.2 18698 93572.4 18698 Q 92392.8 18698 91729.2 19264.4 Q 91140 19779.2 91140 20614.4 Q 91140 21450.8 92048.4 22040 Q 92515.2 22336.4 94088.4 22925.6 Q 96103.2 23687.6 96865.2 24278 Q 98169.6 25310 98169.6 26981.6 Q 98169.6 28677.2 96915.6 29757.2 Q 95589.6 30938 93303.6 30938 Q 90552 30938 88315.2 29094.8 L 88314 29094.8 Z M 101230.4 17273.6 L 103467.2 17273.6 L 103467.2 30617.6 L 101230.4 30617.6 L 101230.4 17273.6 Z M 101254.4 14102 Q 100812.8 13684.4 100812.8 13070 Q 100812.8 11620.4 102362 11620.4 Q 103908.8 11620.4 103908.8 13070 Q 103908.8 13684.4 103467.2 14102 Q 103024.4 14519.6 102362 14519.6 Q 101698.4 14519.6 101255.6 14102 L 101254.4 14102 Z M 108849.2 29094.8 Q 106980.8 27152 106980.8 23956.4 Q 106980.8 20736.8 108849.2 18770 Q 110592.8 16926.8 113174 16926.8 Q 115755.2 16926.8 117498.8 18770 Q 119367.2 20736.8 119367.2 23956.4 Q 119367.2 27152 117498.8 29094.8 Q 115755.2 30938 113174 30938 Q 110592.8 30938 108849.2 29094.8  Z M 115976 27669.2 Q 117057.2 26267.6 117057.2 23957.6 Q 117057.2 21648.8 115976 20223.2 Q 114920 18797.6 113174 18797.6 Q 111454.4 18797.6 110373.2 20223.2 Q 109317.2 21648.8 109317.2 23957.6 Q 109317.2 26267.6 110373.2 27669.2 Q 111430.4 29069.6 113174 29069.6 Q 114920 29069.6 115976 27669.2  Z M 122785.6 17273.6 L 124628.8 17273.6 L 124825.6 19190 L 124898.8 19190 Q 127208.8 16928 129372.4 16928 Q 133451.2 16928 133451.2 22163.6 L 133451.2 30617.6 L 131215.6 30617.6 L 131215.6 22457.6 Q 131215.6 18894.8 128684.8 18894.8 Q 127062.4 18894.8 125022.4 20934.8 L 125022.4 30617.6 L 122785.6 30617.6 L 122785.6 17273.6 Z M 143761.6 26489.6 L 143761.6 19091.6 L 141770.8 19091.6 L 141770.8 17396 L 143858.8 17274.8 L 144128.8 13539.2 L 145997.2 13539.2 L 145997.2 17274.8 L 149610.4 17274.8 L 149610.4 19092.8 L 145997.2 19092.8 L 145997.2 26538.8 Q 145997.2 29120 148061.2 29120 Q 148699.6 29120 149584 28775.6 L 150026.8 30446 Q 148501.6 30939.2 147569.2 30939.2 Q 143759.2 30939.2 143759.2 26490.8 L 143761.6 26489.6 Z M 153444.4 29094.8 Q 151576 27152 151576 23956.4 Q 151576 20736.8 153444.4 18770 Q 155188 16926.8 157769.2 16926.8 Q 160350.4 16926.8 162094 18770 Q 163962.4 20736.8 163962.4 23956.4 Q 163962.4 27152 162094 29094.8 Q 160350.4 30938 157769.2 30938 Q 155188 30938 153444.4 29094.8  Z M 160571.2 27669.2 Q 161652.4 26267.6 161652.4 23957.6 Q 161652.4 21648.8 160571.2 20223.2 Q 159515.2 18797.6 157769.2 18797.6 Q 156049.6 18797.6 154968.4 20223.2 Q 153912.4 21648.8 153912.4 23957.6 Q 153912.4 26267.6 154968.4 27669.2 Q 156025.6 29069.6 157769.2 29069.6 Q 159515.2 29069.6 160571.2 27669.2  Z M 173180.4 29954 Q 172075.2 28922 172075.2 27152 Q 172075.2 24990.8 174042 23810 Q 175982.4 22654.4 180283.2 22163.6 Q 180283.2 18797.6 177531.6 18797.6 Q 175639.2 18797.6 173526 20223.2 L 172641.6 18674 Q 175369.2 16928 177900 16928 Q 182521.2 16928 182521.2 22409.6 L 182521.2 30617.6 L 180678 30617.6 L 180481.2 29020.4 L 180408 29020.4 Q 178098 30936.8 175984.8 30936.8 Q 174265.2 30936.8 173184 29952.8 L 173180.4 29954 Z M 180283.2 27372.8 L 180283.2 23638.4 Q 174262.8 24350 174262.8 27004.4 Q 174262.8 29141.6 176620.8 29141.6 Q 178292.4 29141.6 180283.2 27371.6 L 180283.2 27372.8 Z M 188922 36244.4 L 189364.8 34524.8 Q 190052.4 34770.8 190617.6 34770.8 Q 192288 34770.8 192288 32140.4 L 192288 17273.6 L 194524.8 17273.6 L 194524.8 32140.4 Q 194524.8 36588.8 190887.6 36588.8 Q 189855.6 36588.8 188920.8 36244.4 L 188922 36244.4 Z M 192313.2 14102 Q 191870.4 13684.4 191870.4 13070 Q 191870.4 11620.4 193419.6 11620.4 Q 194083.2 11620.4 194524.8 12012.8 Q 194967.6 12406.4 194967.6 13070 Q 194967.6 13684.4 194524.8 14102 Q 194058 14519.6 193419.6 14519.6 Q 192756 14519.6 192314.4 14102 L 192313.2 14102 Z M 199882.8 29094.8 Q 198014.4 27152 198014.4 23956.4 Q 198014.4 20736.8 199882.8 18770 Q 201626.4 16926.8 204207.6 16926.8 Q 206788.8 16926.8 208532.4 18770 Q 210400.8 20736.8 210400.8 23956.4 Q 210400.8 27152 208532.4 29094.8 Q 206788.8 30938 204207.6 30938 Q 201626.4 30938 199882.8 29094.8  Z M 207009.6 27669.2 Q 208090.8 26267.6 208090.8 23957.6 Q 208090.8 21648.8 207009.6 20223.2 Q 205953.6 18797.6 204207.6 18797.6 Q 202488 18797.6 201406.8 20223.2 Q 200350.8 21648.8 200350.8 23957.6 Q 200350.8 26267.6 201406.8 27669.2 Q 202464 29069.6 204207.6 29069.6 Q 205953.6 29069.6 207009.6 27669.2  Z M 213647.6 25726.4 L 213647.6 17273.6 L 215883.2 17273.6 L 215883.2 25456.4 Q 215883.2 27324.8 216473.6 28160 Q 217064 28995.2 218390 28995.2 Q 220184 28995.2 222003.2 26734.4 L 222003.2 17273.6 L 224240 17273.6 L 224240 30617.6 L 222371.6 30617.6 L 222200 28528.4 L 222126.8 28528.4 Q 220037.6 30938 217703.6 30938 Q 213648.8 30938 213648.8 25726.4 L 213647.6 25726.4 Z M 228718.4 17273.6 L 230561.6 17273.6 L 230758.4 19706 L 230831.6 19706 Q 232354.4 16928 234616.4 16928 Q 235475.6 16928 236040.8 17224.4 L 235623.2 19191.2 Q 235058 18969.2 234320 18969.2 Q 232132.4 18969.2 230952.8 22041.2 L 230952.8 30618.8 L 228716 30618.8 L 228716 17274.8 L 228718.4 17273.6 Z M 238241.6 17273.6 L 240084.8 17273.6 L 240281.6 19190 L 240354.8 19190 Q 242664.8 16928 244828.4 16928 Q 248907.2 16928 248907.2 22163.6 L 248907.2 30617.6 L 246671.6 30617.6 L 246671.6 22457.6 Q 246671.6 18894.8 244140.8 18894.8 Q 242518.4 18894.8 240478.4 20934.8 L 240478.4 30617.6 L 238241.6 30617.6 L 238241.6 17273.6 Z M 253564.4 29954 Q 252459.2 28922 252459.2 27152 Q 252459.2 24990.8 254426 23810 Q 256366.4 22654.4 260667.2 22163.6 Q 260667.2 18797.6 257915.6 18797.6 Q 256023.2 18797.6 253910 20223.2 L 253025.6 18674 Q 255753.2 16928 258284 16928 Q 262905.2 16928 262905.2 22409.6 L 262905.2 30617.6 L 261062 30617.6 L 260865.2 29020.4 L 260792 29020.4 Q 258482 30936.8 256368.8 30936.8 Q 254649.2 30936.8 253568 29952.8 L 253564.4 29954 Z M 260667.2 27372.8 L 260667.2 23638.4 Q 254646.8 24350 254646.8 27004.4 Q 254646.8 29141.6 257004.8 29141.6 Q 258676.4 29141.6 260667.2 27371.6 L 260667.2 27372.8 Z M 267118.4 27963.2 L 267118.4 11054 L 269355.2 11054 L 269355.2 28109.6 Q 269355.2 29068.4 269993.6 29068.4 Q 270214.4 29068.4 270460.4 29020.4 L 270780.8 30740 Q 270263.6 30936.8 269477.6 30936.8 Q 267117.2 30936.8 267117.2 27962 L 267118.4 27963.2 Z " fill-rule="nonzero" style="fill:#000000;;fill-opacity:1;"/>
</svg>