<svg version="1.1" x="0" y="0" width="100%" height="100%" viewBox="0 0 57497.6 22681.6" xmlns="http://www.w3.org/2000/svg">
  <path d="M 4373 6221.9 L 6428 6221.9 L 8978 13916.9 L 11565.5 6221.9 L 13590.5 6221.9 L 15450.5 17254.4 L 13425.5 17254.4 L 12240.5 10286.9 L 9893 17254.4 L 8040.5 17254.4 L 5723 10286.9 L 4515.5 17254.4 L 2468 17254.4 L 4373 6221.9 Z M 20688.3 8884.4 Q 21843.3 8884.4 22859.55 9461.9 Q 23875.8 10039.4 24445.8 11029.4 Q 25015.8 12019.4 25015.8 13166.9 Q 25015.8 14321.9 24442.05 15326.9 Q 23868.3 16331.9 22878.3 16898.15 Q 21888.3 17464.4 20695.8 17464.4 Q 18940.8 17464.4 17699.55 16215.65 Q 16458.3 14966.9 16458.3 13181.9 Q 16458.3 11269.4 17860.8 9994.4 Q 19090.8 8884.4 20688.3 8884.4  Z M 20718.3 10811.9 Q 19765.8 10811.9 19132.05 11475.65 Q 18498.3 12139.4 18498.3 13174.4 Q 18498.3 14239.4 19124.55 14899.4 Q 19750.8 15559.4 20710.8 15559.4 Q 21670.8 15559.4 22308.3 14891.9 Q 22945.8 14224.4 22945.8 13174.4 Q 22945.8 12124.4 22319.55 11468.15 Q 21693.3 10811.9 20718.3 10811.9  Z M 32716.2 5944.4 L 34756.2 5944.4 L 34756.2 17254.4 L 32716.2 17254.4 L 32716.2 16391.9 Q 32116.2 16961.9 31512.45 17213.15 Q 30908.7 17464.4 30203.7 17464.4 Q 28621.2 17464.4 27466.2 16238.15 Q 26311.2 15011.9 26311.2 13189.4 Q 26311.2 11299.4 27428.7 10091.9 Q 28546.2 8884.4 30143.7 8884.4 Q 30878.7 8884.4 31523.7 9161.9 Q 32168.7 9439.4 32716.2 9994.4 L 32716.2 5944.4 Z M 30563.7 10774.4 Q 29611.2 10774.4 28981.2 11445.65 Q 28351.2 12116.9 28351.2 13166.9 Q 28351.2 14224.4 28992.45 14906.9 Q 29633.7 15589.4 30571.2 15589.4 Q 31538.7 15589.4 32176.2 14918.15 Q 32813.7 14246.9 32813.7 13159.4 Q 32813.7 12094.4 32176.2 11434.4 Q 31538.7 10774.4 30563.7 10774.4  Z M 44998.8 13766.9 L 38421.3 13766.9 Q 38563.8 14636.9 39182.55 15150.65 Q 39801.3 15664.4 40761.3 15664.4 Q 41908.8 15664.4 42733.8 14861.9 L 44458.8 15671.9 Q 43813.8 16586.9 42913.8 17025.65 Q 42013.8 17464.4 40776.3 17464.4 Q 38856.3 17464.4 37648.8 16253.15 Q 36441.3 15041.9 36441.3 13219.4 Q 36441.3 11351.9 37645.05 10118.15 Q 38848.8 8884.4 40663.8 8884.4 Q 42591.3 8884.4 43798.8 10118.15 Q 45006.3 11351.9 45006.3 13376.9 L 44998.8 13766.9 Z M 42943.8 12154.4 Q 42741.3 11471.9 42145.05 11044.4 Q 41548.8 10616.9 40761.3 10616.9 Q 39906.3 10616.9 39261.3 11096.9 Q 38856.3 11396.9 38511.3 12154.4 L 42943.8 12154.4 Z M 46436.7 5944.4 L 48484.2 5944.4 L 48484.2 17254.4 L 46436.7 17254.4 L 46436.7 5944.4 Z " fill-rule="nonzero" style="fill:#000000;;fill-opacity:1;"/>
</svg>