<svg version="1.1" x="0" y="0" width="100%" height="100%" viewBox="0 0 222156.8 33843.2" xmlns="http://www.w3.org/2000/svg">
  <path d="M 9440 8767.2 L 12848 8767.2 L 19640 26419.2 L 16148 26419.2 L 14768 22783.2 L 7568 22783.2 L 6128 26419.2 L 2636 26419.2 L 9440 8767.2 Z M 11168 13447.2 L 8816 19507.2 L 13508 19507.2 L 11168 13447.2 Z M 34660 16003.2 L 31936 17503.2 Q 31168 16699.2 30418 16387.2 Q 29668 16075.2 28660 16075.2 Q 26824 16075.2 25690 17173.2 Q 24556 18271.2 24556 19987.2 Q 24556 21655.2 25648 22711.2 Q 26740 23767.2 28516 23767.2 Q 30712 23767.2 31936 22267.2 L 34516 24031.2 Q 32416 26755.2 28588 26755.2 Q 25144 26755.2 23194 24715.2 Q 21244 22675.2 21244 19939.2 Q 21244 18043.2 22192 16447.2 Q 23140 14851.2 24838 13939.2 Q 26536 13027.2 28636 13027.2 Q 30580 13027.2 32128 13801.2 Q 33676 14575.2 34660 16003.2  Z M 47246.4 13363.2 L 50510.4 13363.2 L 50510.4 26419.2 L 47246.4 26419.2 L 47246.4 25039.2 Q 46286.4 25951.2 45320.4 26353.2 Q 44354.4 26755.2 43226.4 26755.2 Q 40694.4 26755.2 38846.4 24793.2 Q 36998.4 22831.2 36998.4 19915.2 Q 36998.4 16891.2 38786.4 14959.2 Q 40574.4 13027.2 43130.4 13027.2 Q 44306.4 13027.2 45338.4 13471.2 Q 46370.4 13915.2 47246.4 14803.2 L 47246.4 13363.2 Z M 43802.4 16051.2 Q 42278.4 16051.2 41270.4 17125.2 Q 40262.4 18199.2 40262.4 19879.2 Q 40262.4 21571.2 41288.4 22663.2 Q 42314.4 23755.2 43814.4 23755.2 Q 45362.4 23755.2 46382.4 22681.2 Q 47402.4 21607.2 47402.4 19867.2 Q 47402.4 18163.2 46382.4 17107.2 Q 45362.4 16051.2 43802.4 16051.2  Z M 63425.6 8323.2 L 66689.6 8323.2 L 66689.6 26419.2 L 63425.6 26419.2 L 63425.6 25039.2 Q 62465.6 25951.2 61499.6 26353.2 Q 60533.6 26755.2 59405.6 26755.2 Q 56873.6 26755.2 55025.6 24793.2 Q 53177.6 22831.2 53177.6 19915.2 Q 53177.6 16891.2 54965.6 14959.2 Q 56753.6 13027.2 59309.6 13027.2 Q 60485.6 13027.2 61517.6 13471.2 Q 62549.6 13915.2 63425.6 14803.2 L 63425.6 8323.2 Z M 59981.6 16051.2 Q 58457.6 16051.2 57449.6 17125.2 Q 56441.6 18199.2 56441.6 19879.2 Q 56441.6 21571.2 57467.6 22663.2 Q 58493.6 23755.2 59993.6 23755.2 Q 61541.6 23755.2 62561.6 22681.2 Q 63581.6 21607.2 63581.6 19867.2 Q 63581.6 18163.2 62561.6 17107.2 Q 61541.6 16051.2 59981.6 16051.2  Z M 83036.8 20839.2 L 72512.8 20839.2 Q 72740.8 22231.2 73730.8 23053.2 Q 74720.8 23875.2 76256.8 23875.2 Q 78092.8 23875.2 79412.8 22591.2 L 82172.8 23887.2 Q 81140.8 25351.2 79700.8 26053.2 Q 78260.8 26755.2 76280.8 26755.2 Q 73208.8 26755.2 71276.8 24817.2 Q 69344.8 22879.2 69344.8 19963.2 Q 69344.8 16975.2 71270.8 15001.2 Q 73196.8 13027.2 76100.8 13027.2 Q 79184.8 13027.2 81116.8 15001.2 Q 83048.8 16975.2 83048.8 20215.2 L 83036.8 20839.2 Z M 79748.8 18259.2 Q 79424.8 17167.2 78470.8 16483.2 Q 77516.8 15799.2 76256.8 15799.2 Q 74888.8 15799.2 73856.8 16567.2 Q 73208.8 17047.2 72656.8 18259.2 L 79748.8 18259.2 Z M 85651.2 13363.2 L 88939.2 13363.2 L 88939.2 14863.2 Q 89779.2 13939.2 90805.2 13483.2 Q 91831.2 13027.2 93043.2 13027.2 Q 94267.2 13027.2 95251.2 13627.2 Q 96235.2 14227.2 96835.2 15379.2 Q 97615.2 14227.2 98749.2 13627.2 Q 99883.2 13027.2 101227.2 13027.2 Q 102619.2 13027.2 103675.2 13675.2 Q 104731.2 14323.2 105193.2 15367.2 Q 105655.2 16411.2 105655.2 18763.2 L 105655.2 26419.2 L 102355.2 26419.2 L 102355.2 19795.2 Q 102355.2 17575.2 101803.2 16789.2 Q 101251.2 16003.2 100147.2 16003.2 Q 99307.2 16003.2 98641.2 16483.2 Q 97975.2 16963.2 97651.2 17809.2 Q 97327.2 18655.2 97327.2 20527.2 L 97327.2 26419.2 L 94027.2 26419.2 L 94027.2 20095.2 Q 94027.2 18343.2 93769.2 17557.2 Q 93511.2 16771.2 92995.2 16387.2 Q 92479.2 16003.2 91747.2 16003.2 Q 90931.2 16003.2 90265.2 16489.2 Q 89599.2 16975.2 89269.2 17851.2 Q 88939.2 18727.2 88939.2 20611.2 L 88939.2 26419.2 L 85651.2 26419.2 L 85651.2 13363.2 Z M 110050.4 7987.2 Q 110914.4 7987.2 111532.4 8611.2 Q 112150.4 9235.2 112150.4 10123.2 Q 112150.4 10999.2 111538.4 11617.2 Q 110926.4 12235.2 110074.4 12235.2 Q 109198.4 12235.2 108580.4 11605.2 Q 107962.4 10975.2 107962.4 10075.2 Q 107962.4 9211.2 108574.4 8599.2 Q 109186.4 7987.2 110050.4 7987.2  Z M 108406.4 13363.2 L 111694.4 13363.2 L 111694.4 26419.2 L 108406.4 26419.2 L 108406.4 13363.2 Z M 127434.4 16003.2 L 124710.4 17503.2 Q 123942.4 16699.2 123192.4 16387.2 Q 122442.4 16075.2 121434.4 16075.2 Q 119598.4 16075.2 118464.4 17173.2 Q 117330.4 18271.2 117330.4 19987.2 Q 117330.4 21655.2 118422.4 22711.2 Q 119514.4 23767.2 121290.4 23767.2 Q 123486.4 23767.2 124710.4 22267.2 L 127290.4 24031.2 Q 125190.4 26755.2 121362.4 26755.2 Q 117918.4 26755.2 115968.4 24715.2 Q 114018.4 22675.2 114018.4 19939.2 Q 114018.4 18043.2 114966.4 16447.2 Q 115914.4 14851.2 117612.4 13939.2 Q 119310.4 13027.2 121410.4 13027.2 Q 123354.4 13027.2 124902.4 13801.2 Q 126450.4 14575.2 127434.4 16003.2  Z M 145225.6 15187.2 L 143197.6 17215.2 Q 141961.6 15991.2 140953.6 15991.2 Q 140401.6 15991.2 140089.6 16225.2 Q 139777.6 16459.2 139777.6 16807.2 Q 139777.6 17071.2 139975.6 17293.2 Q 140173.6 17515.2 140953.6 17899.2 L 142153.6 18499.2 Q 144049.6 19435.2 144757.6 20407.2 Q 145465.6 21379.2 145465.6 22687.2 Q 145465.6 24427.2 144187.6 25591.2 Q 142909.6 26755.2 140761.6 26755.2 Q 137905.6 26755.2 136201.6 24523.2 L 138217.6 22327.2 Q 138793.6 22999.2 139567.6 23413.2 Q 140341.6 23827.2 140941.6 23827.2 Q 141589.6 23827.2 141985.6 23515.2 Q 142381.6 23203.2 142381.6 22795.2 Q 142381.6 22039.2 140953.6 21319.2 L 139849.6 20767.2 Q 136681.6 19171.2 136681.6 16771.2 Q 136681.6 15223.2 137875.6 14125.2 Q 139069.6 13027.2 140929.6 13027.2 Q 142201.6 13027.2 143323.6 13585.2 Q 144445.6 14143.2 145225.6 15187.2  Z M 147688.8 8323.2 L 150964.8 8323.2 L 150964.8 26419.2 L 147688.8 26419.2 L 147688.8 8323.2 Z M 155208.8 7987.2 Q 156072.8 7987.2 156690.8 8611.2 Q 157308.8 9235.2 157308.8 10123.2 Q 157308.8 10999.2 156696.8 11617.2 Q 156084.8 12235.2 155232.8 12235.2 Q 154356.8 12235.2 153738.8 11605.2 Q 153120.8 10975.2 153120.8 10075.2 Q 153120.8 9211.2 153732.8 8599.2 Q 154344.8 7987.2 155208.8 7987.2  Z M 153564.8 13363.2 L 156852.8 13363.2 L 156852.8 26419.2 L 153564.8 26419.2 L 153564.8 13363.2 Z M 169460.8 8323.2 L 172724.8 8323.2 L 172724.8 26419.2 L 169460.8 26419.2 L 169460.8 25039.2 Q 168500.8 25951.2 167534.8 26353.2 Q 166568.8 26755.2 165440.8 26755.2 Q 162908.8 26755.2 161060.8 24793.2 Q 159212.8 22831.2 159212.8 19915.2 Q 159212.8 16891.2 161000.8 14959.2 Q 162788.8 13027.2 165344.8 13027.2 Q 166520.8 13027.2 167552.8 13471.2 Q 168584.8 13915.2 169460.8 14803.2 L 169460.8 8323.2 Z M 166016.8 16051.2 Q 164492.8 16051.2 163484.8 17125.2 Q 162476.8 18199.2 162476.8 19879.2 Q 162476.8 21571.2 163502.8 22663.2 Q 164528.8 23755.2 166028.8 23755.2 Q 167576.8 23755.2 168596.8 22681.2 Q 169616.8 21607.2 169616.8 19867.2 Q 169616.8 18163.2 168596.8 17107.2 Q 167576.8 16051.2 166016.8 16051.2  Z M 189072 20839.2 L 178548 20839.2 Q 178776 22231.2 179766 23053.2 Q 180756 23875.2 182292 23875.2 Q 184128 23875.2 185448 22591.2 L 188208 23887.2 Q 187176 25351.2 185736 26053.2 Q 184296 26755.2 182316 26755.2 Q 179244 26755.2 177312 24817.2 Q 175380 22879.2 175380 19963.2 Q 175380 16975.2 177306 15001.2 Q 179232 13027.2 182136 13027.2 Q 185220 13027.2 187152 15001.2 Q 189084 16975.2 189084 20215.2 L 189072 20839.2 Z M 185784 18259.2 Q 185460 17167.2 184506 16483.2 Q 183552 15799.2 182292 15799.2 Q 180924 15799.2 179892 16567.2 Q 179244 17047.2 178692 18259.2 L 185784 18259.2 Z M 199702.4 15187.2 L 197674.4 17215.2 Q 196438.4 15991.2 195430.4 15991.2 Q 194878.4 15991.2 194566.4 16225.2 Q 194254.4 16459.2 194254.4 16807.2 Q 194254.4 17071.2 194452.4 17293.2 Q 194650.4 17515.2 195430.4 17899.2 L 196630.4 18499.2 Q 198526.4 19435.2 199234.4 20407.2 Q 199942.4 21379.2 199942.4 22687.2 Q 199942.4 24427.2 198664.4 25591.2 Q 197386.4 26755.2 195238.4 26755.2 Q 192382.4 26755.2 190678.4 24523.2 L 192694.4 22327.2 Q 193270.4 22999.2 194044.4 23413.2 Q 194818.4 23827.2 195418.4 23827.2 Q 196066.4 23827.2 196462.4 23515.2 Q 196858.4 23203.2 196858.4 22795.2 Q 196858.4 22039.2 195430.4 21319.2 L 194326.4 20767.2 Q 191158.4 19171.2 191158.4 16771.2 Q 191158.4 15223.2 192352.4 14125.2 Q 193546.4 13027.2 195406.4 13027.2 Q 196678.4 13027.2 197800.4 13585.2 Q 198922.4 14143.2 199702.4 15187.2  Z " fill-rule="nonzero" style="fill:#f64747;;fill-opacity:1;"/>
</svg>