<svg version="1.1" x="0" y="0" width="100%" height="100%" viewBox="0 0 141619.2 62566.4" xmlns="http://www.w3.org/2000/svg">
  <path d="M 4292 8255.2 L 7808 8255.2 Q 10748 8255.2 11792 8495.2 Q 13364 8855.2 14348 10037.2 Q 15332 11219.2 15332 12947.2 Q 15332 14387.2 14654 15479.2 Q 13976 16571.2 12716 17129.2 Q 11456 17687.2 9236 17699.2 L 15584 25907.2 L 13400 25907.2 L 7064 17699.2 L 6056 17699.2 L 6056 25907.2 L 4292 25907.2 L 4292 8255.2 Z M 6056 9983.2 L 6056 15983.2 L 9092 16007.2 Q 10856 16007.2 11702 15671.2 Q 12548 15335.2 13022 14597.2 Q 13496 13859.2 13496 12947.2 Q 13496 12059.2 13016 11333.2 Q 12536 10607.2 11756 10295.2 Q 10976 9983.2 9164 9983.2 L 6056 9983.2 Z M 29811.2 21575.2 L 31227.2 22319.2 Q 30531.2 23687.2 29619.2 24527.2 Q 28707.2 25367.2 27567.2 25805.2 Q 26427.2 26243.2 24987.2 26243.2 Q 21795.2 26243.2 19995.2 24149.2 Q 18195.2 22055.2 18195.2 19415.2 Q 18195.2 16931.2 19719.2 14987.2 Q 21651.2 12515.2 24891.2 12515.2 Q 28227.2 12515.2 30219.2 15047.2 Q 31635.2 16835.2 31659.2 19511.2 L 19923.2 19511.2 Q 19971.2 21791.2 21375.2 23249.2 Q 22779.2 24707.2 24843.2 24707.2 Q 25839.2 24707.2 26781.2 24359.2 Q 27723.2 24011.2 28383.2 23435.2 Q 29043.2 22859.2 29811.2 21575.2  Z M 29811.2 18059.2 Q 29475.2 16715.2 28833.2 15911.2 Q 28191.2 15107.2 27135.2 14615.2 Q 26079.2 14123.2 24915.2 14123.2 Q 22995.2 14123.2 21615.2 15359.2 Q 20607.2 16259.2 20091.2 18059.2 L 29811.2 18059.2 Z M 41306.4 14279.2 L 40226.4 15395.2 Q 38882.4 14087.2 37598.4 14087.2 Q 36782.4 14087.2 36200.4 14627.2 Q 35618.4 15167.2 35618.4 15887.2 Q 35618.4 16523.2 36098.4 17099.2 Q 36578.4 17687.2 38114.4 18479.2 Q 39986.4 19451.2 40658.4 20351.2 Q 41318.4 21263.2 41318.4 22403.2 Q 41318.4 24011.2 40190.4 25127.2 Q 39062.4 26243.2 37370.4 26243.2 Q 36242.4 26243.2 35216.4 25751.2 Q 34190.4 25259.2 33518.4 24395.2 L 34574.4 23195.2 Q 35858.4 24647.2 37298.4 24647.2 Q 38306.4 24647.2 39014.4 23999.2 Q 39722.4 23351.2 39722.4 22475.2 Q 39722.4 21755.2 39254.4 21191.2 Q 38786.4 20639.2 37142.4 19799.2 Q 35378.4 18887.2 34742.4 17999.2 Q 34106.4 17111.2 34106.4 15971.2 Q 34106.4 14483.2 35120.4 13499.2 Q 36134.4 12515.2 37682.4 12515.2 Q 39482.4 12515.2 41306.4 14279.2  Z M 44049.6 12851.2 L 45741.6 12851.2 L 45741.6 18947.2 Q 45741.6 21179.2 45981.6 22019.2 Q 46341.6 23219.2 47355.6 23915.2 Q 48369.6 24611.2 49773.6 24611.2 Q 51177.6 24611.2 52155.6 23933.2 Q 53133.6 23255.2 53505.6 22151.2 Q 53757.6 21395.2 53757.6 18947.2 L 53757.6 12851.2 L 55473.6 12851.2 L 55473.6 19259.2 Q 55473.6 21959.2 54843.6 23327.2 Q 54213.6 24695.2 52947.6 25469.2 Q 51681.6 26243.2 49773.6 26243.2 Q 47865.6 26243.2 46587.6 25469.2 Q 45309.6 24695.2 44679.6 23309.2 Q 44049.6 21923.2 44049.6 19139.2 L 44049.6 12851.2 Z M 59152.8 12851.2 L 60820.8 12851.2 L 60820.8 15107.2 Q 61696.8 13859.2 62620.8 13283.2 Q 63892.8 12515.2 65296.8 12515.2 Q 66244.8 12515.2 67096.8 12887.2 Q 67948.8 13259.2 68488.8 13877.2 Q 69028.8 14495.2 69424.8 15647.2 Q 70264.8 14111.2 71524.8 13313.2 Q 72784.8 12515.2 74236.8 12515.2 Q 75592.8 12515.2 76630.8 13199.2 Q 77668.8 13883.2 78172.8 15107.2 Q 78676.8 16331.2 78676.8 18779.2 L 78676.8 25907.2 L 76960.8 25907.2 L 76960.8 18779.2 Q 76960.8 16679.2 76660.8 15893.2 Q 76360.8 15107.2 75634.8 14627.2 Q 74908.8 14147.2 73900.8 14147.2 Q 72676.8 14147.2 71662.8 14867.2 Q 70648.8 15587.2 70180.8 16787.2 Q 69712.8 17987.2 69712.8 20795.2 L 69712.8 25907.2 L 68044.8 25907.2 L 68044.8 19223.2 Q 68044.8 16859.2 67750.8 16013.2 Q 67456.8 15167.2 66724.8 14657.2 Q 65992.8 14147.2 64984.8 14147.2 Q 63820.8 14147.2 62806.8 14849.2 Q 61792.8 15551.2 61306.8 16739.2 Q 60820.8 17927.2 60820.8 20375.2 L 60820.8 25907.2 L 59152.8 25907.2 L 59152.8 12851.2 Z M 93196.8 21575.2 L 94612.8 22319.2 Q 93916.8 23687.2 93004.8 24527.2 Q 92092.8 25367.2 90952.8 25805.2 Q 89812.8 26243.2 88372.8 26243.2 Q 85180.8 26243.2 83380.8 24149.2 Q 81580.8 22055.2 81580.8 19415.2 Q 81580.8 16931.2 83104.8 14987.2 Q 85036.8 12515.2 88276.8 12515.2 Q 91612.8 12515.2 93604.8 15047.2 Q 95020.8 16835.2 95044.8 19511.2 L 83308.8 19511.2 Q 83356.8 21791.2 84760.8 23249.2 Q 86164.8 24707.2 88228.8 24707.2 Q 89224.8 24707.2 90166.8 24359.2 Q 91108.8 24011.2 91768.8 23435.2 Q 92428.8 22859.2 93196.8 21575.2  Z M 93196.8 18059.2 Q 92860.8 16715.2 92218.8 15911.2 Q 91576.8 15107.2 90520.8 14615.2 Q 89464.8 14123.2 88300.8 14123.2 Q 86380.8 14123.2 85000.8 15359.2 Q 83992.8 16259.2 83476.8 18059.2 L 93196.8 18059.2 Z M 104692 14279.2 L 103612 15395.2 Q 102268 14087.2 100984 14087.2 Q 100168 14087.2 99586 14627.2 Q 99004 15167.2 99004 15887.2 Q 99004 16523.2 99484 17099.2 Q 99964 17687.2 101500 18479.2 Q 103372 19451.2 104044 20351.2 Q 104704 21263.2 104704 22403.2 Q 104704 24011.2 103576 25127.2 Q 102448 26243.2 100756 26243.2 Q 99628 26243.2 98602 25751.2 Q 97576 25259.2 96904 24395.2 L 97960 23195.2 Q 99244 24647.2 100684 24647.2 Q 101692 24647.2 102400 23999.2 Q 103108 23351.2 103108 22475.2 Q 103108 21755.2 102640 21191.2 Q 102172 20639.2 100528 19799.2 Q 98764 18887.2 98128 17999.2 Q 97492 17111.2 97492 15971.2 Q 97492 14483.2 98506 13499.2 Q 99520 12515.2 101068 12515.2 Q 102868 12515.2 104692 14279.2  Z M 115811.2 7811.2 L 108479.2 28307.2 L 106643.2 28307.2 L 113963.2 7811.2 L 115811.2 7811.2 Z M 3668 37046.4 L 5348 37046.4 L 5348 55142.4 L 3668 55142.4 L 3668 37046.4 Z M 19827.2 50810.4 L 21243.2 51554.4 Q 20547.2 52922.4 19635.2 53762.4 Q 18723.2 54602.4 17583.2 55040.4 Q 16443.2 55478.4 15003.2 55478.4 Q 11811.2 55478.4 10011.2 53384.4 Q 8211.2 51290.4 8211.2 48650.4 Q 8211.2 46166.4 9735.2 44222.4 Q 11667.2 41750.4 14907.2 41750.4 Q 18243.2 41750.4 20235.2 44282.4 Q 21651.2 46070.4 21675.2 48746.4 L 9939.2 48746.4 Q 9987.2 51026.4 11391.2 52484.4 Q 12795.2 53942.4 14859.2 53942.4 Q 15855.2 53942.4 16797.2 53594.4 Q 17739.2 53246.4 18399.2 52670.4 Q 19059.2 52094.4 19827.2 50810.4  Z M 19827.2 47294.4 Q 19491.2 45950.4 18849.2 45146.4 Q 18207.2 44342.4 17151.2 43850.4 Q 16095.2 43358.4 14931.2 43358.4 Q 13011.2 43358.4 11631.2 44594.4 Q 10623.2 45494.4 10107.2 47294.4 L 19827.2 47294.4 Z M 26222.4 37238.4 L 27914.4 37238.4 L 27914.4 42086.4 L 30578.4 42086.4 L 30578.4 43526.4 L 27914.4 43526.4 L 27914.4 55142.4 L 26222.4 55142.4 L 26222.4 43526.4 L 23930.4 43526.4 L 23930.4 42086.4 L 26222.4 42086.4 L 26222.4 37238.4 Z M 34516.8 37238.4 L 36208.8 37238.4 L 36208.8 42086.4 L 38872.8 42086.4 L 38872.8 43526.4 L 36208.8 43526.4 L 36208.8 55142.4 L 34516.8 55142.4 L 34516.8 43526.4 L 32224.8 43526.4 L 32224.8 42086.4 L 34516.8 42086.4 L 34516.8 37238.4 Z M 52339.2 50810.4 L 53755.2 51554.4 Q 53059.2 52922.4 52147.2 53762.4 Q 51235.2 54602.4 50095.2 55040.4 Q 48955.2 55478.4 47515.2 55478.4 Q 44323.2 55478.4 42523.2 53384.4 Q 40723.2 51290.4 40723.2 48650.4 Q 40723.2 46166.4 42247.2 44222.4 Q 44179.2 41750.4 47419.2 41750.4 Q 50755.2 41750.4 52747.2 44282.4 Q 54163.2 46070.4 54187.2 48746.4 L 42451.2 48746.4 Q 42499.2 51026.4 43903.2 52484.4 Q 45307.2 53942.4 47371.2 53942.4 Q 48367.2 53942.4 49309.2 53594.4 Q 50251.2 53246.4 50911.2 52670.4 Q 51571.2 52094.4 52339.2 50810.4  Z M 52339.2 47294.4 Q 52003.2 45950.4 51361.2 45146.4 Q 50719.2 44342.4 49663.2 43850.4 Q 48607.2 43358.4 47443.2 43358.4 Q 45523.2 43358.4 44143.2 44594.4 Q 43135.2 45494.4 42619.2 47294.4 L 52339.2 47294.4 Z M 56634.4 42086.4 L 58350.4 42086.4 L 58350.4 43994.4 Q 59118.4 42866.4 59970.4 42308.4 Q 60822.4 41750.4 61746.4 41750.4 Q 62442.4 41750.4 63234.4 42194.4 L 62358.4 43610.4 Q 61830.4 43382.4 61470.4 43382.4 Q 60630.4 43382.4 59850.4 44072.4 Q 59070.4 44762.4 58662.4 46214.4 Q 58350.4 47330.4 58350.4 50726.4 L 58350.4 55142.4 L 56634.4 55142.4 L 56634.4 42086.4 Z M 71207.2 43514.4 L 70127.2 44630.4 Q 68783.2 43322.4 67499.2 43322.4 Q 66683.2 43322.4 66101.2 43862.4 Q 65519.2 44402.4 65519.2 45122.4 Q 65519.2 45758.4 65999.2 46334.4 Q 66479.2 46922.4 68015.2 47714.4 Q 69887.2 48686.4 70559.2 49586.4 Q 71219.2 50498.4 71219.2 51638.4 Q 71219.2 53246.4 70091.2 54362.4 Q 68963.2 55478.4 67271.2 55478.4 Q 66143.2 55478.4 65117.2 54986.4 Q 64091.2 54494.4 63419.2 53630.4 L 64475.2 52430.4 Q 65759.2 53882.4 67199.2 53882.4 Q 68207.2 53882.4 68915.2 53234.4 Q 69623.2 52586.4 69623.2 51710.4 Q 69623.2 50990.4 69155.2 50426.4 Q 68687.2 49874.4 67043.2 49034.4 Q 65279.2 48122.4 64643.2 47234.4 Q 64007.2 46346.4 64007.2 45206.4 Q 64007.2 43718.4 65021.2 42734.4 Q 66035.2 41750.4 67583.2 41750.4 Q 69383.2 41750.4 71207.2 43514.4  Z " fill-rule="nonzero" style="fill:#000000;;fill-opacity:1;"/>
</svg>