<svg version="1.1" x="0" y="0" width="100%" height="100%" viewBox="0 0 46336 22681.6" xmlns="http://www.w3.org/2000/svg">
  <path d="M 3315.5 6221.9 L 5325.5 6221.9 L 10058 13481.9 L 10058 6221.9 L 12158 6221.9 L 12158 17254.4 L 10140.5 17254.4 L 5415.5 10016.9 L 5415.5 17254.4 L 3315.5 17254.4 L 3315.5 6221.9 Z M 22573.2 13766.9 L 15995.7 13766.9 Q 16138.2 14636.9 16756.95 15150.65 Q 17375.7 15664.4 18335.7 15664.4 Q 19483.2 15664.4 20308.2 14861.9 L 22033.2 15671.9 Q 21388.2 16586.9 20488.2 17025.65 Q 19588.2 17464.4 18350.7 17464.4 Q 16430.7 17464.4 15223.2 16253.15 Q 14015.7 15041.9 14015.7 13219.4 Q 14015.7 11351.9 15219.45 10118.15 Q 16423.2 8884.4 18238.2 8884.4 Q 20165.7 8884.4 21373.2 10118.15 Q 22580.7 11351.9 22580.7 13376.9 L 22573.2 13766.9 Z M 20518.2 12154.4 Q 20315.7 11471.9 19719.45 11044.4 Q 19123.2 10616.9 18335.7 10616.9 Q 17480.7 10616.9 16835.7 11096.9 Q 16430.7 11396.9 16085.7 12154.4 L 20518.2 12154.4 Z M 23321.1 9094.4 L 25323.6 9094.4 L 26966.1 13736.9 L 28736.1 9094.4 L 29958.6 9094.4 L 31691.1 13684.4 L 33333.6 9094.4 L 35351.1 9094.4 L 32373.6 17254.4 L 31076.1 17254.4 L 29336.1 12604.4 L 27543.6 17254.4 L 26261.1 17254.4 L 23321.1 9094.4 Z M 41460.4 10234.4 L 40192.9 11501.9 Q 39420.4 10736.9 38790.4 10736.9 Q 38445.4 10736.9 38250.4 10883.15 Q 38055.4 11029.4 38055.4 11246.9 Q 38055.4 11411.9 38179.15 11550.65 Q 38302.9 11689.4 38790.4 11929.4 L 39540.4 12304.4 Q 40725.4 12889.4 41167.9 13496.9 Q 41610.4 14104.4 41610.4 14921.9 Q 41610.4 16009.4 40811.65 16736.9 Q 40012.9 17464.4 38670.4 17464.4 Q 36885.4 17464.4 35820.4 16069.4 L 37080.4 14696.9 Q 37440.4 15116.9 37924.15 15375.65 Q 38407.9 15634.4 38782.9 15634.4 Q 39187.9 15634.4 39435.4 15439.4 Q 39682.9 15244.4 39682.9 14989.4 Q 39682.9 14516.9 38790.4 14066.9 L 38100.4 13721.9 Q 36120.4 12724.4 36120.4 11224.4 Q 36120.4 10256.9 36866.65 9570.65 Q 37612.9 8884.4 38775.4 8884.4 Q 39570.4 8884.4 40271.65 9233.15 Q 40972.9 9581.9 41460.4 10234.4  Z " fill-rule="nonzero" style="fill:#000000;;fill-opacity:1;"/>
</svg>