<svg version="1.1" x="0" y="0" width="100%" height="100%" viewBox="0 0 63436.8 33843.2" xmlns="http://www.w3.org/2000/svg">
  <path d="M 4076 8767.2 L 8060 8767.2 Q 11912 8767.2 13784 9721.2 Q 15656 10675.2 16868 12823.2 Q 18080 14971.2 18080 17839.2 Q 18080 19879.2 17402 21589.2 Q 16724 23299.2 15530 24427.2 Q 14336 25555.2 12944 25987.2 Q 11552 26419.2 8120 26419.2 L 4076 26419.2 L 4076 8767.2 Z M 7424 12007.2 L 7424 23131.2 L 8984 23131.2 Q 11288 23131.2 12326 22603.2 Q 13364 22075.2 14024 20827.2 Q 14684 19579.2 14684 17755.2 Q 14684 14947.2 13112 13399.2 Q 11696 12007.2 8564 12007.2 L 7424 12007.2 Z M 30555.2 13363.2 L 33819.2 13363.2 L 33819.2 26419.2 L 30555.2 26419.2 L 30555.2 25039.2 Q 29595.2 25951.2 28629.2 26353.2 Q 27663.2 26755.2 26535.2 26755.2 Q 24003.2 26755.2 22155.2 24793.2 Q 20307.2 22831.2 20307.2 19915.2 Q 20307.2 16891.2 22095.2 14959.2 Q 23883.2 13027.2 26439.2 13027.2 Q 27615.2 13027.2 28647.2 13471.2 Q 29679.2 13915.2 30555.2 14803.2 L 30555.2 13363.2 Z M 27111.2 16051.2 Q 25587.2 16051.2 24579.2 17125.2 Q 23571.2 18199.2 23571.2 19879.2 Q 23571.2 21571.2 24597.2 22663.2 Q 25623.2 23755.2 27123.2 23755.2 Q 28671.2 23755.2 29691.2 22681.2 Q 30711.2 21607.2 30711.2 19867.2 Q 30711.2 18163.2 29691.2 17107.2 Q 28671.2 16051.2 27111.2 16051.2  Z M 37482.4 8551.2 L 40746.4 8551.2 L 40746.4 13363.2 L 42690.4 13363.2 L 42690.4 16183.2 L 40746.4 16183.2 L 40746.4 26419.2 L 37482.4 26419.2 L 37482.4 16183.2 L 35802.4 16183.2 L 35802.4 13363.2 L 37482.4 13363.2 L 37482.4 8551.2 Z M 54056 13363.2 L 57320 13363.2 L 57320 26419.2 L 54056 26419.2 L 54056 25039.2 Q 53096 25951.2 52130 26353.2 Q 51164 26755.2 50036 26755.2 Q 47504 26755.2 45656 24793.2 Q 43808 22831.2 43808 19915.2 Q 43808 16891.2 45596 14959.2 Q 47384 13027.2 49940 13027.2 Q 51116 13027.2 52148 13471.2 Q 53180 13915.2 54056 14803.2 L 54056 13363.2 Z M 50612 16051.2 Q 49088 16051.2 48080 17125.2 Q 47072 18199.2 47072 19879.2 Q 47072 21571.2 48098 22663.2 Q 49124 23755.2 50624 23755.2 Q 52172 23755.2 53192 22681.2 Q 54212 21607.2 54212 19867.2 Q 54212 18163.2 53192 17107.2 Q 52172 16051.2 50612 16051.2  Z " fill-rule="nonzero" style="fill:#000000;;fill-opacity:1;"/>
</svg>