<svg version="1.1" x="0" y="0" width="100%" height="100%" viewBox="0 0 109568 33331.2" xmlns="http://www.w3.org/2000/svg">
  <path d="M 4196 8255.2 L 13040 8255.2 L 13040 9995.2 L 5948 9995.2 L 5948 15515.2 L 13040 15515.2 L 13040 17255.2 L 5948 17255.2 L 5948 25907.2 L 4196 25907.2 L 4196 8255.2 Z M 16386.4 7475.2 Q 16962.4 7475.2 17370.4 7883.2 Q 17778.4 8291.2 17778.4 8867.2 Q 17778.4 9431.2 17370.4 9839.2 Q 16962.4 10247.2 16386.4 10247.2 Q 15822.4 10247.2 15414.4 9839.2 Q 15006.4 9431.2 15006.4 8867.2 Q 15006.4 8291.2 15414.4 7883.2 Q 15822.4 7475.2 16386.4 7475.2  Z M 15546.4 12851.2 L 17238.4 12851.2 L 17238.4 25907.2 L 15546.4 25907.2 L 15546.4 12851.2 Z M 31705.6 21575.2 L 33121.6 22319.2 Q 32425.6 23687.2 31513.6 24527.2 Q 30601.6 25367.2 29461.6 25805.2 Q 28321.6 26243.2 26881.6 26243.2 Q 23689.6 26243.2 21889.6 24149.2 Q 20089.6 22055.2 20089.6 19415.2 Q 20089.6 16931.2 21613.6 14987.2 Q 23545.6 12515.2 26785.6 12515.2 Q 30121.6 12515.2 32113.6 15047.2 Q 33529.6 16835.2 33553.6 19511.2 L 21817.6 19511.2 Q 21865.6 21791.2 23269.6 23249.2 Q 24673.6 24707.2 26737.6 24707.2 Q 27733.6 24707.2 28675.6 24359.2 Q 29617.6 24011.2 30277.6 23435.2 Q 30937.6 22859.2 31705.6 21575.2  Z M 31705.6 18059.2 Q 31369.6 16715.2 30727.6 15911.2 Q 30085.6 15107.2 29029.6 14615.2 Q 27973.6 14123.2 26809.6 14123.2 Q 24889.6 14123.2 23509.6 15359.2 Q 22501.6 16259.2 21985.6 18059.2 L 31705.6 18059.2 Z M 36384.8 7811.2 L 38064.8 7811.2 L 38064.8 25907.2 L 36384.8 25907.2 L 36384.8 7811.2 Z M 54584 7811.2 L 54584 25907.2 L 52928 25907.2 L 52928 23663.2 Q 51872 24947.2 50558 25595.2 Q 49244 26243.2 47684 26243.2 Q 44912 26243.2 42950 24233.2 Q 40988 22223.2 40988 19343.2 Q 40988 16523.2 42968 14519.2 Q 44948 12515.2 47732 12515.2 Q 49340 12515.2 50642 13199.2 Q 51944 13883.2 52928 15251.2 L 52928 7811.2 L 54584 7811.2 Z M 47864 14135.2 Q 46460 14135.2 45272 14825.2 Q 44084 15515.2 43382 16763.2 Q 42680 18011.2 42680 19403.2 Q 42680 20783.2 43388 22043.2 Q 44096 23303.2 45290 24005.2 Q 46484 24707.2 47852 24707.2 Q 49232 24707.2 50468 24011.2 Q 51704 23315.2 52370 22127.2 Q 53036 20939.2 53036 19451.2 Q 53036 17183.2 51542 15659.2 Q 50048 14135.2 47864 14135.2  Z " fill-rule="nonzero" style="fill:#000000;;fill-opacity:1;"/>
</svg>