<svg version="1.1" x="0" y="0" width="100%" height="100%" viewBox="0 0 89958.4 33843.2" xmlns="http://www.w3.org/2000/svg">
  <path d="M 4064 26419.2 L 4064 8767.2 L 6836 8767.2 Q 9248 8767.2 10364 9079.2 Q 11948 9499.2 12884 10639.2 Q 13820 11779.2 13820 13327.2 Q 13820 14335.2 13394 15157.2 Q 12968 15979.2 12008 16699.2 Q 13616 17455.2 14360 18589.2 Q 15104 19723.2 15104 21271.2 Q 15104 22759.2 14336 23983.2 Q 13568 25207.2 12356 25813.2 Q 11144 26419.2 9008 26419.2 L 4064 26419.2 Z M 7424 11971.2 L 7424 15691.2 L 8156 15691.2 Q 9380 15691.2 9974 15175.2 Q 10568 14659.2 10568 13771.2 Q 10568 12943.2 10004 12457.2 Q 9440 11971.2 8288 11971.2 L 7424 11971.2 Z M 7424 18691.2 L 7424 23215.2 L 8264 23215.2 Q 10352 23215.2 11078 22687.2 Q 11804 22159.2 11804 21151.2 Q 11804 20011.2 10952 19351.2 Q 10100 18691.2 8120 18691.2 L 7424 18691.2 Z M 17589.6 8323.2 L 20865.6 8323.2 L 20865.6 26419.2 L 17589.6 26419.2 L 17589.6 8323.2 Z M 29957.6 13027.2 Q 31805.6 13027.2 33431.6 13951.2 Q 35057.6 14875.2 35969.6 16459.2 Q 36881.6 18043.2 36881.6 19879.2 Q 36881.6 21727.2 35963.6 23335.2 Q 35045.6 24943.2 33461.6 25849.2 Q 31877.6 26755.2 29969.6 26755.2 Q 27161.6 26755.2 25175.6 24757.2 Q 23189.6 22759.2 23189.6 19903.2 Q 23189.6 16843.2 25433.6 14803.2 Q 27401.6 13027.2 29957.6 13027.2  Z M 30005.6 16111.2 Q 28481.6 16111.2 27467.6 17173.2 Q 26453.6 18235.2 26453.6 19891.2 Q 26453.6 21595.2 27455.6 22651.2 Q 28457.6 23707.2 29993.6 23707.2 Q 31529.6 23707.2 32549.6 22639.2 Q 33569.6 21571.2 33569.6 19891.2 Q 33569.6 18211.2 32567.6 17161.2 Q 31565.6 16111.2 30005.6 16111.2  Z M 49192 13363.2 L 52456 13363.2 L 52456 24547.2 Q 52456 27859.2 51124 29419.2 Q 49336 31531.2 45736 31531.2 Q 43816 31531.2 42508 31051.2 Q 41200 30571.2 40300 29641.2 Q 39400 28711.2 38968 27379.2 L 42580 27379.2 Q 43060 27931.2 43816 28213.2 Q 44572 28495.2 45604 28495.2 Q 46924 28495.2 47728 28087.2 Q 48532 27679.2 48862 27031.2 Q 49192 26383.2 49192 24799.2 Q 48328 25663.2 47380 26041.2 Q 46432 26419.2 45232 26419.2 Q 42604 26419.2 40792 24523.2 Q 38980 22627.2 38980 19723.2 Q 38980 16615.2 40900 14731.2 Q 42640 13027.2 45052 13027.2 Q 46180 13027.2 47182 13441.2 Q 48184 13855.2 49192 14803.2 L 49192 13363.2 Z M 45796 16087.2 Q 44248 16087.2 43240 17125.2 Q 42232 18163.2 42232 19735.2 Q 42232 21367.2 43264 22411.2 Q 44296 23455.2 45856 23455.2 Q 47380 23455.2 48370 22435.2 Q 49360 21415.2 49360 19759.2 Q 49360 18127.2 48364 17107.2 Q 47368 16087.2 45796 16087.2  Z " fill-rule="nonzero" style="fill:#f64747;;fill-opacity:1;"/>
</svg>