<svg version="1.1" x="0" y="0" width="100%" height="100%" viewBox="0 0 93132.8 33331.2" xmlns="http://www.w3.org/2000/svg">
  <path d="M 4244 8255.2 L 7724 8255.2 Q 9824 8255.2 10952 8753.2 Q 12080 9251.2 12734 10283.2 Q 13388 11315.2 13388 12575.2 Q 13388 13751.2 12812 14717.2 Q 12236 15683.2 11120 16283.2 Q 12500 16751.2 13244 17381.2 Q 13988 18011.2 14402 18905.2 Q 14816 19799.2 14816 20843.2 Q 14816 22967.2 13262 24437.2 Q 11708 25907.2 9092 25907.2 L 4244 25907.2 L 4244 8255.2 Z M 5972 9983.2 L 5972 15635.2 L 6980 15635.2 Q 8816 15635.2 9680 15293.2 Q 10544 14951.2 11048 14213.2 Q 11552 13475.2 11552 12575.2 Q 11552 11363.2 10706 10673.2 Q 9860 9983.2 8012 9983.2 L 5972 9983.2 Z M 5972 17411.2 L 5972 24179.2 L 8156 24179.2 Q 10088 24179.2 10988 23801.2 Q 11888 23423.2 12434 22619.2 Q 12980 21815.2 12980 20879.2 Q 12980 19703.2 12212 18827.2 Q 11444 17951.2 10100 17627.2 Q 9200 17411.2 6968 17411.2 L 5972 17411.2 Z M 24180 12515.2 Q 27192 12515.2 29172 14699.2 Q 30972 16691.2 30972 19415.2 Q 30972 22151.2 29070 24197.2 Q 27168 26243.2 24180 26243.2 Q 21180 26243.2 19278 24197.2 Q 17376 22151.2 17376 19415.2 Q 17376 16703.2 19176 14711.2 Q 21156 12515.2 24180 12515.2  Z M 24180 14159.2 Q 22092 14159.2 20592 15707.2 Q 19092 17255.2 19092 19451.2 Q 19092 20867.2 19776 22091.2 Q 20460 23315.2 21624 23981.2 Q 22788 24647.2 24180 24647.2 Q 25572 24647.2 26736 23981.2 Q 27900 23315.2 28584 22091.2 Q 29268 20867.2 29268 19451.2 Q 29268 17255.2 27762 15707.2 Q 26256 14159.2 24180 14159.2  Z M 40256.8 12515.2 Q 43268.8 12515.2 45248.8 14699.2 Q 47048.8 16691.2 47048.8 19415.2 Q 47048.8 22151.2 45146.8 24197.2 Q 43244.8 26243.2 40256.8 26243.2 Q 37256.8 26243.2 35354.8 24197.2 Q 33452.8 22151.2 33452.8 19415.2 Q 33452.8 16703.2 35252.8 14711.2 Q 37232.8 12515.2 40256.8 12515.2  Z M 40256.8 14159.2 Q 38168.8 14159.2 36668.8 15707.2 Q 35168.8 17255.2 35168.8 19451.2 Q 35168.8 20867.2 35852.8 22091.2 Q 36536.8 23315.2 37700.8 23981.2 Q 38864.8 24647.2 40256.8 24647.2 Q 41648.8 24647.2 42812.8 23981.2 Q 43976.8 23315.2 44660.8 22091.2 Q 45344.8 20867.2 45344.8 19451.2 Q 45344.8 17255.2 43838.8 15707.2 Q 42332.8 14159.2 40256.8 14159.2  Z M 50141.6 7811.2 L 51833.6 7811.2 L 51833.6 18107.2 L 57869.6 12851.2 L 60341.6 12851.2 L 53177.6 19079.2 L 60761.6 25907.2 L 58385.6 25907.2 L 51833.6 20039.2 L 51833.6 25907.2 L 50141.6 25907.2 L 50141.6 7811.2 Z M 69005.6 14279.2 L 67925.6 15395.2 Q 66581.6 14087.2 65297.6 14087.2 Q 64481.6 14087.2 63899.6 14627.2 Q 63317.6 15167.2 63317.6 15887.2 Q 63317.6 16523.2 63797.6 17099.2 Q 64277.6 17687.2 65813.6 18479.2 Q 67685.6 19451.2 68357.6 20351.2 Q 69017.6 21263.2 69017.6 22403.2 Q 69017.6 24011.2 67889.6 25127.2 Q 66761.6 26243.2 65069.6 26243.2 Q 63941.6 26243.2 62915.6 25751.2 Q 61889.6 25259.2 61217.6 24395.2 L 62273.6 23195.2 Q 63557.6 24647.2 64997.6 24647.2 Q 66005.6 24647.2 66713.6 23999.2 Q 67421.6 23351.2 67421.6 22475.2 Q 67421.6 21755.2 66953.6 21191.2 Q 66485.6 20639.2 64841.6 19799.2 Q 63077.6 18887.2 62441.6 17999.2 Q 61805.6 17111.2 61805.6 15971.2 Q 61805.6 14483.2 62819.6 13499.2 Q 63833.6 12515.2 65381.6 12515.2 Q 67181.6 12515.2 69005.6 14279.2  Z " fill-rule="nonzero" style="fill:#000000;;fill-opacity:1;"/>
</svg>