<svg version="1.1" x="0" y="0" width="100%" height="100%" viewBox="0 0 160819.2 91801.6" xmlns="http://www.w3.org/2000/svg">
  <path d="M 4292 8255.2 L 7808 8255.2 Q 10748 8255.2 11792 8495.2 Q 13364 8855.2 14348 10037.2 Q 15332 11219.2 15332 12947.2 Q 15332 14387.2 14654 15479.2 Q 13976 16571.2 12716 17129.2 Q 11456 17687.2 9236 17699.2 L 15584 25907.2 L 13400 25907.2 L 7064 17699.2 L 6056 17699.2 L 6056 25907.2 L 4292 25907.2 L 4292 8255.2 Z M 6056 9983.2 L 6056 15983.2 L 9092 16007.2 Q 10856 16007.2 11702 15671.2 Q 12548 15335.2 13022 14597.2 Q 13496 13859.2 13496 12947.2 Q 13496 12059.2 13016 11333.2 Q 12536 10607.2 11756 10295.2 Q 10976 9983.2 9164 9983.2 L 6056 9983.2 Z M 25049.6 25907.2 L 27557.6 8255.2 L 27845.6 8255.2 L 35021.6 22739.2 L 42125.6 8255.2 L 42413.6 8255.2 L 44945.6 25907.2 L 43205.6 25907.2 L 41477.6 13283.2 L 35237.6 25907.2 L 34793.6 25907.2 L 28469.6 13187.2 L 26753.6 25907.2 L 25049.6 25907.2 Z M 61164.8 12851.2 L 61164.8 25907.2 L 59508.8 25907.2 L 59508.8 23663.2 Q 58452.8 24947.2 57138.8 25595.2 Q 55824.8 26243.2 54264.8 26243.2 Q 51492.8 26243.2 49530.8 24233.2 Q 47568.8 22223.2 47568.8 19343.2 Q 47568.8 16523.2 49548.8 14519.2 Q 51528.8 12515.2 54312.8 12515.2 Q 55920.8 12515.2 57222.8 13199.2 Q 58524.8 13883.2 59508.8 15251.2 L 59508.8 12851.2 L 61164.8 12851.2 Z M 54444.8 14135.2 Q 53040.8 14135.2 51852.8 14825.2 Q 50664.8 15515.2 49962.8 16763.2 Q 49260.8 18011.2 49260.8 19403.2 Q 49260.8 20783.2 49968.8 22043.2 Q 50676.8 23303.2 51870.8 24005.2 Q 53064.8 24707.2 54432.8 24707.2 Q 55812.8 24707.2 57048.8 24011.2 Q 58284.8 23315.2 58950.8 22127.2 Q 59616.8 20939.2 59616.8 19451.2 Q 59616.8 17183.2 58122.8 15659.2 Q 56628.8 14135.2 54444.8 14135.2  Z M 64263.2 12851.2 L 65979.2 12851.2 L 65979.2 14759.2 Q 66747.2 13631.2 67599.2 13073.2 Q 68451.2 12515.2 69375.2 12515.2 Q 70071.2 12515.2 70863.2 12959.2 L 69987.2 14375.2 Q 69459.2 14147.2 69099.2 14147.2 Q 68259.2 14147.2 67479.2 14837.2 Q 66699.2 15527.2 66291.2 16979.2 Q 65979.2 18095.2 65979.2 21491.2 L 65979.2 25907.2 L 64263.2 25907.2 L 64263.2 12851.2 Z M 72260 7811.2 L 73952 7811.2 L 73952 18107.2 L 79988 12851.2 L 82460 12851.2 L 75296 19079.2 L 82880 25907.2 L 80504 25907.2 L 73952 20039.2 L 73952 25907.2 L 72260 25907.2 L 72260 7811.2 Z M 97592 7811.2 L 97592 25907.2 L 95936 25907.2 L 95936 23663.2 Q 94880 24947.2 93566 25595.2 Q 92252 26243.2 90692 26243.2 Q 87920 26243.2 85958 24233.2 Q 83996 22223.2 83996 19343.2 Q 83996 16523.2 85976 14519.2 Q 87956 12515.2 90740 12515.2 Q 92348 12515.2 93650 13199.2 Q 94952 13883.2 95936 15251.2 L 95936 7811.2 L 97592 7811.2 Z M 90872 14135.2 Q 89468 14135.2 88280 14825.2 Q 87092 15515.2 86390 16763.2 Q 85688 18011.2 85688 19403.2 Q 85688 20783.2 86396 22043.2 Q 87104 23303.2 88298 24005.2 Q 89492 24707.2 90860 24707.2 Q 92240 24707.2 93476 24011.2 Q 94712 23315.2 95378 22127.2 Q 96044 20939.2 96044 19451.2 Q 96044 17183.2 94550 15659.2 Q 93056 14135.2 90872 14135.2  Z M 107533.6 12515.2 Q 110545.6 12515.2 112525.6 14699.2 Q 114325.6 16691.2 114325.6 19415.2 Q 114325.6 22151.2 112423.6 24197.2 Q 110521.6 26243.2 107533.6 26243.2 Q 104533.6 26243.2 102631.6 24197.2 Q 100729.6 22151.2 100729.6 19415.2 Q 100729.6 16703.2 102529.6 14711.2 Q 104509.6 12515.2 107533.6 12515.2  Z M 107533.6 14159.2 Q 105445.6 14159.2 103945.6 15707.2 Q 102445.6 17255.2 102445.6 19451.2 Q 102445.6 20867.2 103129.6 22091.2 Q 103813.6 23315.2 104977.6 23981.2 Q 106141.6 24647.2 107533.6 24647.2 Q 108925.6 24647.2 110089.6 23981.2 Q 111253.6 23315.2 111937.6 22091.2 Q 112621.6 20867.2 112621.6 19451.2 Q 112621.6 17255.2 111115.6 15707.2 Q 109609.6 14159.2 107533.6 14159.2  Z M 115666.4 12851.2 L 117394.4 12851.2 L 121390.4 22331.2 L 125578.4 12851.2 L 125878.4 12851.2 L 130054.4 22331.2 L 134122.4 12851.2 L 135874.4 12851.2 L 130210.4 25907.2 L 129886.4 25907.2 L 125734.4 16559.2 L 121546.4 25907.2 L 121234.4 25907.2 L 115666.4 12851.2 Z M 137808 12851.2 L 139488 12851.2 L 139488 15191.2 Q 140496 13847.2 141720 13181.2 Q 142944 12515.2 144384 12515.2 Q 145848 12515.2 146982 13259.2 Q 148116 14003.2 148656 15263.2 Q 149196 16523.2 149196 19187.2 L 149196 25907.2 L 147528 25907.2 L 147528 19679.2 Q 147528 17423.2 147336 16667.2 Q 147036 15371.2 146208 14717.2 Q 145380 14063.2 144048 14063.2 Q 142524 14063.2 141318 15071.2 Q 140112 16079.2 139728 17567.2 Q 139488 18539.2 139488 21119.2 L 139488 25907.2 L 137808 25907.2 L 137808 12851.2 Z M 2372 51854.4 L 3872 50954.4 Q 5456 53870.4 7532 53870.4 Q 8420 53870.4 9200 53456.4 Q 9980 53042.4 10388 52346.4 Q 10796 51650.4 10796 50870.4 Q 10796 49982.4 10196 49130.4 Q 9368 47954.4 7172 46298.4 Q 4964 44630.4 4424 43886.4 Q 3488 42638.4 3488 41186.4 Q 3488 40034.4 4040 39086.4 Q 4592 38138.4 5594 37592.4 Q 6596 37046.4 7772 37046.4 Q 9020 37046.4 10106 37664.4 Q 11192 38282.4 12404 39938.4 L 10964 41030.4 Q 9968 39710.4 9266 39290.4 Q 8564 38870.4 7736 38870.4 Q 6668 38870.4 5990 39518.4 Q 5312 40166.4 5312 41114.4 Q 5312 41690.4 5552 42230.4 Q 5792 42770.4 6428 43406.4 Q 6776 43742.4 8708 45170.4 Q 11000 46862.4 11852 48182.4 Q 12704 49502.4 12704 50834.4 Q 12704 52754.4 11246 54170.4 Q 9788 55586.4 7700 55586.4 Q 6092 55586.4 4784 54728.4 Q 3476 53870.4 2372 51854.4  Z M 16156.8 37046.4 L 17836.8 37046.4 L 17836.8 44426.4 Q 18856.8 43082.4 20080.8 42416.4 Q 21304.8 41750.4 22732.8 41750.4 Q 24196.8 41750.4 25330.8 42494.4 Q 26464.8 43238.4 27004.8 44492.4 Q 27544.8 45746.4 27544.8 48422.4 L 27544.8 55142.4 L 25864.8 55142.4 L 25864.8 48914.4 Q 25864.8 46658.4 25684.8 45902.4 Q 25372.8 44606.4 24550.8 43952.4 Q 23728.8 43298.4 22396.8 43298.4 Q 20872.8 43298.4 19666.8 44306.4 Q 18460.8 45314.4 18076.8 46802.4 Q 17836.8 47762.4 17836.8 50354.4 L 17836.8 55142.4 L 16156.8 55142.4 L 16156.8 37046.4 Z M 31695.2 36710.4 Q 32271.2 36710.4 32679.2 37118.4 Q 33087.2 37526.4 33087.2 38102.4 Q 33087.2 38666.4 32679.2 39074.4 Q 32271.2 39482.4 31695.2 39482.4 Q 31131.2 39482.4 30723.2 39074.4 Q 30315.2 38666.4 30315.2 38102.4 Q 30315.2 37526.4 30723.2 37118.4 Q 31131.2 36710.4 31695.2 36710.4  Z M 30855.2 42086.4 L 32547.2 42086.4 L 32547.2 55142.4 L 30855.2 55142.4 L 30855.2 42086.4 Z M 36022.4 42086.4 L 37702.4 42086.4 L 37702.4 44426.4 Q 38710.4 43082.4 39934.4 42416.4 Q 41158.4 41750.4 42598.4 41750.4 Q 44062.4 41750.4 45196.4 42494.4 Q 46330.4 43238.4 46870.4 44498.4 Q 47410.4 45758.4 47410.4 48422.4 L 47410.4 55142.4 L 45742.4 55142.4 L 45742.4 48914.4 Q 45742.4 46658.4 45550.4 45902.4 Q 45250.4 44606.4 44422.4 43952.4 Q 43594.4 43298.4 42262.4 43298.4 Q 40738.4 43298.4 39532.4 44306.4 Q 38326.4 45314.4 37942.4 46802.4 Q 37702.4 47774.4 37702.4 50354.4 L 37702.4 55142.4 L 36022.4 55142.4 L 36022.4 42086.4 Z M 49568.8 42086.4 L 51344.8 42086.4 L 55832.8 52142.4 L 60188.8 42086.4 L 61976.8 42086.4 L 54188.8 59918.4 L 52412.8 59918.4 L 54932.8 54158.4 L 49568.8 42086.4 Z M 83897.6 42086.4 L 83897.6 55142.4 L 82241.6 55142.4 L 82241.6 52898.4 Q 81185.6 54182.4 79871.6 54830.4 Q 78557.6 55478.4 76997.6 55478.4 Q 74225.6 55478.4 72263.6 53468.4 Q 70301.6 51458.4 70301.6 48578.4 Q 70301.6 45758.4 72281.6 43754.4 Q 74261.6 41750.4 77045.6 41750.4 Q 78653.6 41750.4 79955.6 42434.4 Q 81257.6 43118.4 82241.6 44486.4 L 82241.6 42086.4 L 83897.6 42086.4 Z M 77177.6 43370.4 Q 75773.6 43370.4 74585.6 44060.4 Q 73397.6 44750.4 72695.6 45998.4 Q 71993.6 47246.4 71993.6 48638.4 Q 71993.6 50018.4 72701.6 51278.4 Q 73409.6 52538.4 74603.6 53240.4 Q 75797.6 53942.4 77165.6 53942.4 Q 78545.6 53942.4 79781.6 53246.4 Q 81017.6 52550.4 81683.6 51362.4 Q 82349.6 50174.4 82349.6 48686.4 Q 82349.6 46418.4 80855.6 44894.4 Q 79361.6 43370.4 77177.6 43370.4  Z M 87656 42086.4 L 89324 42086.4 L 89324 44486.4 Q 90320 43118.4 91616 42434.4 Q 92912 41750.4 94508 41750.4 Q 97292 41750.4 99272 43754.4 Q 101252 45758.4 101252 48578.4 Q 101252 51458.4 99290 53468.4 Q 97328 55478.4 94556 55478.4 Q 92996 55478.4 91688 54830.4 Q 90380 54182.4 89324 52898.4 L 89324 59918.4 L 87656 59918.4 L 87656 42086.4 Z M 94376 43370.4 Q 92192 43370.4 90698 44894.4 Q 89204 46418.4 89204 48686.4 Q 89204 50174.4 89870 51362.4 Q 90536 52550.4 91778 53246.4 Q 93020 53942.4 94400 53942.4 Q 95756 53942.4 96950 53240.4 Q 98144 52538.4 98852 51278.4 Q 99560 50018.4 99560 48638.4 Q 99560 47246.4 98858 45998.4 Q 98156 44750.4 96968 44060.4 Q 95780 43370.4 94376 43370.4  Z M 104398.4 42086.4 L 106066.4 42086.4 L 106066.4 44486.4 Q 107062.4 43118.4 108358.4 42434.4 Q 109654.4 41750.4 111250.4 41750.4 Q 114034.4 41750.4 116014.4 43754.4 Q 117994.4 45758.4 117994.4 48578.4 Q 117994.4 51458.4 116032.4 53468.4 Q 114070.4 55478.4 111298.4 55478.4 Q 109738.4 55478.4 108430.4 54830.4 Q 107122.4 54182.4 106066.4 52898.4 L 106066.4 59918.4 L 104398.4 59918.4 L 104398.4 42086.4 Z M 111118.4 43370.4 Q 108934.4 43370.4 107440.4 44894.4 Q 105946.4 46418.4 105946.4 48686.4 Q 105946.4 50174.4 106612.4 51362.4 Q 107278.4 52550.4 108520.4 53246.4 Q 109762.4 53942.4 111142.4 53942.4 Q 112498.4 53942.4 113692.4 53240.4 Q 114886.4 52538.4 115594.4 51278.4 Q 116302.4 50018.4 116302.4 48638.4 Q 116302.4 47246.4 115600.4 45998.4 Q 114898.4 44750.4 113710.4 44060.4 Q 112522.4 43370.4 111118.4 43370.4  Z M 127680.8 43514.4 L 126600.8 44630.4 Q 125256.8 43322.4 123972.8 43322.4 Q 123156.8 43322.4 122574.8 43862.4 Q 121992.8 44402.4 121992.8 45122.4 Q 121992.8 45758.4 122472.8 46334.4 Q 122952.8 46922.4 124488.8 47714.4 Q 126360.8 48686.4 127032.8 49586.4 Q 127692.8 50498.4 127692.8 51638.4 Q 127692.8 53246.4 126564.8 54362.4 Q 125436.8 55478.4 123744.8 55478.4 Q 122616.8 55478.4 121590.8 54986.4 Q 120564.8 54494.4 119892.8 53630.4 L 120948.8 52430.4 Q 122232.8 53882.4 123672.8 53882.4 Q 124680.8 53882.4 125388.8 53234.4 Q 126096.8 52586.4 126096.8 51710.4 Q 126096.8 50990.4 125628.8 50426.4 Q 125160.8 49874.4 123516.8 49034.4 Q 121752.8 48122.4 121116.8 47234.4 Q 120480.8 46346.4 120480.8 45206.4 Q 120480.8 43718.4 121494.8 42734.4 Q 122508.8 41750.4 124056.8 41750.4 Q 125856.8 41750.4 127680.8 43514.4  Z M 4292 66725.6 L 7808 66725.6 Q 10748 66725.6 11792 66965.6 Q 13364 67325.6 14348 68507.6 Q 15332 69689.6 15332 71417.6 Q 15332 72857.6 14654 73949.6 Q 13976 75041.6 12716 75599.6 Q 11456 76157.6 9236 76169.6 L 15584 84377.6 L 13400 84377.6 L 7064 76169.6 L 6056 76169.6 L 6056 84377.6 L 4292 84377.6 L 4292 66725.6 Z M 6056 68453.6 L 6056 74453.6 L 9092 74477.6 Q 10856 74477.6 11702 74141.6 Q 12548 73805.6 13022 73067.6 Q 13496 72329.6 13496 71417.6 Q 13496 70529.6 13016 69803.6 Q 12536 69077.6 11756 68765.6 Q 10976 68453.6 9164 68453.6 L 6056 68453.6 Z M 25601.6 71321.6 L 27269.6 71321.6 L 27269.6 73721.6 Q 28265.6 72353.6 29561.6 71669.6 Q 30857.6 70985.6 32453.6 70985.6 Q 35237.6 70985.6 37217.6 72989.6 Q 39197.6 74993.6 39197.6 77813.6 Q 39197.6 80693.6 37235.6 82703.6 Q 35273.6 84713.6 32501.6 84713.6 Q 30941.6 84713.6 29633.6 84065.6 Q 28325.6 83417.6 27269.6 82133.6 L 27269.6 89153.6 L 25601.6 89153.6 L 25601.6 71321.6 Z M 32321.6 72605.6 Q 30137.6 72605.6 28643.6 74129.6 Q 27149.6 75653.6 27149.6 77921.6 Q 27149.6 79409.6 27815.6 80597.6 Q 28481.6 81785.6 29723.6 82481.6 Q 30965.6 83177.6 32345.6 83177.6 Q 33701.6 83177.6 34895.6 82475.6 Q 36089.6 81773.6 36797.6 80513.6 Q 37505.6 79253.6 37505.6 77873.6 Q 37505.6 76481.6 36803.6 75233.6 Q 36101.6 73985.6 34913.6 73295.6 Q 33725.6 72605.6 32321.6 72605.6  Z M 55328 71321.6 L 55328 84377.6 L 53672 84377.6 L 53672 82133.6 Q 52616 83417.6 51302 84065.6 Q 49988 84713.6 48428 84713.6 Q 45656 84713.6 43694 82703.6 Q 41732 80693.6 41732 77813.6 Q 41732 74993.6 43712 72989.6 Q 45692 70985.6 48476 70985.6 Q 50084 70985.6 51386 71669.6 Q 52688 72353.6 53672 73721.6 L 53672 71321.6 L 55328 71321.6 Z M 48608 72605.6 Q 47204 72605.6 46016 73295.6 Q 44828 73985.6 44126 75233.6 Q 43424 76481.6 43424 77873.6 Q 43424 79253.6 44132 80513.6 Q 44840 81773.6 46034 82475.6 Q 47228 83177.6 48596 83177.6 Q 49976 83177.6 51212 82481.6 Q 52448 81785.6 53114 80597.6 Q 53780 79409.6 53780 77921.6 Q 53780 75653.6 52286 74129.6 Q 50792 72605.6 48608 72605.6  Z M 71734.4 74033.6 L 70402.4 74861.6 Q 68674.4 72569.6 65686.4 72569.6 Q 63298.4 72569.6 61720.4 74105.6 Q 60142.4 75641.6 60142.4 77837.6 Q 60142.4 79265.6 60868.4 80525.6 Q 61594.4 81785.6 62860.4 82481.6 Q 64126.4 83177.6 65698.4 83177.6 Q 68578.4 83177.6 70402.4 80885.6 L 71734.4 81761.6 Q 70798.4 83165.6 69220.4 83939.6 Q 67642.4 84713.6 65626.4 84713.6 Q 62530.4 84713.6 60490.4 82745.6 Q 58450.4 80777.6 58450.4 77957.6 Q 58450.4 76061.6 59404.4 74435.6 Q 60358.4 72809.6 62026.4 71897.6 Q 63694.4 70985.6 65758.4 70985.6 Q 67054.4 70985.6 68260.4 71381.6 Q 69466.4 71777.6 70306.4 72413.6 Q 71146.4 73049.6 71734.4 74033.6  Z M 74922.4 66281.6 L 76614.4 66281.6 L 76614.4 76577.6 L 82650.4 71321.6 L 85122.4 71321.6 L 77958.4 77549.6 L 85542.4 84377.6 L 83166.4 84377.6 L 76614.4 78509.6 L 76614.4 84377.6 L 74922.4 84377.6 L 74922.4 66281.6 Z M 100230.4 71321.6 L 100230.4 84377.6 L 98574.4 84377.6 L 98574.4 82133.6 Q 97518.4 83417.6 96204.4 84065.6 Q 94890.4 84713.6 93330.4 84713.6 Q 90558.4 84713.6 88596.4 82703.6 Q 86634.4 80693.6 86634.4 77813.6 Q 86634.4 74993.6 88614.4 72989.6 Q 90594.4 70985.6 93378.4 70985.6 Q 94986.4 70985.6 96288.4 71669.6 Q 97590.4 72353.6 98574.4 73721.6 L 98574.4 71321.6 L 100230.4 71321.6 Z M 93510.4 72605.6 Q 92106.4 72605.6 90918.4 73295.6 Q 89730.4 73985.6 89028.4 75233.6 Q 88326.4 76481.6 88326.4 77873.6 Q 88326.4 79253.6 89034.4 80513.6 Q 89742.4 81773.6 90936.4 82475.6 Q 92130.4 83177.6 93498.4 83177.6 Q 94878.4 83177.6 96114.4 82481.6 Q 97350.4 81785.6 98016.4 80597.6 Q 98682.4 79409.6 98682.4 77921.6 Q 98682.4 75653.6 97188.4 74129.6 Q 95694.4 72605.6 93510.4 72605.6  Z M 115208.8 71321.6 L 116900.8 71321.6 L 116900.8 81725.6 Q 116900.8 84473.6 116420.8 85745.6 Q 115760.8 87545.6 114128.8 88517.6 Q 112496.8 89489.6 110204.8 89489.6 Q 108524.8 89489.6 107186.8 89015.6 Q 105848.8 88541.6 105008.8 87743.6 Q 104168.8 86945.6 103460.8 85409.6 L 105284.8 85409.6 Q 106028.8 86705.6 107204.8 87329.6 Q 108380.8 87953.6 110120.8 87953.6 Q 111836.8 87953.6 113018.8 87311.6 Q 114200.8 86669.6 114704.8 85697.6 Q 115208.8 84725.6 115208.8 82565.6 L 115208.8 81893.6 Q 114260.8 83093.6 112892.8 83735.6 Q 111524.8 84377.6 109988.8 84377.6 Q 108188.8 84377.6 106604.8 83483.6 Q 105020.8 82589.6 104156.8 81077.6 Q 103292.8 79565.6 103292.8 77753.6 Q 103292.8 75941.6 104192.8 74375.6 Q 105092.8 72809.6 106682.8 71897.6 Q 108272.8 70985.6 110036.8 70985.6 Q 111500.8 70985.6 112766.8 71591.6 Q 114032.8 72197.6 115208.8 73589.6 L 115208.8 71321.6 Z M 110252.8 72605.6 Q 108824.8 72605.6 107600.8 73295.6 Q 106376.8 73985.6 105680.8 75203.6 Q 104984.8 76421.6 104984.8 77837.6 Q 104984.8 79985.6 106424.8 81389.6 Q 107864.8 82793.6 110156.8 82793.6 Q 112472.8 82793.6 113882.8 81401.6 Q 115292.8 80009.6 115292.8 77741.6 Q 115292.8 76265.6 114644.8 75107.6 Q 113996.8 73949.6 112808.8 73277.6 Q 111620.8 72605.6 110252.8 72605.6  Z M 131443.2 80045.6 L 132859.2 80789.6 Q 132163.2 82157.6 131251.2 82997.6 Q 130339.2 83837.6 129199.2 84275.6 Q 128059.2 84713.6 126619.2 84713.6 Q 123427.2 84713.6 121627.2 82619.6 Q 119827.2 80525.6 119827.2 77885.6 Q 119827.2 75401.6 121351.2 73457.6 Q 123283.2 70985.6 126523.2 70985.6 Q 129859.2 70985.6 131851.2 73517.6 Q 133267.2 75305.6 133291.2 77981.6 L 121555.2 77981.6 Q 121603.2 80261.6 123007.2 81719.6 Q 124411.2 83177.6 126475.2 83177.6 Q 127471.2 83177.6 128413.2 82829.6 Q 129355.2 82481.6 130015.2 81905.6 Q 130675.2 81329.6 131443.2 80045.6  Z M 131443.2 76529.6 Q 131107.2 75185.6 130465.2 74381.6 Q 129823.2 73577.6 128767.2 73085.6 Q 127711.2 72593.6 126547.2 72593.6 Q 124627.2 72593.6 123247.2 73829.6 Q 122239.2 74729.6 121723.2 76529.6 L 131443.2 76529.6 Z M 142938.4 72749.6 L 141858.4 73865.6 Q 140514.4 72557.6 139230.4 72557.6 Q 138414.4 72557.6 137832.4 73097.6 Q 137250.4 73637.6 137250.4 74357.6 Q 137250.4 74993.6 137730.4 75569.6 Q 138210.4 76157.6 139746.4 76949.6 Q 141618.4 77921.6 142290.4 78821.6 Q 142950.4 79733.6 142950.4 80873.6 Q 142950.4 82481.6 141822.4 83597.6 Q 140694.4 84713.6 139002.4 84713.6 Q 137874.4 84713.6 136848.4 84221.6 Q 135822.4 83729.6 135150.4 82865.6 L 136206.4 81665.6 Q 137490.4 83117.6 138930.4 83117.6 Q 139938.4 83117.6 140646.4 82469.6 Q 141354.4 81821.6 141354.4 80945.6 Q 141354.4 80225.6 140886.4 79661.6 Q 140418.4 79109.6 138774.4 78269.6 Q 137010.4 77357.6 136374.4 76469.6 Q 135738.4 75581.6 135738.4 74441.6 Q 135738.4 72953.6 136752.4 71969.6 Q 137766.4 70985.6 139314.4 70985.6 Q 141114.4 70985.6 142938.4 72749.6  Z " fill-rule="nonzero" style="fill:#000000;;fill-opacity:1;"/>
</svg>