<svg version="1.1" x="0" y="0" width="100%" height="100%" viewBox="0 0 142899.2 63180.8" xmlns="http://www.w3.org/2000/svg">
  <path d="M 20867 48032 L 21810.5 48032 Q 28746.5 48006.5 31755.5 47624 Q 32750 47445.5 33285.5 47445.5 Q 34101.5 47445.5 34101.5 48312.5 Q 34101.5 49281.5 33209 49536.5 Q 32801 49664 31679 49664 L 2736.5 49664 Q 7275.5 44207 10361 40127 Q 13446.5 36047 16812.5 31049 Q 20510 25541 21989 22838 Q 23468 20135 23468 18809 Q 23468 17253.5 22295 16488.5 Q 21122 15723.5 18750.5 15723.5 Q 16379 15723.5 13892.75 16514 Q 11406.5 17304.5 9698 18605 Q 8040.5 19854.5 7058.75 21626.75 Q 6077 23399 6077 25133 Q 6077 26306 6395.75 27134.75 Q 6714.5 27963.5 7811 29544.5 Q 8040.5 29901.5 8040.5 30258.5 Q 8040.5 30641 7734.5 30934.25 Q 7428.5 31227.5 7071.5 31227.5 Q 6051.5 31227.5 5159 29378.75 Q 4266.5 27530 4266.5 25464.5 Q 4266.5 22608.5 6000.5 20033 Q 7964 17100.5 11546.75 15532.25 Q 15129.5 13964 19847 13964 Q 24972.5 13964 28644.5 15749 Q 31347.5 17049.5 32852 19574 Q 34076 21639.5 34076 24215 Q 34076 26229.5 33349.25 28282.25 Q 32622.5 30335 30914 33242 Q 27905 38316.5 23901.5 43824.5 L 20867 48032 Z M 53154.3 13964 Q 59707.8 13964 64093.8 19293.5 Q 68352.3 24470 68352.3 32528 Q 68352.3 40866.5 63328.8 46145 Q 59095.8 50633 53154.3 50633 Q 49074.3 50633 45478.8 48567.5 Q 41194.8 46068.5 38950.8 41351 Q 37165.8 37602.5 37165.8 32298.5 Q 37165.8 23756 42061.8 18707 Q 44229.3 16463 47123.55 15226.25 Q 50017.8 13989.5 53154.3 13964  Z M 52644.3 15672.5 L 52516.8 32247.5 L 52618.8 45915.5 L 52644.3 48924.5 Q 57412.8 48975.5 60880.8 46119.5 Q 63685.8 43773.5 65177.55 40241.75 Q 66669.3 36710 66669.3 32324 Q 66669.3 24572 62665.8 20007.5 Q 60880.8 17967.5 58509.3 16794.5 Q 56137.8 15621.5 53817.3 15621.5 Q 53434.8 15621.5 52644.3 15672.5  Z M 95029.6 14295.5 L 94825.6 28856 L 95029.6 48822.5 L 95029.6 49664 L 80316.1 49664 L 80316.1 48822.5 L 80520.1 28550 L 80571.1 21053 L 80571.1 19982 L 80061.1 20135 L 76363.6 21282.5 Q 75802.6 21486.5 75394.6 21486.5 Q 74629.6 21486.5 74629.6 20619.5 Q 74629.6 19982 75024.85 19752.5 Q 75420.1 19523 77332.6 19038.5 L 83733.1 17381 L 86130.1 16743.5 L 95029.6 14295.5 Z M 128999.9 28116.5 Q 131269.4 29621 132416.9 30768.5 Q 135349.4 33675.5 135349.4 37934 Q 135349.4 41759 132799.4 44946.5 Q 130402.4 47955.5 125761.4 49511 Q 122369.9 50658.5 118825.4 50658.5 Q 112246.4 50658.5 108013.4 47292.5 Q 106636.4 46196 105807.65 44564 Q 104978.9 42932 104978.9 41300 Q 104978.9 39107 106177.4 37487.75 Q 107375.9 35868.5 110002.4 34466 Q 105871.4 30437 105871.4 25694 Q 105871.4 20517.5 110078.9 17330 Q 114515.9 13964 121120.4 13964 Q 126832.4 13964 130223.9 16437.5 Q 132926.9 18426.5 132926.9 21894.5 Q 132926.9 23858 132008.9 25298.75 Q 131090.9 26739.5 128999.9 28116.5  Z M 127138.4 27275 Q 129203.9 26102 130070.9 24890.75 Q 130937.9 23679.5 130937.9 21971 Q 130937.9 19013 128464.4 17457.5 Q 125531.9 15647 120890.9 15647 Q 117575.9 15647 115574.15 16450.25 Q 113572.4 17253.5 113572.4 18579.5 Q 113572.4 20262.5 117932.9 22812.5 Q 120074.9 24036.5 124588.4 26076.5 L 127138.4 27275 Z M 111226.4 35715.5 Q 109543.4 36582.5 108778.4 37271 Q 106865.9 38928.5 106865.9 41274.5 Q 106865.9 42753.5 107643.65 44143.25 Q 108421.4 45533 109747.4 46425.5 Q 113495.9 49001 118748.9 49001 Q 122012.9 49001 124269.65 48134 Q 126526.4 47267 126526.4 46017.5 Q 126526.4 44666 124231.4 43238 Q 122803.4 42345.5 117193.4 39464 Q 114847.4 38291 111226.4 35715.5  Z " fill-rule="nonzero" style="fill:#446cb3;;fill-opacity:1;"/>
</svg>