<svg version="1.1" x="0" y="0" width="100%" height="100%" viewBox="0 0 154777.6 33331.2" xmlns="http://www.w3.org/2000/svg">
  <path d="M 4196 25907.2 L 4196 8255.2 L 7856 8255.2 Q 11816 8255.2 13604 8891.2 Q 16172 9791.2 17618 12011.2 Q 19064 14231.2 19064 17303.2 Q 19064 19955.2 17918 21971.2 Q 16772 23987.2 14942 24947.2 Q 13112 25907.2 9812 25907.2 L 4196 25907.2 Z M 5888 24239.2 L 7928 24239.2 Q 11588 24239.2 13004 23783.2 Q 14996 23135.2 16136 21449.2 Q 17276 19763.2 17276 17327.2 Q 17276 14771.2 16040 12959.2 Q 14804 11147.2 12596 10475.2 Q 10940 9971.2 7136 9971.2 L 5888 9971.2 L 5888 24239.2 Z M 28378.4 12515.2 Q 31390.4 12515.2 33370.4 14699.2 Q 35170.4 16691.2 35170.4 19415.2 Q 35170.4 22151.2 33268.4 24197.2 Q 31366.4 26243.2 28378.4 26243.2 Q 25378.4 26243.2 23476.4 24197.2 Q 21574.4 22151.2 21574.4 19415.2 Q 21574.4 16703.2 23374.4 14711.2 Q 25354.4 12515.2 28378.4 12515.2  Z M 28378.4 14159.2 Q 26290.4 14159.2 24790.4 15707.2 Q 23290.4 17255.2 23290.4 19451.2 Q 23290.4 20867.2 23974.4 22091.2 Q 24658.4 23315.2 25822.4 23981.2 Q 26986.4 24647.2 28378.4 24647.2 Q 29770.4 24647.2 30934.4 23981.2 Q 32098.4 23315.2 32782.4 22091.2 Q 33466.4 20867.2 33466.4 19451.2 Q 33466.4 17255.2 31960.4 15707.2 Q 30454.4 14159.2 28378.4 14159.2  Z M 50947.2 15563.2 L 49615.2 16391.2 Q 47887.2 14099.2 44899.2 14099.2 Q 42511.2 14099.2 40933.2 15635.2 Q 39355.2 17171.2 39355.2 19367.2 Q 39355.2 20795.2 40081.2 22055.2 Q 40807.2 23315.2 42073.2 24011.2 Q 43339.2 24707.2 44911.2 24707.2 Q 47791.2 24707.2 49615.2 22415.2 L 50947.2 23291.2 Q 50011.2 24695.2 48433.2 25469.2 Q 46855.2 26243.2 44839.2 26243.2 Q 41743.2 26243.2 39703.2 24275.2 Q 37663.2 22307.2 37663.2 19487.2 Q 37663.2 17591.2 38617.2 15965.2 Q 39571.2 14339.2 41239.2 13427.2 Q 42907.2 12515.2 44971.2 12515.2 Q 46267.2 12515.2 47473.2 12911.2 Q 48679.2 13307.2 49519.2 13943.2 Q 50359.2 14579.2 50947.2 15563.2  Z M 53931.2 12851.2 L 55623.2 12851.2 L 55623.2 18947.2 Q 55623.2 21179.2 55863.2 22019.2 Q 56223.2 23219.2 57237.2 23915.2 Q 58251.2 24611.2 59655.2 24611.2 Q 61059.2 24611.2 62037.2 23933.2 Q 63015.2 23255.2 63387.2 22151.2 Q 63639.2 21395.2 63639.2 18947.2 L 63639.2 12851.2 L 65355.2 12851.2 L 65355.2 19259.2 Q 65355.2 21959.2 64725.2 23327.2 Q 64095.2 24695.2 62829.2 25469.2 Q 61563.2 26243.2 59655.2 26243.2 Q 57747.2 26243.2 56469.2 25469.2 Q 55191.2 24695.2 54561.2 23309.2 Q 53931.2 21923.2 53931.2 19139.2 L 53931.2 12851.2 Z M 69034.4 12851.2 L 70702.4 12851.2 L 70702.4 15107.2 Q 71578.4 13859.2 72502.4 13283.2 Q 73774.4 12515.2 75178.4 12515.2 Q 76126.4 12515.2 76978.4 12887.2 Q 77830.4 13259.2 78370.4 13877.2 Q 78910.4 14495.2 79306.4 15647.2 Q 80146.4 14111.2 81406.4 13313.2 Q 82666.4 12515.2 84118.4 12515.2 Q 85474.4 12515.2 86512.4 13199.2 Q 87550.4 13883.2 88054.4 15107.2 Q 88558.4 16331.2 88558.4 18779.2 L 88558.4 25907.2 L 86842.4 25907.2 L 86842.4 18779.2 Q 86842.4 16679.2 86542.4 15893.2 Q 86242.4 15107.2 85516.4 14627.2 Q 84790.4 14147.2 83782.4 14147.2 Q 82558.4 14147.2 81544.4 14867.2 Q 80530.4 15587.2 80062.4 16787.2 Q 79594.4 17987.2 79594.4 20795.2 L 79594.4 25907.2 L 77926.4 25907.2 L 77926.4 19223.2 Q 77926.4 16859.2 77632.4 16013.2 Q 77338.4 15167.2 76606.4 14657.2 Q 75874.4 14147.2 74866.4 14147.2 Q 73702.4 14147.2 72688.4 14849.2 Q 71674.4 15551.2 71188.4 16739.2 Q 70702.4 17927.2 70702.4 20375.2 L 70702.4 25907.2 L 69034.4 25907.2 L 69034.4 12851.2 Z M 103078.4 21575.2 L 104494.4 22319.2 Q 103798.4 23687.2 102886.4 24527.2 Q 101974.4 25367.2 100834.4 25805.2 Q 99694.4 26243.2 98254.4 26243.2 Q 95062.4 26243.2 93262.4 24149.2 Q 91462.4 22055.2 91462.4 19415.2 Q 91462.4 16931.2 92986.4 14987.2 Q 94918.4 12515.2 98158.4 12515.2 Q 101494.4 12515.2 103486.4 15047.2 Q 104902.4 16835.2 104926.4 19511.2 L 93190.4 19511.2 Q 93238.4 21791.2 94642.4 23249.2 Q 96046.4 24707.2 98110.4 24707.2 Q 99106.4 24707.2 100048.4 24359.2 Q 100990.4 24011.2 101650.4 23435.2 Q 102310.4 22859.2 103078.4 21575.2  Z M 103078.4 18059.2 Q 102742.4 16715.2 102100.4 15911.2 Q 101458.4 15107.2 100402.4 14615.2 Q 99346.4 14123.2 98182.4 14123.2 Q 96262.4 14123.2 94882.4 15359.2 Q 93874.4 16259.2 93358.4 18059.2 L 103078.4 18059.2 Z M 108009.6 12851.2 L 109689.6 12851.2 L 109689.6 15191.2 Q 110697.6 13847.2 111921.6 13181.2 Q 113145.6 12515.2 114585.6 12515.2 Q 116049.6 12515.2 117183.6 13259.2 Q 118317.6 14003.2 118857.6 15263.2 Q 119397.6 16523.2 119397.6 19187.2 L 119397.6 25907.2 L 117729.6 25907.2 L 117729.6 19679.2 Q 117729.6 17423.2 117537.6 16667.2 Q 117237.6 15371.2 116409.6 14717.2 Q 115581.6 14063.2 114249.6 14063.2 Q 112725.6 14063.2 111519.6 15071.2 Q 110313.6 16079.2 109929.6 17567.2 Q 109689.6 18539.2 109689.6 21119.2 L 109689.6 25907.2 L 108009.6 25907.2 L 108009.6 12851.2 Z M 124424 8003.2 L 126116 8003.2 L 126116 12851.2 L 128780 12851.2 L 128780 14291.2 L 126116 14291.2 L 126116 25907.2 L 124424 25907.2 L 124424 14291.2 L 122132 14291.2 L 122132 12851.2 L 124424 12851.2 L 124424 8003.2 Z M 137818.4 14279.2 L 136738.4 15395.2 Q 135394.4 14087.2 134110.4 14087.2 Q 133294.4 14087.2 132712.4 14627.2 Q 132130.4 15167.2 132130.4 15887.2 Q 132130.4 16523.2 132610.4 17099.2 Q 133090.4 17687.2 134626.4 18479.2 Q 136498.4 19451.2 137170.4 20351.2 Q 137830.4 21263.2 137830.4 22403.2 Q 137830.4 24011.2 136702.4 25127.2 Q 135574.4 26243.2 133882.4 26243.2 Q 132754.4 26243.2 131728.4 25751.2 Q 130702.4 25259.2 130030.4 24395.2 L 131086.4 23195.2 Q 132370.4 24647.2 133810.4 24647.2 Q 134818.4 24647.2 135526.4 23999.2 Q 136234.4 23351.2 136234.4 22475.2 Q 136234.4 21755.2 135766.4 21191.2 Q 135298.4 20639.2 133654.4 19799.2 Q 131890.4 18887.2 131254.4 17999.2 Q 130618.4 17111.2 130618.4 15971.2 Q 130618.4 14483.2 131632.4 13499.2 Q 132646.4 12515.2 134194.4 12515.2 Q 135994.4 12515.2 137818.4 14279.2  Z " fill-rule="nonzero" style="fill:#000000;;fill-opacity:1;"/>
</svg>