<svg version="1.1" x="0" y="0" width="100%" height="100%" viewBox="0 0 314316.8 91801.6" xmlns="http://www.w3.org/2000/svg">
  <path d="M 3296 21743.2 L 13364 17099.2 L 3296 12419.2 L 3296 10655.2 L 15692 16307.2 L 15692 17867.2 L 3296 23495.2 L 3296 21743.2 Z M 26498.4 13787.2 L 24806.4 13787.2 Q 24878.4 11171.2 26552.4 9491.2 Q 28226.4 7811.2 30686.4 7811.2 Q 33122.4 7811.2 34628.4 9383.2 Q 36134.4 10955.2 36134.4 13091.2 Q 36134.4 14591.2 35414.4 15905.2 Q 34694.4 17219.2 32618.4 19463.2 L 28226.4 24203.2 L 36374.4 24203.2 L 36374.4 25907.2 L 24386.4 25907.2 L 31130.4 18623.2 Q 33182.4 16427.2 33800.4 15365.2 Q 34418.4 14303.2 34418.4 13127.2 Q 34418.4 11639.2 33308.4 10565.2 Q 32198.4 9491.2 30590.4 9491.2 Q 28898.4 9491.2 27776.4 10619.2 Q 26654.4 11747.2 26498.4 13787.2  Z M 38053.6 17087.2 Q 38053.6 13595.2 38803.6 11687.2 Q 39553.6 9779.2 40921.6 8795.2 Q 42289.6 7811.2 43981.6 7811.2 Q 45697.6 7811.2 47089.6 8801.2 Q 48481.6 9791.2 49291.6 11771.2 Q 50101.6 13751.2 50101.6 17087.2 Q 50101.6 20411.2 49303.6 22379.2 Q 48505.6 24347.2 47101.6 25349.2 Q 45697.6 26351.2 43981.6 26351.2 Q 42289.6 26351.2 40933.6 25379.2 Q 39577.6 24407.2 38815.6 22481.2 Q 38053.6 20555.2 38053.6 17087.2  Z M 39721.6 17123.2 Q 39721.6 20111.2 40255.6 21641.2 Q 40789.6 23171.2 41833.6 23963.2 Q 42877.6 24755.2 44041.6 24755.2 Q 45217.6 24755.2 46237.6 23981.2 Q 47257.6 23207.2 47785.6 21659.2 Q 48445.6 19775.2 48445.6 17123.2 Q 48445.6 14459.2 47857.6 12761.2 Q 47269.6 11063.2 46231.6 10277.2 Q 45193.6 9491.2 44041.6 9491.2 Q 42865.6 9491.2 41833.6 10277.2 Q 40801.6 11063.2 40261.6 12593.2 Q 39721.6 14123.2 39721.6 17123.2  Z M 51672.8 17087.2 Q 51672.8 13595.2 52422.8 11687.2 Q 53172.8 9779.2 54540.8 8795.2 Q 55908.8 7811.2 57600.8 7811.2 Q 59316.8 7811.2 60708.8 8801.2 Q 62100.8 9791.2 62910.8 11771.2 Q 63720.8 13751.2 63720.8 17087.2 Q 63720.8 20411.2 62922.8 22379.2 Q 62124.8 24347.2 60720.8 25349.2 Q 59316.8 26351.2 57600.8 26351.2 Q 55908.8 26351.2 54552.8 25379.2 Q 53196.8 24407.2 52434.8 22481.2 Q 51672.8 20555.2 51672.8 17087.2  Z M 53340.8 17123.2 Q 53340.8 20111.2 53874.8 21641.2 Q 54408.8 23171.2 55452.8 23963.2 Q 56496.8 24755.2 57660.8 24755.2 Q 58836.8 24755.2 59856.8 23981.2 Q 60876.8 23207.2 61404.8 21659.2 Q 62064.8 19775.2 62064.8 17123.2 Q 62064.8 14459.2 61476.8 12761.2 Q 60888.8 11063.2 59850.8 10277.2 Q 58812.8 9491.2 57660.8 9491.2 Q 56484.8 9491.2 55452.8 10277.2 Q 54420.8 11063.2 53880.8 12593.2 Q 53340.8 14123.2 53340.8 17123.2  Z M 68052 22667.2 L 69672 23435.2 L 67236 27971.2 L 66048 27467.2 L 68052 22667.2 Z M 72050.4 17087.2 Q 72050.4 13595.2 72800.4 11687.2 Q 73550.4 9779.2 74918.4 8795.2 Q 76286.4 7811.2 77978.4 7811.2 Q 79694.4 7811.2 81086.4 8801.2 Q 82478.4 9791.2 83288.4 11771.2 Q 84098.4 13751.2 84098.4 17087.2 Q 84098.4 20411.2 83300.4 22379.2 Q 82502.4 24347.2 81098.4 25349.2 Q 79694.4 26351.2 77978.4 26351.2 Q 76286.4 26351.2 74930.4 25379.2 Q 73574.4 24407.2 72812.4 22481.2 Q 72050.4 20555.2 72050.4 17087.2  Z M 73718.4 17123.2 Q 73718.4 20111.2 74252.4 21641.2 Q 74786.4 23171.2 75830.4 23963.2 Q 76874.4 24755.2 78038.4 24755.2 Q 79214.4 24755.2 80234.4 23981.2 Q 81254.4 23207.2 81782.4 21659.2 Q 82442.4 19775.2 82442.4 17123.2 Q 82442.4 14459.2 81854.4 12761.2 Q 81266.4 11063.2 80228.4 10277.2 Q 79190.4 9491.2 78038.4 9491.2 Q 76862.4 9491.2 75830.4 10277.2 Q 74798.4 11063.2 74258.4 12593.2 Q 73718.4 14123.2 73718.4 17123.2  Z M 85669.6 17087.2 Q 85669.6 13595.2 86419.6 11687.2 Q 87169.6 9779.2 88537.6 8795.2 Q 89905.6 7811.2 91597.6 7811.2 Q 93313.6 7811.2 94705.6 8801.2 Q 96097.6 9791.2 96907.6 11771.2 Q 97717.6 13751.2 97717.6 17087.2 Q 97717.6 20411.2 96919.6 22379.2 Q 96121.6 24347.2 94717.6 25349.2 Q 93313.6 26351.2 91597.6 26351.2 Q 89905.6 26351.2 88549.6 25379.2 Q 87193.6 24407.2 86431.6 22481.2 Q 85669.6 20555.2 85669.6 17087.2  Z M 87337.6 17123.2 Q 87337.6 20111.2 87871.6 21641.2 Q 88405.6 23171.2 89449.6 23963.2 Q 90493.6 24755.2 91657.6 24755.2 Q 92833.6 24755.2 93853.6 23981.2 Q 94873.6 23207.2 95401.6 21659.2 Q 96061.6 19775.2 96061.6 17123.2 Q 96061.6 14459.2 95473.6 12761.2 Q 94885.6 11063.2 93847.6 10277.2 Q 92809.6 9491.2 91657.6 9491.2 Q 90481.6 9491.2 89449.6 10277.2 Q 88417.6 11063.2 87877.6 12593.2 Q 87337.6 14123.2 87337.6 17123.2  Z M 99288.8 17087.2 Q 99288.8 13595.2 100038.8 11687.2 Q 100788.8 9779.2 102156.8 8795.2 Q 103524.8 7811.2 105216.8 7811.2 Q 106932.8 7811.2 108324.8 8801.2 Q 109716.8 9791.2 110526.8 11771.2 Q 111336.8 13751.2 111336.8 17087.2 Q 111336.8 20411.2 110538.8 22379.2 Q 109740.8 24347.2 108336.8 25349.2 Q 106932.8 26351.2 105216.8 26351.2 Q 103524.8 26351.2 102168.8 25379.2 Q 100812.8 24407.2 100050.8 22481.2 Q 99288.8 20555.2 99288.8 17087.2  Z M 100956.8 17123.2 Q 100956.8 20111.2 101490.8 21641.2 Q 102024.8 23171.2 103068.8 23963.2 Q 104112.8 24755.2 105276.8 24755.2 Q 106452.8 24755.2 107472.8 23981.2 Q 108492.8 23207.2 109020.8 21659.2 Q 109680.8 19775.2 109680.8 17123.2 Q 109680.8 14459.2 109092.8 12761.2 Q 108504.8 11063.2 107466.8 10277.2 Q 106428.8 9491.2 105276.8 9491.2 Q 104100.8 9491.2 103068.8 10277.2 Q 102036.8 11063.2 101496.8 12593.2 Q 100956.8 14123.2 100956.8 17123.2  Z M 120782.4 12851.2 L 122450.4 12851.2 L 122450.4 15251.2 Q 123446.4 13883.2 124742.4 13199.2 Q 126038.4 12515.2 127634.4 12515.2 Q 130418.4 12515.2 132398.4 14519.2 Q 134378.4 16523.2 134378.4 19343.2 Q 134378.4 22223.2 132416.4 24233.2 Q 130454.4 26243.2 127682.4 26243.2 Q 126122.4 26243.2 124814.4 25595.2 Q 123506.4 24947.2 122450.4 23663.2 L 122450.4 30683.2 L 120782.4 30683.2 L 120782.4 12851.2 Z M 127502.4 14135.2 Q 125318.4 14135.2 123824.4 15659.2 Q 122330.4 17183.2 122330.4 19451.2 Q 122330.4 20939.2 122996.4 22127.2 Q 123662.4 23315.2 124904.4 24011.2 Q 126146.4 24707.2 127526.4 24707.2 Q 128882.4 24707.2 130076.4 24005.2 Q 131270.4 23303.2 131978.4 22043.2 Q 132686.4 20783.2 132686.4 19403.2 Q 132686.4 18011.2 131984.4 16763.2 Q 131282.4 15515.2 130094.4 14825.2 Q 128906.4 14135.2 127502.4 14135.2  Z M 150508.8 12851.2 L 150508.8 25907.2 L 148852.8 25907.2 L 148852.8 23663.2 Q 147796.8 24947.2 146482.8 25595.2 Q 145168.8 26243.2 143608.8 26243.2 Q 140836.8 26243.2 138874.8 24233.2 Q 136912.8 22223.2 136912.8 19343.2 Q 136912.8 16523.2 138892.8 14519.2 Q 140872.8 12515.2 143656.8 12515.2 Q 145264.8 12515.2 146566.8 13199.2 Q 147868.8 13883.2 148852.8 15251.2 L 148852.8 12851.2 L 150508.8 12851.2 Z M 143788.8 14135.2 Q 142384.8 14135.2 141196.8 14825.2 Q 140008.8 15515.2 139306.8 16763.2 Q 138604.8 18011.2 138604.8 19403.2 Q 138604.8 20783.2 139312.8 22043.2 Q 140020.8 23303.2 141214.8 24005.2 Q 142408.8 24707.2 143776.8 24707.2 Q 145156.8 24707.2 146392.8 24011.2 Q 147628.8 23315.2 148294.8 22127.2 Q 148960.8 20939.2 148960.8 19451.2 Q 148960.8 17183.2 147466.8 15659.2 Q 145972.8 14135.2 143788.8 14135.2  Z M 165487.2 12851.2 L 167179.2 12851.2 L 167179.2 23255.2 Q 167179.2 26003.2 166699.2 27275.2 Q 166039.2 29075.2 164407.2 30047.2 Q 162775.2 31019.2 160483.2 31019.2 Q 158803.2 31019.2 157465.2 30545.2 Q 156127.2 30071.2 155287.2 29273.2 Q 154447.2 28475.2 153739.2 26939.2 L 155563.2 26939.2 Q 156307.2 28235.2 157483.2 28859.2 Q 158659.2 29483.2 160399.2 29483.2 Q 162115.2 29483.2 163297.2 28841.2 Q 164479.2 28199.2 164983.2 27227.2 Q 165487.2 26255.2 165487.2 24095.2 L 165487.2 23423.2 Q 164539.2 24623.2 163171.2 25265.2 Q 161803.2 25907.2 160267.2 25907.2 Q 158467.2 25907.2 156883.2 25013.2 Q 155299.2 24119.2 154435.2 22607.2 Q 153571.2 21095.2 153571.2 19283.2 Q 153571.2 17471.2 154471.2 15905.2 Q 155371.2 14339.2 156961.2 13427.2 Q 158551.2 12515.2 160315.2 12515.2 Q 161779.2 12515.2 163045.2 13121.2 Q 164311.2 13727.2 165487.2 15119.2 L 165487.2 12851.2 Z M 160531.2 14135.2 Q 159103.2 14135.2 157879.2 14825.2 Q 156655.2 15515.2 155959.2 16733.2 Q 155263.2 17951.2 155263.2 19367.2 Q 155263.2 21515.2 156703.2 22919.2 Q 158143.2 24323.2 160435.2 24323.2 Q 162751.2 24323.2 164161.2 22931.2 Q 165571.2 21539.2 165571.2 19271.2 Q 165571.2 17795.2 164923.2 16637.2 Q 164275.2 15479.2 163087.2 14807.2 Q 161899.2 14135.2 160531.2 14135.2  Z M 181721.6 21575.2 L 183137.6 22319.2 Q 182441.6 23687.2 181529.6 24527.2 Q 180617.6 25367.2 179477.6 25805.2 Q 178337.6 26243.2 176897.6 26243.2 Q 173705.6 26243.2 171905.6 24149.2 Q 170105.6 22055.2 170105.6 19415.2 Q 170105.6 16931.2 171629.6 14987.2 Q 173561.6 12515.2 176801.6 12515.2 Q 180137.6 12515.2 182129.6 15047.2 Q 183545.6 16835.2 183569.6 19511.2 L 171833.6 19511.2 Q 171881.6 21791.2 173285.6 23249.2 Q 174689.6 24707.2 176753.6 24707.2 Q 177749.6 24707.2 178691.6 24359.2 Q 179633.6 24011.2 180293.6 23435.2 Q 180953.6 22859.2 181721.6 21575.2  Z M 181721.6 18059.2 Q 181385.6 16715.2 180743.6 15911.2 Q 180101.6 15107.2 179045.6 14615.2 Q 177989.6 14123.2 176825.6 14123.2 Q 174905.6 14123.2 173525.6 15359.2 Q 172517.6 16259.2 172001.6 18059.2 L 181721.6 18059.2 Z M 185416.8 12851.2 L 187204.8 12851.2 L 191572.8 22355.2 L 195904.8 12851.2 L 197704.8 12851.2 L 191728.8 25907.2 L 191428.8 25907.2 L 185416.8 12851.2 Z M 200860 7475.2 Q 201436 7475.2 201844 7883.2 Q 202252 8291.2 202252 8867.2 Q 202252 9431.2 201844 9839.2 Q 201436 10247.2 200860 10247.2 Q 200296 10247.2 199888 9839.2 Q 199480 9431.2 199480 8867.2 Q 199480 8291.2 199888 7883.2 Q 200296 7475.2 200860 7475.2  Z M 200020 12851.2 L 201712 12851.2 L 201712 25907.2 L 200020 25907.2 L 200020 12851.2 Z M 216179.2 21575.2 L 217595.2 22319.2 Q 216899.2 23687.2 215987.2 24527.2 Q 215075.2 25367.2 213935.2 25805.2 Q 212795.2 26243.2 211355.2 26243.2 Q 208163.2 26243.2 206363.2 24149.2 Q 204563.2 22055.2 204563.2 19415.2 Q 204563.2 16931.2 206087.2 14987.2 Q 208019.2 12515.2 211259.2 12515.2 Q 214595.2 12515.2 216587.2 15047.2 Q 218003.2 16835.2 218027.2 19511.2 L 206291.2 19511.2 Q 206339.2 21791.2 207743.2 23249.2 Q 209147.2 24707.2 211211.2 24707.2 Q 212207.2 24707.2 213149.2 24359.2 Q 214091.2 24011.2 214751.2 23435.2 Q 215411.2 22859.2 216179.2 21575.2  Z M 216179.2 18059.2 Q 215843.2 16715.2 215201.2 15911.2 Q 214559.2 15107.2 213503.2 14615.2 Q 212447.2 14123.2 211283.2 14123.2 Q 209363.2 14123.2 207983.2 15359.2 Q 206975.2 16259.2 206459.2 18059.2 L 216179.2 18059.2 Z M 219346.4 12851.2 L 221074.4 12851.2 L 225070.4 22331.2 L 229258.4 12851.2 L 229558.4 12851.2 L 233734.4 22331.2 L 237802.4 12851.2 L 239554.4 12851.2 L 233890.4 25907.2 L 233566.4 25907.2 L 229414.4 16559.2 L 225226.4 25907.2 L 224914.4 25907.2 L 219346.4 12851.2 Z M 248052 14279.2 L 246972 15395.2 Q 245628 14087.2 244344 14087.2 Q 243528 14087.2 242946 14627.2 Q 242364 15167.2 242364 15887.2 Q 242364 16523.2 242844 17099.2 Q 243324 17687.2 244860 18479.2 Q 246732 19451.2 247404 20351.2 Q 248064 21263.2 248064 22403.2 Q 248064 24011.2 246936 25127.2 Q 245808 26243.2 244116 26243.2 Q 242988 26243.2 241962 25751.2 Q 240936 25259.2 240264 24395.2 L 241320 23195.2 Q 242604 24647.2 244044 24647.2 Q 245052 24647.2 245760 23999.2 Q 246468 23351.2 246468 22475.2 Q 246468 21755.2 246000 21191.2 Q 245532 20639.2 243888 19799.2 Q 242124 18887.2 241488 17999.2 Q 240852 17111.2 240852 15971.2 Q 240852 14483.2 241866 13499.2 Q 242880 12515.2 244428 12515.2 Q 246228 12515.2 248052 14279.2  Z M 3296 50978.4 L 13364 46334.4 L 3296 41654.4 L 3296 39890.4 L 15692 45542.4 L 15692 47102.4 L 3296 52730.4 L 3296 50978.4 Z M 32666.4 37046.4 L 34118.4 37994.4 L 29354.4 45218.4 Q 30314.4 44894.4 31154.4 44894.4 Q 33254.4 44894.4 34718.4 46412.4 Q 36182.4 47930.4 36182.4 50150.4 Q 36182.4 51674.4 35474.4 52904.4 Q 34766.4 54134.4 33464.4 54860.4 Q 32162.4 55586.4 30662.4 55586.4 Q 29210.4 55586.4 27968.4 54884.4 Q 26726.4 54182.4 26018.4 52910.4 Q 25310.4 51638.4 25310.4 50186.4 Q 25310.4 49106.4 25748.4 47912.4 Q 26186.4 46718.4 27314.4 45038.4 L 32666.4 37046.4 Z M 30734.4 46442.4 Q 29198.4 46442.4 28112.4 47528.4 Q 27026.4 48614.4 27026.4 50162.4 Q 27026.4 51698.4 28112.4 52784.4 Q 29198.4 53870.4 30734.4 53870.4 Q 32270.4 53870.4 33356.4 52784.4 Q 34442.4 51698.4 34442.4 50162.4 Q 34442.4 48614.4 33356.4 47528.4 Q 32270.4 46442.4 30734.4 46442.4  Z M 38053.6 46322.4 Q 38053.6 42830.4 38803.6 40922.4 Q 39553.6 39014.4 40921.6 38030.4 Q 42289.6 37046.4 43981.6 37046.4 Q 45697.6 37046.4 47089.6 38036.4 Q 48481.6 39026.4 49291.6 41006.4 Q 50101.6 42986.4 50101.6 46322.4 Q 50101.6 49646.4 49303.6 51614.4 Q 48505.6 53582.4 47101.6 54584.4 Q 45697.6 55586.4 43981.6 55586.4 Q 42289.6 55586.4 40933.6 54614.4 Q 39577.6 53642.4 38815.6 51716.4 Q 38053.6 49790.4 38053.6 46322.4  Z M 39721.6 46358.4 Q 39721.6 49346.4 40255.6 50876.4 Q 40789.6 52406.4 41833.6 53198.4 Q 42877.6 53990.4 44041.6 53990.4 Q 45217.6 53990.4 46237.6 53216.4 Q 47257.6 52442.4 47785.6 50894.4 Q 48445.6 49010.4 48445.6 46358.4 Q 48445.6 43694.4 47857.6 41996.4 Q 47269.6 40298.4 46231.6 39512.4 Q 45193.6 38726.4 44041.6 38726.4 Q 42865.6 38726.4 41833.6 39512.4 Q 40801.6 40298.4 40261.6 41828.4 Q 39721.6 43358.4 39721.6 46358.4  Z M 54432.8 51902.4 L 56052.8 52670.4 L 53616.8 57206.4 L 52428.8 56702.4 L 54432.8 51902.4 Z M 58431.2 46322.4 Q 58431.2 42830.4 59181.2 40922.4 Q 59931.2 39014.4 61299.2 38030.4 Q 62667.2 37046.4 64359.2 37046.4 Q 66075.2 37046.4 67467.2 38036.4 Q 68859.2 39026.4 69669.2 41006.4 Q 70479.2 42986.4 70479.2 46322.4 Q 70479.2 49646.4 69681.2 51614.4 Q 68883.2 53582.4 67479.2 54584.4 Q 66075.2 55586.4 64359.2 55586.4 Q 62667.2 55586.4 61311.2 54614.4 Q 59955.2 53642.4 59193.2 51716.4 Q 58431.2 49790.4 58431.2 46322.4  Z M 60099.2 46358.4 Q 60099.2 49346.4 60633.2 50876.4 Q 61167.2 52406.4 62211.2 53198.4 Q 63255.2 53990.4 64419.2 53990.4 Q 65595.2 53990.4 66615.2 53216.4 Q 67635.2 52442.4 68163.2 50894.4 Q 68823.2 49010.4 68823.2 46358.4 Q 68823.2 43694.4 68235.2 41996.4 Q 67647.2 40298.4 66609.2 39512.4 Q 65571.2 38726.4 64419.2 38726.4 Q 63243.2 38726.4 62211.2 39512.4 Q 61179.2 40298.4 60639.2 41828.4 Q 60099.2 43358.4 60099.2 46358.4  Z M 72050.4 46322.4 Q 72050.4 42830.4 72800.4 40922.4 Q 73550.4 39014.4 74918.4 38030.4 Q 76286.4 37046.4 77978.4 37046.4 Q 79694.4 37046.4 81086.4 38036.4 Q 82478.4 39026.4 83288.4 41006.4 Q 84098.4 42986.4 84098.4 46322.4 Q 84098.4 49646.4 83300.4 51614.4 Q 82502.4 53582.4 81098.4 54584.4 Q 79694.4 55586.4 77978.4 55586.4 Q 76286.4 55586.4 74930.4 54614.4 Q 73574.4 53642.4 72812.4 51716.4 Q 72050.4 49790.4 72050.4 46322.4  Z M 73718.4 46358.4 Q 73718.4 49346.4 74252.4 50876.4 Q 74786.4 52406.4 75830.4 53198.4 Q 76874.4 53990.4 78038.4 53990.4 Q 79214.4 53990.4 80234.4 53216.4 Q 81254.4 52442.4 81782.4 50894.4 Q 82442.4 49010.4 82442.4 46358.4 Q 82442.4 43694.4 81854.4 41996.4 Q 81266.4 40298.4 80228.4 39512.4 Q 79190.4 38726.4 78038.4 38726.4 Q 76862.4 38726.4 75830.4 39512.4 Q 74798.4 40298.4 74258.4 41828.4 Q 73718.4 43358.4 73718.4 46358.4  Z M 85669.6 46322.4 Q 85669.6 42830.4 86419.6 40922.4 Q 87169.6 39014.4 88537.6 38030.4 Q 89905.6 37046.4 91597.6 37046.4 Q 93313.6 37046.4 94705.6 38036.4 Q 96097.6 39026.4 96907.6 41006.4 Q 97717.6 42986.4 97717.6 46322.4 Q 97717.6 49646.4 96919.6 51614.4 Q 96121.6 53582.4 94717.6 54584.4 Q 93313.6 55586.4 91597.6 55586.4 Q 89905.6 55586.4 88549.6 54614.4 Q 87193.6 53642.4 86431.6 51716.4 Q 85669.6 49790.4 85669.6 46322.4  Z M 87337.6 46358.4 Q 87337.6 49346.4 87871.6 50876.4 Q 88405.6 52406.4 89449.6 53198.4 Q 90493.6 53990.4 91657.6 53990.4 Q 92833.6 53990.4 93853.6 53216.4 Q 94873.6 52442.4 95401.6 50894.4 Q 96061.6 49010.4 96061.6 46358.4 Q 96061.6 43694.4 95473.6 41996.4 Q 94885.6 40298.4 93847.6 39512.4 Q 92809.6 38726.4 91657.6 38726.4 Q 90481.6 38726.4 89449.6 39512.4 Q 88417.6 40298.4 87877.6 41828.4 Q 87337.6 43358.4 87337.6 46358.4  Z M 105903.2 42086.4 L 107691.2 42086.4 L 112059.2 51590.4 L 116391.2 42086.4 L 118191.2 42086.4 L 112215.2 55142.4 L 111915.2 55142.4 L 105903.2 42086.4 Z M 121346.4 36710.4 Q 121922.4 36710.4 122330.4 37118.4 Q 122738.4 37526.4 122738.4 38102.4 Q 122738.4 38666.4 122330.4 39074.4 Q 121922.4 39482.4 121346.4 39482.4 Q 120782.4 39482.4 120374.4 39074.4 Q 119966.4 38666.4 119966.4 38102.4 Q 119966.4 37526.4 120374.4 37118.4 Q 120782.4 36710.4 121346.4 36710.4  Z M 120506.4 42086.4 L 122198.4 42086.4 L 122198.4 55142.4 L 120506.4 55142.4 L 120506.4 42086.4 Z M 132237.6 43514.4 L 131157.6 44630.4 Q 129813.6 43322.4 128529.6 43322.4 Q 127713.6 43322.4 127131.6 43862.4 Q 126549.6 44402.4 126549.6 45122.4 Q 126549.6 45758.4 127029.6 46334.4 Q 127509.6 46922.4 129045.6 47714.4 Q 130917.6 48686.4 131589.6 49586.4 Q 132249.6 50498.4 132249.6 51638.4 Q 132249.6 53246.4 131121.6 54362.4 Q 129993.6 55478.4 128301.6 55478.4 Q 127173.6 55478.4 126147.6 54986.4 Q 125121.6 54494.4 124449.6 53630.4 L 125505.6 52430.4 Q 126789.6 53882.4 128229.6 53882.4 Q 129237.6 53882.4 129945.6 53234.4 Q 130653.6 52586.4 130653.6 51710.4 Q 130653.6 50990.4 130185.6 50426.4 Q 129717.6 49874.4 128073.6 49034.4 Q 126309.6 48122.4 125673.6 47234.4 Q 125037.6 46346.4 125037.6 45206.4 Q 125037.6 43718.4 126051.6 42734.4 Q 127065.6 41750.4 128613.6 41750.4 Q 130413.6 41750.4 132237.6 43514.4  Z M 135784.8 36710.4 Q 136360.8 36710.4 136768.8 37118.4 Q 137176.8 37526.4 137176.8 38102.4 Q 137176.8 38666.4 136768.8 39074.4 Q 136360.8 39482.4 135784.8 39482.4 Q 135220.8 39482.4 134812.8 39074.4 Q 134404.8 38666.4 134404.8 38102.4 Q 134404.8 37526.4 134812.8 37118.4 Q 135220.8 36710.4 135784.8 36710.4  Z M 134944.8 42086.4 L 136636.8 42086.4 L 136636.8 55142.4 L 134944.8 55142.4 L 134944.8 42086.4 Z M 141576 37238.4 L 143268 37238.4 L 143268 42086.4 L 145932 42086.4 L 145932 43526.4 L 143268 43526.4 L 143268 55142.4 L 141576 55142.4 L 141576 43526.4 L 139284 43526.4 L 139284 42086.4 L 141576 42086.4 L 141576 37238.4 Z M 154586.4 41750.4 Q 157598.4 41750.4 159578.4 43934.4 Q 161378.4 45926.4 161378.4 48650.4 Q 161378.4 51386.4 159476.4 53432.4 Q 157574.4 55478.4 154586.4 55478.4 Q 151586.4 55478.4 149684.4 53432.4 Q 147782.4 51386.4 147782.4 48650.4 Q 147782.4 45938.4 149582.4 43946.4 Q 151562.4 41750.4 154586.4 41750.4  Z M 154586.4 43394.4 Q 152498.4 43394.4 150998.4 44942.4 Q 149498.4 46490.4 149498.4 48686.4 Q 149498.4 50102.4 150182.4 51326.4 Q 150866.4 52550.4 152030.4 53216.4 Q 153194.4 53882.4 154586.4 53882.4 Q 155978.4 53882.4 157142.4 53216.4 Q 158306.4 52550.4 158990.4 51326.4 Q 159674.4 50102.4 159674.4 48686.4 Q 159674.4 46490.4 158168.4 44942.4 Q 156662.4 43394.4 154586.4 43394.4  Z M 163847.2 42086.4 L 165563.2 42086.4 L 165563.2 43994.4 Q 166331.2 42866.4 167183.2 42308.4 Q 168035.2 41750.4 168959.2 41750.4 Q 169655.2 41750.4 170447.2 42194.4 L 169571.2 43610.4 Q 169043.2 43382.4 168683.2 43382.4 Q 167843.2 43382.4 167063.2 44072.4 Q 166283.2 44762.4 165875.2 46214.4 Q 165563.2 47330.4 165563.2 50726.4 L 165563.2 55142.4 L 163847.2 55142.4 L 163847.2 42086.4 Z M 178420 43514.4 L 177340 44630.4 Q 175996 43322.4 174712 43322.4 Q 173896 43322.4 173314 43862.4 Q 172732 44402.4 172732 45122.4 Q 172732 45758.4 173212 46334.4 Q 173692 46922.4 175228 47714.4 Q 177100 48686.4 177772 49586.4 Q 178432 50498.4 178432 51638.4 Q 178432 53246.4 177304 54362.4 Q 176176 55478.4 174484 55478.4 Q 173356 55478.4 172330 54986.4 Q 171304 54494.4 170632 53630.4 L 171688 52430.4 Q 172972 53882.4 174412 53882.4 Q 175420 53882.4 176128 53234.4 Q 176836 52586.4 176836 51710.4 Q 176836 50990.4 176368 50426.4 Q 175900 49874.4 174256 49034.4 Q 172492 48122.4 171856 47234.4 Q 171220 46346.4 171220 45206.4 Q 171220 43718.4 172234 42734.4 Q 173248 41750.4 174796 41750.4 Q 176596 41750.4 178420 43514.4  Z M 3296 80213.6 L 13364 75569.6 L 3296 70889.6 L 3296 69125.6 L 15692 74777.6 L 15692 76337.6 L 3296 81965.6 L 3296 80213.6 Z M 28202.4 66725.6 L 31670.4 66725.6 L 31670.4 84377.6 L 29918.4 84377.6 L 29918.4 68453.6 L 27146.4 68453.6 L 28202.4 66725.6 Z M 47737.6 66281.6 L 48097.6 66281.6 L 48097.6 78581.6 L 50233.6 78581.6 L 50233.6 80273.6 L 48097.6 80273.6 L 48097.6 84377.6 L 46333.6 84377.6 L 46333.6 80273.6 L 37897.6 80273.6 L 47737.6 66281.6 Z M 46333.6 78581.6 L 46333.6 71225.6 L 41137.6 78581.6 L 46333.6 78581.6 Z M 52656.8 66725.6 L 63852.8 66725.6 L 54408.8 84821.6 L 52956.8 84077.6 L 61116.8 68393.6 L 52656.8 68393.6 L 52656.8 66725.6 Z M 85814.4 74033.6 L 84482.4 74861.6 Q 82754.4 72569.6 79766.4 72569.6 Q 77378.4 72569.6 75800.4 74105.6 Q 74222.4 75641.6 74222.4 77837.6 Q 74222.4 79265.6 74948.4 80525.6 Q 75674.4 81785.6 76940.4 82481.6 Q 78206.4 83177.6 79778.4 83177.6 Q 82658.4 83177.6 84482.4 80885.6 L 85814.4 81761.6 Q 84878.4 83165.6 83300.4 83939.6 Q 81722.4 84713.6 79706.4 84713.6 Q 76610.4 84713.6 74570.4 82745.6 Q 72530.4 80777.6 72530.4 77957.6 Q 72530.4 76061.6 73484.4 74435.6 Q 74438.4 72809.6 76106.4 71897.6 Q 77774.4 70985.6 79838.4 70985.6 Q 81134.4 70985.6 82340.4 71381.6 Q 83546.4 71777.6 84386.4 72413.6 Q 85226.4 73049.6 85814.4 74033.6  Z M 95194.4 70985.6 Q 98206.4 70985.6 100186.4 73169.6 Q 101986.4 75161.6 101986.4 77885.6 Q 101986.4 80621.6 100084.4 82667.6 Q 98182.4 84713.6 95194.4 84713.6 Q 92194.4 84713.6 90292.4 82667.6 Q 88390.4 80621.6 88390.4 77885.6 Q 88390.4 75173.6 90190.4 73181.6 Q 92170.4 70985.6 95194.4 70985.6  Z M 95194.4 72629.6 Q 93106.4 72629.6 91606.4 74177.6 Q 90106.4 75725.6 90106.4 77921.6 Q 90106.4 79337.6 90790.4 80561.6 Q 91474.4 81785.6 92638.4 82451.6 Q 93802.4 83117.6 95194.4 83117.6 Q 96586.4 83117.6 97750.4 82451.6 Q 98914.4 81785.6 99598.4 80561.6 Q 100282.4 79337.6 100282.4 77921.6 Q 100282.4 75725.6 98776.4 74177.6 Q 97270.4 72629.6 95194.4 72629.6  Z M 104875.2 71321.6 L 106567.2 71321.6 L 106567.2 77417.6 Q 106567.2 79649.6 106807.2 80489.6 Q 107167.2 81689.6 108181.2 82385.6 Q 109195.2 83081.6 110599.2 83081.6 Q 112003.2 83081.6 112981.2 82403.6 Q 113959.2 81725.6 114331.2 80621.6 Q 114583.2 79865.6 114583.2 77417.6 L 114583.2 71321.6 L 116299.2 71321.6 L 116299.2 77729.6 Q 116299.2 80429.6 115669.2 81797.6 Q 115039.2 83165.6 113773.2 83939.6 Q 112507.2 84713.6 110599.2 84713.6 Q 108691.2 84713.6 107413.2 83939.6 Q 106135.2 83165.6 105505.2 81779.6 Q 104875.2 80393.6 104875.2 77609.6 L 104875.2 71321.6 Z M 119990.4 71321.6 L 121670.4 71321.6 L 121670.4 73661.6 Q 122678.4 72317.6 123902.4 71651.6 Q 125126.4 70985.6 126566.4 70985.6 Q 128030.4 70985.6 129164.4 71729.6 Q 130298.4 72473.6 130838.4 73733.6 Q 131378.4 74993.6 131378.4 77657.6 L 131378.4 84377.6 L 129710.4 84377.6 L 129710.4 78149.6 Q 129710.4 75893.6 129518.4 75137.6 Q 129218.4 73841.6 128390.4 73187.6 Q 127562.4 72533.6 126230.4 72533.6 Q 124706.4 72533.6 123500.4 73541.6 Q 122294.4 74549.6 121910.4 76037.6 Q 121670.4 77009.6 121670.4 79589.6 L 121670.4 84377.6 L 119990.4 84377.6 L 119990.4 71321.6 Z M 136404.8 66473.6 L 138096.8 66473.6 L 138096.8 71321.6 L 140760.8 71321.6 L 140760.8 72761.6 L 138096.8 72761.6 L 138096.8 84377.6 L 136404.8 84377.6 L 136404.8 72761.6 L 134112.8 72761.6 L 134112.8 71321.6 L 136404.8 71321.6 L 136404.8 66473.6 Z M 142599.2 71321.6 L 144315.2 71321.6 L 144315.2 73229.6 Q 145083.2 72101.6 145935.2 71543.6 Q 146787.2 70985.6 147711.2 70985.6 Q 148407.2 70985.6 149199.2 71429.6 L 148323.2 72845.6 Q 147795.2 72617.6 147435.2 72617.6 Q 146595.2 72617.6 145815.2 73307.6 Q 145035.2 73997.6 144627.2 75449.6 Q 144315.2 76565.6 144315.2 79961.6 L 144315.2 84377.6 L 142599.2 84377.6 L 142599.2 71321.6 Z M 151196 65945.6 Q 151772 65945.6 152180 66353.6 Q 152588 66761.6 152588 67337.6 Q 152588 67901.6 152180 68309.6 Q 151772 68717.6 151196 68717.6 Q 150632 68717.6 150224 68309.6 Q 149816 67901.6 149816 67337.6 Q 149816 66761.6 150224 66353.6 Q 150632 65945.6 151196 65945.6  Z M 150356 71321.6 L 152048 71321.6 L 152048 84377.6 L 150356 84377.6 L 150356 71321.6 Z M 166515.2 80045.6 L 167931.2 80789.6 Q 167235.2 82157.6 166323.2 82997.6 Q 165411.2 83837.6 164271.2 84275.6 Q 163131.2 84713.6 161691.2 84713.6 Q 158499.2 84713.6 156699.2 82619.6 Q 154899.2 80525.6 154899.2 77885.6 Q 154899.2 75401.6 156423.2 73457.6 Q 158355.2 70985.6 161595.2 70985.6 Q 164931.2 70985.6 166923.2 73517.6 Q 168339.2 75305.6 168363.2 77981.6 L 156627.2 77981.6 Q 156675.2 80261.6 158079.2 81719.6 Q 159483.2 83177.6 161547.2 83177.6 Q 162543.2 83177.6 163485.2 82829.6 Q 164427.2 82481.6 165087.2 81905.6 Q 165747.2 81329.6 166515.2 80045.6  Z M 166515.2 76529.6 Q 166179.2 75185.6 165537.2 74381.6 Q 164895.2 73577.6 163839.2 73085.6 Q 162783.2 72593.6 161619.2 72593.6 Q 159699.2 72593.6 158319.2 73829.6 Q 157311.2 74729.6 156795.2 76529.6 L 166515.2 76529.6 Z M 178010.4 72749.6 L 176930.4 73865.6 Q 175586.4 72557.6 174302.4 72557.6 Q 173486.4 72557.6 172904.4 73097.6 Q 172322.4 73637.6 172322.4 74357.6 Q 172322.4 74993.6 172802.4 75569.6 Q 173282.4 76157.6 174818.4 76949.6 Q 176690.4 77921.6 177362.4 78821.6 Q 178022.4 79733.6 178022.4 80873.6 Q 178022.4 82481.6 176894.4 83597.6 Q 175766.4 84713.6 174074.4 84713.6 Q 172946.4 84713.6 171920.4 84221.6 Q 170894.4 83729.6 170222.4 82865.6 L 171278.4 81665.6 Q 172562.4 83117.6 174002.4 83117.6 Q 175010.4 83117.6 175718.4 82469.6 Q 176426.4 81821.6 176426.4 80945.6 Q 176426.4 80225.6 175958.4 79661.6 Q 175490.4 79109.6 173846.4 78269.6 Q 172082.4 77357.6 171446.4 76469.6 Q 170810.4 75581.6 170810.4 74441.6 Q 170810.4 72953.6 171824.4 71969.6 Q 172838.4 70985.6 174386.4 70985.6 Q 176186.4 70985.6 178010.4 72749.6  Z M 189129.6 66281.6 L 181797.6 86777.6 L 179961.6 86777.6 L 187281.6 66281.6 L 189129.6 66281.6 Z M 191034.4 71321.6 L 192750.4 71321.6 L 192750.4 73229.6 Q 193518.4 72101.6 194370.4 71543.6 Q 195222.4 70985.6 196146.4 70985.6 Q 196842.4 70985.6 197634.4 71429.6 L 196758.4 72845.6 Q 196230.4 72617.6 195870.4 72617.6 Q 195030.4 72617.6 194250.4 73307.6 Q 193470.4 73997.6 193062.4 75449.6 Q 192750.4 76565.6 192750.4 79961.6 L 192750.4 84377.6 L 191034.4 84377.6 L 191034.4 71321.6 Z M 210035.2 80045.6 L 211451.2 80789.6 Q 210755.2 82157.6 209843.2 82997.6 Q 208931.2 83837.6 207791.2 84275.6 Q 206651.2 84713.6 205211.2 84713.6 Q 202019.2 84713.6 200219.2 82619.6 Q 198419.2 80525.6 198419.2 77885.6 Q 198419.2 75401.6 199943.2 73457.6 Q 201875.2 70985.6 205115.2 70985.6 Q 208451.2 70985.6 210443.2 73517.6 Q 211859.2 75305.6 211883.2 77981.6 L 200147.2 77981.6 Q 200195.2 80261.6 201599.2 81719.6 Q 203003.2 83177.6 205067.2 83177.6 Q 206063.2 83177.6 207005.2 82829.6 Q 207947.2 82481.6 208607.2 81905.6 Q 209267.2 81329.6 210035.2 80045.6  Z M 210035.2 76529.6 Q 209699.2 75185.6 209057.2 74381.6 Q 208415.2 73577.6 207359.2 73085.6 Q 206303.2 72593.6 205139.2 72593.6 Q 203219.2 72593.6 201839.2 73829.6 Q 200831.2 74729.6 200315.2 76529.6 L 210035.2 76529.6 Z M 226210.4 71321.6 L 227902.4 71321.6 L 227902.4 81725.6 Q 227902.4 84473.6 227422.4 85745.6 Q 226762.4 87545.6 225130.4 88517.6 Q 223498.4 89489.6 221206.4 89489.6 Q 219526.4 89489.6 218188.4 89015.6 Q 216850.4 88541.6 216010.4 87743.6 Q 215170.4 86945.6 214462.4 85409.6 L 216286.4 85409.6 Q 217030.4 86705.6 218206.4 87329.6 Q 219382.4 87953.6 221122.4 87953.6 Q 222838.4 87953.6 224020.4 87311.6 Q 225202.4 86669.6 225706.4 85697.6 Q 226210.4 84725.6 226210.4 82565.6 L 226210.4 81893.6 Q 225262.4 83093.6 223894.4 83735.6 Q 222526.4 84377.6 220990.4 84377.6 Q 219190.4 84377.6 217606.4 83483.6 Q 216022.4 82589.6 215158.4 81077.6 Q 214294.4 79565.6 214294.4 77753.6 Q 214294.4 75941.6 215194.4 74375.6 Q 216094.4 72809.6 217684.4 71897.6 Q 219274.4 70985.6 221038.4 70985.6 Q 222502.4 70985.6 223768.4 71591.6 Q 225034.4 72197.6 226210.4 73589.6 L 226210.4 71321.6 Z M 221254.4 72605.6 Q 219826.4 72605.6 218602.4 73295.6 Q 217378.4 73985.6 216682.4 75203.6 Q 215986.4 76421.6 215986.4 77837.6 Q 215986.4 79985.6 217426.4 81389.6 Q 218866.4 82793.6 221158.4 82793.6 Q 223474.4 82793.6 224884.4 81401.6 Q 226294.4 80009.6 226294.4 77741.6 Q 226294.4 76265.6 225646.4 75107.6 Q 224998.4 73949.6 223810.4 73277.6 Q 222622.4 72605.6 221254.4 72605.6  Z M 232040.8 65945.6 Q 232616.8 65945.6 233024.8 66353.6 Q 233432.8 66761.6 233432.8 67337.6 Q 233432.8 67901.6 233024.8 68309.6 Q 232616.8 68717.6 232040.8 68717.6 Q 231476.8 68717.6 231068.8 68309.6 Q 230660.8 67901.6 230660.8 67337.6 Q 230660.8 66761.6 231068.8 66353.6 Q 231476.8 65945.6 232040.8 65945.6  Z M 231200.8 71321.6 L 232892.8 71321.6 L 232892.8 84377.6 L 231200.8 84377.6 L 231200.8 71321.6 Z M 242548 70985.6 Q 245560 70985.6 247540 73169.6 Q 249340 75161.6 249340 77885.6 Q 249340 80621.6 247438 82667.6 Q 245536 84713.6 242548 84713.6 Q 239548 84713.6 237646 82667.6 Q 235744 80621.6 235744 77885.6 Q 235744 75173.6 237544 73181.6 Q 239524 70985.6 242548 70985.6  Z M 242548 72629.6 Q 240460 72629.6 238960 74177.6 Q 237460 75725.6 237460 77921.6 Q 237460 79337.6 238144 80561.6 Q 238828 81785.6 239992 82451.6 Q 241156 83117.6 242548 83117.6 Q 243940 83117.6 245104 82451.6 Q 246268 81785.6 246952 80561.6 Q 247636 79337.6 247636 77921.6 Q 247636 75725.6 246130 74177.6 Q 244624 72629.6 242548 72629.6  Z M 252444.8 71321.6 L 254124.8 71321.6 L 254124.8 73661.6 Q 255132.8 72317.6 256356.8 71651.6 Q 257580.8 70985.6 259020.8 70985.6 Q 260484.8 70985.6 261618.8 71729.6 Q 262752.8 72473.6 263292.8 73733.6 Q 263832.8 74993.6 263832.8 77657.6 L 263832.8 84377.6 L 262164.8 84377.6 L 262164.8 78149.6 Q 262164.8 75893.6 261972.8 75137.6 Q 261672.8 73841.6 260844.8 73187.6 Q 260016.8 72533.6 258684.8 72533.6 Q 257160.8 72533.6 255954.8 73541.6 Q 254748.8 74549.6 254364.8 76037.6 Q 254124.8 77009.6 254124.8 79589.6 L 254124.8 84377.6 L 252444.8 84377.6 L 252444.8 71321.6 Z M 273959.2 72749.6 L 272879.2 73865.6 Q 271535.2 72557.6 270251.2 72557.6 Q 269435.2 72557.6 268853.2 73097.6 Q 268271.2 73637.6 268271.2 74357.6 Q 268271.2 74993.6 268751.2 75569.6 Q 269231.2 76157.6 270767.2 76949.6 Q 272639.2 77921.6 273311.2 78821.6 Q 273971.2 79733.6 273971.2 80873.6 Q 273971.2 82481.6 272843.2 83597.6 Q 271715.2 84713.6 270023.2 84713.6 Q 268895.2 84713.6 267869.2 84221.6 Q 266843.2 83729.6 266171.2 82865.6 L 267227.2 81665.6 Q 268511.2 83117.6 269951.2 83117.6 Q 270959.2 83117.6 271667.2 82469.6 Q 272375.2 81821.6 272375.2 80945.6 Q 272375.2 80225.6 271907.2 79661.6 Q 271439.2 79109.6 269795.2 78269.6 Q 268031.2 77357.6 267395.2 76469.6 Q 266759.2 75581.6 266759.2 74441.6 Q 266759.2 72953.6 267773.2 71969.6 Q 268787.2 70985.6 270335.2 70985.6 Q 272135.2 70985.6 273959.2 72749.6  Z " fill-rule="nonzero" style="fill:#000000;;fill-opacity:1;"/>
</svg>