<svg version="1.1" x="0" y="0" width="100%" height="100%" viewBox="0 0 98713.6 31897.6" xmlns="http://www.w3.org/2000/svg">
  <path d="M 14276 8897.6 L 14216 12653.6 L 14180 16217.6 L 14216 24473.6 L 6896 24473.6 L 6968 14909.6 L 6932 11657.6 L 6896 8897.6 L 5312 8933.6 L 3044 8981.6 L 2708 8993.6 Q 2132 8993.6 2132 8561.6 Q 2132 8177.6 2468 8129.6 Q 2564 8105.6 3056 8093.6 L 17780 8093.6 Q 18548 8105.6 18692 8165.6 Q 18932 8261.6 18932 8573.6 Q 18932 8981.6 18320 8981.6 L 17276 8945.6 L 14516 8897.6 L 14276 8897.6 Z M 28355.2 7601.6 Q 30251.2 7601.6 32015.2 8405.6 Q 34607.2 9593.6 35975.2 12065.6 Q 37067.2 14045.6 37067.2 16373.6 Q 37067.2 18245.6 36239.2 19997.6 Q 35003.2 22613.6 32387.2 23969.6 Q 30467.2 24965.6 28355.2 24965.6 Q 26123.2 24965.6 24131.2 23837.6 Q 21479.2 22349.6 20351.2 19661.6 Q 19655.2 18017.6 19655.2 16265.6 Q 19655.2 14069.6 20747.2 12077.6 Q 22091.2 9629.6 24671.2 8417.6 Q 26387.2 7613.6 28355.2 7601.6  Z M 27407.2 8405.6 L 27335.2 16217.6 L 27395.2 22709.6 L 27407.2 24173.6 Q 27815.2 24245.6 28187.2 24245.6 Q 30839.2 24245.6 32927.2 22781.6 Q 34835.2 21437.6 35687.2 19325.6 Q 36287.2 17849.6 36287.2 16265.6 Q 36287.2 14177.6 35279.2 12377.6 Q 34043.2 10169.6 31799.2 9125.6 Q 30119.2 8333.6 28259.2 8333.6 Q 27827.2 8333.6 27407.2 8405.6  Z M 39024 8093.6 L 45336 8093.6 Q 47808 8093.6 49056 8333.6 Q 52140 8921.6 54036 11621.6 Q 55524 13745.6 55524 16301.6 Q 55524 18905.6 53988 21041.6 Q 52140 23621.6 49164 24245.6 Q 48396 24401.6 47796 24437.6 Q 47196 24473.6 45156 24473.6 L 39060 24473.6 L 39096 16553.6 L 39024 8093.6 Z M 46356 8861.6 L 46296 18509.6 L 46368 23705.6 Q 47976 23693.6 48678 23579.6 Q 49380 23465.6 50292 23069.6 Q 52440 22145.6 53664 20093.6 Q 54732 18329.6 54732 16277.6 Q 54732 14045.6 53472 12173.6 Q 51228 8849.6 46824 8849.6 L 46356 8861.6 Z M 65964 7109.6 L 75564 24473.6 L 67248 24473.6 L 66108 22277.6 L 62076 22277.6 L 58524 22265.6 L 57924 22253.6 L 57132 23717.6 Q 56784 24377.6 56646 24539.6 Q 56508 24701.6 56304 24701.6 Q 55896 24701.6 55896 24341.6 Q 55896 24185.6 56130 23759.6 Q 56364 23333.6 57768 20957.6 L 65028 8729.6 L 65964 7109.6 Z M 62232 14969.6 L 60132 18509.6 L 58452 21425.6 L 62052 21473.6 L 65664 21437.6 L 62232 14969.6 Z M 88364.8 14345.6 L 92180.8 8765.6 Q 92564.8 8153.6 92708.8 8009.6 Q 92852.8 7865.6 93080.8 7865.6 Q 93284.8 7865.6 93422.8 7973.6 Q 93560.8 8081.6 93560.8 8237.6 Q 93560.8 8393.6 93416.8 8609.6 Q 93320.8 8765.6 93176.8 8945.6 L 92792.8 9461.6 L 83036.8 23177.6 L 82640.8 23717.6 Q 82124.8 24437.6 81986.8 24569.6 Q 81848.8 24701.6 81608.8 24701.6 Q 81224.8 24701.6 81224.8 24365.6 Q 81224.8 24185.6 81572.8 23777.6 L 84308.8 20057.6 L 83972.8 19601.6 Q 80324.8 14693.6 78818.8 12761.6 Q 77312.8 10829.6 74996.8 8093.6 L 83696.8 8093.6 L 88364.8 14345.6 Z " fill-rule="nonzero" style="fill:#ffffff;;fill-opacity:1;"/>
</svg>