<svg version="1.1" x="0" y="0" width="100%" height="100%" viewBox="0 0 222105.6 33843.2" xmlns="http://www.w3.org/2000/svg">
  <path d="M 4292 8767.2 L 7856 8767.2 Q 10784 8767.2 12026 9289.2 Q 13268 9811.2 14024 11023.2 Q 14780 12235.2 14780 13891.2 Q 14780 15631.2 13946 16801.2 Q 13112 17971.2 11432 18571.2 L 15608 26419.2 L 11936 26419.2 L 7964 18943.2 L 7652 18943.2 L 7652 26419.2 L 4292 26419.2 L 4292 8767.2 Z M 7652 15667.2 L 8708 15667.2 Q 10316 15667.2 10922 15247.2 Q 11528 14827.2 11528 13855.2 Q 11528 13279.2 11228 12853.2 Q 10928 12427.2 10424 12241.2 Q 9920 12055.2 8576 12055.2 L 7652 12055.2 L 7652 15667.2 Z M 31017.6 20839.2 L 20493.6 20839.2 Q 20721.6 22231.2 21711.6 23053.2 Q 22701.6 23875.2 24237.6 23875.2 Q 26073.6 23875.2 27393.6 22591.2 L 30153.6 23887.2 Q 29121.6 25351.2 27681.6 26053.2 Q 26241.6 26755.2 24261.6 26755.2 Q 21189.6 26755.2 19257.6 24817.2 Q 17325.6 22879.2 17325.6 19963.2 Q 17325.6 16975.2 19251.6 15001.2 Q 21177.6 13027.2 24081.6 13027.2 Q 27165.6 13027.2 29097.6 15001.2 Q 31029.6 16975.2 31029.6 20215.2 L 31017.6 20839.2 Z M 27729.6 18259.2 Q 27405.6 17167.2 26451.6 16483.2 Q 25497.6 15799.2 24237.6 15799.2 Q 22869.6 15799.2 21837.6 16567.2 Q 21189.6 17047.2 20637.6 18259.2 L 27729.6 18259.2 Z M 36908 13363.2 L 36908 14803.2 Q 37796 13915.2 38828 13471.2 Q 39860 13027.2 41036 13027.2 Q 43592 13027.2 45380 14959.2 Q 47168 16891.2 47168 19915.2 Q 47168 22831.2 45320 24793.2 Q 43472 26755.2 40940 26755.2 Q 39812 26755.2 38840 26353.2 Q 37868 25951.2 36908 25039.2 L 36908 31195.2 L 33656 31195.2 L 33656 13363.2 L 36908 13363.2 Z M 40352 16051.2 Q 38804 16051.2 37784 17107.2 Q 36764 18163.2 36764 19867.2 Q 36764 21607.2 37784 22681.2 Q 38804 23755.2 40352 23755.2 Q 41852 23755.2 42878 22663.2 Q 43904 21571.2 43904 19879.2 Q 43904 18199.2 42896 17125.2 Q 41888 16051.2 40352 16051.2  Z M 55967.2 13027.2 Q 57815.2 13027.2 59441.2 13951.2 Q 61067.2 14875.2 61979.2 16459.2 Q 62891.2 18043.2 62891.2 19879.2 Q 62891.2 21727.2 61973.2 23335.2 Q 61055.2 24943.2 59471.2 25849.2 Q 57887.2 26755.2 55979.2 26755.2 Q 53171.2 26755.2 51185.2 24757.2 Q 49199.2 22759.2 49199.2 19903.2 Q 49199.2 16843.2 51443.2 14803.2 Q 53411.2 13027.2 55967.2 13027.2  Z M 56015.2 16111.2 Q 54491.2 16111.2 53477.2 17173.2 Q 52463.2 18235.2 52463.2 19891.2 Q 52463.2 21595.2 53465.2 22651.2 Q 54467.2 23707.2 56003.2 23707.2 Q 57539.2 23707.2 58559.2 22639.2 Q 59579.2 21571.2 59579.2 19891.2 Q 59579.2 18211.2 58577.2 17161.2 Q 57575.2 16111.2 56015.2 16111.2  Z M 64785.6 13363.2 L 67593.6 13363.2 L 67593.6 15007.2 Q 68049.6 14035.2 68805.6 13531.2 Q 69561.6 13027.2 70461.6 13027.2 Q 71097.6 13027.2 71793.6 13363.2 L 70773.6 16183.2 Q 70197.6 15895.2 69825.6 15895.2 Q 69069.6 15895.2 68547.6 16831.2 Q 68025.6 17767.2 68025.6 20503.2 L 68037.6 21139.2 L 68037.6 26419.2 L 64785.6 26419.2 L 64785.6 13363.2 Z M 73783.2 8551.2 L 77047.2 8551.2 L 77047.2 13363.2 L 78991.2 13363.2 L 78991.2 16183.2 L 77047.2 16183.2 L 77047.2 26419.2 L 73783.2 26419.2 L 73783.2 16183.2 L 72103.2 16183.2 L 72103.2 13363.2 L 73783.2 13363.2 L 73783.2 8551.2 Z M 88700.8 15187.2 L 86672.8 17215.2 Q 85436.8 15991.2 84428.8 15991.2 Q 83876.8 15991.2 83564.8 16225.2 Q 83252.8 16459.2 83252.8 16807.2 Q 83252.8 17071.2 83450.8 17293.2 Q 83648.8 17515.2 84428.8 17899.2 L 85628.8 18499.2 Q 87524.8 19435.2 88232.8 20407.2 Q 88940.8 21379.2 88940.8 22687.2 Q 88940.8 24427.2 87662.8 25591.2 Q 86384.8 26755.2 84236.8 26755.2 Q 81380.8 26755.2 79676.8 24523.2 L 81692.8 22327.2 Q 82268.8 22999.2 83042.8 23413.2 Q 83816.8 23827.2 84416.8 23827.2 Q 85064.8 23827.2 85460.8 23515.2 Q 85856.8 23203.2 85856.8 22795.2 Q 85856.8 22039.2 84428.8 21319.2 L 83324.8 20767.2 Q 80156.8 19171.2 80156.8 16771.2 Q 80156.8 15223.2 81350.8 14125.2 Q 82544.8 13027.2 84404.8 13027.2 Q 85676.8 13027.2 86798.8 13585.2 Q 87920.8 14143.2 88700.8 15187.2  Z " fill-rule="nonzero" style="fill:#f64747;;fill-opacity:1;"/>
</svg>