<svg version="1.1" x="0" y="0" width="100%" height="100%" viewBox="0 0 515430.4 366592" xmlns="http://www.w3.org/2000/svg">
  <path d="M 148219.7 11838.3 L 153417.2 11838.3 Q 157687.2 11838.3 159498.45 12599.55 Q 161309.7 13360.8 162412.2 15128.3 Q 163514.7 16895.8 163514.7 19310.8 Q 163514.7 21848.3 162298.45 23554.55 Q 161082.2 25260.8 158632.2 26135.8 L 164722.2 37580.8 L 159367.2 37580.8 L 153574.7 26678.3 L 153119.7 26678.3 L 153119.7 37580.8 L 148219.7 37580.8 L 148219.7 11838.3 Z M 153119.7 21900.8 L 154659.7 21900.8 Q 157004.7 21900.8 157888.45 21288.3 Q 158772.2 20675.8 158772.2 19258.3 Q 158772.2 18418.3 158334.7 17797.05 Q 157897.2 17175.8 157162.2 16904.55 Q 156427.2 16633.3 154467.2 16633.3 L 153119.7 16633.3 L 153119.7 21900.8 Z M 181143.4 11838.3 L 185938.4 11838.3 L 191888.4 29793.3 L 197925.9 11838.3 L 202650.9 11838.3 L 206990.9 37580.8 L 202265.9 37580.8 L 199500.9 21323.3 L 194023.4 37580.8 L 189700.9 37580.8 L 184293.4 21323.3 L 181475.9 37580.8 L 176698.4 37580.8 L 181143.4 11838.3 Z M 224408.2 18540.8 L 229168.2 18540.8 L 229168.2 37580.8 L 224408.2 37580.8 L 224408.2 35568.3 Q 223008.2 36898.3 221599.45 37484.55 Q 220190.7 38070.8 218545.7 38070.8 Q 214853.2 38070.8 212158.2 35209.55 Q 209463.2 32348.3 209463.2 28095.8 Q 209463.2 23685.8 212070.7 20868.3 Q 214678.2 18050.8 218405.7 18050.8 Q 220120.7 18050.8 221625.7 18698.3 Q 223130.7 19345.8 224408.2 20640.8 L 224408.2 18540.8 Z M 219385.7 22460.8 Q 217163.2 22460.8 215693.2 24027.05 Q 214223.2 25593.3 214223.2 28043.3 Q 214223.2 30510.8 215719.45 32103.3 Q 217215.7 33695.8 219403.2 33695.8 Q 221660.7 33695.8 223148.2 32129.55 Q 224635.7 30563.3 224635.7 28025.8 Q 224635.7 25540.8 223148.2 24000.8 Q 221660.7 22460.8 219385.7 22460.8  Z M 232872.6 18540.8 L 236967.6 18540.8 L 236967.6 20938.3 Q 237632.6 19520.8 238735.1 18785.8 Q 239837.6 18050.8 241150.1 18050.8 Q 242077.6 18050.8 243092.6 18540.8 L 241605.1 22653.3 Q 240765.1 22233.3 240222.6 22233.3 Q 239120.1 22233.3 238358.85 23598.3 Q 237597.6 24963.3 237597.6 28953.3 L 237615.1 29880.8 L 237615.1 37580.8 L 232872.6 37580.8 L 232872.6 18540.8 Z M 245445.2 11190.8 L 250222.7 11190.8 L 250222.7 26398.3 L 257257.7 18540.8 L 263242.7 18540.8 L 255052.7 27675.8 L 264240.2 37580.8 L 258307.7 37580.8 L 250222.7 28813.3 L 250222.7 37580.8 L 245445.2 37580.8 L 245445.2 11190.8 Z M 280267.4 11190.8 L 285027.4 11190.8 L 285027.4 37580.8 L 280267.4 37580.8 L 280267.4 35568.3 Q 278867.4 36898.3 277458.65 37484.55 Q 276049.9 38070.8 274404.9 38070.8 Q 270712.4 38070.8 268017.4 35209.55 Q 265322.4 32348.3 265322.4 28095.8 Q 265322.4 23685.8 267929.9 20868.3 Q 270537.4 18050.8 274264.9 18050.8 Q 275979.9 18050.8 277484.9 18698.3 Q 278989.9 19345.8 280267.4 20640.8 L 280267.4 11190.8 Z M 275244.9 22460.8 Q 273022.4 22460.8 271552.4 24027.05 Q 270082.4 25593.3 270082.4 28043.3 Q 270082.4 30510.8 271578.65 32103.3 Q 273074.9 33695.8 275262.4 33695.8 Q 277519.9 33695.8 279007.4 32129.55 Q 280494.9 30563.3 280494.9 28025.8 Q 280494.9 25540.8 279007.4 24000.8 Q 277519.9 22460.8 275244.9 22460.8  Z M 298794.3 18050.8 Q 301489.3 18050.8 303860.55 19398.3 Q 306231.8 20745.8 307561.8 23055.8 Q 308891.8 25365.8 308891.8 28043.3 Q 308891.8 30738.3 307553.05 33083.3 Q 306214.3 35428.3 303904.3 36749.55 Q 301594.3 38070.8 298811.8 38070.8 Q 294716.8 38070.8 291820.55 35157.05 Q 288924.3 32243.3 288924.3 28078.3 Q 288924.3 23615.8 292196.8 20640.8 Q 295066.8 18050.8 298794.3 18050.8  Z M 298864.3 22548.3 Q 296641.8 22548.3 295163.05 24097.05 Q 293684.3 25645.8 293684.3 28060.8 Q 293684.3 30545.8 295145.55 32085.8 Q 296606.8 33625.8 298846.8 33625.8 Q 301086.8 33625.8 302574.3 32068.3 Q 304061.8 30510.8 304061.8 28060.8 Q 304061.8 25610.8 302600.55 24079.55 Q 301139.3 22548.3 298864.3 22548.3  Z M 310671.9 18540.8 L 315344.4 18540.8 L 319176.9 29373.3 L 323306.9 18540.8 L 326159.4 18540.8 L 330201.9 29250.8 L 334034.4 18540.8 L 338741.9 18540.8 L 331794.4 37580.8 L 328766.9 37580.8 L 324706.9 26730.8 L 320524.4 37580.8 L 317531.9 37580.8 L 310671.9 18540.8 Z M 341410.2 18540.8 L 346170.2 18540.8 L 346170.2 20483.3 Q 347797.7 19118.3 349118.95 18584.55 Q 350440.2 18050.8 351822.7 18050.8 Q 354657.7 18050.8 356635.2 20028.3 Q 358297.7 21708.3 358297.7 24998.3 L 358297.7 37580.8 L 353572.7 37580.8 L 353572.7 29233.3 Q 353572.7 25820.8 353266.45 24700.8 Q 352960.2 23580.8 352198.95 22994.55 Q 351437.7 22408.3 350317.7 22408.3 Q 348865.2 22408.3 347823.95 23379.55 Q 346782.7 24350.8 346380.2 26065.8 Q 346170.2 26958.3 346170.2 29933.3 L 346170.2 37580.8 L 341410.2 37580.8 L 341410.2 18540.8 Z M 365521.7 18050.8 Q 366659.2 18050.8 367464.2 18855.8 Q 368269.2 19660.8 368269.2 20798.3 Q 368269.2 21918.3 367464.2 22723.3 Q 366659.2 23528.3 365521.7 23528.3 Q 364384.2 23528.3 363579.2 22732.05 Q 362774.2 21935.8 362774.2 20798.3 Q 362774.2 19660.8 363579.2 18855.8 Q 364384.2 18050.8 365521.7 18050.8  Z M 365521.7 32593.3 Q 366659.2 32593.3 367464.2 33389.55 Q 368269.2 34185.8 368269.2 35323.3 Q 368269.2 36460.8 367464.2 37265.8 Q 366659.2 38070.8 365521.7 38070.8 Q 364384.2 38070.8 363579.2 37265.8 Q 362774.2 36460.8 362774.2 35323.3 Q 362774.2 34185.8 363579.2 33389.55 Q 364384.2 32593.3 365521.7 32593.3  Z M 18297.6 52184.8 L 21705.6 52184.8 L 28497.6 69836.8 L 25005.6 69836.8 L 23625.6 66200.8 L 16425.6 66200.8 L 14985.6 69836.8 L 11493.6 69836.8 L 18297.6 52184.8 Z M 20025.6 56864.8 L 17673.6 62924.8 L 22365.6 62924.8 L 20025.6 56864.8 Z M 47210.4 54584.8 L 44726.4 56780.8 Q 43418.4 54956.8 42062.4 54956.8 Q 41402.4 54956.8 40982.4 55310.8 Q 40562.4 55664.8 40562.4 56108.8 Q 40562.4 56552.8 40862.4 56948.8 Q 41270.4 57476.8 43322.4 59216.8 Q 45242.4 60824.8 45650.4 61244.8 Q 46670.4 62276.8 47096.4 63218.8 Q 47522.4 64160.8 47522.4 65276.8 Q 47522.4 67448.8 46022.4 68864.8 Q 44522.4 70280.8 42110.4 70280.8 Q 40226.4 70280.8 38828.4 69356.8 Q 37430.4 68432.8 36434.4 66452.8 L 39254.4 64748.8 Q 40526.4 67088.8 42182.4 67088.8 Q 43046.4 67088.8 43634.4 66584.8 Q 44222.4 66080.8 44222.4 65420.8 Q 44222.4 64820.8 43778.4 64220.8 Q 43334.4 63620.8 41822.4 62384.8 Q 38942.4 60032.8 38102.4 58754.8 Q 37262.4 57476.8 37262.4 56204.8 Q 37262.4 54368.8 38660.4 53054.8 Q 40058.4 51740.8 42110.4 51740.8 Q 43430.4 51740.8 44624.4 52352.8 Q 45818.4 52964.8 47210.4 54584.8  Z M 50743.2 51968.8 L 54007.2 51968.8 L 54007.2 56780.8 L 55951.2 56780.8 L 55951.2 59600.8 L 54007.2 59600.8 L 54007.2 69836.8 L 50743.2 69836.8 L 50743.2 59600.8 L 49063.2 59600.8 L 49063.2 56780.8 L 50743.2 56780.8 L 50743.2 51968.8 Z M 63800.8 56444.8 Q 65648.8 56444.8 67274.8 57368.8 Q 68900.8 58292.8 69812.8 59876.8 Q 70724.8 61460.8 70724.8 63296.8 Q 70724.8 65144.8 69806.8 66752.8 Q 68888.8 68360.8 67304.8 69266.8 Q 65720.8 70172.8 63812.8 70172.8 Q 61004.8 70172.8 59018.8 68174.8 Q 57032.8 66176.8 57032.8 63320.8 Q 57032.8 60260.8 59276.8 58220.8 Q 61244.8 56444.8 63800.8 56444.8  Z M 63848.8 59528.8 Q 62324.8 59528.8 61310.8 60590.8 Q 60296.8 61652.8 60296.8 63308.8 Q 60296.8 65012.8 61298.8 66068.8 Q 62300.8 67124.8 63836.8 67124.8 Q 65372.8 67124.8 66392.8 66056.8 Q 67412.8 64988.8 67412.8 63308.8 Q 67412.8 61628.8 66410.8 60578.8 Q 65408.8 59528.8 63848.8 59528.8  Z M 72619.2 56780.8 L 75427.2 56780.8 L 75427.2 58424.8 Q 75883.2 57452.8 76639.2 56948.8 Q 77395.2 56444.8 78295.2 56444.8 Q 78931.2 56444.8 79627.2 56780.8 L 78607.2 59600.8 Q 78031.2 59312.8 77659.2 59312.8 Q 76903.2 59312.8 76381.2 60248.8 Q 75859.2 61184.8 75859.2 63920.8 L 75871.2 64556.8 L 75871.2 69836.8 L 72619.2 69836.8 L 72619.2 56780.8 Z M 79768.8 56780.8 L 83116.8 56780.8 L 86512.8 64976.8 L 90256.8 56780.8 L 93616.8 56780.8 L 85432.8 74612.8 L 82048.8 74612.8 L 84736.8 68864.8 L 79768.8 56780.8 Z M 105567.2 51740.8 L 105567.2 58220.8 Q 106455.2 57332.8 107487.2 56888.8 Q 108519.2 56444.8 109695.2 56444.8 Q 112251.2 56444.8 114039.2 58376.8 Q 115827.2 60308.8 115827.2 63332.8 Q 115827.2 66248.8 113979.2 68210.8 Q 112131.2 70172.8 109599.2 70172.8 Q 108471.2 70172.8 107499.2 69770.8 Q 106527.2 69368.8 105567.2 68456.8 L 105567.2 69836.8 L 102315.2 69836.8 L 102315.2 51740.8 L 105567.2 51740.8 Z M 109011.2 59468.8 Q 107463.2 59468.8 106443.2 60524.8 Q 105423.2 61580.8 105423.2 63284.8 Q 105423.2 65024.8 106443.2 66098.8 Q 107463.2 67172.8 109011.2 67172.8 Q 110511.2 67172.8 111537.2 66080.8 Q 112563.2 64988.8 112563.2 63296.8 Q 112563.2 61616.8 111555.2 60542.8 Q 110547.2 59468.8 109011.2 59468.8  Z M 131574.4 64256.8 L 121050.4 64256.8 Q 121278.4 65648.8 122268.4 66470.8 Q 123258.4 67292.8 124794.4 67292.8 Q 126630.4 67292.8 127950.4 66008.8 L 130710.4 67304.8 Q 129678.4 68768.8 128238.4 69470.8 Q 126798.4 70172.8 124818.4 70172.8 Q 121746.4 70172.8 119814.4 68234.8 Q 117882.4 66296.8 117882.4 63380.8 Q 117882.4 60392.8 119808.4 58418.8 Q 121734.4 56444.8 124638.4 56444.8 Q 127722.4 56444.8 129654.4 58418.8 Q 131586.4 60392.8 131586.4 63632.8 L 131574.4 64256.8 Z M 128286.4 61676.8 Q 127962.4 60584.8 127008.4 59900.8 Q 126054.4 59216.8 124794.4 59216.8 Q 123426.4 59216.8 122394.4 59984.8 Q 121746.4 60464.8 121194.4 61676.8 L 128286.4 61676.8 Z M 134224.8 51740.8 L 137476.8 51740.8 L 137476.8 58100.8 Q 138436.8 57272.8 139408.8 56858.8 Q 140380.8 56444.8 141376.8 56444.8 Q 143320.8 56444.8 144652.8 57788.8 Q 145792.8 58952.8 145792.8 61208.8 L 145792.8 69836.8 L 142564.8 69836.8 L 142564.8 64112.8 Q 142564.8 61844.8 142348.8 61040.8 Q 142132.8 60236.8 141610.8 59840.8 Q 141088.8 59444.8 140320.8 59444.8 Q 139324.8 59444.8 138610.8 60104.8 Q 137896.8 60764.8 137620.8 61904.8 Q 137476.8 62492.8 137476.8 64592.8 L 137476.8 69836.8 L 134224.8 69836.8 L 134224.8 51740.8 Z M 150242.4 51404.8 Q 151106.4 51404.8 151724.4 52028.8 Q 152342.4 52652.8 152342.4 53540.8 Q 152342.4 54416.8 151730.4 55034.8 Q 151118.4 55652.8 150266.4 55652.8 Q 149390.4 55652.8 148772.4 55022.8 Q 148154.4 54392.8 148154.4 53492.8 Q 148154.4 52628.8 148766.4 52016.8 Q 149378.4 51404.8 150242.4 51404.8  Z M 148598.4 56780.8 L 151886.4 56780.8 L 151886.4 69836.8 L 148598.4 69836.8 L 148598.4 56780.8 Z M 154846.4 56780.8 L 158110.4 56780.8 L 158110.4 58112.8 Q 159226.4 57176.8 160132.4 56810.8 Q 161038.4 56444.8 161986.4 56444.8 Q 163930.4 56444.8 165286.4 57800.8 Q 166426.4 58952.8 166426.4 61208.8 L 166426.4 69836.8 L 163186.4 69836.8 L 163186.4 64112.8 Q 163186.4 61772.8 162976.4 61004.8 Q 162766.4 60236.8 162244.4 59834.8 Q 161722.4 59432.8 160954.4 59432.8 Q 159958.4 59432.8 159244.4 60098.8 Q 158530.4 60764.8 158254.4 61940.8 Q 158110.4 62552.8 158110.4 64592.8 L 158110.4 69836.8 L 154846.4 69836.8 L 154846.4 56780.8 Z M 179240 51740.8 L 182504 51740.8 L 182504 69836.8 L 179240 69836.8 L 179240 68456.8 Q 178280 69368.8 177314 69770.8 Q 176348 70172.8 175220 70172.8 Q 172688 70172.8 170840 68210.8 Q 168992 66248.8 168992 63332.8 Q 168992 60308.8 170780 58376.8 Q 172568 56444.8 175124 56444.8 Q 176300 56444.8 177332 56888.8 Q 178364 57332.8 179240 58220.8 L 179240 51740.8 Z M 175796 59468.8 Q 174272 59468.8 173264 60542.8 Q 172256 61616.8 172256 63296.8 Q 172256 64988.8 173282 66080.8 Q 174308 67172.8 175808 67172.8 Q 177356 67172.8 178376 66098.8 Q 179396 65024.8 179396 63284.8 Q 179396 61580.8 178376 60524.8 Q 177356 59468.8 175796 59468.8  Z M 193028 51968.8 L 196292 51968.8 L 196292 56780.8 L 198236 56780.8 L 198236 59600.8 L 196292 59600.8 L 196292 69836.8 L 193028 69836.8 L 193028 59600.8 L 191348 59600.8 L 191348 56780.8 L 193028 56780.8 L 193028 51968.8 Z M 199965.6 51740.8 L 203217.6 51740.8 L 203217.6 58100.8 Q 204177.6 57272.8 205149.6 56858.8 Q 206121.6 56444.8 207117.6 56444.8 Q 209061.6 56444.8 210393.6 57788.8 Q 211533.6 58952.8 211533.6 61208.8 L 211533.6 69836.8 L 208305.6 69836.8 L 208305.6 64112.8 Q 208305.6 61844.8 208089.6 61040.8 Q 207873.6 60236.8 207351.6 59840.8 Q 206829.6 59444.8 206061.6 59444.8 Q 205065.6 59444.8 204351.6 60104.8 Q 203637.6 60764.8 203361.6 61904.8 Q 203217.6 62492.8 203217.6 64592.8 L 203217.6 69836.8 L 199965.6 69836.8 L 199965.6 51740.8 Z M 227779.2 64256.8 L 217255.2 64256.8 Q 217483.2 65648.8 218473.2 66470.8 Q 219463.2 67292.8 220999.2 67292.8 Q 222835.2 67292.8 224155.2 66008.8 L 226915.2 67304.8 Q 225883.2 68768.8 224443.2 69470.8 Q 223003.2 70172.8 221023.2 70172.8 Q 217951.2 70172.8 216019.2 68234.8 Q 214087.2 66296.8 214087.2 63380.8 Q 214087.2 60392.8 216013.2 58418.8 Q 217939.2 56444.8 220843.2 56444.8 Q 223927.2 56444.8 225859.2 58418.8 Q 227791.2 60392.8 227791.2 63632.8 L 227779.2 64256.8 Z M 224491.2 61676.8 Q 224167.2 60584.8 223213.2 59900.8 Q 222259.2 59216.8 220999.2 59216.8 Q 219631.2 59216.8 218599.2 59984.8 Q 217951.2 60464.8 217399.2 61676.8 L 224491.2 61676.8 Z M 236294.4 52184.8 L 239606.4 52184.8 L 242150.4 63452.8 L 245306.4 52184.8 L 248102.4 52184.8 L 251294.4 63452.8 L 253814.4 52184.8 L 257126.4 52184.8 L 253154.4 69836.8 L 249926.4 69836.8 L 246674.4 58424.8 L 243482.4 69836.8 L 240290.4 69836.8 L 236294.4 52184.8 Z M 272425.6 64256.8 L 261901.6 64256.8 Q 262129.6 65648.8 263119.6 66470.8 Q 264109.6 67292.8 265645.6 67292.8 Q 267481.6 67292.8 268801.6 66008.8 L 271561.6 67304.8 Q 270529.6 68768.8 269089.6 69470.8 Q 267649.6 70172.8 265669.6 70172.8 Q 262597.6 70172.8 260665.6 68234.8 Q 258733.6 66296.8 258733.6 63380.8 Q 258733.6 60392.8 260659.6 58418.8 Q 262585.6 56444.8 265489.6 56444.8 Q 268573.6 56444.8 270505.6 58418.8 Q 272437.6 60392.8 272437.6 63632.8 L 272425.6 64256.8 Z M 269137.6 61676.8 Q 268813.6 60584.8 267859.6 59900.8 Q 266905.6 59216.8 265645.6 59216.8 Q 264277.6 59216.8 263245.6 59984.8 Q 262597.6 60464.8 262045.6 61676.8 L 269137.6 61676.8 Z M 278316 51740.8 L 278316 58220.8 Q 279204 57332.8 280236 56888.8 Q 281268 56444.8 282444 56444.8 Q 285000 56444.8 286788 58376.8 Q 288576 60308.8 288576 63332.8 Q 288576 66248.8 286728 68210.8 Q 284880 70172.8 282348 70172.8 Q 281220 70172.8 280248 69770.8 Q 279276 69368.8 278316 68456.8 L 278316 69836.8 L 275064 69836.8 L 275064 51740.8 L 278316 51740.8 Z M 281760 59468.8 Q 280212 59468.8 279192 60524.8 Q 278172 61580.8 278172 63284.8 Q 278172 65024.8 279192 66098.8 Q 280212 67172.8 281760 67172.8 Q 283260 67172.8 284286 66080.8 Q 285312 64988.8 285312 63296.8 Q 285312 61616.8 284304 60542.8 Q 283296 59468.8 281760 59468.8  Z M 299235.2 58604.8 L 297207.2 60632.8 Q 295971.2 59408.8 294963.2 59408.8 Q 294411.2 59408.8 294099.2 59642.8 Q 293787.2 59876.8 293787.2 60224.8 Q 293787.2 60488.8 293985.2 60710.8 Q 294183.2 60932.8 294963.2 61316.8 L 296163.2 61916.8 Q 298059.2 62852.8 298767.2 63824.8 Q 299475.2 64796.8 299475.2 66104.8 Q 299475.2 67844.8 298197.2 69008.8 Q 296919.2 70172.8 294771.2 70172.8 Q 291915.2 70172.8 290211.2 67940.8 L 292227.2 65744.8 Q 292803.2 66416.8 293577.2 66830.8 Q 294351.2 67244.8 294951.2 67244.8 Q 295599.2 67244.8 295995.2 66932.8 Q 296391.2 66620.8 296391.2 66212.8 Q 296391.2 65456.8 294963.2 64736.8 L 293859.2 64184.8 Q 290691.2 62588.8 290691.2 60188.8 Q 290691.2 58640.8 291885.2 57542.8 Q 293079.2 56444.8 294939.2 56444.8 Q 296211.2 56444.8 297333.2 57002.8 Q 298455.2 57560.8 299235.2 58604.8  Z M 303330.4 51404.8 Q 304194.4 51404.8 304812.4 52028.8 Q 305430.4 52652.8 305430.4 53540.8 Q 305430.4 54416.8 304818.4 55034.8 Q 304206.4 55652.8 303354.4 55652.8 Q 302478.4 55652.8 301860.4 55022.8 Q 301242.4 54392.8 301242.4 53492.8 Q 301242.4 52628.8 301854.4 52016.8 Q 302466.4 51404.8 303330.4 51404.8  Z M 301686.4 56780.8 L 304974.4 56780.8 L 304974.4 69836.8 L 301686.4 69836.8 L 301686.4 56780.8 Z M 308330.4 51968.8 L 311594.4 51968.8 L 311594.4 56780.8 L 313538.4 56780.8 L 313538.4 59600.8 L 311594.4 59600.8 L 311594.4 69836.8 L 308330.4 69836.8 L 308330.4 59600.8 L 306650.4 59600.8 L 306650.4 56780.8 L 308330.4 56780.8 L 308330.4 51968.8 Z M 328336 64256.8 L 317812 64256.8 Q 318040 65648.8 319030 66470.8 Q 320020 67292.8 321556 67292.8 Q 323392 67292.8 324712 66008.8 L 327472 67304.8 Q 326440 68768.8 325000 69470.8 Q 323560 70172.8 321580 70172.8 Q 318508 70172.8 316576 68234.8 Q 314644 66296.8 314644 63380.8 Q 314644 60392.8 316570 58418.8 Q 318496 56444.8 321400 56444.8 Q 324484 56444.8 326416 58418.8 Q 328348 60392.8 328348 63632.8 L 328336 64256.8 Z M 325048 61676.8 Q 324724 60584.8 323770 59900.8 Q 322816 59216.8 321556 59216.8 Q 320188 59216.8 319156 59984.8 Q 318508 60464.8 317956 61676.8 L 325048 61676.8 Z M 337835.2 56780.8 L 341099.2 56780.8 L 341099.2 58112.8 Q 342215.2 57176.8 343121.2 56810.8 Q 344027.2 56444.8 344975.2 56444.8 Q 346919.2 56444.8 348275.2 57800.8 Q 349415.2 58952.8 349415.2 61208.8 L 349415.2 69836.8 L 346175.2 69836.8 L 346175.2 64112.8 Q 346175.2 61772.8 345965.2 61004.8 Q 345755.2 60236.8 345233.2 59834.8 Q 344711.2 59432.8 343943.2 59432.8 Q 342947.2 59432.8 342233.2 60098.8 Q 341519.2 60764.8 341243.2 61940.8 Q 341099.2 62552.8 341099.2 64592.8 L 341099.2 69836.8 L 337835.2 69836.8 L 337835.2 56780.8 Z M 369164.8 55292.8 L 366812.8 57536.8 Q 364412.8 55004.8 361412.8 55004.8 Q 358880.8 55004.8 357146.8 56732.8 Q 355412.8 58460.8 355412.8 60992.8 Q 355412.8 62756.8 356180.8 64124.8 Q 356948.8 65492.8 358352.8 66272.8 Q 359756.8 67052.8 361472.8 67052.8 Q 362936.8 67052.8 364148.8 66506.8 Q 365360.8 65960.8 366812.8 64520.8 L 369092.8 66896.8 Q 367136.8 68804.8 365396.8 69542.8 Q 363656.8 70280.8 361424.8 70280.8 Q 357308.8 70280.8 354686.8 67670.8 Q 352064.8 65060.8 352064.8 60980.8 Q 352064.8 58340.8 353258.8 56288.8 Q 354452.8 54236.8 356678.8 52988.8 Q 358904.8 51740.8 361472.8 51740.8 Q 363656.8 51740.8 365678.8 52664.8 Q 367700.8 53588.8 369164.8 55292.8  Z M 377861.6 56444.8 Q 379709.6 56444.8 381335.6 57368.8 Q 382961.6 58292.8 383873.6 59876.8 Q 384785.6 61460.8 384785.6 63296.8 Q 384785.6 65144.8 383867.6 66752.8 Q 382949.6 68360.8 381365.6 69266.8 Q 379781.6 70172.8 377873.6 70172.8 Q 375065.6 70172.8 373079.6 68174.8 Q 371093.6 66176.8 371093.6 63320.8 Q 371093.6 60260.8 373337.6 58220.8 Q 375305.6 56444.8 377861.6 56444.8  Z M 377909.6 59528.8 Q 376385.6 59528.8 375371.6 60590.8 Q 374357.6 61652.8 374357.6 63308.8 Q 374357.6 65012.8 375359.6 66068.8 Q 376361.6 67124.8 377897.6 67124.8 Q 379433.6 67124.8 380453.6 66056.8 Q 381473.6 64988.8 381473.6 63308.8 Q 381473.6 61628.8 380471.6 60578.8 Q 379469.6 59528.8 377909.6 59528.8  Z M 386464 52184.8 L 389920 52184.8 L 394360 64724.8 L 398860 52184.8 L 402316 52184.8 L 395956 69836.8 L 392716 69836.8 L 386464 52184.8 Z M 407279.2 57872.8 L 404003.2 57872.8 Q 404135.2 55016.8 405797.2 53378.8 Q 407459.2 51740.8 410063.2 51740.8 Q 411671.2 51740.8 412901.2 52418.8 Q 414131.2 53096.8 414869.2 54374.8 Q 415607.2 55652.8 415607.2 56972.8 Q 415607.2 58544.8 414713.2 60356.8 Q 413819.2 62168.8 411443.2 64640.8 L 409463.2 66728.8 L 415751.2 66728.8 L 415751.2 69836.8 L 403523.2 69836.8 L 403523.2 68228.8 L 408983.2 62660.8 Q 410963.2 60656.8 411617.2 59438.8 Q 412271.2 58220.8 412271.2 57236.8 Q 412271.2 56216.8 411593.2 55550.8 Q 410915.2 54884.8 409847.2 54884.8 Q 408767.2 54884.8 408047.2 55688.8 Q 407327.2 56492.8 407279.2 57872.8  Z M 423544.8 51740.8 Q 425476.8 51740.8 426874.8 52688.8 Q 428272.8 53636.8 429034.8 55586.8 Q 429796.8 57536.8 429796.8 61016.8 Q 429796.8 64532.8 429022.8 66488.8 Q 428248.8 68444.8 426940.8 69362.8 Q 425632.8 70280.8 423640.8 70280.8 Q 421648.8 70280.8 420292.8 69356.8 Q 418936.8 68432.8 418168.8 66548.8 Q 417400.8 64664.8 417400.8 61184.8 Q 417400.8 56324.8 418900.8 54140.8 Q 420568.8 51740.8 423544.8 51740.8  Z M 423628.8 54932.8 Q 422776.8 54932.8 422116.8 55478.8 Q 421456.8 56024.8 421108.8 57356.8 Q 420760.8 58688.8 420760.8 61256.8 Q 420760.8 64604.8 421558.8 65882.8 Q 422356.8 67160.8 423628.8 67160.8 Q 424852.8 67160.8 425572.8 65948.8 Q 426448.8 64484.8 426448.8 61052.8 Q 426448.8 57572.8 425662.8 56252.8 Q 424876.8 54932.8 423628.8 54932.8  Z M 434722.4 57872.8 L 431446.4 57872.8 Q 431578.4 55016.8 433240.4 53378.8 Q 434902.4 51740.8 437506.4 51740.8 Q 439114.4 51740.8 440344.4 52418.8 Q 441574.4 53096.8 442312.4 54374.8 Q 443050.4 55652.8 443050.4 56972.8 Q 443050.4 58544.8 442156.4 60356.8 Q 441262.4 62168.8 438886.4 64640.8 L 436906.4 66728.8 L 443194.4 66728.8 L 443194.4 69836.8 L 430966.4 69836.8 L 430966.4 68228.8 L 436426.4 62660.8 Q 438406.4 60656.8 439060.4 59438.8 Q 439714.4 58220.8 439714.4 57236.8 Q 439714.4 56216.8 439036.4 55550.8 Q 438358.4 54884.8 437290.4 54884.8 Q 436210.4 54884.8 435490.4 55688.8 Q 434770.4 56492.8 434722.4 57872.8  Z M 450988 51740.8 Q 452920 51740.8 454318 52688.8 Q 455716 53636.8 456478 55586.8 Q 457240 57536.8 457240 61016.8 Q 457240 64532.8 456466 66488.8 Q 455692 68444.8 454384 69362.8 Q 453076 70280.8 451084 70280.8 Q 449092 70280.8 447736 69356.8 Q 446380 68432.8 445612 66548.8 Q 444844 64664.8 444844 61184.8 Q 444844 56324.8 446344 54140.8 Q 448012 51740.8 450988 51740.8  Z M 451072 54932.8 Q 450220 54932.8 449560 55478.8 Q 448900 56024.8 448552 57356.8 Q 448204 58688.8 448204 61256.8 Q 448204 64604.8 449002 65882.8 Q 449800 67160.8 451072 67160.8 Q 452296 67160.8 453016 65948.8 Q 453892 64484.8 453892 61052.8 Q 453892 57572.8 453106 56252.8 Q 452320 54932.8 451072 54932.8  Z M 461325.6 66416.8 Q 462105.6 66416.8 462657.6 66962.8 Q 463209.6 67508.8 463209.6 68288.8 Q 463209.6 69068.8 462657.6 69620.8 Q 462105.6 70172.8 461325.6 70172.8 Q 460545.6 70172.8 459993.6 69620.8 Q 459441.6 69068.8 459441.6 68288.8 Q 459441.6 67508.8 459993.6 66962.8 Q 460545.6 66416.8 461325.6 66416.8  Z M 472530.4 56444.8 Q 474378.4 56444.8 476004.4 57368.8 Q 477630.4 58292.8 478542.4 59876.8 Q 479454.4 61460.8 479454.4 63296.8 Q 479454.4 65144.8 478536.4 66752.8 Q 477618.4 68360.8 476034.4 69266.8 Q 474450.4 70172.8 472542.4 70172.8 Q 469734.4 70172.8 467748.4 68174.8 Q 465762.4 66176.8 465762.4 63320.8 Q 465762.4 60260.8 468006.4 58220.8 Q 469974.4 56444.8 472530.4 56444.8  Z M 472578.4 59528.8 Q 471054.4 59528.8 470040.4 60590.8 Q 469026.4 61652.8 469026.4 63308.8 Q 469026.4 65012.8 470028.4 66068.8 Q 471030.4 67124.8 472566.4 67124.8 Q 474102.4 67124.8 475122.4 66056.8 Q 476142.4 64988.8 476142.4 63308.8 Q 476142.4 61628.8 475140.4 60578.8 Q 474138.4 59528.8 472578.4 59528.8  Z M 481348.8 56780.8 L 484156.8 56780.8 L 484156.8 58424.8 Q 484612.8 57452.8 485368.8 56948.8 Q 486124.8 56444.8 487024.8 56444.8 Q 487660.8 56444.8 488356.8 56780.8 L 487336.8 59600.8 Q 486760.8 59312.8 486388.8 59312.8 Q 485632.8 59312.8 485110.8 60248.8 Q 484588.8 61184.8 484588.8 63920.8 L 484600.8 64556.8 L 484600.8 69836.8 L 481348.8 69836.8 L 481348.8 56780.8 Z M 499598.4 56780.8 L 502862.4 56780.8 L 502862.4 67964.8 Q 502862.4 71276.8 501530.4 72836.8 Q 499742.4 74948.8 496142.4 74948.8 Q 494222.4 74948.8 492914.4 74468.8 Q 491606.4 73988.8 490706.4 73058.8 Q 489806.4 72128.8 489374.4 70796.8 L 492986.4 70796.8 Q 493466.4 71348.8 494222.4 71630.8 Q 494978.4 71912.8 496010.4 71912.8 Q 497330.4 71912.8 498134.4 71504.8 Q 498938.4 71096.8 499268.4 70448.8 Q 499598.4 69800.8 499598.4 68216.8 Q 498734.4 69080.8 497786.4 69458.8 Q 496838.4 69836.8 495638.4 69836.8 Q 493010.4 69836.8 491198.4 67940.8 Q 489386.4 66044.8 489386.4 63140.8 Q 489386.4 60032.8 491306.4 58148.8 Q 493046.4 56444.8 495458.4 56444.8 Q 496586.4 56444.8 497588.4 56858.8 Q 498590.4 57272.8 499598.4 58220.8 L 499598.4 56780.8 Z M 496202.4 59504.8 Q 494654.4 59504.8 493646.4 60542.8 Q 492638.4 61580.8 492638.4 63152.8 Q 492638.4 64784.8 493670.4 65828.8 Q 494702.4 66872.8 496262.4 66872.8 Q 497786.4 66872.8 498776.4 65852.8 Q 499766.4 64832.8 499766.4 63176.8 Q 499766.4 61544.8 498770.4 60524.8 Q 497774.4 59504.8 496202.4 59504.8  Z M 193201.3 331546.7 L 195428.8 331546.7 Q 197236.3 331546.7 198035.05 331880.45 Q 198833.8 332214.2 199295.05 332960.45 Q 199756.3 333706.7 199756.3 334749.2 Q 199756.3 335904.2 199152.55 336669.2 Q 198548.8 337434.2 197513.8 337734.2 Q 196906.3 337906.7 195301.3 337906.7 L 195301.3 342579.2 L 193201.3 342579.2 L 193201.3 331546.7 Z M 195301.3 335859.2 L 195968.8 335859.2 Q 196756.3 335859.2 197063.8 335746.7 Q 197371.3 335634.2 197547.55 335375.45 Q 197723.8 335116.7 197723.8 334749.2 Q 197723.8 334111.7 197228.8 333819.2 Q 196868.8 333601.7 195893.8 333601.7 L 195301.3 333601.7 L 195301.3 335859.2 Z M 209760.4 339091.7 L 203182.9 339091.7 Q 203325.4 339961.7 203944.15 340475.45 Q 204562.9 340989.2 205522.9 340989.2 Q 206670.4 340989.2 207495.4 340186.7 L 209220.4 340996.7 Q 208575.4 341911.7 207675.4 342350.45 Q 206775.4 342789.2 205537.9 342789.2 Q 203617.9 342789.2 202410.4 341577.95 Q 201202.9 340366.7 201202.9 338544.2 Q 201202.9 336676.7 202406.65 335442.95 Q 203610.4 334209.2 205425.4 334209.2 Q 207352.9 334209.2 208560.4 335442.95 Q 209767.9 336676.7 209767.9 338701.7 L 209760.4 339091.7 Z M 207705.4 337479.2 Q 207502.9 336796.7 206906.65 336369.2 Q 206310.4 335941.7 205522.9 335941.7 Q 204667.9 335941.7 204022.9 336421.7 Q 203617.9 336721.7 203272.9 337479.2 L 207705.4 337479.2 Z M 211415.8 334419.2 L 213455.8 334419.2 L 213455.8 335251.7 Q 214153.3 334666.7 214719.55 334437.95 Q 215285.8 334209.2 215878.3 334209.2 Q 217093.3 334209.2 217940.8 335056.7 Q 218653.3 335776.7 218653.3 337186.7 L 218653.3 342579.2 L 216628.3 342579.2 L 216628.3 339001.7 Q 216628.3 337539.2 216497.05 337059.2 Q 216365.8 336579.2 216039.55 336327.95 Q 215713.3 336076.7 215233.3 336076.7 Q 214610.8 336076.7 214164.55 336492.95 Q 213718.3 336909.2 213545.8 337644.2 Q 213455.8 338026.7 213455.8 339301.7 L 213455.8 342579.2 L 211415.8 342579.2 L 211415.8 334419.2 Z M 226661.8 334419.2 L 228701.8 334419.2 L 228701.8 341409.2 Q 228701.8 343479.2 227869.3 344454.2 Q 226751.8 345774.2 224501.8 345774.2 Q 223301.8 345774.2 222484.3 345474.2 Q 221666.8 345174.2 221104.3 344592.95 Q 220541.8 344011.7 220271.8 343179.2 L 222529.3 343179.2 Q 222829.3 343524.2 223301.8 343700.45 Q 223774.3 343876.7 224419.3 343876.7 Q 225244.3 343876.7 225746.8 343621.7 Q 226249.3 343366.7 226455.55 342961.7 Q 226661.8 342556.7 226661.8 341566.7 Q 226121.8 342106.7 225529.3 342342.95 Q 224936.8 342579.2 224186.8 342579.2 Q 222544.3 342579.2 221411.8 341394.2 Q 220279.3 340209.2 220279.3 338394.2 Q 220279.3 336451.7 221479.3 335274.2 Q 222566.8 334209.2 224074.3 334209.2 Q 224779.3 334209.2 225405.55 334467.95 Q 226031.8 334726.7 226661.8 335319.2 L 226661.8 334419.2 Z M 224539.3 336121.7 Q 223571.8 336121.7 222941.8 336770.45 Q 222311.8 337419.2 222311.8 338401.7 Q 222311.8 339421.7 222956.8 340074.2 Q 223601.8 340726.7 224576.8 340726.7 Q 225529.3 340726.7 226148.05 340089.2 Q 226766.8 339451.7 226766.8 338416.7 Q 226766.8 337396.7 226144.3 336759.2 Q 225521.8 336121.7 224539.3 336121.7  Z M 234659 331546.7 L 241334 331546.7 L 237396.5 340561.7 L 241079 340561.7 L 241079 342579.2 L 234336.5 342579.2 L 238259 333624.2 L 234659 333624.2 L 234659 331546.7 Z M 242706.5 331269.2 L 244739 331269.2 L 244739 335244.2 Q 245339 334726.7 245946.5 334467.95 Q 246554 334209.2 247176.5 334209.2 Q 248391.5 334209.2 249224 335049.2 Q 249936.5 335776.7 249936.5 337186.7 L 249936.5 342579.2 L 247919 342579.2 L 247919 339001.7 Q 247919 337584.2 247784 337081.7 Q 247649 336579.2 247322.75 336331.7 Q 246996.5 336084.2 246516.5 336084.2 Q 245894 336084.2 245447.75 336496.7 Q 245001.5 336909.2 244829 337621.7 Q 244739 337989.2 244739 339301.7 L 244739 342579.2 L 242706.5 342579.2 L 242706.5 331269.2 Z M 257945 334419.2 L 259985 334419.2 L 259985 342579.2 L 257945 342579.2 L 257945 341716.7 Q 257345 342286.7 256741.25 342537.95 Q 256137.5 342789.2 255432.5 342789.2 Q 253850 342789.2 252695 341562.95 Q 251540 340336.7 251540 338514.2 Q 251540 336624.2 252657.5 335416.7 Q 253775 334209.2 255372.5 334209.2 Q 256107.5 334209.2 256752.5 334486.7 Q 257397.5 334764.2 257945 335319.2 L 257945 334419.2 Z M 255792.5 336099.2 Q 254840 336099.2 254210 336770.45 Q 253580 337441.7 253580 338491.7 Q 253580 339549.2 254221.25 340231.7 Q 254862.5 340914.2 255800 340914.2 Q 256767.5 340914.2 257405 340242.95 Q 258042.5 339571.7 258042.5 338484.2 Q 258042.5 337419.2 257405 336759.2 Q 256767.5 336099.2 255792.5 336099.2  Z M 265885.1 334209.2 Q 267040.1 334209.2 268056.35 334786.7 Q 269072.6 335364.2 269642.6 336354.2 Q 270212.6 337344.2 270212.6 338491.7 Q 270212.6 339646.7 269638.85 340651.7 Q 269065.1 341656.7 268075.1 342222.95 Q 267085.1 342789.2 265892.6 342789.2 Q 264137.6 342789.2 262896.35 341540.45 Q 261655.1 340291.7 261655.1 338506.7 Q 261655.1 336594.2 263057.6 335319.2 Q 264287.6 334209.2 265885.1 334209.2  Z M 265915.1 336136.7 Q 264962.6 336136.7 264328.85 336800.45 Q 263695.1 337464.2 263695.1 338499.2 Q 263695.1 339564.2 264321.35 340224.2 Q 264947.6 340884.2 265907.6 340884.2 Q 266867.6 340884.2 267505.1 340216.7 Q 268142.6 339549.2 268142.6 338499.2 Q 268142.6 337449.2 267516.35 336792.95 Q 266890.1 336136.7 265915.1 336136.7  Z M 272865.5 340501.7 L 274328 341236.7 L 272475.5 344401.7 L 271455.5 343914.2 L 272865.5 340501.7 Z M 279819.7 331546.7 L 282077.2 331546.7 L 284132.2 335506.7 L 286172.2 331546.7 L 288399.7 331546.7 L 285174.7 337801.7 L 285174.7 342579.2 L 283059.7 342579.2 L 283059.7 337801.7 L 279819.7 331546.7 Z M 290707.9 331059.2 Q 291247.9 331059.2 291634.15 331449.2 Q 292020.4 331839.2 292020.4 332394.2 Q 292020.4 332941.7 291637.9 333327.95 Q 291255.4 333714.2 290722.9 333714.2 Q 290175.4 333714.2 289789.15 333320.45 Q 289402.9 332926.7 289402.9 332364.2 Q 289402.9 331824.2 289785.4 331441.7 Q 290167.9 331059.2 290707.9 331059.2  Z M 289680.4 334419.2 L 291735.4 334419.2 L 291735.4 342579.2 L 289680.4 342579.2 L 289680.4 334419.2 Z M 297430.2 331546.7 L 304105.2 331546.7 L 300167.7 340561.7 L 303850.2 340561.7 L 303850.2 342579.2 L 297107.7 342579.2 L 301030.2 333624.2 L 297430.2 333624.2 L 297430.2 331546.7 Z M 309302.7 334209.2 Q 310457.7 334209.2 311473.95 334786.7 Q 312490.2 335364.2 313060.2 336354.2 Q 313630.2 337344.2 313630.2 338491.7 Q 313630.2 339646.7 313056.45 340651.7 Q 312482.7 341656.7 311492.7 342222.95 Q 310502.7 342789.2 309310.2 342789.2 Q 307555.2 342789.2 306313.95 341540.45 Q 305072.7 340291.7 305072.7 338506.7 Q 305072.7 336594.2 306475.2 335319.2 Q 307705.2 334209.2 309302.7 334209.2  Z M 309332.7 336136.7 Q 308380.2 336136.7 307746.45 336800.45 Q 307112.7 337464.2 307112.7 338499.2 Q 307112.7 339564.2 307738.95 340224.2 Q 308365.2 340884.2 309325.2 340884.2 Q 310285.2 340884.2 310922.7 340216.7 Q 311560.2 339549.2 311560.2 338499.2 Q 311560.2 337449.2 310933.95 336792.95 Q 310307.7 336136.7 309332.7 336136.7  Z M 315293.1 334419.2 L 317363.1 334419.2 L 317363.1 338349.2 Q 317363.1 339496.7 317520.6 339942.95 Q 317678.1 340389.2 318026.85 340636.7 Q 318375.6 340884.2 318885.6 340884.2 Q 319395.6 340884.2 319751.85 340640.45 Q 320108.1 340396.7 320280.6 339924.2 Q 320408.1 339571.7 320408.1 338416.7 L 320408.1 334419.2 L 322463.1 334419.2 L 322463.1 337876.7 Q 322463.1 340014.2 322125.6 340801.7 Q 321713.1 341761.7 320910.6 342275.45 Q 320108.1 342789.2 318870.6 342789.2 Q 317528.1 342789.2 316699.35 342189.2 Q 315870.6 341589.2 315533.1 340516.7 Q 315293.1 339774.2 315293.1 337816.7 L 315293.1 334419.2 Z M 221105.3 350132.3 L 223235.3 350132.3 L 223235.3 354294.8 L 226925.3 354294.8 L 226925.3 350132.3 L 229047.8 350132.3 L 229047.8 361164.8 L 226925.3 361164.8 L 226925.3 356327.3 L 223235.3 356327.3 L 223235.3 361164.8 L 221105.3 361164.8 L 221105.3 350132.3 Z M 231565.1 350132.3 L 237587.6 350132.3 L 237587.6 352187.3 L 233650.1 352187.3 L 233650.1 354182.3 L 237587.6 354182.3 L 237587.6 356199.8 L 233650.1 356199.8 L 233650.1 359102.3 L 237587.6 359102.3 L 237587.6 361164.8 L 231565.1 361164.8 L 231565.1 350132.3 Z M 245327.3 351632.3 L 243774.8 353004.8 Q 242957.3 351864.8 242109.8 351864.8 Q 241697.3 351864.8 241434.8 352086.05 Q 241172.3 352307.3 241172.3 352584.8 Q 241172.3 352862.3 241359.8 353109.8 Q 241614.8 353439.8 242897.3 354527.3 Q 244097.3 355532.3 244352.3 355794.8 Q 244989.8 356439.8 245256.05 357028.55 Q 245522.3 357617.3 245522.3 358314.8 Q 245522.3 359672.3 244584.8 360557.3 Q 243647.3 361442.3 242139.8 361442.3 Q 240962.3 361442.3 240088.55 360864.8 Q 239214.8 360287.3 238592.3 359049.8 L 240354.8 357984.8 Q 241149.8 359447.3 242184.8 359447.3 Q 242724.8 359447.3 243092.3 359132.3 Q 243459.8 358817.3 243459.8 358404.8 Q 243459.8 358029.8 243182.3 357654.8 Q 242904.8 357279.8 241959.8 356507.3 Q 240159.8 355037.3 239634.8 354238.55 Q 239109.8 353439.8 239109.8 352644.8 Q 239109.8 351497.3 239983.55 350676.05 Q 240857.3 349854.8 242139.8 349854.8 Q 242964.8 349854.8 243711.05 350237.3 Q 244457.3 350619.8 245327.3 351632.3  Z M 248289.5 359087.3 L 249752 359822.3 L 247899.5 362987.3 L 246879.5 362499.8 L 248289.5 359087.3 Z M 255311.2 350132.3 L 257673.7 350132.3 L 259983.7 353664.8 L 262316.2 350132.3 L 264678.7 350132.3 L 261168.7 355472.3 L 264896.2 361164.8 L 262533.7 361164.8 L 259983.7 357287.3 L 257456.2 361164.8 L 255078.7 361164.8 L 258806.2 355472.3 L 255311.2 350132.3 Z M 269221 350132.3 L 271328.5 350132.3 L 271328.5 357452.3 Q 271328.5 359199.8 271051 359904.8 Q 270773.5 360609.8 270136 361026.05 Q 269498.5 361442.3 268606 361442.3 Q 266783.5 361442.3 265501 359844.8 L 267016 358427.3 Q 267518.5 358997.3 267871 359192.3 Q 268223.5 359387.3 268553.5 359387.3 Q 268891 359387.3 269056 359102.3 Q 269221 358817.3 269221 357849.8 L 269221 350132.3 Z M 272761.3 350132.3 L 278858.8 350132.3 L 278858.8 352202.3 L 276848.8 352202.3 L 276848.8 361164.8 L 274718.8 361164.8 L 274718.8 352202.3 L 272761.3 352202.3 L 272761.3 350132.3 Z M 280248.8 350132.3 L 282348.8 350132.3 L 282348.8 359162.3 L 285408.8 359162.3 L 285408.8 361164.8 L 280248.8 361164.8 L 280248.8 350132.3 Z M 286881 350132.3 L 288988.5 350132.3 L 288988.5 357272.3 Q 288988.5 358194.8 289149.75 358577.3 Q 289311 358959.8 289682.25 359188.55 Q 290053.5 359417.3 290578.5 359417.3 Q 291133.5 359417.3 291534.75 359162.3 Q 291936 358907.3 292089.75 358513.55 Q 292243.5 358119.8 292243.5 357009.8 L 292243.5 350132.3 L 294351 350132.3 L 294351 356709.8 Q 294351 358374.8 294163.5 359019.8 Q 293976 359664.8 293447.25 360264.8 Q 292918.5 360864.8 292228.5 361153.55 Q 291538.5 361442.3 290623.5 361442.3 Q 289423.5 361442.3 288534.75 360891.05 Q 287646 360339.8 287263.5 359511.05 Q 286881 358682.3 286881 356709.8 L 286881 350132.3 Z " fill-rule="nonzero" style="fill:#000000;;fill-opacity:1;"/>
</svg>