<svg version="1.1" x="0" y="0" width="100%" height="100%" viewBox="0 0 231424 31334.4" xmlns="http://www.w3.org/2000/svg">
  <path d="M 3907 8190.2 L 7559 8190.2 Q 11090 8190.2 12806 9064.7 Q 14522 9939.2 15633 11908.2 Q 16744 13877.2 16744 16506.2 Q 16744 18376.2 16122.5 19943.7 Q 15501 21511.2 14406.5 22545.2 Q 13312 23579.2 12036 23975.2 Q 10760 24371.2 7614 24371.2 L 3907 24371.2 L 3907 8190.2 Z M 6976 11160.2 L 6976 21357.2 L 8406 21357.2 Q 10518 21357.2 11469.5 20873.2 Q 12421 20389.2 13026 19245.2 Q 13631 18101.2 13631 16429.2 Q 13631 13855.2 12190 12436.2 Q 10892 11160.2 8021 11160.2 L 6976 11160.2 Z M 18631.6 12403.2 L 21205.6 12403.2 L 21205.6 13910.2 Q 21623.6 13019.2 22316.6 12557.2 Q 23009.6 12095.2 23834.6 12095.2 Q 24417.6 12095.2 25055.6 12403.2 L 24120.6 14988.2 Q 23592.6 14724.2 23251.6 14724.2 Q 22558.6 14724.2 22080.1 15582.2 Q 21601.6 16440.2 21601.6 18948.2 L 21612.6 19531.2 L 21612.6 24371.2 L 18631.6 24371.2 L 18631.6 12403.2 Z M 28142.6 21236.2 Q 28857.6 21236.2 29363.6 21736.7 Q 29869.6 22237.2 29869.6 22952.2 Q 29869.6 23667.2 29363.6 24173.2 Q 28857.6 24679.2 28142.6 24679.2 Q 27427.6 24679.2 26921.6 24173.2 Q 26415.6 23667.2 26415.6 22952.2 Q 26415.6 22237.2 26921.6 21736.7 Q 27427.6 21236.2 28142.6 21236.2  Z M 38372.8 8190.2 L 41837.8 8190.2 L 45225.8 13371.2 L 48646.8 8190.2 L 52111.8 8190.2 L 46963.8 16022.2 L 52430.8 24371.2 L 48965.8 24371.2 L 45225.8 18684.2 L 41518.8 24371.2 L 38031.8 24371.2 L 43498.8 16022.2 L 38372.8 8190.2 Z M 55584.6 7475.2 Q 56376.6 7475.2 56943.1 8047.2 Q 57509.6 8619.2 57509.6 9433.2 Q 57509.6 10236.2 56948.6 10802.7 Q 56387.6 11369.2 55606.6 11369.2 Q 54803.6 11369.2 54237.1 10791.7 Q 53670.6 10214.2 53670.6 9389.2 Q 53670.6 8597.2 54231.6 8036.2 Q 54792.6 7475.2 55584.6 7475.2  Z M 54077.6 12403.2 L 57091.6 12403.2 L 57091.6 24371.2 L 54077.6 24371.2 L 54077.6 12403.2 Z M 68627.6 12403.2 L 71619.6 12403.2 L 71619.6 24371.2 L 68627.6 24371.2 L 68627.6 23106.2 Q 67747.6 23942.2 66862.1 24310.7 Q 65976.6 24679.2 64942.6 24679.2 Q 62621.6 24679.2 60927.6 22880.7 Q 59233.6 21082.2 59233.6 18409.2 Q 59233.6 15637.2 60872.6 13866.2 Q 62511.6 12095.2 64854.6 12095.2 Q 65932.6 12095.2 66878.6 12502.2 Q 67824.6 12909.2 68627.6 13723.2 L 68627.6 12403.2 Z M 65470.6 14867.2 Q 64073.6 14867.2 63149.6 15851.7 Q 62225.6 16836.2 62225.6 18376.2 Q 62225.6 19927.2 63166.1 20928.2 Q 64106.6 21929.2 65481.6 21929.2 Q 66900.6 21929.2 67835.6 20944.7 Q 68770.6 19960.2 68770.6 18365.2 Q 68770.6 16803.2 67835.6 15835.2 Q 66900.6 14867.2 65470.6 14867.2  Z M 80252.6 12095.2 Q 81946.6 12095.2 83437.1 12942.2 Q 84927.6 13789.2 85763.6 15241.2 Q 86599.6 16693.2 86599.6 18376.2 Q 86599.6 20070.2 85758.1 21544.2 Q 84916.6 23018.2 83464.6 23848.7 Q 82012.6 24679.2 80263.6 24679.2 Q 77689.6 24679.2 75869.1 22847.7 Q 74048.6 21016.2 74048.6 18398.2 Q 74048.6 15593.2 76105.6 13723.2 Q 77909.6 12095.2 80252.6 12095.2  Z M 80296.6 14922.2 Q 78899.6 14922.2 77970.1 15895.7 Q 77040.6 16869.2 77040.6 18387.2 Q 77040.6 19949.2 77959.1 20917.2 Q 78877.6 21885.2 80285.6 21885.2 Q 81693.6 21885.2 82628.6 20906.2 Q 83563.6 19927.2 83563.6 18387.2 Q 83563.6 16847.2 82645.1 15884.7 Q 81726.6 14922.2 80296.6 14922.2  Z M 87940.8 12403.2 L 91427.8 12403.2 L 93770.8 15670.2 L 96146.8 12403.2 L 99600.8 12403.2 L 95508.8 18068.2 L 100106.8 24371.2 L 96619.8 24371.2 L 93770.8 20444.2 L 90954.8 24371.2 L 87511.8 24371.2 L 92043.8 18068.2 L 87940.8 12403.2 Z M 102791 7475.2 Q 103583 7475.2 104149.5 8047.2 Q 104716 8619.2 104716 9433.2 Q 104716 10236.2 104155 10802.7 Q 103594 11369.2 102813 11369.2 Q 102010 11369.2 101443.5 10791.7 Q 100877 10214.2 100877 9389.2 Q 100877 8597.2 101438 8036.2 Q 101999 7475.2 102791 7475.2  Z M 101284 12403.2 L 104298 12403.2 L 104298 24371.2 L 101284 24371.2 L 101284 12403.2 Z M 115834 12403.2 L 118826 12403.2 L 118826 24371.2 L 115834 24371.2 L 115834 23106.2 Q 114954 23942.2 114068.5 24310.7 Q 113183 24679.2 112149 24679.2 Q 109828 24679.2 108134 22880.7 Q 106440 21082.2 106440 18409.2 Q 106440 15637.2 108079 13866.2 Q 109718 12095.2 112061 12095.2 Q 113139 12095.2 114085 12502.2 Q 115031 12909.2 115834 13723.2 L 115834 12403.2 Z M 112677 14867.2 Q 111280 14867.2 110356 15851.7 Q 109432 16836.2 109432 18376.2 Q 109432 19927.2 110372.5 20928.2 Q 111313 21929.2 112688 21929.2 Q 114107 21929.2 115042 20944.7 Q 115977 19960.2 115977 18365.2 Q 115977 16803.2 115042 15835.2 Q 114107 14867.2 112677 14867.2  Z M 121838 12403.2 L 124830 12403.2 L 124830 13624.2 Q 125853 12766.2 126683.5 12430.7 Q 127514 12095.2 128383 12095.2 Q 130165 12095.2 131408 13338.2 Q 132453 14394.2 132453 16462.2 L 132453 24371.2 L 129483 24371.2 L 129483 19124.2 Q 129483 16979.2 129290.5 16275.2 Q 129098 15571.2 128619.5 15202.7 Q 128141 14834.2 127437 14834.2 Q 126524 14834.2 125869.5 15444.7 Q 125215 16055.2 124962 17133.2 Q 124830 17694.2 124830 19564.2 L 124830 24371.2 L 121838 24371.2 L 121838 12403.2 Z M 144198.8 12403.2 L 147190.8 12403.2 L 147190.8 22655.2 Q 147190.8 25691.2 145969.8 27121.2 Q 144330.8 29057.2 141030.8 29057.2 Q 139270.8 29057.2 138071.8 28617.2 Q 136872.8 28177.2 136047.8 27324.7 Q 135222.8 26472.2 134826.8 25251.2 L 138137.8 25251.2 Q 138577.8 25757.2 139270.8 26015.7 Q 139963.8 26274.2 140909.8 26274.2 Q 142119.8 26274.2 142856.8 25900.2 Q 143593.8 25526.2 143896.3 24932.2 Q 144198.8 24338.2 144198.8 22886.2 Q 143406.8 23678.2 142537.8 24024.7 Q 141668.8 24371.2 140568.8 24371.2 Q 138159.8 24371.2 136498.8 22633.2 Q 134837.8 20895.2 134837.8 18233.2 Q 134837.8 15384.2 136597.8 13657.2 Q 138192.8 12095.2 140403.8 12095.2 Q 141437.8 12095.2 142356.3 12474.7 Q 143274.8 12854.2 144198.8 13723.2 L 144198.8 12403.2 Z M 141085.8 14900.2 Q 139666.8 14900.2 138742.8 15851.7 Q 137818.8 16803.2 137818.8 18244.2 Q 137818.8 19740.2 138764.8 20697.2 Q 139710.8 21654.2 141140.8 21654.2 Q 142537.8 21654.2 143445.3 20719.2 Q 144352.8 19784.2 144352.8 18266.2 Q 144352.8 16770.2 143439.8 15835.2 Q 142526.8 14900.2 141085.8 14900.2  Z M 155598.4 8190.2 L 158634.4 8190.2 L 160966.4 18519.2 L 163859.4 8190.2 L 166422.4 8190.2 L 169348.4 18519.2 L 171658.4 8190.2 L 174694.4 8190.2 L 171053.4 24371.2 L 168094.4 24371.2 L 165113.4 13910.2 L 162187.4 24371.2 L 159261.4 24371.2 L 155598.4 8190.2 Z M 185568.4 12403.2 L 188560.4 12403.2 L 188560.4 24371.2 L 185568.4 24371.2 L 185568.4 23106.2 Q 184688.4 23942.2 183802.9 24310.7 Q 182917.4 24679.2 181883.4 24679.2 Q 179562.4 24679.2 177868.4 22880.7 Q 176174.4 21082.2 176174.4 18409.2 Q 176174.4 15637.2 177813.4 13866.2 Q 179452.4 12095.2 181795.4 12095.2 Q 182873.4 12095.2 183819.4 12502.2 Q 184765.4 12909.2 185568.4 13723.2 L 185568.4 12403.2 Z M 182411.4 14867.2 Q 181014.4 14867.2 180090.4 15851.7 Q 179166.4 16836.2 179166.4 18376.2 Q 179166.4 19927.2 180106.9 20928.2 Q 181047.4 21929.2 182422.4 21929.2 Q 183841.4 21929.2 184776.4 20944.7 Q 185711.4 19960.2 185711.4 18365.2 Q 185711.4 16803.2 184776.4 15835.2 Q 183841.4 14867.2 182411.4 14867.2  Z M 191572.4 12403.2 L 194564.4 12403.2 L 194564.4 13624.2 Q 195587.4 12766.2 196417.9 12430.7 Q 197248.4 12095.2 198117.4 12095.2 Q 199899.4 12095.2 201142.4 13338.2 Q 202187.4 14394.2 202187.4 16462.2 L 202187.4 24371.2 L 199217.4 24371.2 L 199217.4 19124.2 Q 199217.4 16979.2 199024.9 16275.2 Q 198832.4 15571.2 198353.9 15202.7 Q 197875.4 14834.2 197171.4 14834.2 Q 196258.4 14834.2 195603.9 15444.7 Q 194949.4 16055.2 194696.4 17133.2 Q 194564.4 17694.2 194564.4 19564.2 L 194564.4 24371.2 L 191572.4 24371.2 L 191572.4 12403.2 Z M 213933.2 12403.2 L 216925.2 12403.2 L 216925.2 22655.2 Q 216925.2 25691.2 215704.2 27121.2 Q 214065.2 29057.2 210765.2 29057.2 Q 209005.2 29057.2 207806.2 28617.2 Q 206607.2 28177.2 205782.2 27324.7 Q 204957.2 26472.2 204561.2 25251.2 L 207872.2 25251.2 Q 208312.2 25757.2 209005.2 26015.7 Q 209698.2 26274.2 210644.2 26274.2 Q 211854.2 26274.2 212591.2 25900.2 Q 213328.2 25526.2 213630.7 24932.2 Q 213933.2 24338.2 213933.2 22886.2 Q 213141.2 23678.2 212272.2 24024.7 Q 211403.2 24371.2 210303.2 24371.2 Q 207894.2 24371.2 206233.2 22633.2 Q 204572.2 20895.2 204572.2 18233.2 Q 204572.2 15384.2 206332.2 13657.2 Q 207927.2 12095.2 210138.2 12095.2 Q 211172.2 12095.2 212090.7 12474.7 Q 213009.2 12854.2 213933.2 13723.2 L 213933.2 12403.2 Z M 210820.2 14900.2 Q 209401.2 14900.2 208477.2 15851.7 Q 207553.2 16803.2 207553.2 18244.2 Q 207553.2 19740.2 208499.2 20697.2 Q 209445.2 21654.2 210875.2 21654.2 Q 212272.2 21654.2 213179.7 20719.2 Q 214087.2 19784.2 214087.2 18266.2 Q 214087.2 16770.2 213174.2 15835.2 Q 212261.2 14900.2 210820.2 14900.2  Z " fill-rule="nonzero" style="fill:#ffffff;;fill-opacity:1;"/>
</svg>