<svg version="1.1" x="0" y="0" width="100%" height="100%" viewBox="0 0 154572.8 33331.2" xmlns="http://www.w3.org/2000/svg">
  <path d="M 2852 8255.2 L 4772 8255.2 L 10616 21899.2 L 16568 8255.2 L 18488 8255.2 L 10808 25907.2 L 10424 25907.2 L 2852 8255.2 Z M 21762.4 7475.2 Q 22338.4 7475.2 22746.4 7883.2 Q 23154.4 8291.2 23154.4 8867.2 Q 23154.4 9431.2 22746.4 9839.2 Q 22338.4 10247.2 21762.4 10247.2 Q 21198.4 10247.2 20790.4 9839.2 Q 20382.4 9431.2 20382.4 8867.2 Q 20382.4 8291.2 20790.4 7883.2 Q 21198.4 7475.2 21762.4 7475.2  Z M 20922.4 12851.2 L 22614.4 12851.2 L 22614.4 25907.2 L 20922.4 25907.2 L 20922.4 12851.2 Z M 32653.6 14279.2 L 31573.6 15395.2 Q 30229.6 14087.2 28945.6 14087.2 Q 28129.6 14087.2 27547.6 14627.2 Q 26965.6 15167.2 26965.6 15887.2 Q 26965.6 16523.2 27445.6 17099.2 Q 27925.6 17687.2 29461.6 18479.2 Q 31333.6 19451.2 32005.6 20351.2 Q 32665.6 21263.2 32665.6 22403.2 Q 32665.6 24011.2 31537.6 25127.2 Q 30409.6 26243.2 28717.6 26243.2 Q 27589.6 26243.2 26563.6 25751.2 Q 25537.6 25259.2 24865.6 24395.2 L 25921.6 23195.2 Q 27205.6 24647.2 28645.6 24647.2 Q 29653.6 24647.2 30361.6 23999.2 Q 31069.6 23351.2 31069.6 22475.2 Q 31069.6 21755.2 30601.6 21191.2 Q 30133.6 20639.2 28489.6 19799.2 Q 26725.6 18887.2 26089.6 17999.2 Q 25453.6 17111.2 25453.6 15971.2 Q 25453.6 14483.2 26467.6 13499.2 Q 27481.6 12515.2 29029.6 12515.2 Q 30829.6 12515.2 32653.6 14279.2  Z M 35396.8 12851.2 L 37088.8 12851.2 L 37088.8 18947.2 Q 37088.8 21179.2 37328.8 22019.2 Q 37688.8 23219.2 38702.8 23915.2 Q 39716.8 24611.2 41120.8 24611.2 Q 42524.8 24611.2 43502.8 23933.2 Q 44480.8 23255.2 44852.8 22151.2 Q 45104.8 21395.2 45104.8 18947.2 L 45104.8 12851.2 L 46820.8 12851.2 L 46820.8 19259.2 Q 46820.8 21959.2 46190.8 23327.2 Q 45560.8 24695.2 44294.8 25469.2 Q 43028.8 26243.2 41120.8 26243.2 Q 39212.8 26243.2 37934.8 25469.2 Q 36656.8 24695.2 36026.8 23309.2 Q 35396.8 21923.2 35396.8 19139.2 L 35396.8 12851.2 Z M 63520 12851.2 L 63520 25907.2 L 61864 25907.2 L 61864 23663.2 Q 60808 24947.2 59494 25595.2 Q 58180 26243.2 56620 26243.2 Q 53848 26243.2 51886 24233.2 Q 49924 22223.2 49924 19343.2 Q 49924 16523.2 51904 14519.2 Q 53884 12515.2 56668 12515.2 Q 58276 12515.2 59578 13199.2 Q 60880 13883.2 61864 15251.2 L 61864 12851.2 L 63520 12851.2 Z M 56800 14135.2 Q 55396 14135.2 54208 14825.2 Q 53020 15515.2 52318 16763.2 Q 51616 18011.2 51616 19403.2 Q 51616 20783.2 52324 22043.2 Q 53032 23303.2 54226 24005.2 Q 55420 24707.2 56788 24707.2 Q 58168 24707.2 59404 24011.2 Q 60640 23315.2 61306 22127.2 Q 61972 20939.2 61972 19451.2 Q 61972 17183.2 60478 15659.2 Q 58984 14135.2 56800 14135.2  Z M 67002.4 7811.2 L 68682.4 7811.2 L 68682.4 25907.2 L 67002.4 25907.2 L 67002.4 7811.2 Z M 72757.6 7475.2 Q 73333.6 7475.2 73741.6 7883.2 Q 74149.6 8291.2 74149.6 8867.2 Q 74149.6 9431.2 73741.6 9839.2 Q 73333.6 10247.2 72757.6 10247.2 Q 72193.6 10247.2 71785.6 9839.2 Q 71377.6 9431.2 71377.6 8867.2 Q 71377.6 8291.2 71785.6 7883.2 Q 72193.6 7475.2 72757.6 7475.2  Z M 71917.6 12851.2 L 73609.6 12851.2 L 73609.6 25907.2 L 71917.6 25907.2 L 71917.6 12851.2 Z M 76016.8 12851.2 L 85604.8 12851.2 L 78212.8 24419.2 L 85364.8 24419.2 L 85364.8 25907.2 L 75320.8 25907.2 L 82712.8 14327.2 L 76016.8 14327.2 L 76016.8 12851.2 Z M 100486.4 12851.2 L 100486.4 25907.2 L 98830.4 25907.2 L 98830.4 23663.2 Q 97774.4 24947.2 96460.4 25595.2 Q 95146.4 26243.2 93586.4 26243.2 Q 90814.4 26243.2 88852.4 24233.2 Q 86890.4 22223.2 86890.4 19343.2 Q 86890.4 16523.2 88870.4 14519.2 Q 90850.4 12515.2 93634.4 12515.2 Q 95242.4 12515.2 96544.4 13199.2 Q 97846.4 13883.2 98830.4 15251.2 L 98830.4 12851.2 L 100486.4 12851.2 Z M 93766.4 14135.2 Q 92362.4 14135.2 91174.4 14825.2 Q 89986.4 15515.2 89284.4 16763.2 Q 88582.4 18011.2 88582.4 19403.2 Q 88582.4 20783.2 89290.4 22043.2 Q 89998.4 23303.2 91192.4 24005.2 Q 92386.4 24707.2 93754.4 24707.2 Q 95134.4 24707.2 96370.4 24011.2 Q 97606.4 23315.2 98272.4 22127.2 Q 98938.4 20939.2 98938.4 19451.2 Q 98938.4 17183.2 97444.4 15659.2 Q 95950.4 14135.2 93766.4 14135.2  Z M 105684.8 8003.2 L 107376.8 8003.2 L 107376.8 12851.2 L 110040.8 12851.2 L 110040.8 14291.2 L 107376.8 14291.2 L 107376.8 25907.2 L 105684.8 25907.2 L 105684.8 14291.2 L 103392.8 14291.2 L 103392.8 12851.2 L 105684.8 12851.2 L 105684.8 8003.2 Z M 113103.2 7475.2 Q 113679.2 7475.2 114087.2 7883.2 Q 114495.2 8291.2 114495.2 8867.2 Q 114495.2 9431.2 114087.2 9839.2 Q 113679.2 10247.2 113103.2 10247.2 Q 112539.2 10247.2 112131.2 9839.2 Q 111723.2 9431.2 111723.2 8867.2 Q 111723.2 8291.2 112131.2 7883.2 Q 112539.2 7475.2 113103.2 7475.2  Z M 112263.2 12851.2 L 113955.2 12851.2 L 113955.2 25907.2 L 112263.2 25907.2 L 112263.2 12851.2 Z M 123610.4 12515.2 Q 126622.4 12515.2 128602.4 14699.2 Q 130402.4 16691.2 130402.4 19415.2 Q 130402.4 22151.2 128500.4 24197.2 Q 126598.4 26243.2 123610.4 26243.2 Q 120610.4 26243.2 118708.4 24197.2 Q 116806.4 22151.2 116806.4 19415.2 Q 116806.4 16703.2 118606.4 14711.2 Q 120586.4 12515.2 123610.4 12515.2  Z M 123610.4 14159.2 Q 121522.4 14159.2 120022.4 15707.2 Q 118522.4 17255.2 118522.4 19451.2 Q 118522.4 20867.2 119206.4 22091.2 Q 119890.4 23315.2 121054.4 23981.2 Q 122218.4 24647.2 123610.4 24647.2 Q 125002.4 24647.2 126166.4 23981.2 Q 127330.4 23315.2 128014.4 22091.2 Q 128698.4 20867.2 128698.4 19451.2 Q 128698.4 17255.2 127192.4 15707.2 Q 125686.4 14159.2 123610.4 14159.2  Z M 133507.2 12851.2 L 135187.2 12851.2 L 135187.2 15191.2 Q 136195.2 13847.2 137419.2 13181.2 Q 138643.2 12515.2 140083.2 12515.2 Q 141547.2 12515.2 142681.2 13259.2 Q 143815.2 14003.2 144355.2 15263.2 Q 144895.2 16523.2 144895.2 19187.2 L 144895.2 25907.2 L 143227.2 25907.2 L 143227.2 19679.2 Q 143227.2 17423.2 143035.2 16667.2 Q 142735.2 15371.2 141907.2 14717.2 Q 141079.2 14063.2 139747.2 14063.2 Q 138223.2 14063.2 137017.2 15071.2 Q 135811.2 16079.2 135427.2 17567.2 Q 135187.2 18539.2 135187.2 21119.2 L 135187.2 25907.2 L 133507.2 25907.2 L 133507.2 12851.2 Z " fill-rule="nonzero" style="fill:#000000;;fill-opacity:1;"/>
</svg>