<svg version="1.1" x="0" y="0" width="100%" height="100%" viewBox="0 0 146432 33331.2" xmlns="http://www.w3.org/2000/svg">
  <path d="M 3392 25907.2 L 5900 8255.2 L 6188 8255.2 L 13364 22739.2 L 20468 8255.2 L 20756 8255.2 L 23288 25907.2 L 21548 25907.2 L 19820 13283.2 L 13580 25907.2 L 13136 25907.2 L 6812 13187.2 L 5096 25907.2 L 3392 25907.2 Z M 32679.2 12515.2 Q 35691.2 12515.2 37671.2 14699.2 Q 39471.2 16691.2 39471.2 19415.2 Q 39471.2 22151.2 37569.2 24197.2 Q 35667.2 26243.2 32679.2 26243.2 Q 29679.2 26243.2 27777.2 24197.2 Q 25875.2 22151.2 25875.2 19415.2 Q 25875.2 16703.2 27675.2 14711.2 Q 29655.2 12515.2 32679.2 12515.2  Z M 32679.2 14159.2 Q 30591.2 14159.2 29091.2 15707.2 Q 27591.2 17255.2 27591.2 19451.2 Q 27591.2 20867.2 28275.2 22091.2 Q 28959.2 23315.2 30123.2 23981.2 Q 31287.2 24647.2 32679.2 24647.2 Q 34071.2 24647.2 35235.2 23981.2 Q 36399.2 23315.2 37083.2 22091.2 Q 37767.2 20867.2 37767.2 19451.2 Q 37767.2 17255.2 36261.2 15707.2 Q 34755.2 14159.2 32679.2 14159.2  Z M 55608 7811.2 L 55608 25907.2 L 53952 25907.2 L 53952 23663.2 Q 52896 24947.2 51582 25595.2 Q 50268 26243.2 48708 26243.2 Q 45936 26243.2 43974 24233.2 Q 42012 22223.2 42012 19343.2 Q 42012 16523.2 43992 14519.2 Q 45972 12515.2 48756 12515.2 Q 50364 12515.2 51666 13199.2 Q 52968 13883.2 53952 15251.2 L 53952 7811.2 L 55608 7811.2 Z M 48888 14135.2 Q 47484 14135.2 46296 14825.2 Q 45108 15515.2 44406 16763.2 Q 43704 18011.2 43704 19403.2 Q 43704 20783.2 44412 22043.2 Q 45120 23303.2 46314 24005.2 Q 47508 24707.2 48876 24707.2 Q 50256 24707.2 51492 24011.2 Q 52728 23315.2 53394 22127.2 Q 54060 20939.2 54060 19451.2 Q 54060 17183.2 52566 15659.2 Q 51072 14135.2 48888 14135.2  Z M 70361.6 21575.2 L 71777.6 22319.2 Q 71081.6 23687.2 70169.6 24527.2 Q 69257.6 25367.2 68117.6 25805.2 Q 66977.6 26243.2 65537.6 26243.2 Q 62345.6 26243.2 60545.6 24149.2 Q 58745.6 22055.2 58745.6 19415.2 Q 58745.6 16931.2 60269.6 14987.2 Q 62201.6 12515.2 65441.6 12515.2 Q 68777.6 12515.2 70769.6 15047.2 Q 72185.6 16835.2 72209.6 19511.2 L 60473.6 19511.2 Q 60521.6 21791.2 61925.6 23249.2 Q 63329.6 24707.2 65393.6 24707.2 Q 66389.6 24707.2 67331.6 24359.2 Q 68273.6 24011.2 68933.6 23435.2 Q 69593.6 22859.2 70361.6 21575.2  Z M 70361.6 18059.2 Q 70025.6 16715.2 69383.6 15911.2 Q 68741.6 15107.2 67685.6 14615.2 Q 66629.6 14123.2 65465.6 14123.2 Q 63545.6 14123.2 62165.6 15359.2 Q 61157.6 16259.2 60641.6 18059.2 L 70361.6 18059.2 Z M 75040.8 7811.2 L 76720.8 7811.2 L 76720.8 25907.2 L 75040.8 25907.2 L 75040.8 7811.2 Z M 86772 14279.2 L 85692 15395.2 Q 84348 14087.2 83064 14087.2 Q 82248 14087.2 81666 14627.2 Q 81084 15167.2 81084 15887.2 Q 81084 16523.2 81564 17099.2 Q 82044 17687.2 83580 18479.2 Q 85452 19451.2 86124 20351.2 Q 86784 21263.2 86784 22403.2 Q 86784 24011.2 85656 25127.2 Q 84528 26243.2 82836 26243.2 Q 81708 26243.2 80682 25751.2 Q 79656 25259.2 78984 24395.2 L 80040 23195.2 Q 81324 24647.2 82764 24647.2 Q 83772 24647.2 84480 23999.2 Q 85188 23351.2 85188 22475.2 Q 85188 21755.2 84720 21191.2 Q 84252 20639.2 82608 19799.2 Q 80844 18887.2 80208 17999.2 Q 79572 17111.2 79572 15971.2 Q 79572 14483.2 80586 13499.2 Q 81600 12515.2 83148 12515.2 Q 84948 12515.2 86772 14279.2  Z " fill-rule="nonzero" style="fill:#000000;;fill-opacity:1;"/>
</svg>