<svg version="1.1" x="0" y="0" width="100%" height="100%" viewBox="0 0 273100.8 63590.4" xmlns="http://www.w3.org/2000/svg">
  <path d="M 6340 8767.2 L 9904 8767.2 Q 12832 8767.2 14074 9289.2 Q 15316 9811.2 16072 11023.2 Q 16828 12235.2 16828 13891.2 Q 16828 15631.2 15994 16801.2 Q 15160 17971.2 13480 18571.2 L 17656 26419.2 L 13984 26419.2 L 10012 18943.2 L 9700 18943.2 L 9700 26419.2 L 6340 26419.2 L 6340 8767.2 Z M 9700 15667.2 L 10756 15667.2 Q 12364 15667.2 12970 15247.2 Q 13576 14827.2 13576 13855.2 Q 13576 13279.2 13276 12853.2 Q 12976 12427.2 12472 12241.2 Q 11968 12055.2 10624 12055.2 L 9700 12055.2 L 9700 15667.2 Z M 28910.4 8767.2 L 32198.4 8767.2 L 36278.4 21079.2 L 40418.4 8767.2 L 43658.4 8767.2 L 46634.4 26419.2 L 43394.4 26419.2 L 41498.4 15271.2 L 37742.4 26419.2 L 34778.4 26419.2 L 31070.4 15271.2 L 29138.4 26419.2 L 25862.4 26419.2 L 28910.4 8767.2 Z M 58561.6 13363.2 L 61825.6 13363.2 L 61825.6 26419.2 L 58561.6 26419.2 L 58561.6 25039.2 Q 57601.6 25951.2 56635.6 26353.2 Q 55669.6 26755.2 54541.6 26755.2 Q 52009.6 26755.2 50161.6 24793.2 Q 48313.6 22831.2 48313.6 19915.2 Q 48313.6 16891.2 50101.6 14959.2 Q 51889.6 13027.2 54445.6 13027.2 Q 55621.6 13027.2 56653.6 13471.2 Q 57685.6 13915.2 58561.6 14803.2 L 58561.6 13363.2 Z M 55117.6 16051.2 Q 53593.6 16051.2 52585.6 17125.2 Q 51577.6 18199.2 51577.6 19879.2 Q 51577.6 21571.2 52603.6 22663.2 Q 53629.6 23755.2 55129.6 23755.2 Q 56677.6 23755.2 57697.6 22681.2 Q 58717.6 21607.2 58717.6 19867.2 Q 58717.6 18163.2 57697.6 17107.2 Q 56677.6 16051.2 55117.6 16051.2  Z M 64324.8 13363.2 L 67132.8 13363.2 L 67132.8 15007.2 Q 67588.8 14035.2 68344.8 13531.2 Q 69100.8 13027.2 70000.8 13027.2 Q 70636.8 13027.2 71332.8 13363.2 L 70312.8 16183.2 Q 69736.8 15895.2 69364.8 15895.2 Q 68608.8 15895.2 68086.8 16831.2 Q 67564.8 17767.2 67564.8 20503.2 L 67576.8 21139.2 L 67576.8 26419.2 L 64324.8 26419.2 L 64324.8 13363.2 Z M 72950.4 8323.2 L 76226.4 8323.2 L 76226.4 18751.2 L 81050.4 13363.2 L 85154.4 13363.2 L 79538.4 19627.2 L 85838.4 26419.2 L 81770.4 26419.2 L 76226.4 20407.2 L 76226.4 26419.2 L 72950.4 26419.2 L 72950.4 8323.2 Z M 96808 8323.2 L 100072 8323.2 L 100072 26419.2 L 96808 26419.2 L 96808 25039.2 Q 95848 25951.2 94882 26353.2 Q 93916 26755.2 92788 26755.2 Q 90256 26755.2 88408 24793.2 Q 86560 22831.2 86560 19915.2 Q 86560 16891.2 88348 14959.2 Q 90136 13027.2 92692 13027.2 Q 93868 13027.2 94900 13471.2 Q 95932 13915.2 96808 14803.2 L 96808 8323.2 Z M 93364 16051.2 Q 91840 16051.2 90832 17125.2 Q 89824 18199.2 89824 19879.2 Q 89824 21571.2 90850 22663.2 Q 91876 23755.2 93376 23755.2 Q 94924 23755.2 95944 22681.2 Q 96964 21607.2 96964 19867.2 Q 96964 18163.2 95944 17107.2 Q 94924 16051.2 93364 16051.2  Z M 109471.2 13027.2 Q 111319.2 13027.2 112945.2 13951.2 Q 114571.2 14875.2 115483.2 16459.2 Q 116395.2 18043.2 116395.2 19879.2 Q 116395.2 21727.2 115477.2 23335.2 Q 114559.2 24943.2 112975.2 25849.2 Q 111391.2 26755.2 109483.2 26755.2 Q 106675.2 26755.2 104689.2 24757.2 Q 102703.2 22759.2 102703.2 19903.2 Q 102703.2 16843.2 104947.2 14803.2 Q 106915.2 13027.2 109471.2 13027.2  Z M 109519.2 16111.2 Q 107995.2 16111.2 106981.2 17173.2 Q 105967.2 18235.2 105967.2 19891.2 Q 105967.2 21595.2 106969.2 22651.2 Q 107971.2 23707.2 109507.2 23707.2 Q 111043.2 23707.2 112063.2 22639.2 Q 113083.2 21571.2 113083.2 19891.2 Q 113083.2 18211.2 112081.2 17161.2 Q 111079.2 16111.2 109519.2 16111.2  Z M 117605.6 13363.2 L 120809.6 13363.2 L 123437.6 20791.2 L 126269.6 13363.2 L 128225.6 13363.2 L 130997.6 20707.2 L 133625.6 13363.2 L 136853.6 13363.2 L 132089.6 26419.2 L 130013.6 26419.2 L 127229.6 18979.2 L 124361.6 26419.2 L 122309.6 26419.2 L 117605.6 13363.2 Z M 138667.2 13363.2 L 141931.2 13363.2 L 141931.2 14695.2 Q 143047.2 13759.2 143953.2 13393.2 Q 144859.2 13027.2 145807.2 13027.2 Q 147751.2 13027.2 149107.2 14383.2 Q 150247.2 15535.2 150247.2 17791.2 L 150247.2 26419.2 L 147007.2 26419.2 L 147007.2 20695.2 Q 147007.2 18355.2 146797.2 17587.2 Q 146587.2 16819.2 146065.2 16417.2 Q 145543.2 16015.2 144775.2 16015.2 Q 143779.2 16015.2 143065.2 16681.2 Q 142351.2 17347.2 142075.2 18523.2 Q 141931.2 19135.2 141931.2 21175.2 L 141931.2 26419.2 L 138667.2 26419.2 L 138667.2 13363.2 Z M 158893.6 8767.2 L 168649.6 8767.2 L 168649.6 12079.2 L 165433.6 12079.2 L 165433.6 26419.2 L 162025.6 26419.2 L 162025.6 12079.2 L 158893.6 12079.2 L 158893.6 8767.2 Z M 183644.8 20839.2 L 173120.8 20839.2 Q 173348.8 22231.2 174338.8 23053.2 Q 175328.8 23875.2 176864.8 23875.2 Q 178700.8 23875.2 180020.8 22591.2 L 182780.8 23887.2 Q 181748.8 25351.2 180308.8 26053.2 Q 178868.8 26755.2 176888.8 26755.2 Q 173816.8 26755.2 171884.8 24817.2 Q 169952.8 22879.2 169952.8 19963.2 Q 169952.8 16975.2 171878.8 15001.2 Q 173804.8 13027.2 176708.8 13027.2 Q 179792.8 13027.2 181724.8 15001.2 Q 183656.8 16975.2 183656.8 20215.2 L 183644.8 20839.2 Z M 180356.8 18259.2 Q 180032.8 17167.2 179078.8 16483.2 Q 178124.8 15799.2 176864.8 15799.2 Q 175496.8 15799.2 174464.8 16567.2 Q 173816.8 17047.2 173264.8 18259.2 L 180356.8 18259.2 Z M 186259.2 13363.2 L 189547.2 13363.2 L 189547.2 14863.2 Q 190387.2 13939.2 191413.2 13483.2 Q 192439.2 13027.2 193651.2 13027.2 Q 194875.2 13027.2 195859.2 13627.2 Q 196843.2 14227.2 197443.2 15379.2 Q 198223.2 14227.2 199357.2 13627.2 Q 200491.2 13027.2 201835.2 13027.2 Q 203227.2 13027.2 204283.2 13675.2 Q 205339.2 14323.2 205801.2 15367.2 Q 206263.2 16411.2 206263.2 18763.2 L 206263.2 26419.2 L 202963.2 26419.2 L 202963.2 19795.2 Q 202963.2 17575.2 202411.2 16789.2 Q 201859.2 16003.2 200755.2 16003.2 Q 199915.2 16003.2 199249.2 16483.2 Q 198583.2 16963.2 198259.2 17809.2 Q 197935.2 18655.2 197935.2 20527.2 L 197935.2 26419.2 L 194635.2 26419.2 L 194635.2 20095.2 Q 194635.2 18343.2 194377.2 17557.2 Q 194119.2 16771.2 193603.2 16387.2 Q 193087.2 16003.2 192355.2 16003.2 Q 191539.2 16003.2 190873.2 16489.2 Q 190207.2 16975.2 189877.2 17851.2 Q 189547.2 18727.2 189547.2 20611.2 L 189547.2 26419.2 L 186259.2 26419.2 L 186259.2 13363.2 Z M 212626.4 13363.2 L 212626.4 14803.2 Q 213514.4 13915.2 214546.4 13471.2 Q 215578.4 13027.2 216754.4 13027.2 Q 219310.4 13027.2 221098.4 14959.2 Q 222886.4 16891.2 222886.4 19915.2 Q 222886.4 22831.2 221038.4 24793.2 Q 219190.4 26755.2 216658.4 26755.2 Q 215530.4 26755.2 214558.4 26353.2 Q 213586.4 25951.2 212626.4 25039.2 L 212626.4 31195.2 L 209374.4 31195.2 L 209374.4 13363.2 L 212626.4 13363.2 Z M 216070.4 16051.2 Q 214522.4 16051.2 213502.4 17107.2 Q 212482.4 18163.2 212482.4 19867.2 Q 212482.4 21607.2 213502.4 22681.2 Q 214522.4 23755.2 216070.4 23755.2 Q 217570.4 23755.2 218596.4 22663.2 Q 219622.4 21571.2 219622.4 19879.2 Q 219622.4 18199.2 218614.4 17125.2 Q 217606.4 16051.2 216070.4 16051.2  Z M 225205.6 8323.2 L 228481.6 8323.2 L 228481.6 26419.2 L 225205.6 26419.2 L 225205.6 8323.2 Z M 241089.6 13363.2 L 244353.6 13363.2 L 244353.6 26419.2 L 241089.6 26419.2 L 241089.6 25039.2 Q 240129.6 25951.2 239163.6 26353.2 Q 238197.6 26755.2 237069.6 26755.2 Q 234537.6 26755.2 232689.6 24793.2 Q 230841.6 22831.2 230841.6 19915.2 Q 230841.6 16891.2 232629.6 14959.2 Q 234417.6 13027.2 236973.6 13027.2 Q 238149.6 13027.2 239181.6 13471.2 Q 240213.6 13915.2 241089.6 14803.2 L 241089.6 13363.2 Z M 237645.6 16051.2 Q 236121.6 16051.2 235113.6 17125.2 Q 234105.6 18199.2 234105.6 19879.2 Q 234105.6 21571.2 235131.6 22663.2 Q 236157.6 23755.2 237657.6 23755.2 Q 239205.6 23755.2 240225.6 22681.2 Q 241245.6 21607.2 241245.6 19867.2 Q 241245.6 18163.2 240225.6 17107.2 Q 239205.6 16051.2 237645.6 16051.2  Z M 248016.8 8551.2 L 251280.8 8551.2 L 251280.8 13363.2 L 253224.8 13363.2 L 253224.8 16183.2 L 251280.8 16183.2 L 251280.8 26419.2 L 248016.8 26419.2 L 248016.8 16183.2 L 246336.8 16183.2 L 246336.8 13363.2 L 248016.8 13363.2 L 248016.8 8551.2 Z M 268022.4 20839.2 L 257498.4 20839.2 Q 257726.4 22231.2 258716.4 23053.2 Q 259706.4 23875.2 261242.4 23875.2 Q 263078.4 23875.2 264398.4 22591.2 L 267158.4 23887.2 Q 266126.4 25351.2 264686.4 26053.2 Q 263246.4 26755.2 261266.4 26755.2 Q 258194.4 26755.2 256262.4 24817.2 Q 254330.4 22879.2 254330.4 19963.2 Q 254330.4 16975.2 256256.4 15001.2 Q 258182.4 13027.2 261086.4 13027.2 Q 264170.4 13027.2 266102.4 15001.2 Q 268034.4 16975.2 268034.4 20215.2 L 268022.4 20839.2 Z M 264734.4 18259.2 Q 264410.4 17167.2 263456.4 16483.2 Q 262502.4 15799.2 261242.4 15799.2 Q 259874.4 15799.2 258842.4 16567.2 Q 258194.4 17047.2 257642.4 18259.2 L 264734.4 18259.2 Z M 39724.8 43110.4 L 40888.8 43110.4 Q 40900.8 40542.4 40972.8 40074.4 Q 41104.8 38994.4 41878.8 38364.4 Q 42652.8 37734.4 44068.8 37734.4 Q 45088.8 37734.4 46372.8 38202.4 L 46372.8 40698.4 Q 45664.8 40494.4 45208.8 40494.4 Q 44632.8 40494.4 44368.8 40734.4 Q 44176.8 40914.4 44176.8 41478.4 L 44164.8 43110.4 L 46240.8 43110.4 L 46240.8 45894.4 L 44164.8 45894.4 L 44164.8 56166.4 L 40888.8 56166.4 L 40888.8 45894.4 L 39724.8 45894.4 L 39724.8 43110.4 Z M 54277.6 42774.4 Q 56125.6 42774.4 57751.6 43698.4 Q 59377.6 44622.4 60289.6 46206.4 Q 61201.6 47790.4 61201.6 49626.4 Q 61201.6 51474.4 60283.6 53082.4 Q 59365.6 54690.4 57781.6 55596.4 Q 56197.6 56502.4 54289.6 56502.4 Q 51481.6 56502.4 49495.6 54504.4 Q 47509.6 52506.4 47509.6 49650.4 Q 47509.6 46590.4 49753.6 44550.4 Q 51721.6 42774.4 54277.6 42774.4  Z M 54325.6 45858.4 Q 52801.6 45858.4 51787.6 46920.4 Q 50773.6 47982.4 50773.6 49638.4 Q 50773.6 51342.4 51775.6 52398.4 Q 52777.6 53454.4 54313.6 53454.4 Q 55849.6 53454.4 56869.6 52386.4 Q 57889.6 51318.4 57889.6 49638.4 Q 57889.6 47958.4 56887.6 46908.4 Q 55885.6 45858.4 54325.6 45858.4  Z M 63096 43110.4 L 65904 43110.4 L 65904 44754.4 Q 66360 43782.4 67116 43278.4 Q 67872 42774.4 68772 42774.4 Q 69408 42774.4 70104 43110.4 L 69084 45930.4 Q 68508 45642.4 68136 45642.4 Q 67380 45642.4 66858 46578.4 Q 66336 47514.4 66336 50250.4 L 66348 50886.4 L 66348 56166.4 L 63096 56166.4 L 63096 43110.4 Z M 77766.4 38514.4 L 81546.4 38514.4 L 85242.4 44166.4 L 88974.4 38514.4 L 92754.4 38514.4 L 87138.4 47058.4 L 93102.4 56166.4 L 89322.4 56166.4 L 85242.4 49962.4 L 81198.4 56166.4 L 77394.4 56166.4 L 83358.4 47058.4 L 77766.4 38514.4 Z M 100001.6 38514.4 L 103373.6 38514.4 L 103373.6 50226.4 Q 103373.6 53022.4 102929.6 54150.4 Q 102485.6 55278.4 101465.6 55944.4 Q 100445.6 56610.4 99017.6 56610.4 Q 96101.6 56610.4 94049.6 54054.4 L 96473.6 51786.4 Q 97277.6 52698.4 97841.6 53010.4 Q 98405.6 53322.4 98933.6 53322.4 Q 99473.6 53322.4 99737.6 52866.4 Q 100001.6 52410.4 100001.6 50862.4 L 100001.6 38514.4 Z M 105645.6 38514.4 L 115401.6 38514.4 L 115401.6 41826.4 L 112185.6 41826.4 L 112185.6 56166.4 L 108777.6 56166.4 L 108777.6 41826.4 L 105645.6 41826.4 L 105645.6 38514.4 Z M 117676.8 38514.4 L 121036.8 38514.4 L 121036.8 52962.4 L 125932.8 52962.4 L 125932.8 56166.4 L 117676.8 56166.4 L 117676.8 38514.4 Z M 128360 38514.4 L 131732 38514.4 L 131732 49938.4 Q 131732 51414.4 131990 52026.4 Q 132248 52638.4 132842 53004.4 Q 133436 53370.4 134276 53370.4 Q 135164 53370.4 135806 52962.4 Q 136448 52554.4 136694 51924.4 Q 136940 51294.4 136940 49518.4 L 136940 38514.4 L 140312 38514.4 L 140312 49038.4 Q 140312 51702.4 140012 52734.4 Q 139712 53766.4 138866 54726.4 Q 138020 55686.4 136916 56148.4 Q 135812 56610.4 134348 56610.4 Q 132428 56610.4 131006 55728.4 Q 129584 54846.4 128972 53520.4 Q 128360 52194.4 128360 49038.4 L 128360 38514.4 Z M 153951.2 43110.4 L 153951.2 44550.4 Q 154839.2 43662.4 155871.2 43218.4 Q 156903.2 42774.4 158079.2 42774.4 Q 160635.2 42774.4 162423.2 44706.4 Q 164211.2 46638.4 164211.2 49662.4 Q 164211.2 52578.4 162363.2 54540.4 Q 160515.2 56502.4 157983.2 56502.4 Q 156855.2 56502.4 155883.2 56100.4 Q 154911.2 55698.4 153951.2 54786.4 L 153951.2 60942.4 L 150699.2 60942.4 L 150699.2 43110.4 L 153951.2 43110.4 Z M 157395.2 45798.4 Q 155847.2 45798.4 154827.2 46854.4 Q 153807.2 47910.4 153807.2 49614.4 Q 153807.2 51354.4 154827.2 52428.4 Q 155847.2 53502.4 157395.2 53502.4 Q 158895.2 53502.4 159921.2 52410.4 Q 160947.2 51318.4 160947.2 49626.4 Q 160947.2 47946.4 159939.2 46872.4 Q 158931.2 45798.4 157395.2 45798.4  Z M 173010.4 42774.4 Q 174858.4 42774.4 176484.4 43698.4 Q 178110.4 44622.4 179022.4 46206.4 Q 179934.4 47790.4 179934.4 49626.4 Q 179934.4 51474.4 179016.4 53082.4 Q 178098.4 54690.4 176514.4 55596.4 Q 174930.4 56502.4 173022.4 56502.4 Q 170214.4 56502.4 168228.4 54504.4 Q 166242.4 52506.4 166242.4 49650.4 Q 166242.4 46590.4 168486.4 44550.4 Q 170454.4 42774.4 173010.4 42774.4  Z M 173058.4 45858.4 Q 171534.4 45858.4 170520.4 46920.4 Q 169506.4 47982.4 169506.4 49638.4 Q 169506.4 51342.4 170508.4 52398.4 Q 171510.4 53454.4 173046.4 53454.4 Q 174582.4 53454.4 175602.4 52386.4 Q 176622.4 51318.4 176622.4 49638.4 Q 176622.4 47958.4 175620.4 46908.4 Q 174618.4 45858.4 173058.4 45858.4  Z M 190588.8 44934.4 L 188560.8 46962.4 Q 187324.8 45738.4 186316.8 45738.4 Q 185764.8 45738.4 185452.8 45972.4 Q 185140.8 46206.4 185140.8 46554.4 Q 185140.8 46818.4 185338.8 47040.4 Q 185536.8 47262.4 186316.8 47646.4 L 187516.8 48246.4 Q 189412.8 49182.4 190120.8 50154.4 Q 190828.8 51126.4 190828.8 52434.4 Q 190828.8 54174.4 189550.8 55338.4 Q 188272.8 56502.4 186124.8 56502.4 Q 183268.8 56502.4 181564.8 54270.4 L 183580.8 52074.4 Q 184156.8 52746.4 184930.8 53160.4 Q 185704.8 53574.4 186304.8 53574.4 Q 186952.8 53574.4 187348.8 53262.4 Q 187744.8 52950.4 187744.8 52542.4 Q 187744.8 51786.4 186316.8 51066.4 L 185212.8 50514.4 Q 182044.8 48918.4 182044.8 46518.4 Q 182044.8 44970.4 183238.8 43872.4 Q 184432.8 42774.4 186292.8 42774.4 Q 187564.8 42774.4 188686.8 43332.4 Q 189808.8 43890.4 190588.8 44934.4  Z M 193796 38298.4 L 197060 38298.4 L 197060 43110.4 L 199004 43110.4 L 199004 45930.4 L 197060 45930.4 L 197060 56166.4 L 193796 56166.4 L 193796 45930.4 L 192116 45930.4 L 192116 43110.4 L 193796 43110.4 L 193796 38298.4 Z M 213801.6 50586.4 L 203277.6 50586.4 Q 203505.6 51978.4 204495.6 52800.4 Q 205485.6 53622.4 207021.6 53622.4 Q 208857.6 53622.4 210177.6 52338.4 L 212937.6 53634.4 Q 211905.6 55098.4 210465.6 55800.4 Q 209025.6 56502.4 207045.6 56502.4 Q 203973.6 56502.4 202041.6 54564.4 Q 200109.6 52626.4 200109.6 49710.4 Q 200109.6 46722.4 202035.6 44748.4 Q 203961.6 42774.4 206865.6 42774.4 Q 209949.6 42774.4 211881.6 44748.4 Q 213813.6 46722.4 213813.6 49962.4 L 213801.6 50586.4 Z M 210513.6 48006.4 Q 210189.6 46914.4 209235.6 46230.4 Q 208281.6 45546.4 207021.6 45546.4 Q 205653.6 45546.4 204621.6 46314.4 Q 203973.6 46794.4 203421.6 48006.4 L 210513.6 48006.4 Z M 215672 43110.4 L 218480 43110.4 L 218480 44754.4 Q 218936 43782.4 219692 43278.4 Q 220448 42774.4 221348 42774.4 Q 221984 42774.4 222680 43110.4 L 221660 45930.4 Q 221084 45642.4 220712 45642.4 Q 219956 45642.4 219434 46578.4 Q 218912 47514.4 218912 50250.4 L 218924 50886.4 L 218924 56166.4 L 215672 56166.4 L 215672 43110.4 Z M 232265.6 44934.4 L 230237.6 46962.4 Q 229001.6 45738.4 227993.6 45738.4 Q 227441.6 45738.4 227129.6 45972.4 Q 226817.6 46206.4 226817.6 46554.4 Q 226817.6 46818.4 227015.6 47040.4 Q 227213.6 47262.4 227993.6 47646.4 L 229193.6 48246.4 Q 231089.6 49182.4 231797.6 50154.4 Q 232505.6 51126.4 232505.6 52434.4 Q 232505.6 54174.4 231227.6 55338.4 Q 229949.6 56502.4 227801.6 56502.4 Q 224945.6 56502.4 223241.6 54270.4 L 225257.6 52074.4 Q 225833.6 52746.4 226607.6 53160.4 Q 227381.6 53574.4 227981.6 53574.4 Q 228629.6 53574.4 229025.6 53262.4 Q 229421.6 52950.4 229421.6 52542.4 Q 229421.6 51786.4 227993.6 51066.4 L 226889.6 50514.4 Q 223721.6 48918.4 223721.6 46518.4 Q 223721.6 44970.4 224915.6 43872.4 Q 226109.6 42774.4 227969.6 42774.4 Q 229241.6 42774.4 230363.6 43332.4 Q 231485.6 43890.4 232265.6 44934.4  Z " fill-rule="nonzero" style="fill:#f64747;;fill-opacity:1;"/>
</svg>