<svg version="1.1" x="0" y="0" width="100%" height="100%" viewBox="0 0 189440 62566.4" xmlns="http://www.w3.org/2000/svg">
  <path d="M 3296 21743.2 L 13364 17099.2 L 3296 12419.2 L 3296 10655.2 L 15692 16307.2 L 15692 17867.2 L 3296 23495.2 L 3296 21743.2 Z M 35738.4 8255.2 L 35738.4 9935.2 L 29450.4 9935.2 L 28574.4 14747.2 Q 29726.4 14411.2 30650.4 14411.2 Q 33062.4 14411.2 34628.4 16025.2 Q 36194.4 17639.2 36194.4 20159.2 Q 36194.4 21899.2 35390.4 23351.2 Q 34586.4 24803.2 33212.4 25577.2 Q 31838.4 26351.2 30038.4 26351.2 Q 27890.4 26351.2 26414.4 25037.2 Q 24938.4 23723.2 24650.4 21635.2 L 26462.4 21635.2 Q 26666.4 22655.2 27152.4 23291.2 Q 27638.4 23927.2 28448.4 24317.2 Q 29258.4 24707.2 30146.4 24707.2 Q 31886.4 24707.2 33134.4 23387.2 Q 34382.4 22067.2 34382.4 20087.2 Q 34382.4 18299.2 33254.4 17183.2 Q 32126.4 16067.2 30242.4 16067.2 Q 28682.4 16067.2 26462.4 17015.2 L 28094.4 8255.2 L 35738.4 8255.2 Z M 38053.6 17087.2 Q 38053.6 13595.2 38803.6 11687.2 Q 39553.6 9779.2 40921.6 8795.2 Q 42289.6 7811.2 43981.6 7811.2 Q 45697.6 7811.2 47089.6 8801.2 Q 48481.6 9791.2 49291.6 11771.2 Q 50101.6 13751.2 50101.6 17087.2 Q 50101.6 20411.2 49303.6 22379.2 Q 48505.6 24347.2 47101.6 25349.2 Q 45697.6 26351.2 43981.6 26351.2 Q 42289.6 26351.2 40933.6 25379.2 Q 39577.6 24407.2 38815.6 22481.2 Q 38053.6 20555.2 38053.6 17087.2  Z M 39721.6 17123.2 Q 39721.6 20111.2 40255.6 21641.2 Q 40789.6 23171.2 41833.6 23963.2 Q 42877.6 24755.2 44041.6 24755.2 Q 45217.6 24755.2 46237.6 23981.2 Q 47257.6 23207.2 47785.6 21659.2 Q 48445.6 19775.2 48445.6 17123.2 Q 48445.6 14459.2 47857.6 12761.2 Q 47269.6 11063.2 46231.6 10277.2 Q 45193.6 9491.2 44041.6 9491.2 Q 42865.6 9491.2 41833.6 10277.2 Q 40801.6 11063.2 40261.6 12593.2 Q 39721.6 14123.2 39721.6 17123.2  Z M 54432.8 22667.2 L 56052.8 23435.2 L 53616.8 27971.2 L 52428.8 27467.2 L 54432.8 22667.2 Z M 58431.2 17087.2 Q 58431.2 13595.2 59181.2 11687.2 Q 59931.2 9779.2 61299.2 8795.2 Q 62667.2 7811.2 64359.2 7811.2 Q 66075.2 7811.2 67467.2 8801.2 Q 68859.2 9791.2 69669.2 11771.2 Q 70479.2 13751.2 70479.2 17087.2 Q 70479.2 20411.2 69681.2 22379.2 Q 68883.2 24347.2 67479.2 25349.2 Q 66075.2 26351.2 64359.2 26351.2 Q 62667.2 26351.2 61311.2 25379.2 Q 59955.2 24407.2 59193.2 22481.2 Q 58431.2 20555.2 58431.2 17087.2  Z M 60099.2 17123.2 Q 60099.2 20111.2 60633.2 21641.2 Q 61167.2 23171.2 62211.2 23963.2 Q 63255.2 24755.2 64419.2 24755.2 Q 65595.2 24755.2 66615.2 23981.2 Q 67635.2 23207.2 68163.2 21659.2 Q 68823.2 19775.2 68823.2 17123.2 Q 68823.2 14459.2 68235.2 12761.2 Q 67647.2 11063.2 66609.2 10277.2 Q 65571.2 9491.2 64419.2 9491.2 Q 63243.2 9491.2 62211.2 10277.2 Q 61179.2 11063.2 60639.2 12593.2 Q 60099.2 14123.2 60099.2 17123.2  Z M 72050.4 17087.2 Q 72050.4 13595.2 72800.4 11687.2 Q 73550.4 9779.2 74918.4 8795.2 Q 76286.4 7811.2 77978.4 7811.2 Q 79694.4 7811.2 81086.4 8801.2 Q 82478.4 9791.2 83288.4 11771.2 Q 84098.4 13751.2 84098.4 17087.2 Q 84098.4 20411.2 83300.4 22379.2 Q 82502.4 24347.2 81098.4 25349.2 Q 79694.4 26351.2 77978.4 26351.2 Q 76286.4 26351.2 74930.4 25379.2 Q 73574.4 24407.2 72812.4 22481.2 Q 72050.4 20555.2 72050.4 17087.2  Z M 73718.4 17123.2 Q 73718.4 20111.2 74252.4 21641.2 Q 74786.4 23171.2 75830.4 23963.2 Q 76874.4 24755.2 78038.4 24755.2 Q 79214.4 24755.2 80234.4 23981.2 Q 81254.4 23207.2 81782.4 21659.2 Q 82442.4 19775.2 82442.4 17123.2 Q 82442.4 14459.2 81854.4 12761.2 Q 81266.4 11063.2 80228.4 10277.2 Q 79190.4 9491.2 78038.4 9491.2 Q 76862.4 9491.2 75830.4 10277.2 Q 74798.4 11063.2 74258.4 12593.2 Q 73718.4 14123.2 73718.4 17123.2  Z M 85669.6 17087.2 Q 85669.6 13595.2 86419.6 11687.2 Q 87169.6 9779.2 88537.6 8795.2 Q 89905.6 7811.2 91597.6 7811.2 Q 93313.6 7811.2 94705.6 8801.2 Q 96097.6 9791.2 96907.6 11771.2 Q 97717.6 13751.2 97717.6 17087.2 Q 97717.6 20411.2 96919.6 22379.2 Q 96121.6 24347.2 94717.6 25349.2 Q 93313.6 26351.2 91597.6 26351.2 Q 89905.6 26351.2 88549.6 25379.2 Q 87193.6 24407.2 86431.6 22481.2 Q 85669.6 20555.2 85669.6 17087.2  Z M 87337.6 17123.2 Q 87337.6 20111.2 87871.6 21641.2 Q 88405.6 23171.2 89449.6 23963.2 Q 90493.6 24755.2 91657.6 24755.2 Q 92833.6 24755.2 93853.6 23981.2 Q 94873.6 23207.2 95401.6 21659.2 Q 96061.6 19775.2 96061.6 17123.2 Q 96061.6 14459.2 95473.6 12761.2 Q 94885.6 11063.2 93847.6 10277.2 Q 92809.6 9491.2 91657.6 9491.2 Q 90481.6 9491.2 89449.6 10277.2 Q 88417.6 11063.2 87877.6 12593.2 Q 87337.6 14123.2 87337.6 17123.2  Z M 105903.2 12851.2 L 107691.2 12851.2 L 112059.2 22355.2 L 116391.2 12851.2 L 118191.2 12851.2 L 112215.2 25907.2 L 111915.2 25907.2 L 105903.2 12851.2 Z M 121346.4 7475.2 Q 121922.4 7475.2 122330.4 7883.2 Q 122738.4 8291.2 122738.4 8867.2 Q 122738.4 9431.2 122330.4 9839.2 Q 121922.4 10247.2 121346.4 10247.2 Q 120782.4 10247.2 120374.4 9839.2 Q 119966.4 9431.2 119966.4 8867.2 Q 119966.4 8291.2 120374.4 7883.2 Q 120782.4 7475.2 121346.4 7475.2  Z M 120506.4 12851.2 L 122198.4 12851.2 L 122198.4 25907.2 L 120506.4 25907.2 L 120506.4 12851.2 Z M 132237.6 14279.2 L 131157.6 15395.2 Q 129813.6 14087.2 128529.6 14087.2 Q 127713.6 14087.2 127131.6 14627.2 Q 126549.6 15167.2 126549.6 15887.2 Q 126549.6 16523.2 127029.6 17099.2 Q 127509.6 17687.2 129045.6 18479.2 Q 130917.6 19451.2 131589.6 20351.2 Q 132249.6 21263.2 132249.6 22403.2 Q 132249.6 24011.2 131121.6 25127.2 Q 129993.6 26243.2 128301.6 26243.2 Q 127173.6 26243.2 126147.6 25751.2 Q 125121.6 25259.2 124449.6 24395.2 L 125505.6 23195.2 Q 126789.6 24647.2 128229.6 24647.2 Q 129237.6 24647.2 129945.6 23999.2 Q 130653.6 23351.2 130653.6 22475.2 Q 130653.6 21755.2 130185.6 21191.2 Q 129717.6 20639.2 128073.6 19799.2 Q 126309.6 18887.2 125673.6 17999.2 Q 125037.6 17111.2 125037.6 15971.2 Q 125037.6 14483.2 126051.6 13499.2 Q 127065.6 12515.2 128613.6 12515.2 Q 130413.6 12515.2 132237.6 14279.2  Z M 135784.8 7475.2 Q 136360.8 7475.2 136768.8 7883.2 Q 137176.8 8291.2 137176.8 8867.2 Q 137176.8 9431.2 136768.8 9839.2 Q 136360.8 10247.2 135784.8 10247.2 Q 135220.8 10247.2 134812.8 9839.2 Q 134404.8 9431.2 134404.8 8867.2 Q 134404.8 8291.2 134812.8 7883.2 Q 135220.8 7475.2 135784.8 7475.2  Z M 134944.8 12851.2 L 136636.8 12851.2 L 136636.8 25907.2 L 134944.8 25907.2 L 134944.8 12851.2 Z M 141576 8003.2 L 143268 8003.2 L 143268 12851.2 L 145932 12851.2 L 145932 14291.2 L 143268 14291.2 L 143268 25907.2 L 141576 25907.2 L 141576 14291.2 L 139284 14291.2 L 139284 12851.2 L 141576 12851.2 L 141576 8003.2 Z M 154586.4 12515.2 Q 157598.4 12515.2 159578.4 14699.2 Q 161378.4 16691.2 161378.4 19415.2 Q 161378.4 22151.2 159476.4 24197.2 Q 157574.4 26243.2 154586.4 26243.2 Q 151586.4 26243.2 149684.4 24197.2 Q 147782.4 22151.2 147782.4 19415.2 Q 147782.4 16703.2 149582.4 14711.2 Q 151562.4 12515.2 154586.4 12515.2  Z M 154586.4 14159.2 Q 152498.4 14159.2 150998.4 15707.2 Q 149498.4 17255.2 149498.4 19451.2 Q 149498.4 20867.2 150182.4 22091.2 Q 150866.4 23315.2 152030.4 23981.2 Q 153194.4 24647.2 154586.4 24647.2 Q 155978.4 24647.2 157142.4 23981.2 Q 158306.4 23315.2 158990.4 22091.2 Q 159674.4 20867.2 159674.4 19451.2 Q 159674.4 17255.2 158168.4 15707.2 Q 156662.4 14159.2 154586.4 14159.2  Z M 163847.2 12851.2 L 165563.2 12851.2 L 165563.2 14759.2 Q 166331.2 13631.2 167183.2 13073.2 Q 168035.2 12515.2 168959.2 12515.2 Q 169655.2 12515.2 170447.2 12959.2 L 169571.2 14375.2 Q 169043.2 14147.2 168683.2 14147.2 Q 167843.2 14147.2 167063.2 14837.2 Q 166283.2 15527.2 165875.2 16979.2 Q 165563.2 18095.2 165563.2 21491.2 L 165563.2 25907.2 L 163847.2 25907.2 L 163847.2 12851.2 Z M 178420 14279.2 L 177340 15395.2 Q 175996 14087.2 174712 14087.2 Q 173896 14087.2 173314 14627.2 Q 172732 15167.2 172732 15887.2 Q 172732 16523.2 173212 17099.2 Q 173692 17687.2 175228 18479.2 Q 177100 19451.2 177772 20351.2 Q 178432 21263.2 178432 22403.2 Q 178432 24011.2 177304 25127.2 Q 176176 26243.2 174484 26243.2 Q 173356 26243.2 172330 25751.2 Q 171304 25259.2 170632 24395.2 L 171688 23195.2 Q 172972 24647.2 174412 24647.2 Q 175420 24647.2 176128 23999.2 Q 176836 23351.2 176836 22475.2 Q 176836 21755.2 176368 21191.2 Q 175900 20639.2 174256 19799.2 Q 172492 18887.2 171856 17999.2 Q 171220 17111.2 171220 15971.2 Q 171220 14483.2 172234 13499.2 Q 173248 12515.2 174796 12515.2 Q 176596 12515.2 178420 14279.2  Z M 3296 50978.4 L 13364 46334.4 L 3296 41654.4 L 3296 39890.4 L 15692 45542.4 L 15692 47102.4 L 3296 52730.4 L 3296 50978.4 Z M 26498.4 43022.4 L 24806.4 43022.4 Q 24878.4 40406.4 26552.4 38726.4 Q 28226.4 37046.4 30686.4 37046.4 Q 33122.4 37046.4 34628.4 38618.4 Q 36134.4 40190.4 36134.4 42326.4 Q 36134.4 43826.4 35414.4 45140.4 Q 34694.4 46454.4 32618.4 48698.4 L 28226.4 53438.4 L 36374.4 53438.4 L 36374.4 55142.4 L 24386.4 55142.4 L 31130.4 47858.4 Q 33182.4 45662.4 33800.4 44600.4 Q 34418.4 43538.4 34418.4 42362.4 Q 34418.4 40874.4 33308.4 39800.4 Q 32198.4 38726.4 30590.4 38726.4 Q 28898.4 38726.4 27776.4 39854.4 Q 26654.4 40982.4 26498.4 43022.4  Z M 38053.6 46322.4 Q 38053.6 42830.4 38803.6 40922.4 Q 39553.6 39014.4 40921.6 38030.4 Q 42289.6 37046.4 43981.6 37046.4 Q 45697.6 37046.4 47089.6 38036.4 Q 48481.6 39026.4 49291.6 41006.4 Q 50101.6 42986.4 50101.6 46322.4 Q 50101.6 49646.4 49303.6 51614.4 Q 48505.6 53582.4 47101.6 54584.4 Q 45697.6 55586.4 43981.6 55586.4 Q 42289.6 55586.4 40933.6 54614.4 Q 39577.6 53642.4 38815.6 51716.4 Q 38053.6 49790.4 38053.6 46322.4  Z M 39721.6 46358.4 Q 39721.6 49346.4 40255.6 50876.4 Q 40789.6 52406.4 41833.6 53198.4 Q 42877.6 53990.4 44041.6 53990.4 Q 45217.6 53990.4 46237.6 53216.4 Q 47257.6 52442.4 47785.6 50894.4 Q 48445.6 49010.4 48445.6 46358.4 Q 48445.6 43694.4 47857.6 41996.4 Q 47269.6 40298.4 46231.6 39512.4 Q 45193.6 38726.4 44041.6 38726.4 Q 42865.6 38726.4 41833.6 39512.4 Q 40801.6 40298.4 40261.6 41828.4 Q 39721.6 43358.4 39721.6 46358.4  Z M 51672.8 46322.4 Q 51672.8 42830.4 52422.8 40922.4 Q 53172.8 39014.4 54540.8 38030.4 Q 55908.8 37046.4 57600.8 37046.4 Q 59316.8 37046.4 60708.8 38036.4 Q 62100.8 39026.4 62910.8 41006.4 Q 63720.8 42986.4 63720.8 46322.4 Q 63720.8 49646.4 62922.8 51614.4 Q 62124.8 53582.4 60720.8 54584.4 Q 59316.8 55586.4 57600.8 55586.4 Q 55908.8 55586.4 54552.8 54614.4 Q 53196.8 53642.4 52434.8 51716.4 Q 51672.8 49790.4 51672.8 46322.4  Z M 53340.8 46358.4 Q 53340.8 49346.4 53874.8 50876.4 Q 54408.8 52406.4 55452.8 53198.4 Q 56496.8 53990.4 57660.8 53990.4 Q 58836.8 53990.4 59856.8 53216.4 Q 60876.8 52442.4 61404.8 50894.4 Q 62064.8 49010.4 62064.8 46358.4 Q 62064.8 43694.4 61476.8 41996.4 Q 60888.8 40298.4 59850.8 39512.4 Q 58812.8 38726.4 57660.8 38726.4 Q 56484.8 38726.4 55452.8 39512.4 Q 54420.8 40298.4 53880.8 41828.4 Q 53340.8 43358.4 53340.8 46358.4  Z M 85814.4 44798.4 L 84482.4 45626.4 Q 82754.4 43334.4 79766.4 43334.4 Q 77378.4 43334.4 75800.4 44870.4 Q 74222.4 46406.4 74222.4 48602.4 Q 74222.4 50030.4 74948.4 51290.4 Q 75674.4 52550.4 76940.4 53246.4 Q 78206.4 53942.4 79778.4 53942.4 Q 82658.4 53942.4 84482.4 51650.4 L 85814.4 52526.4 Q 84878.4 53930.4 83300.4 54704.4 Q 81722.4 55478.4 79706.4 55478.4 Q 76610.4 55478.4 74570.4 53510.4 Q 72530.4 51542.4 72530.4 48722.4 Q 72530.4 46826.4 73484.4 45200.4 Q 74438.4 43574.4 76106.4 42662.4 Q 77774.4 41750.4 79838.4 41750.4 Q 81134.4 41750.4 82340.4 42146.4 Q 83546.4 42542.4 84386.4 43178.4 Q 85226.4 43814.4 85814.4 44798.4  Z M 89602.4 36710.4 Q 90178.4 36710.4 90586.4 37118.4 Q 90994.4 37526.4 90994.4 38102.4 Q 90994.4 38666.4 90586.4 39074.4 Q 90178.4 39482.4 89602.4 39482.4 Q 89038.4 39482.4 88630.4 39074.4 Q 88222.4 38666.4 88222.4 38102.4 Q 88222.4 37526.4 88630.4 37118.4 Q 89038.4 36710.4 89602.4 36710.4  Z M 88762.4 42086.4 L 90454.4 42086.4 L 90454.4 55142.4 L 88762.4 55142.4 L 88762.4 42086.4 Z M 95393.6 37238.4 L 97085.6 37238.4 L 97085.6 42086.4 L 99749.6 42086.4 L 99749.6 43526.4 L 97085.6 43526.4 L 97085.6 55142.4 L 95393.6 55142.4 L 95393.6 43526.4 L 93101.6 43526.4 L 93101.6 42086.4 L 95393.6 42086.4 L 95393.6 37238.4 Z M 102812 36710.4 Q 103388 36710.4 103796 37118.4 Q 104204 37526.4 104204 38102.4 Q 104204 38666.4 103796 39074.4 Q 103388 39482.4 102812 39482.4 Q 102248 39482.4 101840 39074.4 Q 101432 38666.4 101432 38102.4 Q 101432 37526.4 101840 37118.4 Q 102248 36710.4 102812 36710.4  Z M 101972 42086.4 L 103664 42086.4 L 103664 55142.4 L 101972 55142.4 L 101972 42086.4 Z M 118131.2 50810.4 L 119547.2 51554.4 Q 118851.2 52922.4 117939.2 53762.4 Q 117027.2 54602.4 115887.2 55040.4 Q 114747.2 55478.4 113307.2 55478.4 Q 110115.2 55478.4 108315.2 53384.4 Q 106515.2 51290.4 106515.2 48650.4 Q 106515.2 46166.4 108039.2 44222.4 Q 109971.2 41750.4 113211.2 41750.4 Q 116547.2 41750.4 118539.2 44282.4 Q 119955.2 46070.4 119979.2 48746.4 L 108243.2 48746.4 Q 108291.2 51026.4 109695.2 52484.4 Q 111099.2 53942.4 113163.2 53942.4 Q 114159.2 53942.4 115101.2 53594.4 Q 116043.2 53246.4 116703.2 52670.4 Q 117363.2 52094.4 118131.2 50810.4  Z M 118131.2 47294.4 Q 117795.2 45950.4 117153.2 45146.4 Q 116511.2 44342.4 115455.2 43850.4 Q 114399.2 43358.4 113235.2 43358.4 Q 111315.2 43358.4 109935.2 44594.4 Q 108927.2 45494.4 108411.2 47294.4 L 118131.2 47294.4 Z M 129626.4 43514.4 L 128546.4 44630.4 Q 127202.4 43322.4 125918.4 43322.4 Q 125102.4 43322.4 124520.4 43862.4 Q 123938.4 44402.4 123938.4 45122.4 Q 123938.4 45758.4 124418.4 46334.4 Q 124898.4 46922.4 126434.4 47714.4 Q 128306.4 48686.4 128978.4 49586.4 Q 129638.4 50498.4 129638.4 51638.4 Q 129638.4 53246.4 128510.4 54362.4 Q 127382.4 55478.4 125690.4 55478.4 Q 124562.4 55478.4 123536.4 54986.4 Q 122510.4 54494.4 121838.4 53630.4 L 122894.4 52430.4 Q 124178.4 53882.4 125618.4 53882.4 Q 126626.4 53882.4 127334.4 53234.4 Q 128042.4 52586.4 128042.4 51710.4 Q 128042.4 50990.4 127574.4 50426.4 Q 127106.4 49874.4 125462.4 49034.4 Q 123698.4 48122.4 123062.4 47234.4 Q 122426.4 46346.4 122426.4 45206.4 Q 122426.4 43718.4 123440.4 42734.4 Q 124454.4 41750.4 126002.4 41750.4 Q 127802.4 41750.4 129626.4 43514.4  Z " fill-rule="nonzero" style="fill:#000000;;fill-opacity:1;"/>
</svg>