<svg version="1.1" x="0" y="0" width="100%" height="100%" viewBox="0 0 198604.8 33843.2" xmlns="http://www.w3.org/2000/svg">
  <path d="M 20288 11875.2 L 17936 14119.2 Q 15536 11587.2 12536 11587.2 Q 10004 11587.2 8270 13315.2 Q 6536 15043.2 6536 17575.2 Q 6536 19339.2 7304 20707.2 Q 8072 22075.2 9476 22855.2 Q 10880 23635.2 12596 23635.2 Q 14060 23635.2 15272 23089.2 Q 16484 22543.2 17936 21103.2 L 20216 23479.2 Q 18260 25387.2 16520 26125.2 Q 14780 26863.2 12548 26863.2 Q 8432 26863.2 5810 24253.2 Q 3188 21643.2 3188 17563.2 Q 3188 14923.2 4382 12871.2 Q 5576 10819.2 7802 9571.2 Q 10028 8323.2 12596 8323.2 Q 14780 8323.2 16802 9247.2 Q 18824 10171.2 20288 11875.2  Z M 28984.8 13027.2 Q 30832.8 13027.2 32458.8 13951.2 Q 34084.8 14875.2 34996.8 16459.2 Q 35908.8 18043.2 35908.8 19879.2 Q 35908.8 21727.2 34990.8 23335.2 Q 34072.8 24943.2 32488.8 25849.2 Q 30904.8 26755.2 28996.8 26755.2 Q 26188.8 26755.2 24202.8 24757.2 Q 22216.8 22759.2 22216.8 19903.2 Q 22216.8 16843.2 24460.8 14803.2 Q 26428.8 13027.2 28984.8 13027.2  Z M 29032.8 16111.2 Q 27508.8 16111.2 26494.8 17173.2 Q 25480.8 18235.2 25480.8 19891.2 Q 25480.8 21595.2 26482.8 22651.2 Q 27484.8 23707.2 29020.8 23707.2 Q 30556.8 23707.2 31576.8 22639.2 Q 32596.8 21571.2 32596.8 19891.2 Q 32596.8 18211.2 31594.8 17161.2 Q 30592.8 16111.2 29032.8 16111.2  Z M 38547.2 13363.2 L 41835.2 13363.2 L 41835.2 14863.2 Q 42675.2 13939.2 43701.2 13483.2 Q 44727.2 13027.2 45939.2 13027.2 Q 47163.2 13027.2 48147.2 13627.2 Q 49131.2 14227.2 49731.2 15379.2 Q 50511.2 14227.2 51645.2 13627.2 Q 52779.2 13027.2 54123.2 13027.2 Q 55515.2 13027.2 56571.2 13675.2 Q 57627.2 14323.2 58089.2 15367.2 Q 58551.2 16411.2 58551.2 18763.2 L 58551.2 26419.2 L 55251.2 26419.2 L 55251.2 19795.2 Q 55251.2 17575.2 54699.2 16789.2 Q 54147.2 16003.2 53043.2 16003.2 Q 52203.2 16003.2 51537.2 16483.2 Q 50871.2 16963.2 50547.2 17809.2 Q 50223.2 18655.2 50223.2 20527.2 L 50223.2 26419.2 L 46923.2 26419.2 L 46923.2 20095.2 Q 46923.2 18343.2 46665.2 17557.2 Q 46407.2 16771.2 45891.2 16387.2 Q 45375.2 16003.2 44643.2 16003.2 Q 43827.2 16003.2 43161.2 16489.2 Q 42495.2 16975.2 42165.2 17851.2 Q 41835.2 18727.2 41835.2 20611.2 L 41835.2 26419.2 L 38547.2 26419.2 L 38547.2 13363.2 Z M 61638.4 13363.2 L 64926.4 13363.2 L 64926.4 14863.2 Q 65766.4 13939.2 66792.4 13483.2 Q 67818.4 13027.2 69030.4 13027.2 Q 70254.4 13027.2 71238.4 13627.2 Q 72222.4 14227.2 72822.4 15379.2 Q 73602.4 14227.2 74736.4 13627.2 Q 75870.4 13027.2 77214.4 13027.2 Q 78606.4 13027.2 79662.4 13675.2 Q 80718.4 14323.2 81180.4 15367.2 Q 81642.4 16411.2 81642.4 18763.2 L 81642.4 26419.2 L 78342.4 26419.2 L 78342.4 19795.2 Q 78342.4 17575.2 77790.4 16789.2 Q 77238.4 16003.2 76134.4 16003.2 Q 75294.4 16003.2 74628.4 16483.2 Q 73962.4 16963.2 73638.4 17809.2 Q 73314.4 18655.2 73314.4 20527.2 L 73314.4 26419.2 L 70014.4 26419.2 L 70014.4 20095.2 Q 70014.4 18343.2 69756.4 17557.2 Q 69498.4 16771.2 68982.4 16387.2 Q 68466.4 16003.2 67734.4 16003.2 Q 66918.4 16003.2 66252.4 16489.2 Q 65586.4 16975.2 65256.4 17851.2 Q 64926.4 18727.2 64926.4 20611.2 L 64926.4 26419.2 L 61638.4 26419.2 L 61638.4 13363.2 Z M 84741.6 13363.2 L 88053.6 13363.2 L 88053.6 19651.2 Q 88053.6 21487.2 88305.6 22201.2 Q 88557.6 22915.2 89115.6 23311.2 Q 89673.6 23707.2 90489.6 23707.2 Q 91305.6 23707.2 91875.6 23317.2 Q 92445.6 22927.2 92721.6 22171.2 Q 92925.6 21607.2 92925.6 19759.2 L 92925.6 13363.2 L 96213.6 13363.2 L 96213.6 18895.2 Q 96213.6 22315.2 95673.6 23575.2 Q 95013.6 25111.2 93729.6 25933.2 Q 92445.6 26755.2 90465.6 26755.2 Q 88317.6 26755.2 86991.6 25795.2 Q 85665.6 24835.2 85125.6 23119.2 Q 84741.6 21931.2 84741.6 18799.2 L 84741.6 13363.2 Z M 99499.2 13363.2 L 102763.2 13363.2 L 102763.2 14695.2 Q 103879.2 13759.2 104785.2 13393.2 Q 105691.2 13027.2 106639.2 13027.2 Q 108583.2 13027.2 109939.2 14383.2 Q 111079.2 15535.2 111079.2 17791.2 L 111079.2 26419.2 L 107839.2 26419.2 L 107839.2 20695.2 Q 107839.2 18355.2 107629.2 17587.2 Q 107419.2 16819.2 106897.2 16417.2 Q 106375.2 16015.2 105607.2 16015.2 Q 104611.2 16015.2 103897.2 16681.2 Q 103183.2 17347.2 102907.2 18523.2 Q 102763.2 19135.2 102763.2 21175.2 L 102763.2 26419.2 L 99499.2 26419.2 L 99499.2 13363.2 Z M 115528.8 7987.2 Q 116392.8 7987.2 117010.8 8611.2 Q 117628.8 9235.2 117628.8 10123.2 Q 117628.8 10999.2 117016.8 11617.2 Q 116404.8 12235.2 115552.8 12235.2 Q 114676.8 12235.2 114058.8 11605.2 Q 113440.8 10975.2 113440.8 10075.2 Q 113440.8 9211.2 114052.8 8599.2 Q 114664.8 7987.2 115528.8 7987.2  Z M 113884.8 13363.2 L 117172.8 13363.2 L 117172.8 26419.2 L 113884.8 26419.2 L 113884.8 13363.2 Z M 132912.8 16003.2 L 130188.8 17503.2 Q 129420.8 16699.2 128670.8 16387.2 Q 127920.8 16075.2 126912.8 16075.2 Q 125076.8 16075.2 123942.8 17173.2 Q 122808.8 18271.2 122808.8 19987.2 Q 122808.8 21655.2 123900.8 22711.2 Q 124992.8 23767.2 126768.8 23767.2 Q 128964.8 23767.2 130188.8 22267.2 L 132768.8 24031.2 Q 130668.8 26755.2 126840.8 26755.2 Q 123396.8 26755.2 121446.8 24715.2 Q 119496.8 22675.2 119496.8 19939.2 Q 119496.8 18043.2 120444.8 16447.2 Q 121392.8 14851.2 123090.8 13939.2 Q 124788.8 13027.2 126888.8 13027.2 Q 128832.8 13027.2 130380.8 13801.2 Q 131928.8 14575.2 132912.8 16003.2  Z M 145499.2 13363.2 L 148763.2 13363.2 L 148763.2 26419.2 L 145499.2 26419.2 L 145499.2 25039.2 Q 144539.2 25951.2 143573.2 26353.2 Q 142607.2 26755.2 141479.2 26755.2 Q 138947.2 26755.2 137099.2 24793.2 Q 135251.2 22831.2 135251.2 19915.2 Q 135251.2 16891.2 137039.2 14959.2 Q 138827.2 13027.2 141383.2 13027.2 Q 142559.2 13027.2 143591.2 13471.2 Q 144623.2 13915.2 145499.2 14803.2 L 145499.2 13363.2 Z M 142055.2 16051.2 Q 140531.2 16051.2 139523.2 17125.2 Q 138515.2 18199.2 138515.2 19879.2 Q 138515.2 21571.2 139541.2 22663.2 Q 140567.2 23755.2 142067.2 23755.2 Q 143615.2 23755.2 144635.2 22681.2 Q 145655.2 21607.2 145655.2 19867.2 Q 145655.2 18163.2 144635.2 17107.2 Q 143615.2 16051.2 142055.2 16051.2  Z M 152426.4 8551.2 L 155690.4 8551.2 L 155690.4 13363.2 L 157634.4 13363.2 L 157634.4 16183.2 L 155690.4 16183.2 L 155690.4 26419.2 L 152426.4 26419.2 L 152426.4 16183.2 L 150746.4 16183.2 L 150746.4 13363.2 L 152426.4 13363.2 L 152426.4 8551.2 Z M 160636 7987.2 Q 161500 7987.2 162118 8611.2 Q 162736 9235.2 162736 10123.2 Q 162736 10999.2 162124 11617.2 Q 161512 12235.2 160660 12235.2 Q 159784 12235.2 159166 11605.2 Q 158548 10975.2 158548 10075.2 Q 158548 9211.2 159160 8599.2 Q 159772 7987.2 160636 7987.2  Z M 158992 13363.2 L 162280 13363.2 L 162280 26419.2 L 158992 26419.2 L 158992 13363.2 Z M 171372 13027.2 Q 173220 13027.2 174846 13951.2 Q 176472 14875.2 177384 16459.2 Q 178296 18043.2 178296 19879.2 Q 178296 21727.2 177378 23335.2 Q 176460 24943.2 174876 25849.2 Q 173292 26755.2 171384 26755.2 Q 168576 26755.2 166590 24757.2 Q 164604 22759.2 164604 19903.2 Q 164604 16843.2 166848 14803.2 Q 168816 13027.2 171372 13027.2  Z M 171420 16111.2 Q 169896 16111.2 168882 17173.2 Q 167868 18235.2 167868 19891.2 Q 167868 21595.2 168870 22651.2 Q 169872 23707.2 171408 23707.2 Q 172944 23707.2 173964 22639.2 Q 174984 21571.2 174984 19891.2 Q 174984 18211.2 173982 17161.2 Q 172980 16111.2 171420 16111.2  Z M 180958.4 13363.2 L 184222.4 13363.2 L 184222.4 14695.2 Q 185338.4 13759.2 186244.4 13393.2 Q 187150.4 13027.2 188098.4 13027.2 Q 190042.4 13027.2 191398.4 14383.2 Q 192538.4 15535.2 192538.4 17791.2 L 192538.4 26419.2 L 189298.4 26419.2 L 189298.4 20695.2 Q 189298.4 18355.2 189088.4 17587.2 Q 188878.4 16819.2 188356.4 16417.2 Q 187834.4 16015.2 187066.4 16015.2 Q 186070.4 16015.2 185356.4 16681.2 Q 184642.4 17347.2 184366.4 18523.2 Q 184222.4 19135.2 184222.4 21175.2 L 184222.4 26419.2 L 180958.4 26419.2 L 180958.4 13363.2 Z " fill-rule="nonzero" style="fill:#000000;;fill-opacity:1;"/>
</svg>