<svg version="1.1" x="0" y="0" width="100%" height="100%" viewBox="0 0 268083.2 38246.4" xmlns="http://www.w3.org/2000/svg">
  <path d="M 18392 13925.6 Q 17504 13925.6 15656 13781.6 Q 13856 13649.6 12920 13661.6 L 12068 13661.6 Q 12104 15317.6 12392 19037.6 Q 12656 22505.6 12656 24425.6 Q 12656 24845.6 12740 25697.6 Q 12824 26549.6 12824 26981.6 Q 12824 27797.6 12560 28385.6 Q 12224 29177.6 11516 29177.6 Q 11036 29177.6 10652 28841.6 Q 10268 28505.6 10268 27977.6 Q 10268 27797.6 10328 27437.6 Q 10388 27077.6 10388 26897.6 Q 10388 26309.6 10310 25133.6 Q 10232 23957.6 10232 23357.6 Q 10232 21641.6 9956 18533.6 Q 9668 15173.6 9632 13709.6 L 8540 13721.6 Q 5912 13721.6 4412 13337.6 Q 3440 13085.6 3440 12149.6 Q 3440 11657.6 3752 11285.6 Q 4112 10865.6 4676 10901.6 Q 5096 10925.6 6596 11117.6 Q 7796 11261.6 8540 11261.6 Q 9260 11261.6 10724 11231.6 Q 12188 11201.6 12908 11201.6 Q 13832 11201.6 15650 11333.6 Q 17468 11465.6 18392 11465.6 Q 18908 11465.6 19256 11819.6 Q 19604 12173.6 19604 12701.6 Q 19604 13217.6 19256 13571.6 Q 18908 13925.6 18392 13925.6  Z M 30451.2 29825.6 Q 29599.2 29825.6 29335.2 28913.6 Q 29059.2 27929.6 28831.2 26117.6 Q 28615.2 24377.6 28615.2 23261.6 Q 28615.2 22949.6 28645.2 22313.6 Q 28675.2 21677.6 28675.2 21365.6 Q 28675.2 19109.6 27547.2 19109.6 Q 26023.2 19109.6 24823.2 20489.6 Q 24211.2 21197.6 23143.2 23189.6 Q 23143.2 27761.6 22759.2 28601.6 Q 22423.2 29345.6 21715.2 29345.6 Q 21223.2 29345.6 20851.2 29009.6 Q 20479.2 28673.6 20479.2 28193.6 Q 20479.2 28025.6 20587.2 27665.6 Q 20683.2 27365.6 20719.2 25913.6 L 20755.2 24137.6 L 20791.2 15317.6 Q 20875.2 13829.6 20875.2 13313.6 Q 20875.2 12701.6 20761.2 12155.6 Q 20647.2 11609.6 20647.2 11021.6 Q 20647.2 10517.6 20995.2 10187.6 Q 21343.2 9857.6 21847.2 9857.6 Q 22831.2 9857.6 22999.2 10913.6 Q 23191.2 12077.6 23191.2 13013.6 Q 23191.2 14273.6 23107.2 15641.6 Q 23035.2 16949.6 23047.2 18269.6 L 23059.2 19325.6 Q 24043.2 18005.6 25165.2 17351.6 Q 26287.2 16697.6 27547.2 16697.6 Q 29539.2 16697.6 30283.2 17993.6 Q 30811.2 18905.6 30883.2 21065.6 L 30979.2 23357.6 L 31219.2 25853.6 Q 31387.2 27257.6 31627.2 28325.6 Q 31675.2 28529.6 31675.2 28673.6 Q 31675.2 29165.6 31315.2 29495.6 Q 30955.2 29825.6 30451.2 29825.6  Z M 36881.6 13889.6 Q 36305.6 13889.6 35885.6 13481.6 Q 35465.6 13073.6 35465.6 12497.6 Q 35465.6 11921.6 35885.6 11513.6 Q 36305.6 11105.6 36881.6 11105.6 Q 37457.6 11105.6 37871.6 11513.6 Q 38285.6 11921.6 38285.6 12497.6 Q 38285.6 13073.6 37871.6 13481.6 Q 37457.6 13889.6 36881.6 13889.6  Z M 37421.6 23633.6 Q 37421.6 24353.6 37463.6 25787.6 Q 37505.6 27221.6 37505.6 27941.6 Q 37505.6 28469.6 37181.6 28805.6 Q 36857.6 29141.6 36329.6 29141.6 Q 35813.6 29141.6 35483.6 28805.6 Q 35153.6 28469.6 35153.6 27941.6 Q 35153.6 27221.6 35111.6 25787.6 Q 35069.6 24353.6 35069.6 23633.6 Q 35069.6 22505.6 35189.6 20819.6 Q 35309.6 19133.6 35309.6 18005.6 Q 35309.6 17465.6 35639.6 17129.6 Q 35969.6 16793.6 36485.6 16793.6 Q 37001.6 16793.6 37331.6 17129.6 Q 37661.6 17465.6 37661.6 18005.6 Q 37661.6 19133.6 37541.6 20819.6 Q 37421.6 22505.6 37421.6 23633.6  Z M 49550.4 19841.6 Q 48890.4 19841.6 48626.4 19397.6 Q 48446.4 19085.6 48314.4 18101.6 Q 47414.4 18329.6 45542.4 18941.6 Q 43610.4 19709.6 43598.4 20837.6 Q 43958.4 20969.6 44306.4 21029.6 Q 47066.4 21521.6 48410.4 22385.6 Q 50366.4 23645.6 50366.4 26033.6 Q 50366.4 27989.6 48674.4 28985.6 Q 47270.4 29801.6 45122.4 29801.6 Q 43550.4 29801.6 42122.4 29273.6 Q 40274.4 28601.6 40274.4 27401.6 Q 40274.4 26921.6 40652.4 26561.6 Q 41030.4 26201.6 41510.4 26201.6 Q 41882.4 26201.6 42470.4 26777.6 Q 42758.4 27053.6 43766.4 27233.6 Q 44570.4 27377.6 45122.4 27377.6 Q 46130.4 27377.6 46898.4 27137.6 Q 48014.4 26789.6 48014.4 26033.6 Q 48014.4 24401.6 45734.4 23825.6 L 44486.4 23549.6 Q 42890.4 23201.6 42218.4 22733.6 Q 41246.4 22061.6 41246.4 20705.6 Q 41246.4 18197.6 43610.4 17129.6 Q 44330.4 16805.6 45914.4 16355.6 Q 47498.4 15905.6 48182.4 15593.6 Q 48674.4 15377.6 49250.4 15377.6 Q 49766.4 15377.6 50096.4 15713.6 Q 50426.4 16049.6 50426.4 16589.6 Q 50426.4 16937.6 50576.4 17609.6 Q 50726.4 18281.6 50726.4 18629.6 Q 50726.4 19169.6 50396.4 19505.6 Q 50066.4 19841.6 49550.4 19841.6  Z M 75065.6 18341.6 Q 74129.6 22253.6 72617.6 27185.6 Q 72281.6 28277.6 71501.6 29429.6 Q 71081.6 30065.6 70361.6 30053.6 Q 69053.6 30029.6 68321.6 26801.6 Q 68081.6 25769.6 67829.6 23993.6 L 67433.6 21317.6 L 66449.6 23609.6 L 64625.6 28565.6 Q 64469.6 29021.6 64169.6 29261.6 Q 63809.6 29957.6 63017.6 29981.6 Q 62105.6 30017.6 61253.6 26405.6 Q 60821.6 24545.6 60389.6 21365.6 L 60101.6 19565.6 Q 59945.6 18485.6 59945.6 17753.6 Q 59945.6 17249.6 60299.6 16919.6 Q 60653.6 16589.6 61157.6 16589.6 Q 62069.6 16589.6 62285.6 17585.6 Q 62441.6 18293.6 62537.6 19337.6 L 62717.6 21101.6 L 63425.6 26489.6 Q 64757.6 22793.6 66185.6 17969.6 Q 66581.6 16637.6 67565.6 16637.6 Q 68513.6 16637.6 68849.6 18125.6 Q 69161.6 19529.6 69629.6 22445.6 Q 70109.6 25469.6 70481.6 27161.6 L 71357.6 23897.6 L 72905.6 17357.6 Q 73085.6 16625.6 73937.6 16625.6 Q 74441.6 16625.6 74813.6 16967.6 Q 75185.6 17309.6 75185.6 17789.6 Q 75185.6 17849.6 75065.6 18341.6  Z M 86867.2 29873.6 Q 86639.2 29873.6 86039.2 29345.6 Q 85499.2 28853.6 85235.2 28469.6 Q 84083.2 29093.6 83207.2 29411.6 Q 82331.2 29729.6 81743.2 29729.6 Q 78935.2 29729.6 77651.2 28145.6 Q 76439.2 26657.6 76439.2 23585.6 Q 76439.2 20681.6 78437.2 18617.6 Q 80435.2 16553.6 83207.2 16553.6 Q 84251.2 16553.6 85547.2 17093.6 Q 87179.2 17765.6 87179.2 18713.6 Q 87179.2 19037.6 86939.2 19289.6 Q 86819.2 19745.6 86753.2 20789.6 Q 86687.2 21833.6 86675.2 23465.6 Q 86663.2 24953.6 86879.2 25817.6 Q 86999.2 26345.6 87635.2 27929.6 Q 87719.2 28145.6 87911.2 28565.6 L 87983.2 28769.6 Q 87983.2 29249.6 87647.2 29561.6 Q 87311.2 29873.6 86867.2 29873.6  Z M 84371.2 21533.6 Q 84371.2 21017.6 84437.2 20411.6 Q 84503.2 19805.6 84635.2 19121.6 Q 84191.2 18893.6 83873.2 18785.6 Q 83555.2 18677.6 83363.2 18677.6 Q 81503.2 18677.6 80153.2 20195.6 Q 78803.2 21713.6 78803.2 23693.6 Q 78803.2 25661.6 79499.2 26645.6 Q 80195.2 27629.6 81587.2 27629.6 Q 82739.2 27629.6 83543.2 27209.6 Q 83975.2 26981.6 84755.2 26297.6 Q 84371.2 23117.6 84371.2 21533.6  Z M 98139.2 19841.6 Q 97479.2 19841.6 97215.2 19397.6 Q 97035.2 19085.6 96903.2 18101.6 Q 96003.2 18329.6 94131.2 18941.6 Q 92199.2 19709.6 92187.2 20837.6 Q 92547.2 20969.6 92895.2 21029.6 Q 95655.2 21521.6 96999.2 22385.6 Q 98955.2 23645.6 98955.2 26033.6 Q 98955.2 27989.6 97263.2 28985.6 Q 95859.2 29801.6 93711.2 29801.6 Q 92139.2 29801.6 90711.2 29273.6 Q 88863.2 28601.6 88863.2 27401.6 Q 88863.2 26921.6 89241.2 26561.6 Q 89619.2 26201.6 90099.2 26201.6 Q 90471.2 26201.6 91059.2 26777.6 Q 91347.2 27053.6 92355.2 27233.6 Q 93159.2 27377.6 93711.2 27377.6 Q 94719.2 27377.6 95487.2 27137.6 Q 96603.2 26789.6 96603.2 26033.6 Q 96603.2 24401.6 94323.2 23825.6 L 93075.2 23549.6 Q 91479.2 23201.6 90807.2 22733.6 Q 89835.2 22061.6 89835.2 20705.6 Q 89835.2 18197.6 92199.2 17129.6 Q 92919.2 16805.6 94503.2 16355.6 Q 96087.2 15905.6 96771.2 15593.6 Q 97263.2 15377.6 97839.2 15377.6 Q 98355.2 15377.6 98685.2 15713.6 Q 99015.2 16049.6 99015.2 16589.6 Q 99015.2 16937.6 99165.2 17609.6 Q 99315.2 18281.6 99315.2 18629.6 Q 99315.2 19169.6 98985.2 19505.6 Q 98655.2 19841.6 98139.2 19841.6  Z M 118494.4 29933.6 Q 117462.4 29933.6 117330.4 28805.6 L 116994.4 26177.6 Q 116826.4 24773.6 116826.4 23549.6 Q 116826.4 23213.6 116868.4 22409.6 Q 116910.4 21605.6 116910.4 21269.6 Q 116910.4 18677.6 115950.4 18677.6 Q 114606.4 18677.6 113382.4 20273.6 Q 112278.4 21725.6 111654.4 23945.6 Q 111630.4 24413.6 111546.4 25121.6 Q 111474.4 25721.6 111474.4 26285.6 Q 111474.4 26645.6 111546.4 27365.6 Q 111618.4 28085.6 111618.4 28445.6 Q 111618.4 28985.6 111288.4 29321.6 Q 110958.4 29657.6 110442.4 29657.6 Q 109914.4 29657.6 109590.4 29321.6 Q 109266.4 28985.6 109266.4 28445.6 Q 109266.4 28085.6 109188.4 27365.6 Q 109110.4 26645.6 109110.4 26285.6 Q 109110.4 25049.6 109284.4 22859.6 Q 109458.4 20669.6 109458.4 19433.6 Q 109458.4 19049.6 109416.4 18293.6 Q 109374.4 17537.6 109374.4 17153.6 Q 109374.4 16637.6 109716.4 16307.6 Q 110058.4 15977.6 110562.4 15977.6 Q 111666.4 15977.6 111774.4 17537.6 L 111810.4 18941.6 Q 113826.4 16253.6 115950.4 16253.6 Q 117870.4 16253.6 118626.4 17945.6 Q 119142.4 19073.6 119190.4 21281.6 L 119190.4 22493.6 L 119178.4 23609.6 Q 119178.4 24605.6 119436.4 26183.6 Q 119694.4 27761.6 119694.4 28745.6 Q 119694.4 29273.6 119352.4 29603.6 Q 119010.4 29933.6 118494.4 29933.6  Z M 126641.6 29789.6 Q 124625.6 29789.6 123173.6 28301.6 Q 121553.6 26645.6 121469.6 23849.6 Q 121397.6 21137.6 122837.6 19073.6 Q 124517.6 16637.6 127517.6 16637.6 Q 129917.6 16637.6 131153.6 18833.6 Q 132137.6 20609.6 132101.6 23105.6 Q 132065.6 25769.6 130709.6 27653.6 Q 129173.6 29789.6 126641.6 29789.6  Z M 127361.6 19073.6 Q 125597.6 19061.6 124613.6 20753.6 Q 123833.6 22109.6 123833.6 23849.6 Q 123833.6 25589.6 124781.6 26561.6 Q 125573.6 27365.6 126641.6 27365.6 Q 127889.6 27365.6 128789.6 26453.6 Q 129809.6 25445.6 129869.6 23729.6 Q 130037.6 19085.6 127361.6 19073.6  Z M 143072 18857.6 Q 142820 18857.6 142478 18833.6 Q 142136 18809.6 141884 18809.6 Q 141608 18809.6 140252 18989.6 L 140480 26081.6 L 140492 26609.6 L 140504 27221.6 Q 140552 29849.6 139244 29849.6 Q 138764 29849.6 138410 29537.6 Q 138056 29225.6 138056 28757.6 Q 138056 28301.6 138092 27389.6 Q 138128 26477.6 138128 26021.6 L 137888 19013.6 Q 137012 18977.6 135224 18809.6 Q 134156 18665.6 134156 17621.6 Q 134156 17093.6 134480 16745.6 Q 134804 16397.6 135308 16397.6 L 137828 16601.6 Q 137828 15989.6 137774 14963.6 Q 137720 13937.6 137720 13481.6 Q 137720 12977.6 138068 12647.6 Q 138416 12317.6 138920 12317.6 Q 140000 12317.6 140180 14081.6 Q 140216 14525.6 140216 15149.6 L 140192 15845.6 L 140180 16589.6 Q 141668 16397.6 141884 16397.6 Q 143132 16397.6 143516 16517.6 Q 144248 16757.6 144248 17645.6 Q 144248 18173.6 143918 18515.6 Q 143588 18857.6 143072 18857.6  Z M 159036.8 29501.6 Q 157836.8 29501.6 156396.8 29117.6 L 156372.8 34853.6 Q 156372.8 35381.6 156042.8 35717.6 Q 155712.8 36053.6 155196.8 36053.6 Q 154680.8 36053.6 154350.8 35717.6 Q 154020.8 35381.6 154020.8 34853.6 L 154056.8 30053.6 L 154056.8 25265.6 Q 154020.8 22637.6 153876.8 20477.6 L 153696.8 18041.6 Q 153696.8 17189.6 154008.8 16601.6 Q 154368.8 15893.6 155052.8 15893.6 Q 155520.8 15893.6 155838.8 16223.6 Q 156156.8 16553.6 156156.8 17033.6 Q 156156.8 17141.6 156120.8 17429.6 Q 156060.8 17801.6 156036.8 18113.6 Q 157068.8 17405.6 158028.8 17051.6 Q 158988.8 16697.6 159864.8 16697.6 Q 162324.8 16697.6 163464.8 18881.6 Q 164364.8 20609.6 164364.8 23453.6 Q 164364.8 26045.6 162972.8 27725.6 Q 161496.8 29501.6 159036.8 29501.6  Z M 159864.8 19097.6 Q 158760.8 19097.6 157872.8 19589.6 Q 157236.8 19937.6 156264.8 20861.6 Q 156420.8 23585.6 156420.8 26585.6 Q 157728.8 27089.6 159036.8 27089.6 Q 160536.8 27089.6 161328.8 25973.6 Q 162012.8 25001.6 162012.8 23453.6 Q 162012.8 21269.6 161478.8 20183.6 Q 160944.8 19097.6 159864.8 19097.6  Z M 170092 19649.6 L 169912 25613.6 Q 169912 26561.6 169816 28397.6 Q 169696 29597.6 168640 29597.6 Q 167464 29597.6 167464 28373.6 Q 167464 26921.6 167596 24011.6 Q 167728 21101.6 167728 19649.6 Q 167728 17753.6 167788 15311.6 Q 167848 12869.6 167848 10973.6 Q 167848 9773.6 169024 9773.6 Q 170212 9773.6 170212 10973.6 Q 170212 12869.6 170152 15311.6 Q 170092 17753.6 170092 19649.6  Z M 183123.2 29873.6 Q 182895.2 29873.6 182295.2 29345.6 Q 181755.2 28853.6 181491.2 28469.6 Q 180339.2 29093.6 179463.2 29411.6 Q 178587.2 29729.6 177999.2 29729.6 Q 175191.2 29729.6 173907.2 28145.6 Q 172695.2 26657.6 172695.2 23585.6 Q 172695.2 20681.6 174693.2 18617.6 Q 176691.2 16553.6 179463.2 16553.6 Q 180507.2 16553.6 181803.2 17093.6 Q 183435.2 17765.6 183435.2 18713.6 Q 183435.2 19037.6 183195.2 19289.6 Q 183075.2 19745.6 183009.2 20789.6 Q 182943.2 21833.6 182931.2 23465.6 Q 182919.2 24953.6 183135.2 25817.6 Q 183255.2 26345.6 183891.2 27929.6 Q 183975.2 28145.6 184167.2 28565.6 L 184239.2 28769.6 Q 184239.2 29249.6 183903.2 29561.6 Q 183567.2 29873.6 183123.2 29873.6  Z M 180627.2 21533.6 Q 180627.2 21017.6 180693.2 20411.6 Q 180759.2 19805.6 180891.2 19121.6 Q 180447.2 18893.6 180129.2 18785.6 Q 179811.2 18677.6 179619.2 18677.6 Q 177759.2 18677.6 176409.2 20195.6 Q 175059.2 21713.6 175059.2 23693.6 Q 175059.2 25661.6 175755.2 26645.6 Q 176451.2 27629.6 177843.2 27629.6 Q 178995.2 27629.6 179799.2 27209.6 Q 180231.2 26981.6 181011.2 26297.6 Q 180627.2 23117.6 180627.2 21533.6  Z M 195499.2 29933.6 Q 194467.2 29933.6 194335.2 28805.6 L 193999.2 26177.6 Q 193831.2 24773.6 193831.2 23549.6 Q 193831.2 23213.6 193873.2 22409.6 Q 193915.2 21605.6 193915.2 21269.6 Q 193915.2 18677.6 192955.2 18677.6 Q 191611.2 18677.6 190387.2 20273.6 Q 189283.2 21725.6 188659.2 23945.6 Q 188635.2 24413.6 188551.2 25121.6 Q 188479.2 25721.6 188479.2 26285.6 Q 188479.2 26645.6 188551.2 27365.6 Q 188623.2 28085.6 188623.2 28445.6 Q 188623.2 28985.6 188293.2 29321.6 Q 187963.2 29657.6 187447.2 29657.6 Q 186919.2 29657.6 186595.2 29321.6 Q 186271.2 28985.6 186271.2 28445.6 Q 186271.2 28085.6 186193.2 27365.6 Q 186115.2 26645.6 186115.2 26285.6 Q 186115.2 25049.6 186289.2 22859.6 Q 186463.2 20669.6 186463.2 19433.6 Q 186463.2 19049.6 186421.2 18293.6 Q 186379.2 17537.6 186379.2 17153.6 Q 186379.2 16637.6 186721.2 16307.6 Q 187063.2 15977.6 187567.2 15977.6 Q 188671.2 15977.6 188779.2 17537.6 L 188815.2 18941.6 Q 190831.2 16253.6 192955.2 16253.6 Q 194875.2 16253.6 195631.2 17945.6 Q 196147.2 19073.6 196195.2 21281.6 L 196195.2 22493.6 L 196183.2 23609.6 Q 196183.2 24605.6 196441.2 26183.6 Q 196699.2 27761.6 196699.2 28745.6 Q 196699.2 29273.6 196357.2 29603.6 Q 196015.2 29933.6 195499.2 29933.6  Z M 208350.4 29933.6 Q 207318.4 29933.6 207186.4 28805.6 L 206850.4 26177.6 Q 206682.4 24773.6 206682.4 23549.6 Q 206682.4 23213.6 206724.4 22409.6 Q 206766.4 21605.6 206766.4 21269.6 Q 206766.4 18677.6 205806.4 18677.6 Q 204462.4 18677.6 203238.4 20273.6 Q 202134.4 21725.6 201510.4 23945.6 Q 201486.4 24413.6 201402.4 25121.6 Q 201330.4 25721.6 201330.4 26285.6 Q 201330.4 26645.6 201402.4 27365.6 Q 201474.4 28085.6 201474.4 28445.6 Q 201474.4 28985.6 201144.4 29321.6 Q 200814.4 29657.6 200298.4 29657.6 Q 199770.4 29657.6 199446.4 29321.6 Q 199122.4 28985.6 199122.4 28445.6 Q 199122.4 28085.6 199044.4 27365.6 Q 198966.4 26645.6 198966.4 26285.6 Q 198966.4 25049.6 199140.4 22859.6 Q 199314.4 20669.6 199314.4 19433.6 Q 199314.4 19049.6 199272.4 18293.6 Q 199230.4 17537.6 199230.4 17153.6 Q 199230.4 16637.6 199572.4 16307.6 Q 199914.4 15977.6 200418.4 15977.6 Q 201522.4 15977.6 201630.4 17537.6 L 201666.4 18941.6 Q 203682.4 16253.6 205806.4 16253.6 Q 207726.4 16253.6 208482.4 17945.6 Q 208998.4 19073.6 209046.4 21281.6 L 209046.4 22493.6 L 209034.4 23609.6 Q 209034.4 24605.6 209292.4 26183.6 Q 209550.4 27761.6 209550.4 28745.6 Q 209550.4 29273.6 209208.4 29603.6 Q 208866.4 29933.6 208350.4 29933.6  Z M 217601.6 29633.6 Q 214889.6 29633.6 213209.6 28277.6 Q 211373.6 26777.6 211373.6 24077.6 Q 211373.6 20957.6 212885.6 18845.6 Q 214529.6 16541.6 217277.6 16541.6 Q 219269.6 16541.6 220529.6 17213.6 Q 222077.6 18041.6 222077.6 19757.6 Q 222077.6 20957.6 220721.6 21941.6 Q 220121.6 22373.6 218177.6 23285.6 L 213593.6 25457.6 Q 214265.6 26453.6 215267.6 26957.6 Q 216269.6 27461.6 217601.6 27461.6 Q 218429.6 27461.6 219545.6 27149.6 Q 220961.6 26753.6 221369.6 26111.6 Q 221777.6 25469.6 222245.6 25469.6 Q 222665.6 25469.6 222995.6 25787.6 Q 223325.6 26105.6 223325.6 26525.6 Q 223325.6 27857.6 221177.6 28817.6 Q 219341.6 29633.6 217601.6 29633.6  Z M 217277.6 18701.6 Q 215813.6 18701.6 214841.6 19835.6 Q 213869.6 20969.6 213389.6 23249.6 L 217073.6 21497.6 Q 219245.6 20441.6 220169.6 19661.6 Q 219137.6 18701.6 217277.6 18701.6  Z M 236464 18485.6 Q 236320 20249.6 236320 22013.6 Q 236320 26009.6 236692 28049.6 Q 236716 28217.6 236716 28325.6 Q 236716 28805.6 236380 29117.6 Q 236044 29429.6 235600 29429.6 Q 234856 29429.6 234508 28349.6 Q 233644 28985.6 232714 29309.6 Q 231784 29633.6 230776 29633.6 Q 228292 29633.6 226660 27977.6 Q 224980 26285.6 224980 23633.6 Q 224980 20429.6 226678 18497.6 Q 228376 16565.6 231088 16565.6 Q 232480 16565.6 233236 16997.6 L 234364 17825.6 Q 234532 12773.6 234760 11021.6 Q 234916 9953.6 235852 9953.6 Q 236944 9953.6 236944 11117.6 Q 236944 12785.6 236464 18485.6  Z M 231136 18797.6 Q 229120 18797.6 228112 19991.6 Q 227104 21185.6 227104 23585.6 Q 227104 25133.6 228202 26249.6 Q 229300 27365.6 230776 27365.6 Q 231784 27365.6 232480 26993.6 Q 232888 26777.6 233812 25997.6 Q 233992 25841.6 234160 25625.6 L 234124 23549.6 L 234136 22157.6 L 234160 20741.6 Q 233704 19769.6 232948 19283.6 Q 232192 18797.6 231136 18797.6  Z M 241335.2 30197.6 Q 240711.2 30197.6 240279.2 29765.6 Q 239847.2 29333.6 239847.2 28709.6 Q 239847.2 28097.6 240279.2 27659.6 Q 240711.2 27221.6 241335.2 27221.6 Q 241947.2 27221.6 242385.2 27659.6 Q 242823.2 28097.6 242823.2 28709.6 Q 242823.2 29333.6 242385.2 29765.6 Q 241947.2 30197.6 241335.2 30197.6  Z M 247428 30197.6 Q 246804 30197.6 246372 29765.6 Q 245940 29333.6 245940 28709.6 Q 245940 28097.6 246372 27659.6 Q 246804 27221.6 247428 27221.6 Q 248040 27221.6 248478 27659.6 Q 248916 28097.6 248916 28709.6 Q 248916 29333.6 248478 29765.6 Q 248040 30197.6 247428 30197.6  Z M 253520.8 30197.6 Q 252896.8 30197.6 252464.8 29765.6 Q 252032.8 29333.6 252032.8 28709.6 Q 252032.8 28097.6 252464.8 27659.6 Q 252896.8 27221.6 253520.8 27221.6 Q 254132.8 27221.6 254570.8 27659.6 Q 255008.8 28097.6 255008.8 28709.6 Q 255008.8 29333.6 254570.8 29765.6 Q 254132.8 30197.6 253520.8 30197.6  Z " fill-rule="nonzero" style="fill:#f64747;;fill-opacity:1;"/>
</svg>