<svg version="1.1" x="0" y="0" width="100%" height="100%" viewBox="0 0 175513.6 38246.4" xmlns="http://www.w3.org/2000/svg">
  <path d="M 18392 13925.6 Q 17504 13925.6 15656 13781.6 Q 13856 13649.6 12920 13661.6 L 12068 13661.6 Q 12104 15317.6 12392 19037.6 Q 12656 22505.6 12656 24425.6 Q 12656 24845.6 12740 25697.6 Q 12824 26549.6 12824 26981.6 Q 12824 27797.6 12560 28385.6 Q 12224 29177.6 11516 29177.6 Q 11036 29177.6 10652 28841.6 Q 10268 28505.6 10268 27977.6 Q 10268 27797.6 10328 27437.6 Q 10388 27077.6 10388 26897.6 Q 10388 26309.6 10310 25133.6 Q 10232 23957.6 10232 23357.6 Q 10232 21641.6 9956 18533.6 Q 9668 15173.6 9632 13709.6 L 8540 13721.6 Q 5912 13721.6 4412 13337.6 Q 3440 13085.6 3440 12149.6 Q 3440 11657.6 3752 11285.6 Q 4112 10865.6 4676 10901.6 Q 5096 10925.6 6596 11117.6 Q 7796 11261.6 8540 11261.6 Q 9260 11261.6 10724 11231.6 Q 12188 11201.6 12908 11201.6 Q 13832 11201.6 15650 11333.6 Q 17468 11465.6 18392 11465.6 Q 18908 11465.6 19256 11819.6 Q 19604 12173.6 19604 12701.6 Q 19604 13217.6 19256 13571.6 Q 18908 13925.6 18392 13925.6  Z M 30451.2 29825.6 Q 29599.2 29825.6 29335.2 28913.6 Q 29059.2 27929.6 28831.2 26117.6 Q 28615.2 24377.6 28615.2 23261.6 Q 28615.2 22949.6 28645.2 22313.6 Q 28675.2 21677.6 28675.2 21365.6 Q 28675.2 19109.6 27547.2 19109.6 Q 26023.2 19109.6 24823.2 20489.6 Q 24211.2 21197.6 23143.2 23189.6 Q 23143.2 27761.6 22759.2 28601.6 Q 22423.2 29345.6 21715.2 29345.6 Q 21223.2 29345.6 20851.2 29009.6 Q 20479.2 28673.6 20479.2 28193.6 Q 20479.2 28025.6 20587.2 27665.6 Q 20683.2 27365.6 20719.2 25913.6 L 20755.2 24137.6 L 20791.2 15317.6 Q 20875.2 13829.6 20875.2 13313.6 Q 20875.2 12701.6 20761.2 12155.6 Q 20647.2 11609.6 20647.2 11021.6 Q 20647.2 10517.6 20995.2 10187.6 Q 21343.2 9857.6 21847.2 9857.6 Q 22831.2 9857.6 22999.2 10913.6 Q 23191.2 12077.6 23191.2 13013.6 Q 23191.2 14273.6 23107.2 15641.6 Q 23035.2 16949.6 23047.2 18269.6 L 23059.2 19325.6 Q 24043.2 18005.6 25165.2 17351.6 Q 26287.2 16697.6 27547.2 16697.6 Q 29539.2 16697.6 30283.2 17993.6 Q 30811.2 18905.6 30883.2 21065.6 L 30979.2 23357.6 L 31219.2 25853.6 Q 31387.2 27257.6 31627.2 28325.6 Q 31675.2 28529.6 31675.2 28673.6 Q 31675.2 29165.6 31315.2 29495.6 Q 30955.2 29825.6 30451.2 29825.6  Z M 40193.6 29633.6 Q 37481.6 29633.6 35801.6 28277.6 Q 33965.6 26777.6 33965.6 24077.6 Q 33965.6 20957.6 35477.6 18845.6 Q 37121.6 16541.6 39869.6 16541.6 Q 41861.6 16541.6 43121.6 17213.6 Q 44669.6 18041.6 44669.6 19757.6 Q 44669.6 20957.6 43313.6 21941.6 Q 42713.6 22373.6 40769.6 23285.6 L 36185.6 25457.6 Q 36857.6 26453.6 37859.6 26957.6 Q 38861.6 27461.6 40193.6 27461.6 Q 41021.6 27461.6 42137.6 27149.6 Q 43553.6 26753.6 43961.6 26111.6 Q 44369.6 25469.6 44837.6 25469.6 Q 45257.6 25469.6 45587.6 25787.6 Q 45917.6 26105.6 45917.6 26525.6 Q 45917.6 27857.6 43769.6 28817.6 Q 41933.6 29633.6 40193.6 29633.6  Z M 39869.6 18701.6 Q 38405.6 18701.6 37433.6 19835.6 Q 36461.6 20969.6 35981.6 23249.6 L 39665.6 21497.6 Q 41837.6 20441.6 42761.6 19661.6 Q 41729.6 18701.6 39869.6 18701.6  Z M 60425.6 29501.6 Q 59225.6 29501.6 57785.6 29117.6 L 57761.6 34853.6 Q 57761.6 35381.6 57431.6 35717.6 Q 57101.6 36053.6 56585.6 36053.6 Q 56069.6 36053.6 55739.6 35717.6 Q 55409.6 35381.6 55409.6 34853.6 L 55445.6 30053.6 L 55445.6 25265.6 Q 55409.6 22637.6 55265.6 20477.6 L 55085.6 18041.6 Q 55085.6 17189.6 55397.6 16601.6 Q 55757.6 15893.6 56441.6 15893.6 Q 56909.6 15893.6 57227.6 16223.6 Q 57545.6 16553.6 57545.6 17033.6 Q 57545.6 17141.6 57509.6 17429.6 Q 57449.6 17801.6 57425.6 18113.6 Q 58457.6 17405.6 59417.6 17051.6 Q 60377.6 16697.6 61253.6 16697.6 Q 63713.6 16697.6 64853.6 18881.6 Q 65753.6 20609.6 65753.6 23453.6 Q 65753.6 26045.6 64361.6 27725.6 Q 62885.6 29501.6 60425.6 29501.6  Z M 61253.6 19097.6 Q 60149.6 19097.6 59261.6 19589.6 Q 58625.6 19937.6 57653.6 20861.6 Q 57809.6 23585.6 57809.6 26585.6 Q 59117.6 27089.6 60425.6 27089.6 Q 61925.6 27089.6 62717.6 25973.6 Q 63401.6 25001.6 63401.6 23453.6 Q 63401.6 21269.6 62867.6 20183.6 Q 62333.6 19097.6 61253.6 19097.6  Z M 71480.8 19649.6 L 71300.8 25613.6 Q 71300.8 26561.6 71204.8 28397.6 Q 71084.8 29597.6 70028.8 29597.6 Q 68852.8 29597.6 68852.8 28373.6 Q 68852.8 26921.6 68984.8 24011.6 Q 69116.8 21101.6 69116.8 19649.6 Q 69116.8 17753.6 69176.8 15311.6 Q 69236.8 12869.6 69236.8 10973.6 Q 69236.8 9773.6 70412.8 9773.6 Q 71600.8 9773.6 71600.8 10973.6 Q 71600.8 12869.6 71540.8 15311.6 Q 71480.8 17753.6 71480.8 19649.6  Z M 84512 29873.6 Q 84284 29873.6 83684 29345.6 Q 83144 28853.6 82880 28469.6 Q 81728 29093.6 80852 29411.6 Q 79976 29729.6 79388 29729.6 Q 76580 29729.6 75296 28145.6 Q 74084 26657.6 74084 23585.6 Q 74084 20681.6 76082 18617.6 Q 78080 16553.6 80852 16553.6 Q 81896 16553.6 83192 17093.6 Q 84824 17765.6 84824 18713.6 Q 84824 19037.6 84584 19289.6 Q 84464 19745.6 84398 20789.6 Q 84332 21833.6 84320 23465.6 Q 84308 24953.6 84524 25817.6 Q 84644 26345.6 85280 27929.6 Q 85364 28145.6 85556 28565.6 L 85628 28769.6 Q 85628 29249.6 85292 29561.6 Q 84956 29873.6 84512 29873.6  Z M 82016 21533.6 Q 82016 21017.6 82082 20411.6 Q 82148 19805.6 82280 19121.6 Q 81836 18893.6 81518 18785.6 Q 81200 18677.6 81008 18677.6 Q 79148 18677.6 77798 20195.6 Q 76448 21713.6 76448 23693.6 Q 76448 25661.6 77144 26645.6 Q 77840 27629.6 79232 27629.6 Q 80384 27629.6 81188 27209.6 Q 81620 26981.6 82400 26297.6 Q 82016 23117.6 82016 21533.6  Z M 96888 29933.6 Q 95856 29933.6 95724 28805.6 L 95388 26177.6 Q 95220 24773.6 95220 23549.6 Q 95220 23213.6 95262 22409.6 Q 95304 21605.6 95304 21269.6 Q 95304 18677.6 94344 18677.6 Q 93000 18677.6 91776 20273.6 Q 90672 21725.6 90048 23945.6 Q 90024 24413.6 89940 25121.6 Q 89868 25721.6 89868 26285.6 Q 89868 26645.6 89940 27365.6 Q 90012 28085.6 90012 28445.6 Q 90012 28985.6 89682 29321.6 Q 89352 29657.6 88836 29657.6 Q 88308 29657.6 87984 29321.6 Q 87660 28985.6 87660 28445.6 Q 87660 28085.6 87582 27365.6 Q 87504 26645.6 87504 26285.6 Q 87504 25049.6 87678 22859.6 Q 87852 20669.6 87852 19433.6 Q 87852 19049.6 87810 18293.6 Q 87768 17537.6 87768 17153.6 Q 87768 16637.6 88110 16307.6 Q 88452 15977.6 88956 15977.6 Q 90060 15977.6 90168 17537.6 L 90204 18941.6 Q 92220 16253.6 94344 16253.6 Q 96264 16253.6 97020 17945.6 Q 97536 19073.6 97584 21281.6 L 97584 22493.6 L 97572 23609.6 Q 97572 24605.6 97830 26183.6 Q 98088 27761.6 98088 28745.6 Q 98088 29273.6 97746 29603.6 Q 97404 29933.6 96888 29933.6  Z M 122220.8 18341.6 Q 121284.8 22253.6 119772.8 27185.6 Q 119436.8 28277.6 118656.8 29429.6 Q 118236.8 30065.6 117516.8 30053.6 Q 116208.8 30029.6 115476.8 26801.6 Q 115236.8 25769.6 114984.8 23993.6 L 114588.8 21317.6 L 113604.8 23609.6 L 111780.8 28565.6 Q 111624.8 29021.6 111324.8 29261.6 Q 110964.8 29957.6 110172.8 29981.6 Q 109260.8 30017.6 108408.8 26405.6 Q 107976.8 24545.6 107544.8 21365.6 L 107256.8 19565.6 Q 107100.8 18485.6 107100.8 17753.6 Q 107100.8 17249.6 107454.8 16919.6 Q 107808.8 16589.6 108312.8 16589.6 Q 109224.8 16589.6 109440.8 17585.6 Q 109596.8 18293.6 109692.8 19337.6 L 109872.8 21101.6 L 110580.8 26489.6 Q 111912.8 22793.6 113340.8 17969.6 Q 113736.8 16637.6 114720.8 16637.6 Q 115668.8 16637.6 116004.8 18125.6 Q 116316.8 19529.6 116784.8 22445.6 Q 117264.8 25469.6 117636.8 27161.6 L 118512.8 23897.6 L 120060.8 17357.6 Q 120240.8 16625.6 121092.8 16625.6 Q 121596.8 16625.6 121968.8 16967.6 Q 122340.8 17309.6 122340.8 17789.6 Q 122340.8 17849.6 122220.8 18341.6  Z M 134022.4 29873.6 Q 133794.4 29873.6 133194.4 29345.6 Q 132654.4 28853.6 132390.4 28469.6 Q 131238.4 29093.6 130362.4 29411.6 Q 129486.4 29729.6 128898.4 29729.6 Q 126090.4 29729.6 124806.4 28145.6 Q 123594.4 26657.6 123594.4 23585.6 Q 123594.4 20681.6 125592.4 18617.6 Q 127590.4 16553.6 130362.4 16553.6 Q 131406.4 16553.6 132702.4 17093.6 Q 134334.4 17765.6 134334.4 18713.6 Q 134334.4 19037.6 134094.4 19289.6 Q 133974.4 19745.6 133908.4 20789.6 Q 133842.4 21833.6 133830.4 23465.6 Q 133818.4 24953.6 134034.4 25817.6 Q 134154.4 26345.6 134790.4 27929.6 Q 134874.4 28145.6 135066.4 28565.6 L 135138.4 28769.6 Q 135138.4 29249.6 134802.4 29561.6 Q 134466.4 29873.6 134022.4 29873.6  Z M 131526.4 21533.6 Q 131526.4 21017.6 131592.4 20411.6 Q 131658.4 19805.6 131790.4 19121.6 Q 131346.4 18893.6 131028.4 18785.6 Q 130710.4 18677.6 130518.4 18677.6 Q 128658.4 18677.6 127308.4 20195.6 Q 125958.4 21713.6 125958.4 23693.6 Q 125958.4 25661.6 126654.4 26645.6 Q 127350.4 27629.6 128742.4 27629.6 Q 129894.4 27629.6 130698.4 27209.6 Q 131130.4 26981.6 131910.4 26297.6 Q 131526.4 23117.6 131526.4 21533.6  Z M 145294.4 19841.6 Q 144634.4 19841.6 144370.4 19397.6 Q 144190.4 19085.6 144058.4 18101.6 Q 143158.4 18329.6 141286.4 18941.6 Q 139354.4 19709.6 139342.4 20837.6 Q 139702.4 20969.6 140050.4 21029.6 Q 142810.4 21521.6 144154.4 22385.6 Q 146110.4 23645.6 146110.4 26033.6 Q 146110.4 27989.6 144418.4 28985.6 Q 143014.4 29801.6 140866.4 29801.6 Q 139294.4 29801.6 137866.4 29273.6 Q 136018.4 28601.6 136018.4 27401.6 Q 136018.4 26921.6 136396.4 26561.6 Q 136774.4 26201.6 137254.4 26201.6 Q 137626.4 26201.6 138214.4 26777.6 Q 138502.4 27053.6 139510.4 27233.6 Q 140314.4 27377.6 140866.4 27377.6 Q 141874.4 27377.6 142642.4 27137.6 Q 143758.4 26789.6 143758.4 26033.6 Q 143758.4 24401.6 141478.4 23825.6 L 140230.4 23549.6 Q 138634.4 23201.6 137962.4 22733.6 Q 136990.4 22061.6 136990.4 20705.6 Q 136990.4 18197.6 139354.4 17129.6 Q 140074.4 16805.6 141658.4 16355.6 Q 143242.4 15905.6 143926.4 15593.6 Q 144418.4 15377.6 144994.4 15377.6 Q 145510.4 15377.6 145840.4 15713.6 Q 146170.4 16049.6 146170.4 16589.6 Q 146170.4 16937.6 146320.4 17609.6 Q 146470.4 18281.6 146470.4 18629.6 Q 146470.4 19169.6 146140.4 19505.6 Q 145810.4 19841.6 145294.4 19841.6  Z M 152424 26369.6 Q 152424 26909.6 152076 27257.6 Q 151728 27605.6 151188 27605.6 Q 150648 27605.6 150312 27257.6 Q 149964 26909.6 149964 26369.6 Q 149964 26141.6 149886 25703.6 Q 149808 25265.6 149808 25049.6 Q 149808 24545.6 150186 24209.6 Q 150564 23873.6 151080 23873.6 Q 152424 23873.6 152424 26369.6  Z M 152220 17609.6 Q 152220 18149.6 151878 18497.6 Q 151536 18845.6 150996 18845.6 Q 150456 18845.6 150108 18497.6 Q 149760 18149.6 149760 17609.6 Q 149760 17465.6 149706 17171.6 Q 149652 16877.6 149652 16721.6 Q 149652 16205.6 150012 15869.6 Q 150372 15533.6 150900 15533.6 Q 152220 15533.6 152220 17609.6  Z " fill-rule="nonzero" style="fill:#00b050;;fill-opacity:1;"/>
</svg>