<svg version="1.1" x="0" y="0" width="100%" height="100%" viewBox="0 0 168857.6 79718.4" xmlns="http://www.w3.org/2000/svg">
  <path d="M 7597 18091.8 L 30444 18091.8 L 30444 22586.8 L 12123 22586.8 L 12123 36846.8 L 30444 36846.8 L 30444 41341.8 L 12123 41341.8 L 12123 63692.8 L 7597 63692.8 L 7597 18091.8 Z M 34772.2 18091.8 L 40042.2 18091.8 L 51698.2 36877.8 L 63168.2 18091.8 L 68438.2 18091.8 L 53992.2 41899.8 L 53992.2 63692.8 L 49497.2 63692.8 L 49497.2 41899.8 L 34772.2 18091.8 Z M 75866.8 18091.8 L 84949.8 18091.8 Q 92761.8 18091.8 95489.8 18773.8 Q 99395.8 19734.8 101875.8 22726.3 Q 104355.8 25717.8 104355.8 30243.8 Q 104355.8 34800.8 101937.8 37761.3 Q 99519.8 40721.8 95272.8 41744.8 Q 92172.8 42488.8 83678.8 42488.8 L 80423.8 42488.8 L 80423.8 63692.8 L 75866.8 63692.8 L 75866.8 18091.8 Z M 80423.8 22524.8 L 80423.8 38024.8 L 88142.8 38117.8 Q 92823.8 38117.8 94993.8 37265.3 Q 97163.8 36412.8 98403.8 34506.3 Q 99643.8 32599.8 99643.8 30243.8 Q 99643.8 27949.8 98403.8 26043.3 Q 97163.8 24136.8 95133.3 23330.8 Q 93102.8 22524.8 88483.8 22524.8 L 80423.8 22524.8 Z M 129671.4 33653.8 L 126881.4 36536.8 Q 123409.4 33157.8 120092.4 33157.8 Q 117984.4 33157.8 116480.9 34552.8 Q 114977.4 35947.8 114977.4 37807.8 Q 114977.4 39450.8 116217.4 40938.8 Q 117457.4 42457.8 121425.4 44503.8 Q 126261.4 47014.8 127997.4 49339.8 Q 129702.4 51695.8 129702.4 54640.8 Q 129702.4 58794.8 126788.4 61677.8 Q 123874.4 64560.8 119503.4 64560.8 Q 116589.4 64560.8 113938.9 63289.8 Q 111288.4 62018.8 109552.4 59786.8 L 112280.4 56686.8 Q 115597.4 60437.8 119317.4 60437.8 Q 121921.4 60437.8 123750.4 58763.8 Q 125579.4 57089.8 125579.4 54826.8 Q 125579.4 52966.8 124370.4 51509.8 Q 123161.4 50083.8 118914.4 47913.8 Q 114357.4 45557.8 112714.4 43263.8 Q 111071.4 40969.8 111071.4 38024.8 Q 111071.4 34180.8 113690.9 31638.8 Q 116310.4 29096.8 120309.4 29096.8 Q 124959.4 29096.8 129671.4 33653.8  Z " fill-rule="nonzero" style="fill:#000000;;fill-opacity:1;"/>
</svg>