<svg version="1.1" x="0" y="0" width="100%" height="100%" viewBox="0 0 109516.8 33331.2" xmlns="http://www.w3.org/2000/svg">
  <path d="M 4184 8255.2 L 7700 8255.2 Q 10724 8255.2 11780 8519.2 Q 13292 8891.2 14252 10049.2 Q 15212 11207.2 15212 12959.2 Q 15212 14723.2 14276 15869.2 Q 13340 17015.2 11696 17411.2 Q 10496 17699.2 7208 17699.2 L 5948 17699.2 L 5948 25907.2 L 4184 25907.2 L 4184 8255.2 Z M 5948 9971.2 L 5948 15971.2 L 8936 16007.2 Q 10748 16007.2 11588 15677.2 Q 12428 15347.2 12908 14609.2 Q 13388 13871.2 13388 12959.2 Q 13388 12071.2 12908 11333.2 Q 12428 10595.2 11642 10283.2 Q 10856 9971.2 9068 9971.2 L 5948 9971.2 Z M 31468.8 12851.2 L 31468.8 25907.2 L 29812.8 25907.2 L 29812.8 23663.2 Q 28756.8 24947.2 27442.8 25595.2 Q 26128.8 26243.2 24568.8 26243.2 Q 21796.8 26243.2 19834.8 24233.2 Q 17872.8 22223.2 17872.8 19343.2 Q 17872.8 16523.2 19852.8 14519.2 Q 21832.8 12515.2 24616.8 12515.2 Q 26224.8 12515.2 27526.8 13199.2 Q 28828.8 13883.2 29812.8 15251.2 L 29812.8 12851.2 L 31468.8 12851.2 Z M 24748.8 14135.2 Q 23344.8 14135.2 22156.8 14825.2 Q 20968.8 15515.2 20266.8 16763.2 Q 19564.8 18011.2 19564.8 19403.2 Q 19564.8 20783.2 20272.8 22043.2 Q 20980.8 23303.2 22174.8 24005.2 Q 23368.8 24707.2 24736.8 24707.2 Q 26116.8 24707.2 27352.8 24011.2 Q 28588.8 23315.2 29254.8 22127.2 Q 29920.8 20939.2 29920.8 19451.2 Q 29920.8 17183.2 28426.8 15659.2 Q 26932.8 14135.2 24748.8 14135.2  Z M 47875.2 15563.2 L 46543.2 16391.2 Q 44815.2 14099.2 41827.2 14099.2 Q 39439.2 14099.2 37861.2 15635.2 Q 36283.2 17171.2 36283.2 19367.2 Q 36283.2 20795.2 37009.2 22055.2 Q 37735.2 23315.2 39001.2 24011.2 Q 40267.2 24707.2 41839.2 24707.2 Q 44719.2 24707.2 46543.2 22415.2 L 47875.2 23291.2 Q 46939.2 24695.2 45361.2 25469.2 Q 43783.2 26243.2 41767.2 26243.2 Q 38671.2 26243.2 36631.2 24275.2 Q 34591.2 22307.2 34591.2 19487.2 Q 34591.2 17591.2 35545.2 15965.2 Q 36499.2 14339.2 38167.2 13427.2 Q 39835.2 12515.2 41899.2 12515.2 Q 43195.2 12515.2 44401.2 12911.2 Q 45607.2 13307.2 46447.2 13943.2 Q 47287.2 14579.2 47875.2 15563.2  Z M 51063.2 7811.2 L 52755.2 7811.2 L 52755.2 18107.2 L 58791.2 12851.2 L 61263.2 12851.2 L 54099.2 19079.2 L 61683.2 25907.2 L 59307.2 25907.2 L 52755.2 20039.2 L 52755.2 25907.2 L 51063.2 25907.2 L 51063.2 7811.2 Z M 63951.2 7475.2 Q 64527.2 7475.2 64935.2 7883.2 Q 65343.2 8291.2 65343.2 8867.2 Q 65343.2 9431.2 64935.2 9839.2 Q 64527.2 10247.2 63951.2 10247.2 Q 63387.2 10247.2 62979.2 9839.2 Q 62571.2 9431.2 62571.2 8867.2 Q 62571.2 8291.2 62979.2 7883.2 Q 63387.2 7475.2 63951.2 7475.2  Z M 63111.2 12851.2 L 64803.2 12851.2 L 64803.2 25907.2 L 63111.2 25907.2 L 63111.2 12851.2 Z M 68278.4 12851.2 L 69958.4 12851.2 L 69958.4 15191.2 Q 70966.4 13847.2 72190.4 13181.2 Q 73414.4 12515.2 74854.4 12515.2 Q 76318.4 12515.2 77452.4 13259.2 Q 78586.4 14003.2 79126.4 15263.2 Q 79666.4 16523.2 79666.4 19187.2 L 79666.4 25907.2 L 77998.4 25907.2 L 77998.4 19679.2 Q 77998.4 17423.2 77806.4 16667.2 Q 77506.4 15371.2 76678.4 14717.2 Q 75850.4 14063.2 74518.4 14063.2 Q 72994.4 14063.2 71788.4 15071.2 Q 70582.4 16079.2 70198.4 17567.2 Q 69958.4 18539.2 69958.4 21119.2 L 69958.4 25907.2 L 68278.4 25907.2 L 68278.4 12851.2 Z M 94472.8 12851.2 L 96164.8 12851.2 L 96164.8 23255.2 Q 96164.8 26003.2 95684.8 27275.2 Q 95024.8 29075.2 93392.8 30047.2 Q 91760.8 31019.2 89468.8 31019.2 Q 87788.8 31019.2 86450.8 30545.2 Q 85112.8 30071.2 84272.8 29273.2 Q 83432.8 28475.2 82724.8 26939.2 L 84548.8 26939.2 Q 85292.8 28235.2 86468.8 28859.2 Q 87644.8 29483.2 89384.8 29483.2 Q 91100.8 29483.2 92282.8 28841.2 Q 93464.8 28199.2 93968.8 27227.2 Q 94472.8 26255.2 94472.8 24095.2 L 94472.8 23423.2 Q 93524.8 24623.2 92156.8 25265.2 Q 90788.8 25907.2 89252.8 25907.2 Q 87452.8 25907.2 85868.8 25013.2 Q 84284.8 24119.2 83420.8 22607.2 Q 82556.8 21095.2 82556.8 19283.2 Q 82556.8 17471.2 83456.8 15905.2 Q 84356.8 14339.2 85946.8 13427.2 Q 87536.8 12515.2 89300.8 12515.2 Q 90764.8 12515.2 92030.8 13121.2 Q 93296.8 13727.2 94472.8 15119.2 L 94472.8 12851.2 Z M 89516.8 14135.2 Q 88088.8 14135.2 86864.8 14825.2 Q 85640.8 15515.2 84944.8 16733.2 Q 84248.8 17951.2 84248.8 19367.2 Q 84248.8 21515.2 85688.8 22919.2 Q 87128.8 24323.2 89420.8 24323.2 Q 91736.8 24323.2 93146.8 22931.2 Q 94556.8 21539.2 94556.8 19271.2 Q 94556.8 17795.2 93908.8 16637.2 Q 93260.8 15479.2 92072.8 14807.2 Q 90884.8 14135.2 89516.8 14135.2  Z " fill-rule="nonzero" style="fill:#000000;;fill-opacity:1;"/>
</svg>