<svg version="1.1" x="0" y="0" width="100%" height="100%" viewBox="0 0 113459.2 40550.4" xmlns="http://www.w3.org/2000/svg">
  <path d="M 7356.8 23956.4 L 1900.4 12431.6 L 5758.4 12431.6 L 7577.6 16853.6 Q 8512.4 19311.2 9150.8 20884.4 L 9248 20884.4 L 12689.6 12431.6 L 16473.2 12431.6 L 10992.8 23956.4 L 10992.8 30617.6 L 7355.6 30617.6 L 7355.6 23956.4 L 7356.8 23956.4 Z M 19326.4 29068.4 Q 17311.6 27028.4 17311.6 23760.8 Q 17311.6 20442.8 19326.4 18402.8 Q 21194.8 16510.4 23922.4 16510.4 Q 26650 16510.4 28517.2 18402.8 Q 30533.2 20442.8 30533.2 23760.8 Q 30533.2 27028.4 28517.2 29068.4 Q 26624.8 30960.8 23922.4 30960.8 Q 21218.8 30960.8 19326.4 29068.4  Z M 26084.8 26858 Q 26848 25726.4 26848 23762 Q 26848 21770 26084.8 20640.8 Q 25298.8 19461.2 23922.4 19461.2 Q 22546 19461.2 21758.8 20640.8 Q 20996.8 21770 20996.8 23762 Q 20996.8 25726.4 21758.8 26858 Q 22546 28013.6 23922.4 28013.6 Q 25298.8 28013.6 26084.8 26858  Z M 33384.4 25456.4 L 33384.4 16854.8 L 36997.6 16854.8 L 36997.6 24990.8 Q 36997.6 26564 37464.4 27226.4 Q 37907.2 27866 38914 27866 Q 40412.8 27866 41714.8 26144 L 41714.8 16854.8 L 45328 16854.8 L 45328 30617.6 L 42379.6 30617.6 L 42109.6 28650.8 L 42012.4 28650.8 Q 40069.6 30960.8 37612 30960.8 Q 33384.4 30960.8 33384.4 25455.2 L 33384.4 25456.4 Z M 55490.8 35729.6 Q 53819.2 34794.8 53819.2 33051.2 Q 53819.2 31305.2 55786 30200 L 55786 30076.4 Q 54533.2 29265.2 54533.2 27766.4 Q 54533.2 26292.8 56056 25185.2 L 56056 25088 Q 54236.8 23735.6 54236.8 21498.8 Q 54236.8 19164.8 55908.4 17788.4 Q 57481.6 16510.4 59791.6 16510.4 Q 60871.6 16510.4 61855.6 16854.8 L 66820 16854.8 L 66820 19509.2 L 64459.6 19509.2 Q 65098 20320.4 65098 21598.4 Q 65098 23835.2 63551.2 25088 Q 62100.4 26267.6 59791.6 26267.6 Q 58980.4 26267.6 58021.6 25949.6 Q 57431.2 26415.2 57431.2 27129.2 Q 57431.2 28258.4 59594.8 28258.4 L 61928.8 28258.4 Q 67040.8 28258.4 67040.8 31700 Q 67040.8 33813.2 65024.8 35189.6 Q 62960.8 36590 59568.4 36590 Q 57013.6 36590 55490.8 35730.8 L 55490.8 35729.6 Z M 61315.6 23368.4 Q 61930 22680.8 61930 21500 Q 61930 20320.4 61315.6 19632.8 Q 60750.4 18969.2 59791.6 18969.2 Q 58832.8 18969.2 58242.4 19632.8 Q 57628 20320.4 57628 21500 Q 57628 22680.8 58266.4 23368.4 Q 58856.8 24032 59791.6 24032 Q 60724 24032 61314.4 23368.4 L 61315.6 23368.4 Z M 62641.6 33713.6 Q 63600.4 33148.4 63600.4 32313.2 Q 63600.4 31084.4 61315.6 31084.4 L 59644 31084.4 Q 58514.8 31084.4 57727.6 30887.6 Q 56819.2 31625.6 56819.2 32484.8 Q 56819.2 34304 60112 34304 Q 61637.2 34304 62644 33713.6 L 62641.6 33713.6 Z M 70451.2 29044.4 Q 68460.4 27077.6 68460.4 23760.8 Q 68460.4 20540 70427.2 18452 Q 72294.4 16509.2 74875.6 16509.2 Q 77627.2 16509.2 79176.4 18377.6 Q 80626 20147.6 80626 23096 Q 80626 24177.2 80454.4 24742.4 L 71974 24742.4 Q 72416.8 28182.8 75782.8 28182.8 Q 77356 28182.8 78878.8 27224 L 80107.6 29436.8 Q 77896 30959.6 75290.8 30959.6 Q 72342.4 30959.6 70450 29043.2 L 70451.2 29044.4 Z M 77530 22360.4 Q 77530 19312.4 74924.8 19312.4 Q 73793.2 19312.4 72982 20075.6 Q 72121.6 20910.8 71926 22360.4 L 77528.8 22360.4 L 77530 22360.4 Z M 84019.2 25799.6 L 84019.2 19704.8 L 82078.8 19704.8 L 82078.8 17026.4 L 84192 16853.6 L 84609.6 13167.2 L 87632.4 13167.2 L 87632.4 16853.6 L 91024.8 16853.6 L 91024.8 19704.8 L 87632.4 19704.8 L 87632.4 25799.6 Q 87632.4 28109.6 89499.6 28109.6 Q 90114 28109.6 90852 27815.6 L 91442.4 30444.8 Q 89893.2 30962 88540.8 30962 Q 84019.2 30962 84019.2 25800.8 L 84019.2 25799.6 Z " fill-rule="nonzero" style="fill:#f64747;;fill-opacity:1;"/>
</svg>