<svg version="1.1" x="0" y="0" width="100%" height="100%" viewBox="0 0 104345.6 26419.2" xmlns="http://www.w3.org/2000/svg">
  <path d="M 3569 7087.4 L 6557 7087.4 Q 9446 7087.4 10850 7802.9 Q 12254 8518.4 13163 10129.4 Q 14072 11740.4 14072 13891.4 Q 14072 15421.4 13563.5 16703.9 Q 13055 17986.4 12159.5 18832.4 Q 11264 19678.4 10220 20002.4 Q 9176 20326.4 6602 20326.4 L 3569 20326.4 L 3569 7087.4 Z M 6080 9517.4 L 6080 17860.4 L 7250 17860.4 Q 8978 17860.4 9756.5 17464.4 Q 10535 17068.4 11030 16132.4 Q 11525 15196.4 11525 13828.4 Q 11525 11722.4 10346 10561.4 Q 9284 9517.4 6935 9517.4 L 6080 9517.4 Z M 15616.4 10534.4 L 17722.4 10534.4 L 17722.4 11767.4 Q 18064.4 11038.4 18631.4 10660.4 Q 19198.4 10282.4 19873.4 10282.4 Q 20350.4 10282.4 20872.4 10534.4 L 20107.4 12649.4 Q 19675.4 12433.4 19396.4 12433.4 Q 18829.4 12433.4 18437.9 13135.4 Q 18046.4 13837.4 18046.4 15889.4 L 18055.4 16366.4 L 18055.4 20326.4 L 15616.4 20326.4 L 15616.4 10534.4 Z M 23421.4 17761.4 Q 24006.4 17761.4 24420.4 18170.9 Q 24834.4 18580.4 24834.4 19165.4 Q 24834.4 19750.4 24420.4 20164.4 Q 24006.4 20578.4 23421.4 20578.4 Q 22836.4 20578.4 22422.4 20164.4 Q 22008.4 19750.4 22008.4 19165.4 Q 22008.4 18580.4 22422.4 18170.9 Q 22836.4 17761.4 23421.4 17761.4  Z M 32590.4 7087.4 L 35110.4 7087.4 L 35110.4 17923.4 L 38782.4 17923.4 L 38782.4 20326.4 L 32590.4 20326.4 L 32590.4 7087.4 Z M 50220 16141.4 L 42327 16141.4 Q 42498 17185.4 43240.5 17801.9 Q 43983 18418.4 45135 18418.4 Q 46512 18418.4 47502 17455.4 L 49572 18427.4 Q 48798 19525.4 47718 20051.9 Q 46638 20578.4 45153 20578.4 Q 42849 20578.4 41400 19124.9 Q 39951 17671.4 39951 15484.4 Q 39951 13243.4 41395.5 11762.9 Q 42840 10282.4 45018 10282.4 Q 47331 10282.4 48780 11762.9 Q 50229 13243.4 50229 15673.4 L 50220 16141.4 Z M 47754 14206.4 Q 47511 13387.4 46795.5 12874.4 Q 46080 12361.4 45135 12361.4 Q 44109 12361.4 43335 12937.4 Q 42849 13297.4 42435 14206.4 L 47754 14206.4 Z M 53149 6502.4 Q 53797 6502.4 54260.5 6970.4 Q 54724 7438.4 54724 8104.4 Q 54724 8761.4 54265 9224.9 Q 53806 9688.4 53167 9688.4 Q 52510 9688.4 52046.5 9215.9 Q 51583 8743.4 51583 8068.4 Q 51583 7420.4 52042 6961.4 Q 52501 6502.4 53149 6502.4  Z M 51916 10534.4 L 54382 10534.4 L 54382 20326.4 L 51916 20326.4 L 51916 10534.4 Z M 61970.2 7087.4 L 64526.2 7087.4 L 64526.2 12082.4 L 68954.2 12082.4 L 68954.2 7087.4 L 71501.2 7087.4 L 71501.2 20326.4 L 68954.2 20326.4 L 68954.2 14521.4 L 64526.2 14521.4 L 64526.2 20326.4 L 61970.2 20326.4 L 61970.2 7087.4 Z M 81438 10534.4 L 83886 10534.4 L 83886 20326.4 L 81438 20326.4 L 81438 19291.4 Q 80718 19975.4 79993.5 20276.9 Q 79269 20578.4 78423 20578.4 Q 76524 20578.4 75138 19106.9 Q 73752 17635.4 73752 15448.4 Q 73752 13180.4 75093 11731.4 Q 76434 10282.4 78351 10282.4 Q 79233 10282.4 80007 10615.4 Q 80781 10948.4 81438 11614.4 L 81438 10534.4 Z M 78855 12550.4 Q 77712 12550.4 76956 13355.9 Q 76200 14161.4 76200 15421.4 Q 76200 16690.4 76969.5 17509.4 Q 77739 18328.4 78864 18328.4 Q 80025 18328.4 80790 17522.9 Q 81555 16717.4 81555 15412.4 Q 81555 14134.4 80790 13342.4 Q 80025 12550.4 78855 12550.4  Z M 86336.4 10534.4 L 88784.4 10534.4 L 88784.4 11533.4 Q 89621.4 10831.4 90300.9 10556.9 Q 90980.4 10282.4 91691.4 10282.4 Q 93149.4 10282.4 94166.4 11299.4 Q 95021.4 12163.4 95021.4 13855.4 L 95021.4 20326.4 L 92591.4 20326.4 L 92591.4 16033.4 Q 92591.4 14278.4 92433.9 13702.4 Q 92276.4 13126.4 91884.9 12824.9 Q 91493.4 12523.4 90917.4 12523.4 Q 90170.4 12523.4 89634.9 13022.9 Q 89099.4 13522.4 88892.4 14404.4 Q 88784.4 14863.4 88784.4 16393.4 L 88784.4 20326.4 L 86336.4 20326.4 L 86336.4 10534.4 Z " fill-rule="nonzero" style="fill:#000000;;fill-opacity:1;"/>
</svg>