<svg version="1.1" x="0" y="0" width="100%" height="100%" viewBox="0 0 149504 33331.2" xmlns="http://www.w3.org/2000/svg">
  <path d="M 3260 8255.2 L 5324 8255.2 L 9548 15143.2 L 13808 8255.2 L 15848 8255.2 L 10592 16811.2 L 16196 25907.2 L 14132 25907.2 L 9548 18503.2 L 4940 25907.2 L 2876 25907.2 L 8504 16811.2 L 3260 8255.2 Z M 24918.4 8255.2 L 26694.4 8255.2 L 26694.4 20171.2 Q 26694.4 22919.2 26268.4 23993.2 Q 25842.4 25067.2 24846.4 25709.2 Q 23850.4 26351.2 22434.4 26351.2 Q 21366.4 26351.2 20328.4 25937.2 Q 19290.4 25523.2 18030.4 24479.2 L 18966.4 23075.2 Q 20346.4 24047.2 21258.4 24443.2 Q 21858.4 24707.2 22434.4 24707.2 Q 23190.4 24707.2 23808.4 24251.2 Q 24426.4 23795.2 24672.4 23039.2 Q 24918.4 22283.2 24918.4 20111.2 L 24918.4 8255.2 Z M 29221.6 9971.2 L 29221.6 8255.2 L 38905.6 8255.2 L 38905.6 9971.2 L 34969.6 9971.2 L 34969.6 25907.2 L 33169.6 25907.2 L 33169.6 9971.2 L 29221.6 9971.2 Z M 41418.4 8255.2 L 43194.4 8255.2 L 43194.4 24203.2 L 49974.4 24203.2 L 49974.4 25907.2 L 41418.4 25907.2 L 41418.4 8255.2 Z M 52793.6 8255.2 L 54557.6 8255.2 L 54557.6 18911.2 Q 54557.6 20807.2 54629.6 21275.2 Q 54761.6 22319.2 55241.6 23021.2 Q 55721.6 23723.2 56717.6 24197.2 Q 57713.6 24671.2 58721.6 24671.2 Q 59597.6 24671.2 60401.6 24299.2 Q 61205.6 23927.2 61745.6 23267.2 Q 62285.6 22607.2 62537.6 21671.2 Q 62717.6 20999.2 62717.6 18911.2 L 62717.6 8255.2 L 64481.6 8255.2 L 64481.6 18911.2 Q 64481.6 21275.2 64019.6 22733.2 Q 63557.6 24191.2 62171.6 25271.2 Q 60785.6 26351.2 58817.6 26351.2 Q 56681.6 26351.2 55157.6 25331.2 Q 53633.6 24311.2 53117.6 22631.2 Q 52793.6 21599.2 52793.6 18911.2 L 52793.6 8255.2 Z M 73744.8 22619.2 L 75244.8 21719.2 Q 76828.8 24635.2 78904.8 24635.2 Q 79792.8 24635.2 80572.8 24221.2 Q 81352.8 23807.2 81760.8 23111.2 Q 82168.8 22415.2 82168.8 21635.2 Q 82168.8 20747.2 81568.8 19895.2 Q 80740.8 18719.2 78544.8 17063.2 Q 76336.8 15395.2 75796.8 14651.2 Q 74860.8 13403.2 74860.8 11951.2 Q 74860.8 10799.2 75412.8 9851.2 Q 75964.8 8903.2 76966.8 8357.2 Q 77968.8 7811.2 79144.8 7811.2 Q 80392.8 7811.2 81478.8 8429.2 Q 82564.8 9047.2 83776.8 10703.2 L 82336.8 11795.2 Q 81340.8 10475.2 80638.8 10055.2 Q 79936.8 9635.2 79108.8 9635.2 Q 78040.8 9635.2 77362.8 10283.2 Q 76684.8 10931.2 76684.8 11879.2 Q 76684.8 12455.2 76924.8 12995.2 Q 77164.8 13535.2 77800.8 14171.2 Q 78148.8 14507.2 80080.8 15935.2 Q 82372.8 17627.2 83224.8 18947.2 Q 84076.8 20267.2 84076.8 21599.2 Q 84076.8 23519.2 82618.8 24935.2 Q 81160.8 26351.2 79072.8 26351.2 Q 77464.8 26351.2 76156.8 25493.2 Q 74848.8 24635.2 73744.8 22619.2  Z M 88993.6 8003.2 L 90685.6 8003.2 L 90685.6 12851.2 L 93349.6 12851.2 L 93349.6 14291.2 L 90685.6 14291.2 L 90685.6 25907.2 L 88993.6 25907.2 L 88993.6 14291.2 L 86701.6 14291.2 L 86701.6 12851.2 L 88993.6 12851.2 L 88993.6 8003.2 Z M 108832 12851.2 L 108832 25907.2 L 107176 25907.2 L 107176 23663.2 Q 106120 24947.2 104806 25595.2 Q 103492 26243.2 101932 26243.2 Q 99160 26243.2 97198 24233.2 Q 95236 22223.2 95236 19343.2 Q 95236 16523.2 97216 14519.2 Q 99196 12515.2 101980 12515.2 Q 103588 12515.2 104890 13199.2 Q 106192 13883.2 107176 15251.2 L 107176 12851.2 L 108832 12851.2 Z M 102112 14135.2 Q 100708 14135.2 99520 14825.2 Q 98332 15515.2 97630 16763.2 Q 96928 18011.2 96928 19403.2 Q 96928 20783.2 97636 22043.2 Q 98344 23303.2 99538 24005.2 Q 100732 24707.2 102100 24707.2 Q 103480 24707.2 104716 24011.2 Q 105952 23315.2 106618 22127.2 Q 107284 20939.2 107284 19451.2 Q 107284 17183.2 105790 15659.2 Q 104296 14135.2 102112 14135.2  Z M 117942.4 7811.2 L 117942.4 9455.2 Q 117018.4 9059.2 116358.4 9059.2 Q 115866.4 9059.2 115542.4 9257.2 Q 115218.4 9455.2 115134.4 9713.2 Q 115050.4 9971.2 115050.4 11087.2 L 115050.4 12851.2 L 117774.4 12851.2 L 117774.4 14291.2 L 115038.4 14291.2 L 115038.4 25907.2 L 113358.4 25907.2 L 113358.4 14291.2 L 111642.4 14291.2 L 111642.4 12851.2 L 113358.4 12851.2 L 113358.4 10811.2 Q 113358.4 9407.2 113616.4 8807.2 Q 113874.4 8207.2 114492.4 7841.2 Q 115110.4 7475.2 115986.4 7475.2 Q 116802.4 7475.2 117942.4 7811.2  Z M 125622.4 7811.2 L 125622.4 9455.2 Q 124698.4 9059.2 124038.4 9059.2 Q 123546.4 9059.2 123222.4 9257.2 Q 122898.4 9455.2 122814.4 9713.2 Q 122730.4 9971.2 122730.4 11087.2 L 122730.4 12851.2 L 125454.4 12851.2 L 125454.4 14291.2 L 122718.4 14291.2 L 122718.4 25907.2 L 121038.4 25907.2 L 121038.4 14291.2 L 119322.4 14291.2 L 119322.4 12851.2 L 121038.4 12851.2 L 121038.4 10811.2 Q 121038.4 9407.2 121296.4 8807.2 Q 121554.4 8207.2 122172.4 7841.2 Q 122790.4 7475.2 123666.4 7475.2 Q 124482.4 7475.2 125622.4 7811.2  Z " fill-rule="nonzero" style="fill:#000000;;fill-opacity:1;"/>
</svg>