<svg version="1.1" x="0" y="0" width="100%" height="100%" viewBox="0 0 169011.2 33331.2" xmlns="http://www.w3.org/2000/svg">
  <path d="M 4292 8255.2 L 7808 8255.2 Q 10748 8255.2 11792 8495.2 Q 13364 8855.2 14348 10037.2 Q 15332 11219.2 15332 12947.2 Q 15332 14387.2 14654 15479.2 Q 13976 16571.2 12716 17129.2 Q 11456 17687.2 9236 17699.2 L 15584 25907.2 L 13400 25907.2 L 7064 17699.2 L 6056 17699.2 L 6056 25907.2 L 4292 25907.2 L 4292 8255.2 Z M 6056 9983.2 L 6056 15983.2 L 9092 16007.2 Q 10856 16007.2 11702 15671.2 Q 12548 15335.2 13022 14597.2 Q 13496 13859.2 13496 12947.2 Q 13496 12059.2 13016 11333.2 Q 12536 10607.2 11756 10295.2 Q 10976 9983.2 9164 9983.2 L 6056 9983.2 Z M 24029.6 22619.2 L 25529.6 21719.2 Q 27113.6 24635.2 29189.6 24635.2 Q 30077.6 24635.2 30857.6 24221.2 Q 31637.6 23807.2 32045.6 23111.2 Q 32453.6 22415.2 32453.6 21635.2 Q 32453.6 20747.2 31853.6 19895.2 Q 31025.6 18719.2 28829.6 17063.2 Q 26621.6 15395.2 26081.6 14651.2 Q 25145.6 13403.2 25145.6 11951.2 Q 25145.6 10799.2 25697.6 9851.2 Q 26249.6 8903.2 27251.6 8357.2 Q 28253.6 7811.2 29429.6 7811.2 Q 30677.6 7811.2 31763.6 8429.2 Q 32849.6 9047.2 34061.6 10703.2 L 32621.6 11795.2 Q 31625.6 10475.2 30923.6 10055.2 Q 30221.6 9635.2 29393.6 9635.2 Q 28325.6 9635.2 27647.6 10283.2 Q 26969.6 10931.2 26969.6 11879.2 Q 26969.6 12455.2 27209.6 12995.2 Q 27449.6 13535.2 28085.6 14171.2 Q 28433.6 14507.2 30365.6 15935.2 Q 32657.6 17627.2 33509.6 18947.2 Q 34361.6 20267.2 34361.6 21599.2 Q 34361.6 23519.2 32903.6 24935.2 Q 31445.6 26351.2 29357.6 26351.2 Q 27749.6 26351.2 26441.6 25493.2 Q 25133.6 24635.2 24029.6 22619.2  Z M 37814.4 7811.2 L 39494.4 7811.2 L 39494.4 15191.2 Q 40514.4 13847.2 41738.4 13181.2 Q 42962.4 12515.2 44390.4 12515.2 Q 45854.4 12515.2 46988.4 13259.2 Q 48122.4 14003.2 48662.4 15257.2 Q 49202.4 16511.2 49202.4 19187.2 L 49202.4 25907.2 L 47522.4 25907.2 L 47522.4 19679.2 Q 47522.4 17423.2 47342.4 16667.2 Q 47030.4 15371.2 46208.4 14717.2 Q 45386.4 14063.2 44054.4 14063.2 Q 42530.4 14063.2 41324.4 15071.2 Q 40118.4 16079.2 39734.4 17567.2 Q 39494.4 18527.2 39494.4 21119.2 L 39494.4 25907.2 L 37814.4 25907.2 L 37814.4 7811.2 Z M 53352.8 7475.2 Q 53928.8 7475.2 54336.8 7883.2 Q 54744.8 8291.2 54744.8 8867.2 Q 54744.8 9431.2 54336.8 9839.2 Q 53928.8 10247.2 53352.8 10247.2 Q 52788.8 10247.2 52380.8 9839.2 Q 51972.8 9431.2 51972.8 8867.2 Q 51972.8 8291.2 52380.8 7883.2 Q 52788.8 7475.2 53352.8 7475.2  Z M 52512.8 12851.2 L 54204.8 12851.2 L 54204.8 25907.2 L 52512.8 25907.2 L 52512.8 12851.2 Z M 57680 12851.2 L 59360 12851.2 L 59360 15191.2 Q 60368 13847.2 61592 13181.2 Q 62816 12515.2 64256 12515.2 Q 65720 12515.2 66854 13259.2 Q 67988 14003.2 68528 15263.2 Q 69068 16523.2 69068 19187.2 L 69068 25907.2 L 67400 25907.2 L 67400 19679.2 Q 67400 17423.2 67208 16667.2 Q 66908 15371.2 66080 14717.2 Q 65252 14063.2 63920 14063.2 Q 62396 14063.2 61190 15071.2 Q 59984 16079.2 59600 17567.2 Q 59360 18539.2 59360 21119.2 L 59360 25907.2 L 57680 25907.2 L 57680 12851.2 Z M 71226.4 12851.2 L 73002.4 12851.2 L 77490.4 22907.2 L 81846.4 12851.2 L 83634.4 12851.2 L 75846.4 30683.2 L 74070.4 30683.2 L 76590.4 24923.2 L 71226.4 12851.2 Z M 100035.2 8255.2 L 108267.2 25907.2 L 106371.2 25907.2 L 103599.2 20099.2 L 95991.2 20099.2 L 93231.2 25907.2 L 91263.2 25907.2 L 99603.2 8255.2 L 100035.2 8255.2 Z M 99819.2 11999.2 L 96783.2 18395.2 L 102819.2 18395.2 L 99819.2 11999.2 Z M 110747.2 12851.2 L 112415.2 12851.2 L 112415.2 15251.2 Q 113411.2 13883.2 114707.2 13199.2 Q 116003.2 12515.2 117599.2 12515.2 Q 120383.2 12515.2 122363.2 14519.2 Q 124343.2 16523.2 124343.2 19343.2 Q 124343.2 22223.2 122381.2 24233.2 Q 120419.2 26243.2 117647.2 26243.2 Q 116087.2 26243.2 114779.2 25595.2 Q 113471.2 24947.2 112415.2 23663.2 L 112415.2 30683.2 L 110747.2 30683.2 L 110747.2 12851.2 Z M 117467.2 14135.2 Q 115283.2 14135.2 113789.2 15659.2 Q 112295.2 17183.2 112295.2 19451.2 Q 112295.2 20939.2 112961.2 22127.2 Q 113627.2 23315.2 114869.2 24011.2 Q 116111.2 24707.2 117491.2 24707.2 Q 118847.2 24707.2 120041.2 24005.2 Q 121235.2 23303.2 121943.2 22043.2 Q 122651.2 20783.2 122651.2 19403.2 Q 122651.2 18011.2 121949.2 16763.2 Q 121247.2 15515.2 120059.2 14825.2 Q 118871.2 14135.2 117467.2 14135.2  Z M 127489.6 12851.2 L 129157.6 12851.2 L 129157.6 15251.2 Q 130153.6 13883.2 131449.6 13199.2 Q 132745.6 12515.2 134341.6 12515.2 Q 137125.6 12515.2 139105.6 14519.2 Q 141085.6 16523.2 141085.6 19343.2 Q 141085.6 22223.2 139123.6 24233.2 Q 137161.6 26243.2 134389.6 26243.2 Q 132829.6 26243.2 131521.6 25595.2 Q 130213.6 24947.2 129157.6 23663.2 L 129157.6 30683.2 L 127489.6 30683.2 L 127489.6 12851.2 Z M 134209.6 14135.2 Q 132025.6 14135.2 130531.6 15659.2 Q 129037.6 17183.2 129037.6 19451.2 Q 129037.6 20939.2 129703.6 22127.2 Q 130369.6 23315.2 131611.6 24011.2 Q 132853.6 24707.2 134233.6 24707.2 Q 135589.6 24707.2 136783.6 24005.2 Q 137977.6 23303.2 138685.6 22043.2 Q 139393.6 20783.2 139393.6 19403.2 Q 139393.6 18011.2 138691.6 16763.2 Q 137989.6 15515.2 136801.6 14825.2 Q 135613.6 14135.2 134209.6 14135.2  Z M 150772 14279.2 L 149692 15395.2 Q 148348 14087.2 147064 14087.2 Q 146248 14087.2 145666 14627.2 Q 145084 15167.2 145084 15887.2 Q 145084 16523.2 145564 17099.2 Q 146044 17687.2 147580 18479.2 Q 149452 19451.2 150124 20351.2 Q 150784 21263.2 150784 22403.2 Q 150784 24011.2 149656 25127.2 Q 148528 26243.2 146836 26243.2 Q 145708 26243.2 144682 25751.2 Q 143656 25259.2 142984 24395.2 L 144040 23195.2 Q 145324 24647.2 146764 24647.2 Q 147772 24647.2 148480 23999.2 Q 149188 23351.2 149188 22475.2 Q 149188 21755.2 148720 21191.2 Q 148252 20639.2 146608 19799.2 Q 144844 18887.2 144208 17999.2 Q 143572 17111.2 143572 15971.2 Q 143572 14483.2 144586 13499.2 Q 145600 12515.2 147148 12515.2 Q 148948 12515.2 150772 14279.2  Z " fill-rule="nonzero" style="fill:#000000;;fill-opacity:1;"/>
</svg>