<svg version="1.1" x="0" y="0" width="100%" height="100%" viewBox="0 0 113664 40550.4" xmlns="http://www.w3.org/2000/svg">
  <path d="M 7356.8 23956.4 L 1900.4 12431.6 L 5758.4 12431.6 L 7577.6 16853.6 Q 8512.4 19311.2 9150.8 20884.4 L 9248 20884.4 L 12689.6 12431.6 L 16473.2 12431.6 L 10992.8 23956.4 L 10992.8 30617.6 L 7355.6 30617.6 L 7355.6 23956.4 L 7356.8 23956.4 Z M 19326.4 29068.4 Q 17311.6 27028.4 17311.6 23760.8 Q 17311.6 20442.8 19326.4 18402.8 Q 21194.8 16510.4 23922.4 16510.4 Q 26650 16510.4 28517.2 18402.8 Q 30533.2 20442.8 30533.2 23760.8 Q 30533.2 27028.4 28517.2 29068.4 Q 26624.8 30960.8 23922.4 30960.8 Q 21218.8 30960.8 19326.4 29068.4  Z M 26084.8 26858 Q 26848 25726.4 26848 23762 Q 26848 21770 26084.8 20640.8 Q 25298.8 19461.2 23922.4 19461.2 Q 22546 19461.2 21758.8 20640.8 Q 20996.8 21770 20996.8 23762 Q 20996.8 25726.4 21758.8 26858 Q 22546 28013.6 23922.4 28013.6 Q 25298.8 28013.6 26084.8 26858  Z M 33384.4 25456.4 L 33384.4 16854.8 L 36997.6 16854.8 L 36997.6 24990.8 Q 36997.6 26564 37464.4 27226.4 Q 37907.2 27866 38914 27866 Q 40412.8 27866 41714.8 26144 L 41714.8 16854.8 L 45328 16854.8 L 45328 30617.6 L 42379.6 30617.6 L 42109.6 28650.8 L 42012.4 28650.8 Q 40069.6 30960.8 37612 30960.8 Q 33384.4 30960.8 33384.4 25455.2 L 33384.4 25456.4 Z M 55244.8 25799.6 L 55244.8 19704.8 L 53304.4 19704.8 L 53304.4 17026.4 L 55417.6 16853.6 L 55835.2 13167.2 L 58858 13167.2 L 58858 16853.6 L 62250.4 16853.6 L 62250.4 19704.8 L 58858 19704.8 L 58858 25799.6 Q 58858 28109.6 60725.2 28109.6 Q 61339.6 28109.6 62077.6 27815.6 L 62668 30444.8 Q 61118.8 30962 59766.4 30962 Q 55244.8 30962 55244.8 25800.8 L 55244.8 25799.6 Z M 64331.2 35877.2 L 64994.8 33099.2 Q 65560 33272 65953.6 33272 Q 67846 33272 68533.6 31182.8 L 68779.6 30371.6 L 63421.6 16854.8 L 67058.8 16854.8 L 69246.4 23244.8 L 70402 27128 L 70525.6 27128 Q 70698.4 26489.6 71016.4 25185.2 Q 71360.8 23883.2 71508.4 23244.8 L 73400.8 16854.8 L 76866.4 16854.8 L 71975.2 31035.2 Q 71016.4 33640.4 69812.8 34796 Q 68411.2 36148.4 66223.6 36148.4 Q 65191.6 36148.4 64331.2 35878.4 L 64331.2 35877.2 Z M 79150 16854.8 L 82100.8 16854.8 L 82345.6 18280.4 L 82445.2 18280.4 Q 84533.2 16510.4 86500 16510.4 Q 89030.8 16510.4 90480.4 18426.8 Q 91906 20319.2 91906 23514.8 Q 91906 26907.2 90112 28995.2 Q 88441.6 30962 86057.2 30962 Q 84287.2 30962 82640.8 29463.2 L 82738 31724 L 82738 35901.2 L 79148.8 35901.2 L 79148.8 16854.8 L 79150 16854.8 Z M 87360.4 26907.2 Q 88195.6 25726.4 88195.6 23565.2 Q 88195.6 19485.2 85468 19485.2 Q 84166 19485.2 82740.4 20910.8 L 82740.4 26955.2 Q 83945.2 27987.2 85247.2 27987.2 Q 86573.2 27987.2 87360.4 26907.2  Z M 96102.4 29044.4 Q 94111.6 27077.6 94111.6 23760.8 Q 94111.6 20540 96078.4 18452 Q 97945.6 16509.2 100526.8 16509.2 Q 103278.4 16509.2 104827.6 18377.6 Q 106277.2 20147.6 106277.2 23096 Q 106277.2 24177.2 106105.6 24742.4 L 97625.2 24742.4 Q 98068 28182.8 101434 28182.8 Q 103007.2 28182.8 104530 27224 L 105758.8 29436.8 Q 103547.2 30959.6 100942 30959.6 Q 97993.6 30959.6 96101.2 29043.2 L 96102.4 29044.4 Z M 103181.2 22360.4 Q 103181.2 19312.4 100576 19312.4 Q 99444.4 19312.4 98633.2 20075.6 Q 97772.8 20910.8 97577.2 22360.4 L 103180 22360.4 L 103181.2 22360.4 Z " fill-rule="nonzero" style="fill:#f64747;;fill-opacity:1;"/>
</svg>