<svg version="1.1" x="0" y="0" width="100%" height="100%" viewBox="0 0 122982.4 33331.2" xmlns="http://www.w3.org/2000/svg">
  <path d="M 2444 9971.2 L 2444 8255.2 L 12128 8255.2 L 12128 9971.2 L 8192 9971.2 L 8192 25907.2 L 6392 25907.2 L 6392 9971.2 L 2444 9971.2 Z M 25356.8 21575.2 L 26772.8 22319.2 Q 26076.8 23687.2 25164.8 24527.2 Q 24252.8 25367.2 23112.8 25805.2 Q 21972.8 26243.2 20532.8 26243.2 Q 17340.8 26243.2 15540.8 24149.2 Q 13740.8 22055.2 13740.8 19415.2 Q 13740.8 16931.2 15264.8 14987.2 Q 17196.8 12515.2 20436.8 12515.2 Q 23772.8 12515.2 25764.8 15047.2 Q 27180.8 16835.2 27204.8 19511.2 L 15468.8 19511.2 Q 15516.8 21791.2 16920.8 23249.2 Q 18324.8 24707.2 20388.8 24707.2 Q 21384.8 24707.2 22326.8 24359.2 Q 23268.8 24011.2 23928.8 23435.2 Q 24588.8 22859.2 25356.8 21575.2  Z M 25356.8 18059.2 Q 25020.8 16715.2 24378.8 15911.2 Q 23736.8 15107.2 22680.8 14615.2 Q 21624.8 14123.2 20460.8 14123.2 Q 18540.8 14123.2 17160.8 15359.2 Q 16152.8 16259.2 15636.8 18059.2 L 25356.8 18059.2 Z M 43296 12851.2 L 43296 25907.2 L 41640 25907.2 L 41640 23663.2 Q 40584 24947.2 39270 25595.2 Q 37956 26243.2 36396 26243.2 Q 33624 26243.2 31662 24233.2 Q 29700 22223.2 29700 19343.2 Q 29700 16523.2 31680 14519.2 Q 33660 12515.2 36444 12515.2 Q 38052 12515.2 39354 13199.2 Q 40656 13883.2 41640 15251.2 L 41640 12851.2 L 43296 12851.2 Z M 36576 14135.2 Q 35172 14135.2 33984 14825.2 Q 32796 15515.2 32094 16763.2 Q 31392 18011.2 31392 19403.2 Q 31392 20783.2 32100 22043.2 Q 32808 23303.2 34002 24005.2 Q 35196 24707.2 36564 24707.2 Q 37944 24707.2 39180 24011.2 Q 40416 23315.2 41082 22127.2 Q 41748 20939.2 41748 19451.2 Q 41748 17183.2 40254 15659.2 Q 38760 14135.2 36576 14135.2  Z M 59702.4 15563.2 L 58370.4 16391.2 Q 56642.4 14099.2 53654.4 14099.2 Q 51266.4 14099.2 49688.4 15635.2 Q 48110.4 17171.2 48110.4 19367.2 Q 48110.4 20795.2 48836.4 22055.2 Q 49562.4 23315.2 50828.4 24011.2 Q 52094.4 24707.2 53666.4 24707.2 Q 56546.4 24707.2 58370.4 22415.2 L 59702.4 23291.2 Q 58766.4 24695.2 57188.4 25469.2 Q 55610.4 26243.2 53594.4 26243.2 Q 50498.4 26243.2 48458.4 24275.2 Q 46418.4 22307.2 46418.4 19487.2 Q 46418.4 17591.2 47372.4 15965.2 Q 48326.4 14339.2 49994.4 13427.2 Q 51662.4 12515.2 53726.4 12515.2 Q 55022.4 12515.2 56228.4 12911.2 Q 57434.4 13307.2 58274.4 13943.2 Q 59114.4 14579.2 59702.4 15563.2  Z M 62902.4 7811.2 L 64582.4 7811.2 L 64582.4 15191.2 Q 65602.4 13847.2 66826.4 13181.2 Q 68050.4 12515.2 69478.4 12515.2 Q 70942.4 12515.2 72076.4 13259.2 Q 73210.4 14003.2 73750.4 15257.2 Q 74290.4 16511.2 74290.4 19187.2 L 74290.4 25907.2 L 72610.4 25907.2 L 72610.4 19679.2 Q 72610.4 17423.2 72430.4 16667.2 Q 72118.4 15371.2 71296.4 14717.2 Q 70474.4 14063.2 69142.4 14063.2 Q 67618.4 14063.2 66412.4 15071.2 Q 65206.4 16079.2 64822.4 17567.2 Q 64582.4 18527.2 64582.4 21119.2 L 64582.4 25907.2 L 62902.4 25907.2 L 62902.4 7811.2 Z M 78440.8 7475.2 Q 79016.8 7475.2 79424.8 7883.2 Q 79832.8 8291.2 79832.8 8867.2 Q 79832.8 9431.2 79424.8 9839.2 Q 79016.8 10247.2 78440.8 10247.2 Q 77876.8 10247.2 77468.8 9839.2 Q 77060.8 9431.2 77060.8 8867.2 Q 77060.8 8291.2 77468.8 7883.2 Q 77876.8 7475.2 78440.8 7475.2  Z M 77600.8 12851.2 L 79292.8 12851.2 L 79292.8 25907.2 L 77600.8 25907.2 L 77600.8 12851.2 Z M 82768 12851.2 L 84448 12851.2 L 84448 15191.2 Q 85456 13847.2 86680 13181.2 Q 87904 12515.2 89344 12515.2 Q 90808 12515.2 91942 13259.2 Q 93076 14003.2 93616 15263.2 Q 94156 16523.2 94156 19187.2 L 94156 25907.2 L 92488 25907.2 L 92488 19679.2 Q 92488 17423.2 92296 16667.2 Q 91996 15371.2 91168 14717.2 Q 90340 14063.2 89008 14063.2 Q 87484 14063.2 86278 15071.2 Q 85072 16079.2 84688 17567.2 Q 84448 18539.2 84448 21119.2 L 84448 25907.2 L 82768 25907.2 L 82768 12851.2 Z M 108962.4 12851.2 L 110654.4 12851.2 L 110654.4 23255.2 Q 110654.4 26003.2 110174.4 27275.2 Q 109514.4 29075.2 107882.4 30047.2 Q 106250.4 31019.2 103958.4 31019.2 Q 102278.4 31019.2 100940.4 30545.2 Q 99602.4 30071.2 98762.4 29273.2 Q 97922.4 28475.2 97214.4 26939.2 L 99038.4 26939.2 Q 99782.4 28235.2 100958.4 28859.2 Q 102134.4 29483.2 103874.4 29483.2 Q 105590.4 29483.2 106772.4 28841.2 Q 107954.4 28199.2 108458.4 27227.2 Q 108962.4 26255.2 108962.4 24095.2 L 108962.4 23423.2 Q 108014.4 24623.2 106646.4 25265.2 Q 105278.4 25907.2 103742.4 25907.2 Q 101942.4 25907.2 100358.4 25013.2 Q 98774.4 24119.2 97910.4 22607.2 Q 97046.4 21095.2 97046.4 19283.2 Q 97046.4 17471.2 97946.4 15905.2 Q 98846.4 14339.2 100436.4 13427.2 Q 102026.4 12515.2 103790.4 12515.2 Q 105254.4 12515.2 106520.4 13121.2 Q 107786.4 13727.2 108962.4 15119.2 L 108962.4 12851.2 Z M 104006.4 14135.2 Q 102578.4 14135.2 101354.4 14825.2 Q 100130.4 15515.2 99434.4 16733.2 Q 98738.4 17951.2 98738.4 19367.2 Q 98738.4 21515.2 100178.4 22919.2 Q 101618.4 24323.2 103910.4 24323.2 Q 106226.4 24323.2 107636.4 22931.2 Q 109046.4 21539.2 109046.4 19271.2 Q 109046.4 17795.2 108398.4 16637.2 Q 107750.4 15479.2 106562.4 14807.2 Q 105374.4 14135.2 104006.4 14135.2  Z " fill-rule="nonzero" style="fill:#000000;;fill-opacity:1;"/>
</svg>