<svg version="1.1" x="0" y="0" width="100%" height="100%" viewBox="0 0 425932.8 62566.4" xmlns="http://www.w3.org/2000/svg">
  <path d="M 149552.8 8255.2 L 151328.8 8255.2 L 151328.8 24203.2 L 158108.8 24203.2 L 158108.8 25907.2 L 149552.8 25907.2 L 149552.8 8255.2 Z M 171584 21575.2 L 173000 22319.2 Q 172304 23687.2 171392 24527.2 Q 170480 25367.2 169340 25805.2 Q 168200 26243.2 166760 26243.2 Q 163568 26243.2 161768 24149.2 Q 159968 22055.2 159968 19415.2 Q 159968 16931.2 161492 14987.2 Q 163424 12515.2 166664 12515.2 Q 170000 12515.2 171992 15047.2 Q 173408 16835.2 173432 19511.2 L 161696 19511.2 Q 161744 21791.2 163148 23249.2 Q 164552 24707.2 166616 24707.2 Q 167612 24707.2 168554 24359.2 Q 169496 24011.2 170156 23435.2 Q 170816 22859.2 171584 21575.2  Z M 171584 18059.2 Q 171248 16715.2 170606 15911.2 Q 169964 15107.2 168908 14615.2 Q 167852 14123.2 166688 14123.2 Q 164768 14123.2 163388 15359.2 Q 162380 16259.2 161864 18059.2 L 171584 18059.2 Z M 189523.2 12851.2 L 189523.2 25907.2 L 187867.2 25907.2 L 187867.2 23663.2 Q 186811.2 24947.2 185497.2 25595.2 Q 184183.2 26243.2 182623.2 26243.2 Q 179851.2 26243.2 177889.2 24233.2 Q 175927.2 22223.2 175927.2 19343.2 Q 175927.2 16523.2 177907.2 14519.2 Q 179887.2 12515.2 182671.2 12515.2 Q 184279.2 12515.2 185581.2 13199.2 Q 186883.2 13883.2 187867.2 15251.2 L 187867.2 12851.2 L 189523.2 12851.2 Z M 182803.2 14135.2 Q 181399.2 14135.2 180211.2 14825.2 Q 179023.2 15515.2 178321.2 16763.2 Q 177619.2 18011.2 177619.2 19403.2 Q 177619.2 20783.2 178327.2 22043.2 Q 179035.2 23303.2 180229.2 24005.2 Q 181423.2 24707.2 182791.2 24707.2 Q 184171.2 24707.2 185407.2 24011.2 Q 186643.2 23315.2 187309.2 22127.2 Q 187975.2 20939.2 187975.2 19451.2 Q 187975.2 17183.2 186481.2 15659.2 Q 184987.2 14135.2 182803.2 14135.2  Z M 192621.6 12851.2 L 194337.6 12851.2 L 194337.6 14759.2 Q 195105.6 13631.2 195957.6 13073.2 Q 196809.6 12515.2 197733.6 12515.2 Q 198429.6 12515.2 199221.6 12959.2 L 198345.6 14375.2 Q 197817.6 14147.2 197457.6 14147.2 Q 196617.6 14147.2 195837.6 14837.2 Q 195057.6 15527.2 194649.6 16979.2 Q 194337.6 18095.2 194337.6 21491.2 L 194337.6 25907.2 L 192621.6 25907.2 L 192621.6 12851.2 Z M 200630.4 12851.2 L 202310.4 12851.2 L 202310.4 15191.2 Q 203318.4 13847.2 204542.4 13181.2 Q 205766.4 12515.2 207206.4 12515.2 Q 208670.4 12515.2 209804.4 13259.2 Q 210938.4 14003.2 211478.4 15263.2 Q 212018.4 16523.2 212018.4 19187.2 L 212018.4 25907.2 L 210350.4 25907.2 L 210350.4 19679.2 Q 210350.4 17423.2 210158.4 16667.2 Q 209858.4 15371.2 209030.4 14717.2 Q 208202.4 14063.2 206870.4 14063.2 Q 205346.4 14063.2 204140.4 15071.2 Q 202934.4 16079.2 202550.4 17567.2 Q 202310.4 18539.2 202310.4 21119.2 L 202310.4 25907.2 L 200630.4 25907.2 L 200630.4 12851.2 Z M 216168.8 7475.2 Q 216744.8 7475.2 217152.8 7883.2 Q 217560.8 8291.2 217560.8 8867.2 Q 217560.8 9431.2 217152.8 9839.2 Q 216744.8 10247.2 216168.8 10247.2 Q 215604.8 10247.2 215196.8 9839.2 Q 214788.8 9431.2 214788.8 8867.2 Q 214788.8 8291.2 215196.8 7883.2 Q 215604.8 7475.2 216168.8 7475.2  Z M 215328.8 12851.2 L 217020.8 12851.2 L 217020.8 25907.2 L 215328.8 25907.2 L 215328.8 12851.2 Z M 220496 12851.2 L 222176 12851.2 L 222176 15191.2 Q 223184 13847.2 224408 13181.2 Q 225632 12515.2 227072 12515.2 Q 228536 12515.2 229670 13259.2 Q 230804 14003.2 231344 15263.2 Q 231884 16523.2 231884 19187.2 L 231884 25907.2 L 230216 25907.2 L 230216 19679.2 Q 230216 17423.2 230024 16667.2 Q 229724 15371.2 228896 14717.2 Q 228068 14063.2 226736 14063.2 Q 225212 14063.2 224006 15071.2 Q 222800 16079.2 222416 17567.2 Q 222176 18539.2 222176 21119.2 L 222176 25907.2 L 220496 25907.2 L 220496 12851.2 Z M 246690.4 12851.2 L 248382.4 12851.2 L 248382.4 23255.2 Q 248382.4 26003.2 247902.4 27275.2 Q 247242.4 29075.2 245610.4 30047.2 Q 243978.4 31019.2 241686.4 31019.2 Q 240006.4 31019.2 238668.4 30545.2 Q 237330.4 30071.2 236490.4 29273.2 Q 235650.4 28475.2 234942.4 26939.2 L 236766.4 26939.2 Q 237510.4 28235.2 238686.4 28859.2 Q 239862.4 29483.2 241602.4 29483.2 Q 243318.4 29483.2 244500.4 28841.2 Q 245682.4 28199.2 246186.4 27227.2 Q 246690.4 26255.2 246690.4 24095.2 L 246690.4 23423.2 Q 245742.4 24623.2 244374.4 25265.2 Q 243006.4 25907.2 241470.4 25907.2 Q 239670.4 25907.2 238086.4 25013.2 Q 236502.4 24119.2 235638.4 22607.2 Q 234774.4 21095.2 234774.4 19283.2 Q 234774.4 17471.2 235674.4 15905.2 Q 236574.4 14339.2 238164.4 13427.2 Q 239754.4 12515.2 241518.4 12515.2 Q 242982.4 12515.2 244248.4 13121.2 Q 245514.4 13727.2 246690.4 15119.2 L 246690.4 12851.2 Z M 241734.4 14135.2 Q 240306.4 14135.2 239082.4 14825.2 Q 237858.4 15515.2 237162.4 16733.2 Q 236466.4 17951.2 236466.4 19367.2 Q 236466.4 21515.2 237906.4 22919.2 Q 239346.4 24323.2 241638.4 24323.2 Q 243954.4 24323.2 245364.4 22931.2 Q 246774.4 21539.2 246774.4 19271.2 Q 246774.4 17795.2 246126.4 16637.2 Q 245478.4 15479.2 244290.4 14807.2 Q 243102.4 14135.2 241734.4 14135.2  Z M 259063.2 8255.2 L 262579.2 8255.2 Q 265519.2 8255.2 266563.2 8495.2 Q 268135.2 8855.2 269119.2 10037.2 Q 270103.2 11219.2 270103.2 12947.2 Q 270103.2 14387.2 269425.2 15479.2 Q 268747.2 16571.2 267487.2 17129.2 Q 266227.2 17687.2 264007.2 17699.2 L 270355.2 25907.2 L 268171.2 25907.2 L 261835.2 17699.2 L 260827.2 17699.2 L 260827.2 25907.2 L 259063.2 25907.2 L 259063.2 8255.2 Z M 260827.2 9983.2 L 260827.2 15983.2 L 263863.2 16007.2 Q 265627.2 16007.2 266473.2 15671.2 Q 267319.2 15335.2 267793.2 14597.2 Q 268267.2 13859.2 268267.2 12947.2 Q 268267.2 12059.2 267787.2 11333.2 Q 267307.2 10607.2 266527.2 10295.2 Q 265747.2 9983.2 263935.2 9983.2 L 260827.2 9983.2 Z M 275438.4 12515.2 Q 276050.4 12515.2 276482.4 12947.2 Q 276914.4 13379.2 276914.4 14003.2 Q 276914.4 14627.2 276482.4 15059.2 Q 276050.4 15491.2 275438.4 15491.2 Q 274826.4 15491.2 274394.4 15059.2 Q 273962.4 14627.2 273962.4 14003.2 Q 273962.4 13391.2 274394.4 12953.2 Q 274826.4 12515.2 275438.4 12515.2  Z M 275438.4 23267.2 Q 276050.4 23267.2 276482.4 23699.2 Q 276914.4 24131.2 276914.4 24755.2 Q 276914.4 25367.2 276482.4 25805.2 Q 276050.4 26243.2 275438.4 26243.2 Q 274826.4 26243.2 274394.4 25805.2 Q 273962.4 25367.2 273962.4 24755.2 Q 273962.4 24131.2 274394.4 23699.2 Q 274826.4 23267.2 275438.4 23267.2  Z M 71012 37490.4 L 79856 37490.4 L 79856 39230.4 L 72764 39230.4 L 72764 44750.4 L 79856 44750.4 L 79856 46490.4 L 72764 46490.4 L 72764 55142.4 L 71012 55142.4 L 71012 37490.4 Z M 81978.4 42086.4 L 83694.4 42086.4 L 83694.4 43994.4 Q 84462.4 42866.4 85314.4 42308.4 Q 86166.4 41750.4 87090.4 41750.4 Q 87786.4 41750.4 88578.4 42194.4 L 87702.4 43610.4 Q 87174.4 43382.4 86814.4 43382.4 Q 85974.4 43382.4 85194.4 44072.4 Q 84414.4 44762.4 84006.4 46214.4 Q 83694.4 47330.4 83694.4 50726.4 L 83694.4 55142.4 L 81978.4 55142.4 L 81978.4 42086.4 Z M 96167.2 41750.4 Q 99179.2 41750.4 101159.2 43934.4 Q 102959.2 45926.4 102959.2 48650.4 Q 102959.2 51386.4 101057.2 53432.4 Q 99155.2 55478.4 96167.2 55478.4 Q 93167.2 55478.4 91265.2 53432.4 Q 89363.2 51386.4 89363.2 48650.4 Q 89363.2 45938.4 91163.2 43946.4 Q 93143.2 41750.4 96167.2 41750.4  Z M 96167.2 43394.4 Q 94079.2 43394.4 92579.2 44942.4 Q 91079.2 46490.4 91079.2 48686.4 Q 91079.2 50102.4 91763.2 51326.4 Q 92447.2 52550.4 93611.2 53216.4 Q 94775.2 53882.4 96167.2 53882.4 Q 97559.2 53882.4 98723.2 53216.4 Q 99887.2 52550.4 100571.2 51326.4 Q 101255.2 50102.4 101255.2 48686.4 Q 101255.2 46490.4 99749.2 44942.4 Q 98243.2 43394.4 96167.2 43394.4  Z M 106052 42086.4 L 107720 42086.4 L 107720 44342.4 Q 108596 43094.4 109520 42518.4 Q 110792 41750.4 112196 41750.4 Q 113144 41750.4 113996 42122.4 Q 114848 42494.4 115388 43112.4 Q 115928 43730.4 116324 44882.4 Q 117164 43346.4 118424 42548.4 Q 119684 41750.4 121136 41750.4 Q 122492 41750.4 123530 42434.4 Q 124568 43118.4 125072 44342.4 Q 125576 45566.4 125576 48014.4 L 125576 55142.4 L 123860 55142.4 L 123860 48014.4 Q 123860 45914.4 123560 45128.4 Q 123260 44342.4 122534 43862.4 Q 121808 43382.4 120800 43382.4 Q 119576 43382.4 118562 44102.4 Q 117548 44822.4 117080 46022.4 Q 116612 47222.4 116612 50030.4 L 116612 55142.4 L 114944 55142.4 L 114944 48458.4 Q 114944 46094.4 114650 45248.4 Q 114356 44402.4 113624 43892.4 Q 112892 43382.4 111884 43382.4 Q 110720 43382.4 109706 44084.4 Q 108692 44786.4 108206 45974.4 Q 107720 47162.4 107720 49610.4 L 107720 55142.4 L 106052 55142.4 L 106052 42086.4 Z M 137326.4 37238.4 L 139018.4 37238.4 L 139018.4 42086.4 L 141682.4 42086.4 L 141682.4 43526.4 L 139018.4 43526.4 L 139018.4 55142.4 L 137326.4 55142.4 L 137326.4 43526.4 L 135034.4 43526.4 L 135034.4 42086.4 L 137326.4 42086.4 L 137326.4 37238.4 Z M 144156.8 37046.4 L 145836.8 37046.4 L 145836.8 44426.4 Q 146856.8 43082.4 148080.8 42416.4 Q 149304.8 41750.4 150732.8 41750.4 Q 152196.8 41750.4 153330.8 42494.4 Q 154464.8 43238.4 155004.8 44492.4 Q 155544.8 45746.4 155544.8 48422.4 L 155544.8 55142.4 L 153864.8 55142.4 L 153864.8 48914.4 Q 153864.8 46658.4 153684.8 45902.4 Q 153372.8 44606.4 152550.8 43952.4 Q 151728.8 43298.4 150396.8 43298.4 Q 148872.8 43298.4 147666.8 44306.4 Q 146460.8 45314.4 146076.8 46802.4 Q 145836.8 47762.4 145836.8 50354.4 L 145836.8 55142.4 L 144156.8 55142.4 L 144156.8 37046.4 Z M 170099.2 50810.4 L 171515.2 51554.4 Q 170819.2 52922.4 169907.2 53762.4 Q 168995.2 54602.4 167855.2 55040.4 Q 166715.2 55478.4 165275.2 55478.4 Q 162083.2 55478.4 160283.2 53384.4 Q 158483.2 51290.4 158483.2 48650.4 Q 158483.2 46166.4 160007.2 44222.4 Q 161939.2 41750.4 165179.2 41750.4 Q 168515.2 41750.4 170507.2 44282.4 Q 171923.2 46070.4 171947.2 48746.4 L 160211.2 48746.4 Q 160259.2 51026.4 161663.2 52484.4 Q 163067.2 53942.4 165131.2 53942.4 Q 166127.2 53942.4 167069.2 53594.4 Q 168011.2 53246.4 168671.2 52670.4 Q 169331.2 52094.4 170099.2 50810.4  Z M 170099.2 47294.4 Q 169763.2 45950.4 169121.2 45146.4 Q 168479.2 44342.4 167423.2 43850.4 Q 166367.2 43358.4 165203.2 43358.4 Q 163283.2 43358.4 161903.2 44594.4 Q 160895.2 45494.4 160379.2 47294.4 L 170099.2 47294.4 Z M 180552.8 42086.4 L 182340.8 42086.4 L 186708.8 51590.4 L 191040.8 42086.4 L 192840.8 42086.4 L 186864.8 55142.4 L 186564.8 55142.4 L 180552.8 42086.4 Z M 206400 50810.4 L 207816 51554.4 Q 207120 52922.4 206208 53762.4 Q 205296 54602.4 204156 55040.4 Q 203016 55478.4 201576 55478.4 Q 198384 55478.4 196584 53384.4 Q 194784 51290.4 194784 48650.4 Q 194784 46166.4 196308 44222.4 Q 198240 41750.4 201480 41750.4 Q 204816 41750.4 206808 44282.4 Q 208224 46070.4 208248 48746.4 L 196512 48746.4 Q 196560 51026.4 197964 52484.4 Q 199368 53942.4 201432 53942.4 Q 202428 53942.4 203370 53594.4 Q 204312 53246.4 204972 52670.4 Q 205632 52094.4 206400 50810.4  Z M 206400 47294.4 Q 206064 45950.4 205422 45146.4 Q 204780 44342.4 203724 43850.4 Q 202668 43358.4 201504 43358.4 Q 199584 43358.4 198204 44594.4 Q 197196 45494.4 196680 47294.4 L 206400 47294.4 Z M 210695.2 42086.4 L 212411.2 42086.4 L 212411.2 43994.4 Q 213179.2 42866.4 214031.2 42308.4 Q 214883.2 41750.4 215807.2 41750.4 Q 216503.2 41750.4 217295.2 42194.4 L 216419.2 43610.4 Q 215891.2 43382.4 215531.2 43382.4 Q 214691.2 43382.4 213911.2 44072.4 Q 213131.2 44762.4 212723.2 46214.4 Q 212411.2 47330.4 212411.2 50726.4 L 212411.2 55142.4 L 210695.2 55142.4 L 210695.2 42086.4 Z M 217300 42086.4 L 219076 42086.4 L 223564 52142.4 L 227920 42086.4 L 229708 42086.4 L 221920 59918.4 L 220144 59918.4 L 222664 54158.4 L 217300 42086.4 Z M 238728.8 55142.4 L 238728.8 37046.4 L 240396.8 37046.4 L 240396.8 44330.4 Q 241452.8 43034.4 242760.8 42392.4 Q 244068.8 41750.4 245628.8 41750.4 Q 248400.8 41750.4 250362.8 43760.4 Q 252324.8 45770.4 252324.8 48638.4 Q 252324.8 51470.4 250344.8 53474.4 Q 248364.8 55478.4 245580.8 55478.4 Q 243984.8 55478.4 242688.8 54794.4 Q 241392.8 54110.4 240396.8 52742.4 L 240396.8 55142.4 L 238728.8 55142.4 Z M 245448.8 53858.4 Q 246852.8 53858.4 248040.8 53168.4 Q 249228.8 52478.4 249930.8 51230.4 Q 250632.8 49982.4 250632.8 48590.4 Q 250632.8 47198.4 249924.8 45938.4 Q 249216.8 44678.4 248022.8 43976.4 Q 246828.8 43274.4 245472.8 43274.4 Q 244092.8 43274.4 242850.8 43976.4 Q 241608.8 44678.4 240942.8 45866.4 Q 240276.8 47054.4 240276.8 48542.4 Q 240276.8 50810.4 241770.8 52334.4 Q 243264.8 53858.4 245448.8 53858.4  Z M 266355.2 50810.4 L 267771.2 51554.4 Q 267075.2 52922.4 266163.2 53762.4 Q 265251.2 54602.4 264111.2 55040.4 Q 262971.2 55478.4 261531.2 55478.4 Q 258339.2 55478.4 256539.2 53384.4 Q 254739.2 51290.4 254739.2 48650.4 Q 254739.2 46166.4 256263.2 44222.4 Q 258195.2 41750.4 261435.2 41750.4 Q 264771.2 41750.4 266763.2 44282.4 Q 268179.2 46070.4 268203.2 48746.4 L 256467.2 48746.4 Q 256515.2 51026.4 257919.2 52484.4 Q 259323.2 53942.4 261387.2 53942.4 Q 262383.2 53942.4 263325.2 53594.4 Q 264267.2 53246.4 264927.2 52670.4 Q 265587.2 52094.4 266355.2 50810.4  Z M 266355.2 47294.4 Q 266019.2 45950.4 265377.2 45146.4 Q 264735.2 44342.4 263679.2 43850.4 Q 262623.2 43358.4 261459.2 43358.4 Q 259539.2 43358.4 258159.2 44594.4 Q 257151.2 45494.4 256635.2 47294.4 L 266355.2 47294.4 Z M 282530.4 42086.4 L 284222.4 42086.4 L 284222.4 52490.4 Q 284222.4 55238.4 283742.4 56510.4 Q 283082.4 58310.4 281450.4 59282.4 Q 279818.4 60254.4 277526.4 60254.4 Q 275846.4 60254.4 274508.4 59780.4 Q 273170.4 59306.4 272330.4 58508.4 Q 271490.4 57710.4 270782.4 56174.4 L 272606.4 56174.4 Q 273350.4 57470.4 274526.4 58094.4 Q 275702.4 58718.4 277442.4 58718.4 Q 279158.4 58718.4 280340.4 58076.4 Q 281522.4 57434.4 282026.4 56462.4 Q 282530.4 55490.4 282530.4 53330.4 L 282530.4 52658.4 Q 281582.4 53858.4 280214.4 54500.4 Q 278846.4 55142.4 277310.4 55142.4 Q 275510.4 55142.4 273926.4 54248.4 Q 272342.4 53354.4 271478.4 51842.4 Q 270614.4 50330.4 270614.4 48518.4 Q 270614.4 46706.4 271514.4 45140.4 Q 272414.4 43574.4 274004.4 42662.4 Q 275594.4 41750.4 277358.4 41750.4 Q 278822.4 41750.4 280088.4 42356.4 Q 281354.4 42962.4 282530.4 44354.4 L 282530.4 42086.4 Z M 277574.4 43370.4 Q 276146.4 43370.4 274922.4 44060.4 Q 273698.4 44750.4 273002.4 45968.4 Q 272306.4 47186.4 272306.4 48602.4 Q 272306.4 50750.4 273746.4 52154.4 Q 275186.4 53558.4 277478.4 53558.4 Q 279794.4 53558.4 281204.4 52166.4 Q 282614.4 50774.4 282614.4 48506.4 Q 282614.4 47030.4 281966.4 45872.4 Q 281318.4 44714.4 280130.4 44042.4 Q 278942.4 43370.4 277574.4 43370.4  Z M 288360.8 36710.4 Q 288936.8 36710.4 289344.8 37118.4 Q 289752.8 37526.4 289752.8 38102.4 Q 289752.8 38666.4 289344.8 39074.4 Q 288936.8 39482.4 288360.8 39482.4 Q 287796.8 39482.4 287388.8 39074.4 Q 286980.8 38666.4 286980.8 38102.4 Q 286980.8 37526.4 287388.8 37118.4 Q 287796.8 36710.4 288360.8 36710.4  Z M 287520.8 42086.4 L 289212.8 42086.4 L 289212.8 55142.4 L 287520.8 55142.4 L 287520.8 42086.4 Z M 292688 42086.4 L 294368 42086.4 L 294368 44426.4 Q 295376 43082.4 296600 42416.4 Q 297824 41750.4 299264 41750.4 Q 300728 41750.4 301862 42494.4 Q 302996 43238.4 303536 44498.4 Q 304076 45758.4 304076 48422.4 L 304076 55142.4 L 302408 55142.4 L 302408 48914.4 Q 302408 46658.4 302216 45902.4 Q 301916 44606.4 301088 43952.4 Q 300260 43298.4 298928 43298.4 Q 297404 43298.4 296198 44306.4 Q 294992 45314.4 294608 46802.4 Q 294368 47774.4 294368 50354.4 L 294368 55142.4 L 292688 55142.4 L 292688 42086.4 Z M 307638.4 42086.4 L 309318.4 42086.4 L 309318.4 44426.4 Q 310326.4 43082.4 311550.4 42416.4 Q 312774.4 41750.4 314214.4 41750.4 Q 315678.4 41750.4 316812.4 42494.4 Q 317946.4 43238.4 318486.4 44498.4 Q 319026.4 45758.4 319026.4 48422.4 L 319026.4 55142.4 L 317358.4 55142.4 L 317358.4 48914.4 Q 317358.4 46658.4 317166.4 45902.4 Q 316866.4 44606.4 316038.4 43952.4 Q 315210.4 43298.4 313878.4 43298.4 Q 312354.4 43298.4 311148.4 44306.4 Q 309942.4 45314.4 309558.4 46802.4 Q 309318.4 47774.4 309318.4 50354.4 L 309318.4 55142.4 L 307638.4 55142.4 L 307638.4 42086.4 Z M 323176.8 36710.4 Q 323752.8 36710.4 324160.8 37118.4 Q 324568.8 37526.4 324568.8 38102.4 Q 324568.8 38666.4 324160.8 39074.4 Q 323752.8 39482.4 323176.8 39482.4 Q 322612.8 39482.4 322204.8 39074.4 Q 321796.8 38666.4 321796.8 38102.4 Q 321796.8 37526.4 322204.8 37118.4 Q 322612.8 36710.4 323176.8 36710.4  Z M 322336.8 42086.4 L 324028.8 42086.4 L 324028.8 55142.4 L 322336.8 55142.4 L 322336.8 42086.4 Z M 327504 42086.4 L 329184 42086.4 L 329184 44426.4 Q 330192 43082.4 331416 42416.4 Q 332640 41750.4 334080 41750.4 Q 335544 41750.4 336678 42494.4 Q 337812 43238.4 338352 44498.4 Q 338892 45758.4 338892 48422.4 L 338892 55142.4 L 337224 55142.4 L 337224 48914.4 Q 337224 46658.4 337032 45902.4 Q 336732 44606.4 335904 43952.4 Q 335076 43298.4 333744 43298.4 Q 332220 43298.4 331014 44306.4 Q 329808 45314.4 329424 46802.4 Q 329184 47774.4 329184 50354.4 L 329184 55142.4 L 327504 55142.4 L 327504 42086.4 Z M 353698.4 42086.4 L 355390.4 42086.4 L 355390.4 52490.4 Q 355390.4 55238.4 354910.4 56510.4 Q 354250.4 58310.4 352618.4 59282.4 Q 350986.4 60254.4 348694.4 60254.4 Q 347014.4 60254.4 345676.4 59780.4 Q 344338.4 59306.4 343498.4 58508.4 Q 342658.4 57710.4 341950.4 56174.4 L 343774.4 56174.4 Q 344518.4 57470.4 345694.4 58094.4 Q 346870.4 58718.4 348610.4 58718.4 Q 350326.4 58718.4 351508.4 58076.4 Q 352690.4 57434.4 353194.4 56462.4 Q 353698.4 55490.4 353698.4 53330.4 L 353698.4 52658.4 Q 352750.4 53858.4 351382.4 54500.4 Q 350014.4 55142.4 348478.4 55142.4 Q 346678.4 55142.4 345094.4 54248.4 Q 343510.4 53354.4 342646.4 51842.4 Q 341782.4 50330.4 341782.4 48518.4 Q 341782.4 46706.4 342682.4 45140.4 Q 343582.4 43574.4 345172.4 42662.4 Q 346762.4 41750.4 348526.4 41750.4 Q 349990.4 41750.4 351256.4 42356.4 Q 352522.4 42962.4 353698.4 44354.4 L 353698.4 42086.4 Z M 348742.4 43370.4 Q 347314.4 43370.4 346090.4 44060.4 Q 344866.4 44750.4 344170.4 45968.4 Q 343474.4 47186.4 343474.4 48602.4 Q 343474.4 50750.4 344914.4 52154.4 Q 346354.4 53558.4 348646.4 53558.4 Q 350962.4 53558.4 352372.4 52166.4 Q 353782.4 50774.4 353782.4 48506.4 Q 353782.4 47030.4 353134.4 45872.4 Q 352486.4 44714.4 351298.4 44042.4 Q 350110.4 43370.4 348742.4 43370.4  Z " fill-rule="nonzero" style="fill:#000000;;fill-opacity:1;"/>
</svg>