<svg version="1.1" x="0" y="0" width="100%" height="100%" viewBox="0 0 119654.4 22681.6" xmlns="http://www.w3.org/2000/svg">
  <path d="M 4373 6221.9 L 6428 6221.9 L 8978 13916.9 L 11565.5 6221.9 L 13590.5 6221.9 L 15450.5 17254.4 L 13425.5 17254.4 L 12240.5 10286.9 L 9893 17254.4 L 8040.5 17254.4 L 5723 10286.9 L 4515.5 17254.4 L 2468 17254.4 L 4373 6221.9 Z M 22885.8 9094.4 L 24925.8 9094.4 L 24925.8 17254.4 L 22885.8 17254.4 L 22885.8 16391.9 Q 22285.8 16961.9 21682.05 17213.15 Q 21078.3 17464.4 20373.3 17464.4 Q 18790.8 17464.4 17635.8 16238.15 Q 16480.8 15011.9 16480.8 13189.4 Q 16480.8 11299.4 17598.3 10091.9 Q 18715.8 8884.4 20313.3 8884.4 Q 21048.3 8884.4 21693.3 9161.9 Q 22338.3 9439.4 22885.8 9994.4 L 22885.8 9094.4 Z M 20733.3 10774.4 Q 19780.8 10774.4 19150.8 11445.65 Q 18520.8 12116.9 18520.8 13166.9 Q 18520.8 14224.4 19162.05 14906.9 Q 19803.3 15589.4 20740.8 15589.4 Q 21708.3 15589.4 22345.8 14918.15 Q 22983.3 14246.9 22983.3 13159.4 Q 22983.3 12094.4 22345.8 11434.4 Q 21708.3 10774.4 20733.3 10774.4  Z M 29025.9 9094.4 L 29025.9 9994.4 Q 29580.9 9439.4 30225.9 9161.9 Q 30870.9 8884.4 31605.9 8884.4 Q 33203.4 8884.4 34320.9 10091.9 Q 35438.4 11299.4 35438.4 13189.4 Q 35438.4 15011.9 34283.4 16238.15 Q 33128.4 17464.4 31545.9 17464.4 Q 30840.9 17464.4 30233.4 17213.15 Q 29625.9 16961.9 29025.9 16391.9 L 29025.9 20239.4 L 26993.4 20239.4 L 26993.4 9094.4 L 29025.9 9094.4 Z M 31178.4 10774.4 Q 30210.9 10774.4 29573.4 11434.4 Q 28935.9 12094.4 28935.9 13159.4 Q 28935.9 14246.9 29573.4 14918.15 Q 30210.9 15589.4 31178.4 15589.4 Q 32115.9 15589.4 32757.15 14906.9 Q 33398.4 14224.4 33398.4 13166.9 Q 33398.4 12116.9 32768.4 11445.65 Q 32138.4 10774.4 31178.4 10774.4  Z M 42126 10234.4 L 40858.5 11501.9 Q 40086 10736.9 39456 10736.9 Q 39111 10736.9 38916 10883.15 Q 38721 11029.4 38721 11246.9 Q 38721 11411.9 38844.75 11550.65 Q 38968.5 11689.4 39456 11929.4 L 40206 12304.4 Q 41391 12889.4 41833.5 13496.9 Q 42276 14104.4 42276 14921.9 Q 42276 16009.4 41477.25 16736.9 Q 40678.5 17464.4 39336 17464.4 Q 37551 17464.4 36486 16069.4 L 37746 14696.9 Q 38106 15116.9 38589.75 15375.65 Q 39073.5 15634.4 39448.5 15634.4 Q 39853.5 15634.4 40101 15439.4 Q 40348.5 15244.4 40348.5 14989.4 Q 40348.5 14516.9 39456 14066.9 L 38766 13721.9 Q 36786 12724.4 36786 11224.4 Q 36786 10256.9 37532.25 9570.65 Q 38278.5 8884.4 39441 8884.4 Q 40236 8884.4 40937.25 9233.15 Q 41638.5 9581.9 42126 10234.4  Z M 49902.8 5734.4 L 52497.8 5734.4 Q 51162.8 7241.9 50506.55 9004.4 Q 49850.3 10766.9 49850.3 13031.9 Q 49850.3 15484.4 50577.8 17344.4 Q 51147.8 18776.9 52497.8 20449.4 L 49902.8 20449.4 Q 48702.8 18544.4 48226.55 16883.15 Q 47750.3 15221.9 47750.3 12971.9 Q 47750.3 10766.9 48252.8 9109.4 Q 48755.3 7451.9 49902.8 5734.4  Z M 59903.4 9094.4 L 61943.4 9094.4 L 61943.4 16084.4 Q 61943.4 18154.4 61110.9 19129.4 Q 59993.4 20449.4 57743.4 20449.4 Q 56543.4 20449.4 55725.9 20149.4 Q 54908.4 19849.4 54345.9 19268.15 Q 53783.4 18686.9 53513.4 17854.4 L 55770.9 17854.4 Q 56070.9 18199.4 56543.4 18375.65 Q 57015.9 18551.9 57660.9 18551.9 Q 58485.9 18551.9 58988.4 18296.9 Q 59490.9 18041.9 59697.15 17636.9 Q 59903.4 17231.9 59903.4 16241.9 Q 59363.4 16781.9 58770.9 17018.15 Q 58178.4 17254.4 57428.4 17254.4 Q 55785.9 17254.4 54653.4 16069.4 Q 53520.9 14884.4 53520.9 13069.4 Q 53520.9 11126.9 54720.9 9949.4 Q 55808.4 8884.4 57315.9 8884.4 Q 58020.9 8884.4 58647.15 9143.15 Q 59273.4 9401.9 59903.4 9994.4 L 59903.4 9094.4 Z M 57780.9 10796.9 Q 56813.4 10796.9 56183.4 11445.65 Q 55553.4 12094.4 55553.4 13076.9 Q 55553.4 14096.9 56198.4 14749.4 Q 56843.4 15401.9 57818.4 15401.9 Q 58770.9 15401.9 59389.65 14764.4 Q 60008.4 14126.9 60008.4 13091.9 Q 60008.4 12071.9 59385.9 11434.4 Q 58763.4 10796.9 57780.9 10796.9  Z M 63793.5 5944.4 L 65841 5944.4 L 65841 17254.4 L 63793.5 17254.4 L 63793.5 5944.4 Z M 71478.7 8884.4 Q 72633.7 8884.4 73649.95 9461.9 Q 74666.2 10039.4 75236.2 11029.4 Q 75806.2 12019.4 75806.2 13166.9 Q 75806.2 14321.9 75232.45 15326.9 Q 74658.7 16331.9 73668.7 16898.15 Q 72678.7 17464.4 71486.2 17464.4 Q 69731.2 17464.4 68489.95 16215.65 Q 67248.7 14966.9 67248.7 13181.9 Q 67248.7 11269.4 68651.2 9994.4 Q 69881.2 8884.4 71478.7 8884.4  Z M 71508.7 10811.9 Q 70556.2 10811.9 69922.45 11475.65 Q 69288.7 12139.4 69288.7 13174.4 Q 69288.7 14239.4 69914.95 14899.4 Q 70541.2 15559.4 71501.2 15559.4 Q 72461.2 15559.4 73098.7 14891.9 Q 73736.2 14224.4 73736.2 13174.4 Q 73736.2 12124.4 73109.95 11468.15 Q 72483.7 10811.9 71508.7 10811.9  Z M 79509.1 5944.4 L 79509.1 9994.4 Q 80064.1 9439.4 80709.1 9161.9 Q 81354.1 8884.4 82089.1 8884.4 Q 83686.6 8884.4 84804.1 10091.9 Q 85921.6 11299.4 85921.6 13189.4 Q 85921.6 15011.9 84766.6 16238.15 Q 83611.6 17464.4 82029.1 17464.4 Q 81324.1 17464.4 80716.6 17213.15 Q 80109.1 16961.9 79509.1 16391.9 L 79509.1 17254.4 L 77476.6 17254.4 L 77476.6 5944.4 L 79509.1 5944.4 Z M 81661.6 10774.4 Q 80694.1 10774.4 80056.6 11434.4 Q 79419.1 12094.4 79419.1 13159.4 Q 79419.1 14246.9 80056.6 14918.15 Q 80694.1 15589.4 81661.6 15589.4 Q 82599.1 15589.4 83240.35 14906.9 Q 83881.6 14224.4 83881.6 13166.9 Q 83881.6 12116.9 83251.6 11445.65 Q 82621.6 10774.4 81661.6 10774.4  Z M 93644.2 9094.4 L 95684.2 9094.4 L 95684.2 17254.4 L 93644.2 17254.4 L 93644.2 16391.9 Q 93044.2 16961.9 92440.45 17213.15 Q 91836.7 17464.4 91131.7 17464.4 Q 89549.2 17464.4 88394.2 16238.15 Q 87239.2 15011.9 87239.2 13189.4 Q 87239.2 11299.4 88356.7 10091.9 Q 89474.2 8884.4 91071.7 8884.4 Q 91806.7 8884.4 92451.7 9161.9 Q 93096.7 9439.4 93644.2 9994.4 L 93644.2 9094.4 Z M 91491.7 10774.4 Q 90539.2 10774.4 89909.2 11445.65 Q 89279.2 12116.9 89279.2 13166.9 Q 89279.2 14224.4 89920.45 14906.9 Q 90561.7 15589.4 91499.2 15589.4 Q 92466.7 15589.4 93104.2 14918.15 Q 93741.7 14246.9 93741.7 13159.4 Q 93741.7 12094.4 93104.2 11434.4 Q 92466.7 10774.4 91491.7 10774.4  Z M 97534.3 5944.4 L 99581.8 5944.4 L 99581.8 17254.4 L 97534.3 17254.4 L 97534.3 5944.4 Z M 103344.5 20449.4 L 100749.5 20449.4 Q 102084.5 18941.9 102740.75 17183.15 Q 103397 15424.4 103397 13151.9 Q 103397 10699.4 102669.5 8846.9 Q 102099.5 7414.4 100749.5 5734.4 L 103344.5 5734.4 Q 104544.5 7639.4 105020.75 9300.65 Q 105497 10961.9 105497 13211.9 Q 105497 15416.9 104994.5 17074.4 Q 104492 18731.9 103344.5 20449.4  Z " fill-rule="nonzero" style="fill:#000000;;fill-opacity:1;"/>
</svg>