<svg version="1.1" x="0" y="0" width="100%" height="100%" viewBox="0 0 160921.6 62566.4" xmlns="http://www.w3.org/2000/svg">
  <path d="M 20636 11531.2 L 19244 12599.2 Q 18092 11099.2 16478 10325.2 Q 14864 9551.2 12932 9551.2 Q 10820 9551.2 9020 10565.2 Q 7220 11579.2 6230 13289.2 Q 5240 14999.2 5240 17135.2 Q 5240 20363.2 7454 22523.2 Q 9668 24683.2 13040 24683.2 Q 16748 24683.2 19244 21779.2 L 20636 22835.2 Q 19316 24515.2 17342 25433.2 Q 15368 26351.2 12932 26351.2 Q 8300 26351.2 5624 23267.2 Q 3380 20663.2 3380 16979.2 Q 3380 13103.2 6098 10457.2 Q 8816 7811.2 12908 7811.2 Q 15380 7811.2 17372 8789.2 Q 19364 9767.2 20636 11531.2  Z M 36896 12851.2 L 36896 25907.2 L 35240 25907.2 L 35240 23663.2 Q 34184 24947.2 32870 25595.2 Q 31556 26243.2 29996 26243.2 Q 27224 26243.2 25262 24233.2 Q 23300 22223.2 23300 19343.2 Q 23300 16523.2 25280 14519.2 Q 27260 12515.2 30044 12515.2 Q 31652 12515.2 32954 13199.2 Q 34256 13883.2 35240 15251.2 L 35240 12851.2 L 36896 12851.2 Z M 30176 14135.2 Q 28772 14135.2 27584 14825.2 Q 26396 15515.2 25694 16763.2 Q 24992 18011.2 24992 19403.2 Q 24992 20783.2 25700 22043.2 Q 26408 23303.2 27602 24005.2 Q 28796 24707.2 30164 24707.2 Q 31544 24707.2 32780 24011.2 Q 34016 23315.2 34682 22127.2 Q 35348 20939.2 35348 19451.2 Q 35348 17183.2 33854 15659.2 Q 32360 14135.2 30176 14135.2  Z M 40378.4 7811.2 L 42058.4 7811.2 L 42058.4 25907.2 L 40378.4 25907.2 L 40378.4 7811.2 Z M 58217.6 15563.2 L 56885.6 16391.2 Q 55157.6 14099.2 52169.6 14099.2 Q 49781.6 14099.2 48203.6 15635.2 Q 46625.6 17171.2 46625.6 19367.2 Q 46625.6 20795.2 47351.6 22055.2 Q 48077.6 23315.2 49343.6 24011.2 Q 50609.6 24707.2 52181.6 24707.2 Q 55061.6 24707.2 56885.6 22415.2 L 58217.6 23291.2 Q 57281.6 24695.2 55703.6 25469.2 Q 54125.6 26243.2 52109.6 26243.2 Q 49013.6 26243.2 46973.6 24275.2 Q 44933.6 22307.2 44933.6 19487.2 Q 44933.6 17591.2 45887.6 15965.2 Q 46841.6 14339.2 48509.6 13427.2 Q 50177.6 12515.2 52241.6 12515.2 Q 53537.6 12515.2 54743.6 12911.2 Q 55949.6 13307.2 56789.6 13943.2 Q 57629.6 14579.2 58217.6 15563.2  Z M 61201.6 12851.2 L 62893.6 12851.2 L 62893.6 18947.2 Q 62893.6 21179.2 63133.6 22019.2 Q 63493.6 23219.2 64507.6 23915.2 Q 65521.6 24611.2 66925.6 24611.2 Q 68329.6 24611.2 69307.6 23933.2 Q 70285.6 23255.2 70657.6 22151.2 Q 70909.6 21395.2 70909.6 18947.2 L 70909.6 12851.2 L 72625.6 12851.2 L 72625.6 19259.2 Q 72625.6 21959.2 71995.6 23327.2 Q 71365.6 24695.2 70099.6 25469.2 Q 68833.6 26243.2 66925.6 26243.2 Q 65017.6 26243.2 63739.6 25469.2 Q 62461.6 24695.2 61831.6 23309.2 Q 61201.6 21923.2 61201.6 19139.2 L 61201.6 12851.2 Z M 76064.8 7811.2 L 77744.8 7811.2 L 77744.8 25907.2 L 76064.8 25907.2 L 76064.8 7811.2 Z M 94240 12851.2 L 94240 25907.2 L 92584 25907.2 L 92584 23663.2 Q 91528 24947.2 90214 25595.2 Q 88900 26243.2 87340 26243.2 Q 84568 26243.2 82606 24233.2 Q 80644 22223.2 80644 19343.2 Q 80644 16523.2 82624 14519.2 Q 84604 12515.2 87388 12515.2 Q 88996 12515.2 90298 13199.2 Q 91600 13883.2 92584 15251.2 L 92584 12851.2 L 94240 12851.2 Z M 87520 14135.2 Q 86116 14135.2 84928 14825.2 Q 83740 15515.2 83038 16763.2 Q 82336 18011.2 82336 19403.2 Q 82336 20783.2 83044 22043.2 Q 83752 23303.2 84946 24005.2 Q 86140 24707.2 87508 24707.2 Q 88888 24707.2 90124 24011.2 Q 91360 23315.2 92026 22127.2 Q 92692 20939.2 92692 19451.2 Q 92692 17183.2 91198 15659.2 Q 89704 14135.2 87520 14135.2  Z M 99438.4 8003.2 L 101130.4 8003.2 L 101130.4 12851.2 L 103794.4 12851.2 L 103794.4 14291.2 L 101130.4 14291.2 L 101130.4 25907.2 L 99438.4 25907.2 L 99438.4 14291.2 L 97146.4 14291.2 L 97146.4 12851.2 L 99438.4 12851.2 L 99438.4 8003.2 Z M 106856.8 7475.2 Q 107432.8 7475.2 107840.8 7883.2 Q 108248.8 8291.2 108248.8 8867.2 Q 108248.8 9431.2 107840.8 9839.2 Q 107432.8 10247.2 106856.8 10247.2 Q 106292.8 10247.2 105884.8 9839.2 Q 105476.8 9431.2 105476.8 8867.2 Q 105476.8 8291.2 105884.8 7883.2 Q 106292.8 7475.2 106856.8 7475.2  Z M 106016.8 12851.2 L 107708.8 12851.2 L 107708.8 25907.2 L 106016.8 25907.2 L 106016.8 12851.2 Z M 117364 12515.2 Q 120376 12515.2 122356 14699.2 Q 124156 16691.2 124156 19415.2 Q 124156 22151.2 122254 24197.2 Q 120352 26243.2 117364 26243.2 Q 114364 26243.2 112462 24197.2 Q 110560 22151.2 110560 19415.2 Q 110560 16703.2 112360 14711.2 Q 114340 12515.2 117364 12515.2  Z M 117364 14159.2 Q 115276 14159.2 113776 15707.2 Q 112276 17255.2 112276 19451.2 Q 112276 20867.2 112960 22091.2 Q 113644 23315.2 114808 23981.2 Q 115972 24647.2 117364 24647.2 Q 118756 24647.2 119920 23981.2 Q 121084 23315.2 121768 22091.2 Q 122452 20867.2 122452 19451.2 Q 122452 17255.2 120946 15707.2 Q 119440 14159.2 117364 14159.2  Z M 127260.8 12851.2 L 128940.8 12851.2 L 128940.8 15191.2 Q 129948.8 13847.2 131172.8 13181.2 Q 132396.8 12515.2 133836.8 12515.2 Q 135300.8 12515.2 136434.8 13259.2 Q 137568.8 14003.2 138108.8 15263.2 Q 138648.8 16523.2 138648.8 19187.2 L 138648.8 25907.2 L 136980.8 25907.2 L 136980.8 19679.2 Q 136980.8 17423.2 136788.8 16667.2 Q 136488.8 15371.2 135660.8 14717.2 Q 134832.8 14063.2 133500.8 14063.2 Q 131976.8 14063.2 130770.8 15071.2 Q 129564.8 16079.2 129180.8 17567.2 Q 128940.8 18539.2 128940.8 21119.2 L 128940.8 25907.2 L 127260.8 25907.2 L 127260.8 12851.2 Z M 7688 36710.4 L 9632 36710.4 Q 8456 39122.4 7748 42338.4 Q 7040 45554.4 7040 48974.4 Q 7040 52142.4 7574 55082.4 Q 8108 58022.4 9044 60254.4 L 7196 60254.4 Q 6308 58118.4 5780 55226.4 Q 5252 52334.4 5252 49202.4 Q 5252 45830.4 5876 42632.4 Q 6500 39434.4 7688 36710.4  Z M 11434.4 51854.4 L 12934.4 50954.4 Q 14518.4 53870.4 16594.4 53870.4 Q 17482.4 53870.4 18262.4 53456.4 Q 19042.4 53042.4 19450.4 52346.4 Q 19858.4 51650.4 19858.4 50870.4 Q 19858.4 49982.4 19258.4 49130.4 Q 18430.4 47954.4 16234.4 46298.4 Q 14026.4 44630.4 13486.4 43886.4 Q 12550.4 42638.4 12550.4 41186.4 Q 12550.4 40034.4 13102.4 39086.4 Q 13654.4 38138.4 14656.4 37592.4 Q 15658.4 37046.4 16834.4 37046.4 Q 18082.4 37046.4 19168.4 37664.4 Q 20254.4 38282.4 21466.4 39938.4 L 20026.4 41030.4 Q 19030.4 39710.4 18328.4 39290.4 Q 17626.4 38870.4 16798.4 38870.4 Q 15730.4 38870.4 15052.4 39518.4 Q 14374.4 40166.4 14374.4 41114.4 Q 14374.4 41690.4 14614.4 42230.4 Q 14854.4 42770.4 15490.4 43406.4 Q 15838.4 43742.4 17770.4 45170.4 Q 20062.4 46862.4 20914.4 48182.4 Q 21766.4 49502.4 21766.4 50834.4 Q 21766.4 52754.4 20308.4 54170.4 Q 18850.4 55586.4 16762.4 55586.4 Q 15154.4 55586.4 13846.4 54728.4 Q 12538.4 53870.4 11434.4 51854.4  Z M 26683.2 37238.4 L 28375.2 37238.4 L 28375.2 42086.4 L 31039.2 42086.4 L 31039.2 43526.4 L 28375.2 43526.4 L 28375.2 55142.4 L 26683.2 55142.4 L 26683.2 43526.4 L 24391.2 43526.4 L 24391.2 42086.4 L 26683.2 42086.4 L 26683.2 37238.4 Z M 46521.6 42086.4 L 46521.6 55142.4 L 44865.6 55142.4 L 44865.6 52898.4 Q 43809.6 54182.4 42495.6 54830.4 Q 41181.6 55478.4 39621.6 55478.4 Q 36849.6 55478.4 34887.6 53468.4 Q 32925.6 51458.4 32925.6 48578.4 Q 32925.6 45758.4 34905.6 43754.4 Q 36885.6 41750.4 39669.6 41750.4 Q 41277.6 41750.4 42579.6 42434.4 Q 43881.6 43118.4 44865.6 44486.4 L 44865.6 42086.4 L 46521.6 42086.4 Z M 39801.6 43370.4 Q 38397.6 43370.4 37209.6 44060.4 Q 36021.6 44750.4 35319.6 45998.4 Q 34617.6 47246.4 34617.6 48638.4 Q 34617.6 50018.4 35325.6 51278.4 Q 36033.6 52538.4 37227.6 53240.4 Q 38421.6 53942.4 39789.6 53942.4 Q 41169.6 53942.4 42405.6 53246.4 Q 43641.6 52550.4 44307.6 51362.4 Q 44973.6 50174.4 44973.6 48686.4 Q 44973.6 46418.4 43479.6 44894.4 Q 41985.6 43370.4 39801.6 43370.4  Z M 51720 37238.4 L 53412 37238.4 L 53412 42086.4 L 56076 42086.4 L 56076 43526.4 L 53412 43526.4 L 53412 55142.4 L 51720 55142.4 L 51720 43526.4 L 49428 43526.4 L 49428 42086.4 L 51720 42086.4 L 51720 37238.4 Z M 59138.4 36710.4 Q 59714.4 36710.4 60122.4 37118.4 Q 60530.4 37526.4 60530.4 38102.4 Q 60530.4 38666.4 60122.4 39074.4 Q 59714.4 39482.4 59138.4 39482.4 Q 58574.4 39482.4 58166.4 39074.4 Q 57758.4 38666.4 57758.4 38102.4 Q 57758.4 37526.4 58166.4 37118.4 Q 58574.4 36710.4 59138.4 36710.4  Z M 58298.4 42086.4 L 59990.4 42086.4 L 59990.4 55142.4 L 58298.4 55142.4 L 58298.4 42086.4 Z M 70029.6 43514.4 L 68949.6 44630.4 Q 67605.6 43322.4 66321.6 43322.4 Q 65505.6 43322.4 64923.6 43862.4 Q 64341.6 44402.4 64341.6 45122.4 Q 64341.6 45758.4 64821.6 46334.4 Q 65301.6 46922.4 66837.6 47714.4 Q 68709.6 48686.4 69381.6 49586.4 Q 70041.6 50498.4 70041.6 51638.4 Q 70041.6 53246.4 68913.6 54362.4 Q 67785.6 55478.4 66093.6 55478.4 Q 64965.6 55478.4 63939.6 54986.4 Q 62913.6 54494.4 62241.6 53630.4 L 63297.6 52430.4 Q 64581.6 53882.4 66021.6 53882.4 Q 67029.6 53882.4 67737.6 53234.4 Q 68445.6 52586.4 68445.6 51710.4 Q 68445.6 50990.4 67977.6 50426.4 Q 67509.6 49874.4 65865.6 49034.4 Q 64101.6 48122.4 63465.6 47234.4 Q 62829.6 46346.4 62829.6 45206.4 Q 62829.6 43718.4 63843.6 42734.4 Q 64857.6 41750.4 66405.6 41750.4 Q 68205.6 41750.4 70029.6 43514.4  Z M 74452.8 37238.4 L 76144.8 37238.4 L 76144.8 42086.4 L 78808.8 42086.4 L 78808.8 43526.4 L 76144.8 43526.4 L 76144.8 55142.4 L 74452.8 55142.4 L 74452.8 43526.4 L 72160.8 43526.4 L 72160.8 42086.4 L 74452.8 42086.4 L 74452.8 37238.4 Z M 81871.2 36710.4 Q 82447.2 36710.4 82855.2 37118.4 Q 83263.2 37526.4 83263.2 38102.4 Q 83263.2 38666.4 82855.2 39074.4 Q 82447.2 39482.4 81871.2 39482.4 Q 81307.2 39482.4 80899.2 39074.4 Q 80491.2 38666.4 80491.2 38102.4 Q 80491.2 37526.4 80899.2 37118.4 Q 81307.2 36710.4 81871.2 36710.4  Z M 81031.2 42086.4 L 82723.2 42086.4 L 82723.2 55142.4 L 81031.2 55142.4 L 81031.2 42086.4 Z M 98870.4 44798.4 L 97538.4 45626.4 Q 95810.4 43334.4 92822.4 43334.4 Q 90434.4 43334.4 88856.4 44870.4 Q 87278.4 46406.4 87278.4 48602.4 Q 87278.4 50030.4 88004.4 51290.4 Q 88730.4 52550.4 89996.4 53246.4 Q 91262.4 53942.4 92834.4 53942.4 Q 95714.4 53942.4 97538.4 51650.4 L 98870.4 52526.4 Q 97934.4 53930.4 96356.4 54704.4 Q 94778.4 55478.4 92762.4 55478.4 Q 89666.4 55478.4 87626.4 53510.4 Q 85586.4 51542.4 85586.4 48722.4 Q 85586.4 46826.4 86540.4 45200.4 Q 87494.4 43574.4 89162.4 42662.4 Q 90830.4 41750.4 92894.4 41750.4 Q 94190.4 41750.4 95396.4 42146.4 Q 96602.4 42542.4 97442.4 43178.4 Q 98282.4 43814.4 98870.4 44798.4  Z M 108634.4 43514.4 L 107554.4 44630.4 Q 106210.4 43322.4 104926.4 43322.4 Q 104110.4 43322.4 103528.4 43862.4 Q 102946.4 44402.4 102946.4 45122.4 Q 102946.4 45758.4 103426.4 46334.4 Q 103906.4 46922.4 105442.4 47714.4 Q 107314.4 48686.4 107986.4 49586.4 Q 108646.4 50498.4 108646.4 51638.4 Q 108646.4 53246.4 107518.4 54362.4 Q 106390.4 55478.4 104698.4 55478.4 Q 103570.4 55478.4 102544.4 54986.4 Q 101518.4 54494.4 100846.4 53630.4 L 101902.4 52430.4 Q 103186.4 53882.4 104626.4 53882.4 Q 105634.4 53882.4 106342.4 53234.4 Q 107050.4 52586.4 107050.4 51710.4 Q 107050.4 50990.4 106582.4 50426.4 Q 106114.4 49874.4 104470.4 49034.4 Q 102706.4 48122.4 102070.4 47234.4 Q 101434.4 46346.4 101434.4 45206.4 Q 101434.4 43718.4 102448.4 42734.4 Q 103462.4 41750.4 105010.4 41750.4 Q 106810.4 41750.4 108634.4 43514.4  Z M 113153.6 60254.4 L 111209.6 60254.4 Q 112397.6 57842.4 113099.6 54626.4 Q 113801.6 51410.4 113801.6 47990.4 Q 113801.6 44822.4 113267.6 41882.4 Q 112733.6 38942.4 111797.6 36710.4 L 113645.6 36710.4 Q 114545.6 38846.4 115067.6 41744.4 Q 115589.6 44642.4 115589.6 47774.4 Q 115589.6 51134.4 114965.6 54332.4 Q 114341.6 57530.4 113153.6 60254.4  Z " fill-rule="nonzero" style="fill:#000000;;fill-opacity:1;"/>
</svg>